G04 ---------------------------- Layer name :TOP SILK LAYER*
G04 EasyEDA v5.6.15, Thu, 09 Aug 2018 00:10:23 GMT*
G04 1eb12ba90bff44d893ac4b1b4a3eba8c*
G04 Gerber Generator version 0.2*
G04 Scale: 100 percent, Rotated: No, Reflected: No *
G04 Dimensions in millimeters *
G04 leading zeros omitted , absolute positions ,3 integer and 3 decimal *
%FSLAX33Y33*%
%MOMM*%
G90*
G71D02*

%ADD10C,0.254000*%
%ADD11C,0.399999*%
%ADD15C,0.177800*%
%ADD16C,0.203200*%
%ADD17C,0.178003*%
%ADD35C,0.119990*%
%ADD36C,0.249999*%
%ADD37C,0.330200*%
%ADD38C,0.202999*%
%ADD39C,0.299999*%
%ADD40C,0.899998*%

%LPD*%
G54D35*
G01X14587Y16842D02*
G01X14587Y20604D01*
G01X13324Y20604D01*
G01X7764Y14594D02*
G01X7764Y20604D01*
G01X9027Y20604D01*
G54D10*
G01X35991Y17932D02*
G01X36093Y17932D01*
G01X36093Y16611D01*
G01X35991Y16611D01*
G01X32588Y16611D02*
G01X32435Y16611D01*
G01X32435Y17932D01*
G01X32588Y17932D01*
G01X68171Y24521D02*
G01X66169Y24521D01*
G01X66169Y25521D01*
G01X74170Y30520D02*
G01X76169Y30520D01*
G01X76169Y29519D01*
G01X66169Y29519D02*
G01X66169Y30520D01*
G01X68171Y30520D01*
G01X76169Y25521D02*
G01X76169Y24521D01*
G01X74170Y24521D01*
G54D36*
G01X58379Y29931D02*
G01X58379Y24932D01*
G01X58379Y24932D02*
G01X53380Y24932D01*
G01X53380Y29931D02*
G01X53380Y24932D01*
G01X58379Y29933D02*
G01X53380Y29933D01*
G01X43395Y29931D02*
G01X43395Y24932D01*
G01X43395Y24932D02*
G01X38394Y24932D01*
G01X38394Y29931D02*
G01X38394Y24932D01*
G01X43395Y29933D02*
G01X38394Y29933D01*
G01X28407Y29931D02*
G01X28407Y24932D01*
G01X28407Y24932D02*
G01X23408Y24932D01*
G01X23408Y29931D02*
G01X23408Y24932D01*
G01X28407Y29933D02*
G01X23408Y29933D01*
G01X13423Y29931D02*
G01X13423Y24932D01*
G01X13423Y24932D02*
G01X8422Y24932D01*
G01X8422Y29931D02*
G01X8422Y24932D01*
G01X13423Y29933D02*
G01X8422Y29933D01*
G54D37*
G01X64637Y9255D02*
G01X64637Y7508D01*
G54D10*
G01X63312Y9309D02*
G01X65112Y9309D01*
G01X65112Y7454D01*
G01X62113Y9309D02*
G01X60838Y9309D01*
G01X60838Y7454D01*
G01X60838Y7454D02*
G01X62113Y7454D01*
G01X63312Y7454D02*
G01X65112Y7454D01*
G54D37*
G01X11054Y4206D02*
G01X11054Y5953D01*
G54D10*
G01X12379Y4152D02*
G01X10579Y4152D01*
G01X10579Y6007D01*
G01X13578Y4152D02*
G01X14853Y4152D01*
G01X14853Y6007D01*
G01X14853Y6007D02*
G01X13578Y6007D01*
G01X12379Y6007D02*
G01X10579Y6007D01*
G54D37*
G01X11054Y2428D02*
G01X11054Y4175D01*
G54D10*
G01X12379Y2374D02*
G01X10579Y2374D01*
G01X10579Y4229D01*
G01X13578Y2374D02*
G01X14853Y2374D01*
G01X14853Y4229D01*
G01X14853Y4229D02*
G01X13578Y4229D01*
G01X12379Y4229D02*
G01X10579Y4229D01*
G01X59695Y19397D02*
G01X59695Y8796D01*
G01X54897Y8796D01*
G01X54897Y19397D01*
G01X59695Y19397D01*
G01X59197Y8796D02*
G01X59197Y19397D01*
G01X22451Y11783D02*
G01X28348Y11783D01*
G01X28348Y17680D01*
G01X22451Y17680D01*
G01X22451Y11783D01*
G54D16*
G01X29210Y5842D02*
G01X26670Y5842D01*
G01X26670Y8382D01*
G01X29210Y8382D01*
G01X29210Y6477D01*
G54D38*
G01X29210Y5842D02*
G01X29210Y6477D01*
G54D16*
G01X32004Y5842D02*
G01X29464Y5842D01*
G01X29464Y8382D01*
G01X32004Y8382D01*
G01X32004Y6477D01*
G54D38*
G01X32004Y5842D02*
G01X32004Y6477D01*
G54D16*
G01X35306Y5842D02*
G01X32766Y5842D01*
G01X32766Y8382D01*
G01X35306Y8382D01*
G01X35306Y6477D01*
G54D38*
G01X35306Y5842D02*
G01X35306Y6477D01*
G54D16*
G01X42418Y5842D02*
G01X39878Y5842D01*
G01X39878Y8382D01*
G01X42418Y8382D01*
G01X42418Y6477D01*
G54D38*
G01X42418Y5842D02*
G01X42418Y6477D01*
G54D16*
G01X18034Y5842D02*
G01X15494Y5842D01*
G01X15494Y8382D01*
G01X18034Y8382D01*
G01X18034Y6477D01*
G54D38*
G01X18034Y5842D02*
G01X18034Y6477D01*
G54D37*
G01X16113Y22230D02*
G01X14366Y22230D01*
G54D10*
G01X16167Y23555D02*
G01X16167Y21755D01*
G01X14312Y21755D01*
G01X16167Y24754D02*
G01X16167Y26029D01*
G01X14312Y26029D01*
G01X14312Y26029D02*
G01X14312Y24754D01*
G01X14312Y23555D02*
G01X14312Y21755D01*
G54D37*
G01X18145Y22230D02*
G01X16398Y22230D01*
G54D10*
G01X18199Y23555D02*
G01X18199Y21755D01*
G01X16344Y21755D01*
G01X18199Y24754D02*
G01X18199Y26029D01*
G01X16344Y26029D01*
G01X16344Y26029D02*
G01X16344Y24754D01*
G01X16344Y23555D02*
G01X16344Y21755D01*
G54D37*
G01X20177Y22230D02*
G01X18430Y22230D01*
G54D10*
G01X20231Y23555D02*
G01X20231Y21755D01*
G01X18376Y21755D01*
G01X20231Y24754D02*
G01X20231Y26029D01*
G01X18376Y26029D01*
G01X18376Y26029D02*
G01X18376Y24754D01*
G01X18376Y23555D02*
G01X18376Y21755D01*
G54D37*
G01X22209Y22230D02*
G01X20462Y22230D01*
G54D10*
G01X22263Y23555D02*
G01X22263Y21755D01*
G01X20408Y21755D01*
G01X22263Y24754D02*
G01X22263Y26029D01*
G01X20408Y26029D01*
G01X20408Y26029D02*
G01X20408Y24754D01*
G01X20408Y23555D02*
G01X20408Y21755D01*
G54D37*
G01X47619Y4683D02*
G01X47619Y2936D01*
G54D10*
G01X46294Y4737D02*
G01X48094Y4737D01*
G01X48094Y2882D01*
G01X45095Y4737D02*
G01X43820Y4737D01*
G01X43820Y2882D01*
G01X43820Y2882D02*
G01X45095Y2882D01*
G01X46294Y2882D02*
G01X48094Y2882D01*
G54D37*
G01X47619Y6969D02*
G01X47619Y5222D01*
G54D10*
G01X46294Y7023D02*
G01X48094Y7023D01*
G01X48094Y5168D01*
G01X45095Y7023D02*
G01X43820Y7023D01*
G01X43820Y5168D01*
G01X43820Y5168D02*
G01X45095Y5168D01*
G01X46294Y5168D02*
G01X48094Y5168D01*
G54D37*
G01X31099Y22230D02*
G01X29352Y22230D01*
G54D10*
G01X31153Y23555D02*
G01X31153Y21755D01*
G01X29298Y21755D01*
G01X31153Y24754D02*
G01X31153Y26029D01*
G01X29298Y26029D01*
G01X29298Y26029D02*
G01X29298Y24754D01*
G01X29298Y23555D02*
G01X29298Y21755D01*
G54D37*
G01X33131Y22230D02*
G01X31384Y22230D01*
G54D10*
G01X33185Y23555D02*
G01X33185Y21755D01*
G01X31330Y21755D01*
G01X33185Y24754D02*
G01X33185Y26029D01*
G01X31330Y26029D01*
G01X31330Y26029D02*
G01X31330Y24754D01*
G01X31330Y23555D02*
G01X31330Y21755D01*
G54D37*
G01X35163Y22230D02*
G01X33416Y22230D01*
G54D10*
G01X35217Y23555D02*
G01X35217Y21755D01*
G01X33362Y21755D01*
G01X35217Y24754D02*
G01X35217Y26029D01*
G01X33362Y26029D01*
G01X33362Y26029D02*
G01X33362Y24754D01*
G01X33362Y23555D02*
G01X33362Y21755D01*
G54D37*
G01X37195Y22230D02*
G01X35448Y22230D01*
G54D10*
G01X37249Y23555D02*
G01X37249Y21755D01*
G01X35394Y21755D01*
G01X37249Y24754D02*
G01X37249Y26029D01*
G01X35394Y26029D01*
G01X35394Y26029D02*
G01X35394Y24754D01*
G01X35394Y23555D02*
G01X35394Y21755D01*
G54D37*
G01X45577Y22230D02*
G01X43830Y22230D01*
G54D10*
G01X45631Y23555D02*
G01X45631Y21755D01*
G01X43776Y21755D01*
G01X45631Y24754D02*
G01X45631Y26029D01*
G01X43776Y26029D01*
G01X43776Y26029D02*
G01X43776Y24754D01*
G01X43776Y23555D02*
G01X43776Y21755D01*
G54D37*
G01X48879Y22230D02*
G01X47132Y22230D01*
G54D10*
G01X48933Y23555D02*
G01X48933Y21755D01*
G01X47078Y21755D01*
G01X48933Y24754D02*
G01X48933Y26029D01*
G01X47078Y26029D01*
G01X47078Y26029D02*
G01X47078Y24754D01*
G01X47078Y23555D02*
G01X47078Y21755D01*
G54D37*
G01X50911Y22230D02*
G01X49164Y22230D01*
G54D10*
G01X50965Y23555D02*
G01X50965Y21755D01*
G01X49110Y21755D01*
G01X50965Y24754D02*
G01X50965Y26029D01*
G01X49110Y26029D01*
G01X49110Y26029D02*
G01X49110Y24754D01*
G01X49110Y23555D02*
G01X49110Y21755D01*
G54D37*
G01X52943Y22230D02*
G01X51196Y22230D01*
G54D10*
G01X52997Y23555D02*
G01X52997Y21755D01*
G01X51142Y21755D01*
G01X52997Y24754D02*
G01X52997Y26029D01*
G01X51142Y26029D01*
G01X51142Y26029D02*
G01X51142Y24754D01*
G01X51142Y23555D02*
G01X51142Y21755D01*
G54D37*
G01X25511Y4958D02*
G01X23764Y4958D01*
G54D10*
G01X25565Y6283D02*
G01X25565Y4483D01*
G01X23710Y4483D01*
G01X25565Y7482D02*
G01X25565Y8757D01*
G01X23710Y8757D01*
G01X23710Y8757D02*
G01X23710Y7482D01*
G01X23710Y6283D02*
G01X23710Y4483D01*
G54D37*
G01X23225Y4958D02*
G01X21478Y4958D01*
G54D10*
G01X23279Y6283D02*
G01X23279Y4483D01*
G01X21424Y4483D01*
G01X23279Y7482D02*
G01X23279Y8757D01*
G01X21424Y8757D01*
G01X21424Y8757D02*
G01X21424Y7482D01*
G01X21424Y6283D02*
G01X21424Y4483D01*
G54D37*
G01X20431Y4958D02*
G01X18684Y4958D01*
G54D10*
G01X20485Y6283D02*
G01X20485Y4483D01*
G01X18630Y4483D01*
G01X20485Y7482D02*
G01X20485Y8757D01*
G01X18630Y8757D01*
G01X18630Y8757D02*
G01X18630Y7482D01*
G01X18630Y6283D02*
G01X18630Y4483D01*
G01X10414Y8636D02*
G01X14986Y8636D01*
G01X14986Y6096D01*
G01X10160Y6096D01*
G01X10160Y8636D01*
G01X10414Y8636D01*
G01X7874Y27178D02*
G01X7874Y22606D01*
G01X5334Y22606D01*
G01X5334Y27432D01*
G01X7874Y27432D01*
G01X7874Y27178D01*
G01X37592Y5842D02*
G01X37592Y2286D01*
G01X24638Y4318D02*
G01X24638Y2286D01*
G01X22352Y4318D02*
G01X22352Y2286D01*
G01X46990Y20828D02*
G01X46990Y19812D01*
G01X37338Y7620D02*
G01X37846Y7620D01*
G01X38100Y7366D01*
G01X38100Y6858D01*
G01X37846Y6604D01*
G01X37338Y6604D01*
G01X37084Y6858D01*
G01X37084Y7366D01*
G01X37338Y7620D01*
G01X35814Y6096D02*
G01X36068Y5842D01*
G01X39116Y5842D01*
G01X39370Y6096D01*
G01X39370Y8128D01*
G01X39116Y8382D01*
G01X36068Y8382D01*
G01X35814Y8128D01*
G01X35814Y6096D01*
G01X37338Y19304D02*
G01X58166Y19304D01*
G01X58166Y9398D01*
G01X37338Y9398D01*
G01X37338Y19050D01*
G54D39*
G01X6604Y9144D02*
G01X16764Y9144D01*
G01X17018Y9398D01*
G01X17018Y13970D01*
G01X16764Y14224D01*
G01X6604Y14224D01*
G01X6350Y13970D01*
G01X6350Y9398D01*
G01X6604Y9144D01*
G54D40*
G01X6604Y9596D02*
G01X16764Y9596D01*
G01X60706Y17581D02*
G01X70866Y17581D01*
G54D39*
G01X60706Y12755D02*
G01X70866Y12755D01*
G01X71120Y13009D01*
G01X71120Y17835D01*
G01X70866Y18089D01*
G01X60706Y18089D01*
G01X60452Y17835D01*
G01X60452Y13009D01*
G01X60706Y12755D01*
G54D11*
G01X40386Y20320D02*
G01X43942Y20320D01*
G01X43942Y19812D01*
G01X47498Y19812D01*
G01X47498Y20320D01*
G01X50800Y20320D01*
G01X47498Y20320D01*
G01X47498Y20828D01*
G01X43942Y20828D01*
G01X43942Y20320D01*
G01X71374Y30988D02*
G01X71374Y28702D01*
G54D15*
G01X10960Y18288D02*
G01X10505Y18288D01*
G01X10459Y17879D01*
G01X10505Y17924D01*
G01X10640Y17967D01*
G01X10777Y17967D01*
G01X10914Y17924D01*
G01X11005Y17833D01*
G01X11051Y17696D01*
G01X11051Y17604D01*
G01X11005Y17470D01*
G01X10914Y17378D01*
G01X10777Y17332D01*
G01X10640Y17332D01*
G01X10505Y17378D01*
G01X10459Y17424D01*
G01X10414Y17515D01*
G01X11351Y18288D02*
G01X11714Y17332D01*
G01X12077Y18288D02*
G01X11714Y17332D01*
G01X31496Y15506D02*
G01X31617Y15567D01*
G01X31798Y15748D01*
G01X31798Y14475D01*
G01X32926Y15567D02*
G01X32865Y15687D01*
G01X32682Y15748D01*
G01X32562Y15748D01*
G01X32379Y15687D01*
G01X32258Y15506D01*
G01X32199Y15204D01*
G01X32199Y14899D01*
G01X32258Y14658D01*
G01X32379Y14536D01*
G01X32562Y14475D01*
G01X32621Y14475D01*
G01X32804Y14536D01*
G01X32926Y14658D01*
G01X32984Y14838D01*
G01X32984Y14899D01*
G01X32926Y15082D01*
G01X32804Y15204D01*
G01X32621Y15262D01*
G01X32562Y15262D01*
G01X32379Y15204D01*
G01X32258Y15082D01*
G01X32199Y14899D01*
G01X33385Y15748D02*
G01X33385Y14475D01*
G01X33385Y15748D02*
G01X33868Y14475D01*
G01X34353Y15748D02*
G01X33868Y14475D01*
G01X34353Y15748D02*
G01X34353Y14475D01*
G01X34752Y15748D02*
G01X34752Y14475D01*
G01X35600Y15748D02*
G01X35600Y14475D01*
G01X34752Y15143D02*
G01X35600Y15143D01*
G01X36667Y15323D02*
G01X35999Y14475D01*
G01X35999Y15323D02*
G01X36667Y15323D01*
G01X35999Y14475D02*
G01X36667Y14475D01*
G01X59182Y30010D02*
G01X59182Y29055D01*
G01X59182Y29055D02*
G01X59728Y29055D01*
G01X60027Y30010D02*
G01X60027Y29055D01*
G01X60027Y30010D02*
G01X60617Y30010D01*
G01X60027Y29555D02*
G01X60391Y29555D01*
G01X60027Y29055D02*
G01X60617Y29055D01*
G01X60919Y30010D02*
G01X60919Y29055D01*
G01X60919Y30010D02*
G01X61236Y30010D01*
G01X61374Y29964D01*
G01X61462Y29872D01*
G01X61508Y29781D01*
G01X61554Y29646D01*
G01X61554Y29418D01*
G01X61508Y29281D01*
G01X61462Y29192D01*
G01X61374Y29100D01*
G01X61236Y29055D01*
G01X60919Y29055D01*
G01X62308Y30010D02*
G01X61854Y29372D01*
G01X62537Y29372D01*
G01X62308Y30010D02*
G01X62308Y29055D01*
G01X44196Y30010D02*
G01X44196Y29055D01*
G01X44196Y29055D02*
G01X44742Y29055D01*
G01X45041Y30010D02*
G01X45041Y29055D01*
G01X45041Y30010D02*
G01X45631Y30010D01*
G01X45041Y29555D02*
G01X45405Y29555D01*
G01X45041Y29055D02*
G01X45631Y29055D01*
G01X45933Y30010D02*
G01X45933Y29055D01*
G01X45933Y30010D02*
G01X46250Y30010D01*
G01X46388Y29964D01*
G01X46476Y29872D01*
G01X46522Y29781D01*
G01X46568Y29646D01*
G01X46568Y29418D01*
G01X46522Y29281D01*
G01X46476Y29192D01*
G01X46388Y29100D01*
G01X46250Y29055D01*
G01X45933Y29055D01*
G01X46959Y30010D02*
G01X47459Y30010D01*
G01X47188Y29646D01*
G01X47322Y29646D01*
G01X47414Y29601D01*
G01X47459Y29555D01*
G01X47505Y29418D01*
G01X47505Y29326D01*
G01X47459Y29192D01*
G01X47368Y29100D01*
G01X47231Y29055D01*
G01X47096Y29055D01*
G01X46959Y29100D01*
G01X46913Y29146D01*
G01X46868Y29237D01*
G01X29237Y30010D02*
G01X29237Y29055D01*
G01X29237Y29055D02*
G01X29784Y29055D01*
G01X30083Y30010D02*
G01X30083Y29055D01*
G01X30083Y30010D02*
G01X30673Y30010D01*
G01X30083Y29555D02*
G01X30446Y29555D01*
G01X30083Y29055D02*
G01X30673Y29055D01*
G01X30975Y30010D02*
G01X30975Y29055D01*
G01X30975Y30010D02*
G01X31292Y30010D01*
G01X31429Y29964D01*
G01X31518Y29872D01*
G01X31564Y29781D01*
G01X31610Y29646D01*
G01X31610Y29418D01*
G01X31564Y29281D01*
G01X31518Y29192D01*
G01X31429Y29100D01*
G01X31292Y29055D01*
G01X30975Y29055D01*
G01X31955Y29781D02*
G01X31955Y29827D01*
G01X32001Y29918D01*
G01X32047Y29964D01*
G01X32138Y30010D01*
G01X32318Y30010D01*
G01X32410Y29964D01*
G01X32456Y29918D01*
G01X32501Y29827D01*
G01X32501Y29735D01*
G01X32456Y29646D01*
G01X32364Y29509D01*
G01X31910Y29055D01*
G01X32547Y29055D01*
G01X14224Y30010D02*
G01X14224Y29055D01*
G01X14224Y29055D02*
G01X14770Y29055D01*
G01X15069Y30010D02*
G01X15069Y29055D01*
G01X15069Y30010D02*
G01X15659Y30010D01*
G01X15069Y29555D02*
G01X15433Y29555D01*
G01X15069Y29055D02*
G01X15659Y29055D01*
G01X15961Y30010D02*
G01X15961Y29055D01*
G01X15961Y30010D02*
G01X16278Y30010D01*
G01X16416Y29964D01*
G01X16504Y29872D01*
G01X16550Y29781D01*
G01X16596Y29646D01*
G01X16596Y29418D01*
G01X16550Y29281D01*
G01X16504Y29192D01*
G01X16416Y29100D01*
G01X16278Y29055D01*
G01X15961Y29055D01*
G01X16896Y29827D02*
G01X16987Y29872D01*
G01X17124Y30010D01*
G01X17124Y29055D01*
G01X61976Y6906D02*
G01X62080Y6957D01*
G01X62235Y7112D01*
G01X62235Y6022D01*
G01X62577Y7112D02*
G01X62577Y6022D01*
G01X63306Y7112D02*
G01X62577Y6385D01*
G01X62839Y6644D02*
G01X63306Y6022D01*
G01X7620Y6205D02*
G01X7711Y6250D01*
G01X7846Y6388D01*
G01X7846Y5433D01*
G01X8374Y6388D02*
G01X8237Y6342D01*
G01X8191Y6250D01*
G01X8191Y6159D01*
G01X8237Y6068D01*
G01X8328Y6024D01*
G01X8511Y5979D01*
G01X8646Y5933D01*
G01X8737Y5842D01*
G01X8783Y5750D01*
G01X8783Y5615D01*
G01X8737Y5524D01*
G01X8691Y5478D01*
G01X8557Y5433D01*
G01X8374Y5433D01*
G01X8237Y5478D01*
G01X8191Y5524D01*
G01X8148Y5615D01*
G01X8148Y5750D01*
G01X8191Y5842D01*
G01X8282Y5933D01*
G01X8420Y5979D01*
G01X8602Y6024D01*
G01X8691Y6068D01*
G01X8737Y6159D01*
G01X8737Y6250D01*
G01X8691Y6342D01*
G01X8557Y6388D01*
G01X8374Y6388D01*
G01X9357Y6388D02*
G01X9220Y6342D01*
G01X9128Y6205D01*
G01X9083Y5979D01*
G01X9083Y5842D01*
G01X9128Y5615D01*
G01X9220Y5478D01*
G01X9357Y5433D01*
G01X9446Y5433D01*
G01X9583Y5478D01*
G01X9674Y5615D01*
G01X9720Y5842D01*
G01X9720Y5979D01*
G01X9674Y6205D01*
G01X9583Y6342D01*
G01X9446Y6388D01*
G01X9357Y6388D01*
G01X7157Y4635D02*
G01X7157Y4681D01*
G01X7203Y4772D01*
G01X7249Y4818D01*
G01X7338Y4864D01*
G01X7520Y4864D01*
G01X7612Y4818D01*
G01X7658Y4772D01*
G01X7703Y4681D01*
G01X7703Y4589D01*
G01X7658Y4500D01*
G01X7566Y4363D01*
G01X7112Y3909D01*
G01X7749Y3909D01*
G01X8094Y4135D02*
G01X8049Y4091D01*
G01X8094Y4046D01*
G01X8138Y4091D01*
G01X8094Y4135D01*
G01X8483Y4635D02*
G01X8483Y4681D01*
G01X8529Y4772D01*
G01X8575Y4818D01*
G01X8666Y4864D01*
G01X8849Y4864D01*
G01X8938Y4818D01*
G01X8983Y4772D01*
G01X9029Y4681D01*
G01X9029Y4589D01*
G01X8983Y4500D01*
G01X8895Y4363D01*
G01X8440Y3909D01*
G01X9075Y3909D01*
G01X9375Y4864D02*
G01X9375Y3909D01*
G01X10012Y4864D02*
G01X9375Y4226D01*
G01X9603Y4455D02*
G01X10012Y3909D01*
G01X48006Y14732D02*
G01X48006Y13776D01*
G01X48006Y14732D02*
G01X48369Y13776D01*
G01X48732Y14732D02*
G01X48369Y13776D01*
G01X48732Y14732D02*
G01X48732Y13776D01*
G01X49306Y14732D02*
G01X49215Y14686D01*
G01X49123Y14594D01*
G01X49077Y14503D01*
G01X49032Y14368D01*
G01X49032Y14140D01*
G01X49077Y14003D01*
G01X49123Y13914D01*
G01X49215Y13822D01*
G01X49306Y13776D01*
G01X49486Y13776D01*
G01X49578Y13822D01*
G01X49669Y13914D01*
G01X49715Y14003D01*
G01X49761Y14140D01*
G01X49761Y14368D01*
G01X49715Y14503D01*
G01X49669Y14594D01*
G01X49578Y14686D01*
G01X49486Y14732D01*
G01X49306Y14732D01*
G01X50695Y14594D02*
G01X50606Y14686D01*
G01X50469Y14732D01*
G01X50286Y14732D01*
G01X50152Y14686D01*
G01X50060Y14594D01*
G01X50060Y14503D01*
G01X50106Y14411D01*
G01X50152Y14368D01*
G01X50241Y14323D01*
G01X50515Y14231D01*
G01X50606Y14185D01*
G01X50652Y14140D01*
G01X50695Y14048D01*
G01X50695Y13914D01*
G01X50606Y13822D01*
G01X50469Y13776D01*
G01X50286Y13776D01*
G01X50152Y13822D01*
G01X50060Y13914D01*
G01X50998Y14732D02*
G01X50998Y13776D01*
G01X50998Y14732D02*
G01X51587Y14732D01*
G01X50998Y14277D02*
G01X51361Y14277D01*
G01X51887Y14732D02*
G01X51887Y13776D01*
G01X51887Y14732D02*
G01X52478Y14732D01*
G01X51887Y14277D02*
G01X52250Y14277D01*
G01X51887Y13776D02*
G01X52478Y13776D01*
G01X53096Y14732D02*
G01X53096Y13776D01*
G01X52778Y14732D02*
G01X53416Y14732D01*
G01X23477Y16510D02*
G01X23114Y15554D01*
G01X23477Y16510D02*
G01X23840Y15554D01*
G01X23251Y15872D02*
G01X23705Y15872D01*
G01X24460Y16510D02*
G01X24460Y15554D01*
G01X24140Y16510D02*
G01X24777Y16510D01*
G01X25077Y16510D02*
G01X25077Y15554D01*
G01X25077Y16510D02*
G01X25440Y15554D01*
G01X25803Y16510D02*
G01X25440Y15554D01*
G01X25803Y16510D02*
G01X25803Y15554D01*
G01X26106Y16510D02*
G01X26106Y15554D01*
G01X26106Y16510D02*
G01X26695Y16510D01*
G01X26106Y16055D02*
G01X26469Y16055D01*
G01X26106Y15554D02*
G01X26695Y15554D01*
G01X26995Y16510D02*
G01X26995Y15554D01*
G01X26995Y15554D02*
G01X27541Y15554D01*
G01X27178Y5372D02*
G01X27178Y4417D01*
G01X27178Y5372D02*
G01X27586Y5372D01*
G01X27724Y5326D01*
G01X27769Y5280D01*
G01X27815Y5189D01*
G01X27815Y5097D01*
G01X27769Y5008D01*
G01X27724Y4963D01*
G01X27586Y4917D01*
G01X27178Y4917D01*
G01X27495Y4917D02*
G01X27815Y4417D01*
G01X28115Y5372D02*
G01X28750Y4417D01*
G01X28750Y5372D02*
G01X28115Y4417D01*
G01X30289Y5372D02*
G01X30289Y4417D01*
G01X29972Y5372D02*
G01X30609Y5372D01*
G01X30909Y5372D02*
G01X31544Y4417D01*
G01X31544Y5372D02*
G01X30909Y4417D01*
G01X32766Y5372D02*
G01X32766Y4417D01*
G01X32766Y5372D02*
G01X33174Y5372D01*
G01X33312Y5326D01*
G01X33357Y5280D01*
G01X33403Y5189D01*
G01X33403Y5097D01*
G01X33357Y5008D01*
G01X33312Y4963D01*
G01X33174Y4917D01*
G01X32766Y4917D01*
G01X33083Y4917D02*
G01X33403Y4417D01*
G01X34338Y5234D02*
G01X34246Y5326D01*
G01X34112Y5372D01*
G01X33929Y5372D01*
G01X33792Y5326D01*
G01X33703Y5234D01*
G01X33703Y5143D01*
G01X33748Y5052D01*
G01X33792Y5008D01*
G01X33883Y4963D01*
G01X34157Y4871D01*
G01X34246Y4826D01*
G01X34292Y4780D01*
G01X34338Y4688D01*
G01X34338Y4554D01*
G01X34246Y4462D01*
G01X34112Y4417D01*
G01X33929Y4417D01*
G01X33792Y4462D01*
G01X33703Y4554D01*
G01X34958Y5372D02*
G01X34958Y4417D01*
G01X34637Y5372D02*
G01X35275Y5372D01*
G01X40558Y5105D02*
G01X40515Y5196D01*
G01X40424Y5288D01*
G01X40332Y5334D01*
G01X40149Y5334D01*
G01X40060Y5288D01*
G01X39969Y5196D01*
G01X39923Y5105D01*
G01X39878Y4970D01*
G01X39878Y4742D01*
G01X39923Y4605D01*
G01X39969Y4516D01*
G01X40060Y4424D01*
G01X40149Y4378D01*
G01X40332Y4378D01*
G01X40424Y4424D01*
G01X40515Y4516D01*
G01X40558Y4605D01*
G01X40558Y4742D01*
G01X40332Y4742D02*
G01X40558Y4742D01*
G01X40860Y5334D02*
G01X40860Y4378D01*
G01X40860Y5334D02*
G01X41495Y4378D01*
G01X41495Y5334D02*
G01X41495Y4378D01*
G01X41795Y5334D02*
G01X41795Y4378D01*
G01X41795Y5334D02*
G01X42113Y5334D01*
G01X42250Y5288D01*
G01X42341Y5196D01*
G01X42387Y5105D01*
G01X42433Y4970D01*
G01X42433Y4742D01*
G01X42387Y4605D01*
G01X42341Y4516D01*
G01X42250Y4424D01*
G01X42113Y4378D01*
G01X41795Y4378D01*
G01X16370Y5334D02*
G01X15852Y5334D01*
G01X15798Y4866D01*
G01X15852Y4919D01*
G01X16007Y4970D01*
G01X16164Y4970D01*
G01X16319Y4919D01*
G01X16423Y4815D01*
G01X16474Y4660D01*
G01X16474Y4556D01*
G01X16423Y4399D01*
G01X16319Y4295D01*
G01X16164Y4244D01*
G01X16007Y4244D01*
G01X15852Y4295D01*
G01X15798Y4348D01*
G01X15748Y4452D01*
G01X16817Y5334D02*
G01X17233Y4244D01*
G01X17650Y5334D02*
G01X17233Y4244D01*
G01X14914Y26522D02*
G01X14869Y26614D01*
G01X14732Y26748D01*
G01X15687Y26748D01*
G01X14732Y27050D02*
G01X15687Y27050D01*
G01X14732Y27685D02*
G01X15369Y27050D01*
G01X15140Y27277D02*
G01X15687Y27685D01*
G01X16946Y26522D02*
G01X16901Y26614D01*
G01X16763Y26748D01*
G01X17719Y26748D01*
G01X16763Y27050D02*
G01X17719Y27050D01*
G01X16763Y27685D02*
G01X17401Y27050D01*
G01X17172Y27277D02*
G01X17719Y27685D01*
G01X18978Y26522D02*
G01X18933Y26614D01*
G01X18795Y26748D01*
G01X19751Y26748D01*
G01X18795Y27050D02*
G01X19751Y27050D01*
G01X18795Y27685D02*
G01X19433Y27050D01*
G01X19204Y27277D02*
G01X19751Y27685D01*
G01X21010Y26522D02*
G01X20965Y26614D01*
G01X20827Y26748D01*
G01X21783Y26748D01*
G01X20827Y27050D02*
G01X21783Y27050D01*
G01X20827Y27685D02*
G01X21465Y27050D01*
G01X21236Y27277D02*
G01X21783Y27685D01*
G01X48768Y4318D02*
G01X48768Y3362D01*
G01X48768Y4318D02*
G01X49176Y4318D01*
G01X49314Y4272D01*
G01X49359Y4226D01*
G01X49405Y4135D01*
G01X49405Y3997D01*
G01X49359Y3909D01*
G01X49314Y3863D01*
G01X49176Y3817D01*
G01X48768Y3817D01*
G01X49705Y4318D02*
G01X49931Y3362D01*
G01X50159Y4318D02*
G01X49931Y3362D01*
G01X50159Y4318D02*
G01X50385Y3362D01*
G01X50614Y4318D02*
G01X50385Y3362D01*
G01X50914Y4318D02*
G01X50914Y3362D01*
G01X50914Y4318D02*
G01X51323Y4318D01*
G01X51457Y4272D01*
G01X51503Y4226D01*
G01X51549Y4135D01*
G01X51549Y4043D01*
G01X51503Y3954D01*
G01X51457Y3909D01*
G01X51323Y3863D01*
G01X50914Y3863D01*
G01X51231Y3863D02*
G01X51549Y3362D01*
G01X48768Y6421D02*
G01X48859Y6466D01*
G01X48994Y6604D01*
G01X48994Y5648D01*
G01X49296Y6604D02*
G01X49296Y5648D01*
G01X49931Y6604D02*
G01X49296Y5966D01*
G01X49522Y6195D02*
G01X49931Y5648D01*
G01X29900Y26522D02*
G01X29855Y26614D01*
G01X29717Y26748D01*
G01X30673Y26748D01*
G01X29717Y27050D02*
G01X30673Y27050D01*
G01X29717Y27685D02*
G01X30355Y27050D01*
G01X30126Y27277D02*
G01X30673Y27685D01*
G01X31932Y26522D02*
G01X31887Y26614D01*
G01X31749Y26748D01*
G01X32705Y26748D01*
G01X31749Y27050D02*
G01X32705Y27050D01*
G01X31749Y27685D02*
G01X32387Y27050D01*
G01X32158Y27277D02*
G01X32705Y27685D01*
G01X33964Y26522D02*
G01X33919Y26614D01*
G01X33781Y26748D01*
G01X34737Y26748D01*
G01X33781Y27050D02*
G01X34737Y27050D01*
G01X33781Y27685D02*
G01X34419Y27050D01*
G01X34190Y27277D02*
G01X34737Y27685D01*
G01X35996Y26522D02*
G01X35951Y26614D01*
G01X35813Y26748D01*
G01X36769Y26748D01*
G01X35813Y27050D02*
G01X36769Y27050D01*
G01X35813Y27685D02*
G01X36451Y27050D01*
G01X36222Y27277D02*
G01X36769Y27685D01*
G01X44378Y26522D02*
G01X44333Y26614D01*
G01X44195Y26748D01*
G01X45151Y26748D01*
G01X44195Y27050D02*
G01X45151Y27050D01*
G01X44195Y27685D02*
G01X44833Y27050D01*
G01X44604Y27277D02*
G01X45151Y27685D01*
G01X47680Y26522D02*
G01X47635Y26614D01*
G01X47497Y26748D01*
G01X48453Y26748D01*
G01X47497Y27050D02*
G01X48453Y27050D01*
G01X47497Y27685D02*
G01X48135Y27050D01*
G01X47906Y27277D02*
G01X48453Y27685D01*
G01X49712Y26522D02*
G01X49667Y26614D01*
G01X49529Y26748D01*
G01X50485Y26748D01*
G01X49529Y27050D02*
G01X50485Y27050D01*
G01X49529Y27685D02*
G01X50167Y27050D01*
G01X49938Y27277D02*
G01X50485Y27685D01*
G01X51744Y26522D02*
G01X51699Y26614D01*
G01X51561Y26748D01*
G01X52517Y26748D01*
G01X51561Y27050D02*
G01X52517Y27050D01*
G01X51561Y27685D02*
G01X52199Y27050D01*
G01X51970Y27277D02*
G01X52517Y27685D01*
G01X24955Y1778D02*
G01X24955Y822D01*
G01X24638Y1778D02*
G01X25275Y1778D01*
G01X25575Y1778D02*
G01X25575Y822D01*
G01X25874Y1778D02*
G01X25874Y822D01*
G01X25874Y1778D02*
G01X26238Y822D01*
G01X26601Y1778D02*
G01X26238Y822D01*
G01X26601Y1778D02*
G01X26601Y822D01*
G01X26901Y1778D02*
G01X26901Y822D01*
G01X26901Y1778D02*
G01X27492Y1778D01*
G01X26901Y1323D02*
G01X27264Y1323D01*
G01X26901Y822D02*
G01X27492Y822D01*
G01X27792Y1778D02*
G01X27792Y822D01*
G01X27792Y1778D02*
G01X28201Y1778D01*
G01X28338Y1732D01*
G01X28384Y1686D01*
G01X28427Y1595D01*
G01X28427Y1503D01*
G01X28384Y1414D01*
G01X28338Y1369D01*
G01X28201Y1323D01*
G01X27792Y1323D01*
G01X28110Y1323D02*
G01X28427Y822D01*
G01X17018Y1778D02*
G01X17018Y822D01*
G01X17018Y1778D02*
G01X17381Y822D01*
G01X17744Y1778D02*
G01X17381Y822D01*
G01X17744Y1778D02*
G01X17744Y822D01*
G01X18318Y1778D02*
G01X18227Y1732D01*
G01X18135Y1640D01*
G01X18089Y1549D01*
G01X18044Y1414D01*
G01X18044Y1186D01*
G01X18089Y1049D01*
G01X18135Y960D01*
G01X18227Y868D01*
G01X18318Y822D01*
G01X18498Y822D01*
G01X18590Y868D01*
G01X18681Y960D01*
G01X18727Y1049D01*
G01X18773Y1186D01*
G01X18773Y1414D01*
G01X18727Y1549D01*
G01X18681Y1640D01*
G01X18590Y1732D01*
G01X18498Y1778D01*
G01X18318Y1778D01*
G01X19707Y1640D02*
G01X19618Y1732D01*
G01X19481Y1778D01*
G01X19298Y1778D01*
G01X19164Y1732D01*
G01X19072Y1640D01*
G01X19072Y1549D01*
G01X19118Y1457D01*
G01X19164Y1414D01*
G01X19253Y1369D01*
G01X19527Y1277D01*
G01X19618Y1231D01*
G01X19664Y1186D01*
G01X19707Y1094D01*
G01X19707Y960D01*
G01X19618Y868D01*
G01X19481Y822D01*
G01X19298Y822D01*
G01X19164Y868D01*
G01X19072Y960D01*
G01X20010Y1778D02*
G01X20010Y822D01*
G01X20010Y1778D02*
G01X20599Y1778D01*
G01X20010Y1323D02*
G01X20373Y1323D01*
G01X20899Y1778D02*
G01X20899Y822D01*
G01X20899Y1778D02*
G01X21490Y1778D01*
G01X20899Y1323D02*
G01X21262Y1323D01*
G01X20899Y822D02*
G01X21490Y822D01*
G01X22108Y1778D02*
G01X22108Y822D01*
G01X21790Y1778D02*
G01X22428Y1778D01*
G01X18796Y3881D02*
G01X18887Y3926D01*
G01X19022Y4064D01*
G01X19022Y3108D01*
G01X19324Y4064D02*
G01X19324Y3108D01*
G01X19959Y4064D02*
G01X19324Y3426D01*
G01X19550Y3655D02*
G01X19959Y3108D01*
G01X8907Y7983D02*
G01X8854Y8087D01*
G01X8752Y8191D01*
G01X8648Y8242D01*
G01X8440Y8242D01*
G01X8336Y8191D01*
G01X8231Y8087D01*
G01X8181Y7983D01*
G01X8127Y7828D01*
G01X8127Y7569D01*
G01X8181Y7411D01*
G01X8231Y7307D01*
G01X8336Y7203D01*
G01X8440Y7152D01*
G01X8648Y7152D01*
G01X8752Y7203D01*
G01X8854Y7307D01*
G01X8907Y7411D01*
G01X6875Y29204D02*
G01X6822Y29309D01*
G01X6720Y29413D01*
G01X6616Y29464D01*
G01X6408Y29464D01*
G01X6304Y29413D01*
G01X6200Y29309D01*
G01X6149Y29204D01*
G01X6096Y29049D01*
G01X6096Y28790D01*
G01X6149Y28633D01*
G01X6200Y28529D01*
G01X6304Y28425D01*
G01X6408Y28374D01*
G01X6616Y28374D01*
G01X6720Y28425D01*
G01X6822Y28529D01*
G01X6875Y28633D01*
G01X2032Y6604D02*
G01X2448Y5514D01*
G01X2862Y6604D02*
G01X2448Y5514D01*
G01X3985Y6344D02*
G01X3934Y6449D01*
G01X3830Y6553D01*
G01X3726Y6604D01*
G01X3517Y6604D01*
G01X3413Y6553D01*
G01X3309Y6449D01*
G01X3258Y6344D01*
G01X3205Y6189D01*
G01X3205Y5930D01*
G01X3258Y5773D01*
G01X3309Y5669D01*
G01X3413Y5565D01*
G01X3517Y5514D01*
G01X3726Y5514D01*
G01X3830Y5565D01*
G01X3934Y5669D01*
G01X3985Y5773D01*
G01X5107Y6344D02*
G01X5054Y6449D01*
G01X4953Y6553D01*
G01X4848Y6604D01*
G01X4640Y6604D01*
G01X4536Y6553D01*
G01X4432Y6449D01*
G01X4381Y6344D01*
G01X4328Y6189D01*
G01X4328Y5930D01*
G01X4381Y5773D01*
G01X4432Y5669D01*
G01X4536Y5565D01*
G01X4640Y5514D01*
G01X4848Y5514D01*
G01X4953Y5565D01*
G01X5054Y5669D01*
G01X5107Y5773D01*
G54D17*
G01X49702Y8661D02*
G01X49659Y8752D01*
G01X49568Y8844D01*
G01X49476Y8890D01*
G01X49293Y8890D01*
G01X49204Y8844D01*
G01X49113Y8752D01*
G01X49067Y8661D01*
G01X49022Y8526D01*
G01X49022Y8298D01*
G01X49067Y8161D01*
G01X49113Y8072D01*
G01X49204Y7980D01*
G01X49293Y7934D01*
G01X49476Y7934D01*
G01X49568Y7980D01*
G01X49659Y8072D01*
G01X49702Y8161D01*
G01X49702Y8298D01*
G01X49476Y8298D02*
G01X49702Y8298D01*
G01X50004Y8890D02*
G01X50004Y7934D01*
G01X50004Y8890D02*
G01X50639Y7934D01*
G01X50639Y8890D02*
G01X50639Y7934D01*
G01X50939Y8890D02*
G01X50939Y7934D01*
G01X50939Y8890D02*
G01X51257Y8890D01*
G01X51394Y8844D01*
G01X51485Y8752D01*
G01X51531Y8661D01*
G01X51577Y8526D01*
G01X51577Y8298D01*
G01X51531Y8161D01*
G01X51485Y8072D01*
G01X51394Y7980D01*
G01X51257Y7934D01*
G01X50939Y7934D01*
G01X66040Y7112D02*
G01X66040Y6156D01*
G01X66040Y7112D02*
G01X66403Y6156D01*
G01X66766Y7112D02*
G01X66403Y6156D01*
G01X66766Y7112D02*
G01X66766Y6156D01*
G01X67703Y6974D02*
G01X67612Y7066D01*
G01X67475Y7112D01*
G01X67294Y7112D01*
G01X67157Y7066D01*
G01X67066Y6974D01*
G01X67066Y6883D01*
G01X67111Y6791D01*
G01X67157Y6748D01*
G01X67249Y6703D01*
G01X67520Y6611D01*
G01X67612Y6565D01*
G01X67657Y6520D01*
G01X67703Y6428D01*
G01X67703Y6294D01*
G01X67612Y6202D01*
G01X67475Y6156D01*
G01X67294Y6156D01*
G01X67157Y6202D01*
G01X67066Y6294D01*
G01X68003Y7112D02*
G01X68003Y6156D01*
G01X68003Y7112D02*
G01X68595Y7112D01*
G01X68003Y6657D02*
G01X68366Y6657D01*
G01X69212Y7112D02*
G01X69212Y6156D01*
G01X68894Y7112D02*
G01X69529Y7112D01*
G54D15*
G01X69088Y32512D02*
G01X69088Y31556D01*
G01X69088Y32512D02*
G01X69496Y32512D01*
G01X69634Y32466D01*
G01X69679Y32420D01*
G01X69725Y32329D01*
G01X69725Y32191D01*
G01X69679Y32103D01*
G01X69634Y32057D01*
G01X69496Y32011D01*
G01X69088Y32011D01*
G01X70297Y32512D02*
G01X70205Y32466D01*
G01X70114Y32374D01*
G01X70070Y32283D01*
G01X70025Y32148D01*
G01X70025Y31920D01*
G01X70070Y31783D01*
G01X70114Y31694D01*
G01X70205Y31602D01*
G01X70297Y31556D01*
G01X70479Y31556D01*
G01X70568Y31602D01*
G01X70660Y31694D01*
G01X70705Y31783D01*
G01X70751Y31920D01*
G01X70751Y32148D01*
G01X70705Y32283D01*
G01X70660Y32374D01*
G01X70568Y32466D01*
G01X70479Y32512D01*
G01X70297Y32512D01*
G01X71051Y32512D02*
G01X71280Y31556D01*
G01X71506Y32512D02*
G01X71280Y31556D01*
G01X71506Y32512D02*
G01X71734Y31556D01*
G01X71960Y32512D02*
G01X71734Y31556D01*
G01X72260Y32512D02*
G01X72260Y31556D01*
G01X72260Y32512D02*
G01X72852Y32512D01*
G01X72260Y32057D02*
G01X72623Y32057D01*
G01X72260Y31556D02*
G01X72852Y31556D01*
G01X73152Y32512D02*
G01X73152Y31556D01*
G01X73152Y32512D02*
G01X73560Y32512D01*
G01X73698Y32466D01*
G01X73741Y32420D01*
G01X73787Y32329D01*
G01X73787Y32237D01*
G01X73741Y32148D01*
G01X73698Y32103D01*
G01X73560Y32057D01*
G01X73152Y32057D01*
G01X73469Y32057D02*
G01X73787Y31556D01*
G54D16*
G01X8831Y12209D02*
G01X8785Y12303D01*
G01X8691Y12397D01*
G01X8597Y12446D01*
G01X8409Y12446D01*
G01X8315Y12397D01*
G01X8221Y12303D01*
G01X8173Y12209D01*
G01X8128Y12070D01*
G01X8128Y11836D01*
G01X8173Y11694D01*
G01X8221Y11600D01*
G01X8315Y11506D01*
G01X8409Y11460D01*
G01X8597Y11460D01*
G01X8691Y11506D01*
G01X8785Y11600D01*
G01X8831Y11694D01*
G01X9862Y12258D02*
G01X9956Y12303D01*
G01X10099Y12446D01*
G01X10099Y11460D01*
G01X10688Y12446D02*
G01X10548Y12397D01*
G01X10454Y12258D01*
G01X10408Y12021D01*
G01X10408Y11882D01*
G01X10454Y11648D01*
G01X10548Y11506D01*
G01X10688Y11460D01*
G01X10782Y11460D01*
G01X10924Y11506D01*
G01X11018Y11648D01*
G01X11064Y11882D01*
G01X11064Y12021D01*
G01X11018Y12258D01*
G01X10924Y12397D01*
G01X10782Y12446D01*
G01X10688Y12446D01*
G01X11656Y12446D02*
G01X11513Y12397D01*
G01X11419Y12258D01*
G01X11374Y12021D01*
G01X11374Y11882D01*
G01X11419Y11648D01*
G01X11513Y11506D01*
G01X11656Y11460D01*
G01X11750Y11460D01*
G01X11889Y11506D01*
G01X11983Y11648D01*
G01X12031Y11882D01*
G01X12031Y12021D01*
G01X11983Y12258D01*
G01X11889Y12397D01*
G01X11750Y12446D01*
G01X11656Y12446D01*
G01X12339Y12115D02*
G01X12339Y11460D01*
G01X12339Y11927D02*
G01X12481Y12070D01*
G01X12575Y12115D01*
G01X12715Y12115D01*
G01X12809Y12070D01*
G01X12857Y11927D01*
G01X12857Y11460D01*
G01X12857Y11927D02*
G01X12997Y12070D01*
G01X13091Y12115D01*
G01X13230Y12115D01*
G01X13324Y12070D01*
G01X13373Y11927D01*
G01X13373Y11460D01*
G01X13682Y12446D02*
G01X13682Y11460D01*
G01X14150Y12115D02*
G01X13682Y11648D01*
G01X13868Y11836D02*
G01X14198Y11460D01*
G01X14508Y12446D02*
G01X14508Y11460D01*
G01X14508Y12446D02*
G01X15118Y12446D01*
G01X14508Y11976D02*
G01X14881Y11976D01*
G01X62933Y15821D02*
G01X62887Y15915D01*
G01X62793Y16009D01*
G01X62699Y16057D01*
G01X62511Y16057D01*
G01X62417Y16009D01*
G01X62323Y15915D01*
G01X62275Y15821D01*
G01X62230Y15681D01*
G01X62230Y15448D01*
G01X62275Y15306D01*
G01X62323Y15212D01*
G01X62417Y15118D01*
G01X62511Y15072D01*
G01X62699Y15072D01*
G01X62793Y15118D01*
G01X62887Y15212D01*
G01X62933Y15306D01*
G01X63964Y15869D02*
G01X64058Y15915D01*
G01X64201Y16057D01*
G01X64201Y15072D01*
G01X64790Y16057D02*
G01X64650Y16009D01*
G01X64556Y15869D01*
G01X64510Y15633D01*
G01X64510Y15494D01*
G01X64556Y15260D01*
G01X64650Y15118D01*
G01X64790Y15072D01*
G01X64884Y15072D01*
G01X65026Y15118D01*
G01X65120Y15260D01*
G01X65166Y15494D01*
G01X65166Y15633D01*
G01X65120Y15869D01*
G01X65026Y16009D01*
G01X64884Y16057D01*
G01X64790Y16057D01*
G01X65758Y16057D02*
G01X65615Y16009D01*
G01X65521Y15869D01*
G01X65476Y15633D01*
G01X65476Y15494D01*
G01X65521Y15260D01*
G01X65615Y15118D01*
G01X65758Y15072D01*
G01X65852Y15072D01*
G01X65991Y15118D01*
G01X66085Y15260D01*
G01X66133Y15494D01*
G01X66133Y15633D01*
G01X66085Y15869D01*
G01X65991Y16009D01*
G01X65852Y16057D01*
G01X65758Y16057D01*
G01X66441Y15727D02*
G01X66441Y15072D01*
G01X66441Y15539D02*
G01X66583Y15681D01*
G01X66677Y15727D01*
G01X66817Y15727D01*
G01X66911Y15681D01*
G01X66959Y15539D01*
G01X66959Y15072D01*
G01X66959Y15539D02*
G01X67099Y15681D01*
G01X67193Y15727D01*
G01X67332Y15727D01*
G01X67426Y15681D01*
G01X67475Y15539D01*
G01X67475Y15072D01*
G01X67784Y16057D02*
G01X67784Y15072D01*
G01X68252Y15727D02*
G01X67784Y15260D01*
G01X67970Y15448D02*
G01X68300Y15072D01*
G01X68610Y16057D02*
G01X68610Y15072D01*
G01X68610Y16057D02*
G01X69220Y16057D01*
G01X68610Y15587D02*
G01X68983Y15587D01*
G01X2811Y22854D02*
G01X2758Y22959D01*
G01X2654Y23063D01*
G01X2552Y23114D01*
G01X2344Y23114D01*
G01X2240Y23063D01*
G01X2136Y22959D01*
G01X2082Y22854D01*
G01X2032Y22699D01*
G01X2032Y22440D01*
G01X2082Y22283D01*
G01X2136Y22179D01*
G01X2240Y22075D01*
G01X2344Y22024D01*
G01X2552Y22024D01*
G01X2654Y22075D01*
G01X2758Y22179D01*
G01X2811Y22283D01*
G01X2811Y22440D01*
G01X2552Y22440D02*
G01X2811Y22440D01*
G01X3154Y23114D02*
G01X3154Y22024D01*
G01X3154Y23114D02*
G01X3881Y22024D01*
G01X3881Y23114D02*
G01X3881Y22024D01*
G01X4224Y23114D02*
G01X4224Y22024D01*
G01X4224Y23114D02*
G01X4587Y23114D01*
G01X4744Y23063D01*
G01X4848Y22959D01*
G01X4899Y22854D01*
G01X4953Y22699D01*
G01X4953Y22440D01*
G01X4899Y22283D01*
G01X4848Y22179D01*
G01X4744Y22075D01*
G01X4587Y22024D01*
G01X4224Y22024D01*
G54D15*
G01X72644Y7112D02*
G01X73060Y6022D01*
G01X73474Y7112D02*
G01X73060Y6022D01*
G01X74597Y6852D02*
G01X74546Y6957D01*
G01X74442Y7061D01*
G01X74338Y7112D01*
G01X74129Y7112D01*
G01X74025Y7061D01*
G01X73921Y6957D01*
G01X73870Y6852D01*
G01X73817Y6697D01*
G01X73817Y6438D01*
G01X73870Y6281D01*
G01X73921Y6177D01*
G01X74025Y6073D01*
G01X74129Y6022D01*
G01X74338Y6022D01*
G01X74442Y6073D01*
G01X74546Y6177D01*
G01X74597Y6281D01*
G01X75719Y6852D02*
G01X75666Y6957D01*
G01X75565Y7061D01*
G01X75460Y7112D01*
G01X75252Y7112D01*
G01X75148Y7061D01*
G01X75044Y6957D01*
G01X74993Y6852D01*
G01X74940Y6697D01*
G01X74940Y6438D01*
G01X74993Y6281D01*
G01X75044Y6177D01*
G01X75148Y6073D01*
G01X75252Y6022D01*
G01X75460Y6022D01*
G01X75565Y6073D01*
G01X75666Y6177D01*
G01X75719Y6281D01*
G54D16*
G01X71137Y22600D02*
G01X71084Y22705D01*
G01X70980Y22809D01*
G01X70878Y22860D01*
G01X70670Y22860D01*
G01X70566Y22809D01*
G01X70462Y22705D01*
G01X70408Y22600D01*
G01X70358Y22445D01*
G01X70358Y22186D01*
G01X70408Y22029D01*
G01X70462Y21925D01*
G01X70566Y21821D01*
G01X70670Y21770D01*
G01X70878Y21770D01*
G01X70980Y21821D01*
G01X71084Y21925D01*
G01X71137Y22029D01*
G01X71137Y22186D01*
G01X70878Y22186D02*
G01X71137Y22186D01*
G01X71480Y22860D02*
G01X71480Y21770D01*
G01X71480Y22860D02*
G01X72207Y21770D01*
G01X72207Y22860D02*
G01X72207Y21770D01*
G01X72550Y22860D02*
G01X72550Y21770D01*
G01X72550Y22860D02*
G01X72913Y22860D01*
G01X73070Y22809D01*
G01X73174Y22705D01*
G01X73225Y22600D01*
G01X73279Y22445D01*
G01X73279Y22186D01*
G01X73225Y22029D01*
G01X73174Y21925D01*
G01X73070Y21821D01*
G01X72913Y21770D01*
G01X72550Y21770D01*
G01X73931Y22860D02*
G01X73827Y22809D01*
G01X73723Y22705D01*
G01X73672Y22600D01*
G01X73621Y22445D01*
G01X73621Y22186D01*
G01X73672Y22029D01*
G01X73723Y21925D01*
G01X73827Y21821D01*
G01X73931Y21770D01*
G01X74140Y21770D01*
G01X74244Y21821D01*
G01X74348Y21925D01*
G01X74399Y22029D01*
G01X74452Y22186D01*
G01X74452Y22445D01*
G01X74399Y22600D01*
G01X74348Y22705D01*
G01X74244Y22809D01*
G01X74140Y22860D01*
G01X73931Y22860D01*
G01X74795Y22860D02*
G01X74795Y22082D01*
G01X74846Y21925D01*
G01X74950Y21821D01*
G01X75107Y21770D01*
G01X75209Y21770D01*
G01X75366Y21821D01*
G01X75471Y21925D01*
G01X75521Y22082D01*
G01X75521Y22860D01*
G01X76227Y22860D02*
G01X76227Y21770D01*
G01X75864Y22860D02*
G01X76593Y22860D01*
G01X41148Y22098D02*
G01X41148Y21008D01*
G01X41148Y22098D02*
G01X41511Y22098D01*
G01X41668Y22047D01*
G01X41770Y21943D01*
G01X41823Y21838D01*
G01X41874Y21683D01*
G01X41874Y21424D01*
G01X41823Y21267D01*
G01X41770Y21163D01*
G01X41668Y21059D01*
G01X41511Y21008D01*
G01X41148Y21008D01*
G01X42217Y21892D02*
G01X42321Y21943D01*
G01X42478Y22098D01*
G01X42478Y21008D01*
G54D15*
G01X39116Y17780D02*
G01X39116Y16540D01*
G01X39507Y17780D02*
G01X39507Y16540D01*
G01X39507Y17780D02*
G01X40038Y17780D01*
G01X40215Y17721D01*
G01X40274Y17663D01*
G01X40332Y17543D01*
G01X40332Y17426D01*
G01X40274Y17307D01*
G01X40215Y17249D01*
G01X40038Y17190D01*
G01X39507Y17190D01*
G01X39918Y17190D02*
G01X40332Y16540D01*
G01X40723Y17780D02*
G01X40723Y16540D01*
G01X40723Y17780D02*
G01X41490Y17780D01*
G01X40723Y17190D02*
G01X41196Y17190D01*
G01X42590Y17780D02*
G01X41998Y17780D01*
G01X41940Y17249D01*
G01X41998Y17307D01*
G01X42176Y17365D01*
G01X42354Y17365D01*
G01X42532Y17307D01*
G01X42649Y17190D01*
G01X42707Y17012D01*
G01X42707Y16893D01*
G01X42649Y16715D01*
G01X42532Y16598D01*
G01X42354Y16540D01*
G01X42176Y16540D01*
G01X41998Y16598D01*
G01X41940Y16657D01*
G01X41882Y16776D01*
G01X43157Y17485D02*
G01X43157Y17543D01*
G01X43218Y17663D01*
G01X43276Y17721D01*
G01X43393Y17780D01*
G01X43629Y17780D01*
G01X43748Y17721D01*
G01X43807Y17663D01*
G01X43865Y17543D01*
G01X43865Y17426D01*
G01X43807Y17307D01*
G01X43690Y17129D01*
G01X43098Y16540D01*
G01X43926Y16540D01*
G01X44670Y17780D02*
G01X44493Y17721D01*
G01X44376Y17543D01*
G01X44315Y17249D01*
G01X44315Y17071D01*
G01X44376Y16776D01*
G01X44493Y16598D01*
G01X44670Y16540D01*
G01X44787Y16540D01*
G01X44965Y16598D01*
G01X45085Y16776D01*
G01X45143Y17071D01*
G01X45143Y17249D01*
G01X45085Y17543D01*
G01X44965Y17721D01*
G01X44787Y17780D01*
G01X44670Y17780D01*
G01X45532Y17780D02*
G01X45532Y16540D01*
G01X45532Y17780D02*
G01X46360Y16540D01*
G01X46360Y17780D02*
G01X46360Y16540D01*
G54D16*
G01X23967Y14478D02*
G01X24467Y14478D01*
G01X24193Y14114D01*
G01X24330Y14114D01*
G01X24422Y14069D01*
G01X24467Y14023D01*
G01X24513Y13886D01*
G01X24513Y13794D01*
G01X24467Y13660D01*
G01X24376Y13568D01*
G01X24239Y13522D01*
G01X24102Y13522D01*
G01X23967Y13568D01*
G01X23921Y13614D01*
G01X23876Y13705D01*
G01X24858Y14249D02*
G01X24858Y14295D01*
G01X24902Y14386D01*
G01X24947Y14432D01*
G01X25039Y14478D01*
G01X25222Y14478D01*
G01X25311Y14432D01*
G01X25356Y14386D01*
G01X25402Y14295D01*
G01X25402Y14203D01*
G01X25356Y14114D01*
G01X25267Y13977D01*
G01X24813Y13522D01*
G01X25448Y13522D01*
G01X25976Y14478D02*
G01X25839Y14432D01*
G01X25793Y14340D01*
G01X25793Y14249D01*
G01X25839Y14157D01*
G01X25930Y14114D01*
G01X26111Y14069D01*
G01X26248Y14023D01*
G01X26339Y13931D01*
G01X26385Y13840D01*
G01X26385Y13705D01*
G01X26339Y13614D01*
G01X26294Y13568D01*
G01X26156Y13522D01*
G01X25976Y13522D01*
G01X25839Y13568D01*
G01X25793Y13614D01*
G01X25747Y13705D01*
G01X25747Y13840D01*
G01X25793Y13931D01*
G01X25885Y14023D01*
G01X26022Y14069D01*
G01X26202Y14114D01*
G01X26294Y14157D01*
G01X26339Y14249D01*
G01X26339Y14340D01*
G01X26294Y14432D01*
G01X26156Y14478D01*
G01X25976Y14478D01*
G01X26685Y14157D02*
G01X26685Y13205D01*
G01X26685Y14023D02*
G01X26776Y14114D01*
G01X26868Y14157D01*
G01X27002Y14157D01*
G01X27094Y14114D01*
G01X27185Y14023D01*
G01X27231Y13886D01*
G01X27231Y13794D01*
G01X27185Y13660D01*
G01X27094Y13568D01*
G01X27002Y13522D01*
G01X26868Y13522D01*
G01X26776Y13568D01*
G01X26685Y13660D01*
G01X8999Y19812D02*
G01X8636Y18856D01*
G01X8999Y19812D02*
G01X9362Y18856D01*
G01X8773Y19174D02*
G01X9227Y19174D01*
G01X9662Y19812D02*
G01X9662Y18856D01*
G01X9662Y19812D02*
G01X10027Y18856D01*
G01X10391Y19812D02*
G01X10027Y18856D01*
G01X10391Y19812D02*
G01X10391Y18856D01*
G01X11325Y19674D02*
G01X11236Y19766D01*
G01X11099Y19812D01*
G01X10916Y19812D01*
G01X10782Y19766D01*
G01X10690Y19674D01*
G01X10690Y19583D01*
G01X10736Y19491D01*
G01X10782Y19448D01*
G01X10871Y19403D01*
G01X11145Y19311D01*
G01X11236Y19265D01*
G01X11282Y19220D01*
G01X11325Y19128D01*
G01X11325Y18994D01*
G01X11236Y18902D01*
G01X11099Y18856D01*
G01X10916Y18856D01*
G01X10782Y18902D01*
G01X10690Y18994D01*
G01X11628Y19629D02*
G01X11717Y19674D01*
G01X11854Y19812D01*
G01X11854Y18856D01*
G01X12153Y19629D02*
G01X12245Y19674D01*
G01X12382Y19812D01*
G01X12382Y18856D01*
G01X12682Y19629D02*
G01X12771Y19674D01*
G01X12908Y19812D01*
G01X12908Y18856D01*
G01X13845Y19812D02*
G01X13390Y18856D01*
G01X13208Y19812D02*
G01X13845Y19812D01*
G54D15*
G01X35814Y1778D02*
G01X35814Y822D01*
G01X35814Y1778D02*
G01X36222Y1778D01*
G01X36360Y1732D01*
G01X36405Y1686D01*
G01X36451Y1595D01*
G01X36451Y1503D01*
G01X36405Y1414D01*
G01X36360Y1369D01*
G01X36222Y1323D01*
G01X35814Y1323D01*
G01X36131Y1323D02*
G01X36451Y822D01*
G01X36751Y1778D02*
G01X36751Y822D01*
G01X36751Y1778D02*
G01X37340Y1778D01*
G01X36751Y1323D02*
G01X37114Y1323D01*
G01X36751Y822D02*
G01X37340Y822D01*
G01X38277Y1640D02*
G01X38186Y1732D01*
G01X38049Y1778D01*
G01X37868Y1778D01*
G01X37731Y1732D01*
G01X37640Y1640D01*
G01X37640Y1549D01*
G01X37685Y1457D01*
G01X37731Y1414D01*
G01X37823Y1369D01*
G01X38094Y1277D01*
G01X38186Y1231D01*
G01X38232Y1186D01*
G01X38277Y1094D01*
G01X38277Y960D01*
G01X38186Y868D01*
G01X38049Y822D01*
G01X37868Y822D01*
G01X37731Y868D01*
G01X37640Y960D01*
G01X38577Y1778D02*
G01X38577Y822D01*
G01X38577Y1778D02*
G01X39169Y1778D01*
G01X38577Y1323D02*
G01X38940Y1323D01*
G01X38577Y822D02*
G01X39169Y822D01*
G01X39786Y1778D02*
G01X39786Y822D01*
G01X39469Y1778D02*
G01X40104Y1778D01*
G01X66040Y19812D02*
G01X66040Y18722D01*
G01X66040Y19812D02*
G01X66507Y19812D01*
G01X66662Y19761D01*
G01X66715Y19710D01*
G01X66766Y19606D01*
G01X66766Y19502D01*
G01X66715Y19397D01*
G01X66662Y19344D01*
G01X66507Y19293D01*
G01X66040Y19293D02*
G01X66507Y19293D01*
G01X66662Y19240D01*
G01X66715Y19189D01*
G01X66766Y19085D01*
G01X66766Y18930D01*
G01X66715Y18826D01*
G01X66662Y18773D01*
G01X66507Y18722D01*
G01X66040Y18722D01*
G01X67475Y19812D02*
G01X67475Y18722D01*
G01X67109Y19812D02*
G01X67838Y19812D01*
G01X68181Y19812D02*
G01X68181Y18722D01*
G01X68181Y19812D02*
G01X68907Y18722D01*
G01X68907Y19812D02*
G01X68907Y18722D01*
G54D11*
G75*
G01X57097Y18397D02*
G3X57097Y18395I-200J-1D01*
G01*
G54D39*
G75*
G01X29550Y11031D02*
G3X29550Y11034I150J1D01*
G01*
G54D11*
G75*
G01X27399Y12532D02*
G3X27399Y12535I200J1D01*
G01*
G54D10*
G75*
G01X59129Y31032D02*
G03X59129Y31032I-300J0D01*
G01*
G75*
G01X44143Y31032D02*
G03X44143Y31032I-300J0D01*
G01*
G75*
G01X29157Y31032D02*
G03X29157Y31032I-300J0D01*
G01*
G75*
G01X14171Y31032D02*
G03X14171Y31032I-300J0D01*
G01*
M00*
M02*
