G04 ---------------------------- Layer name :TOP SOLDER LAYER*
G04 EasyEDA v5.6.15, Thu, 09 Aug 2018 00:10:23 GMT*
G04 1eb12ba90bff44d893ac4b1b4a3eba8c*
G04 Gerber Generator version 0.2*
G04 Scale: 100 percent, Rotated: No, Reflected: No *
G04 Dimensions in millimeters *
G04 leading zeros omitted , absolute positions ,3 integer and 3 decimal *
%FSLAX33Y33*%
%MOMM*%
G90*
G71D02*

%ADD14C,0.653212*%
%ADD18C,1.778254*%
%ADD19R,4.003192X2.203196*%
%ADD20R,1.703197X2.203196*%
%ADD21R,0.904240X1.902460*%
%ADD22R,2.003196X1.303198*%
%ADD23R,1.303198X2.703195*%
%ADD24R,1.409700X1.409700*%
%ADD25R,1.409700X1.410208*%
%ADD26R,1.203198X2.203196*%
%ADD27R,2.203196X1.203198*%
%ADD28R,2.703195X2.203196*%
%ADD29R,1.778000X1.778000*%
%ADD30R,1.778000X1.778254*%
%ADD31R,2.203196X2.203196*%
%ADD32C,1.778000*%
%ADD33C,2.203196*%
%ADD34C,1.778203*%

%LPD*%
G54D33*
G01X57145Y11557D02*
G01X56646Y11557D01*
G01X57145Y14097D02*
G01X56646Y14097D01*
G54D14*
G01X28194Y9763D02*
G01X28194Y10963D01*
G01X27393Y9763D02*
G01X27393Y10963D01*
G01X26593Y9763D02*
G01X26593Y10963D01*
G01X25793Y9763D02*
G01X25793Y10963D01*
G01X24996Y9763D02*
G01X24996Y10963D01*
G01X24196Y9763D02*
G01X24196Y10963D01*
G01X23395Y9763D02*
G01X23395Y10963D01*
G01X22595Y9763D02*
G01X22595Y10963D01*
G01X21631Y11938D02*
G01X20431Y11938D01*
G01X21631Y12738D02*
G01X20431Y12738D01*
G01X21631Y13538D02*
G01X20431Y13538D01*
G01X21631Y14338D02*
G01X20431Y14338D01*
G01X21631Y15135D02*
G01X20431Y15135D01*
G01X21631Y15935D02*
G01X20431Y15935D01*
G01X21631Y16736D02*
G01X20431Y16736D01*
G01X21631Y17536D02*
G01X20431Y17536D01*
G01X22606Y18526D02*
G01X22606Y19726D01*
G01X23406Y18526D02*
G01X23406Y19726D01*
G01X24206Y18526D02*
G01X24206Y19726D01*
G01X25006Y18526D02*
G01X25006Y19726D01*
G01X25803Y18526D02*
G01X25803Y19726D01*
G01X26603Y18526D02*
G01X26603Y19726D01*
G01X27404Y18526D02*
G01X27404Y19726D01*
G01X28204Y18526D02*
G01X28204Y19726D01*
G01X30368Y17526D02*
G01X29168Y17526D01*
G01X30368Y16725D02*
G01X29168Y16725D01*
G01X30368Y15925D02*
G01X29168Y15925D01*
G01X30368Y15125D02*
G01X29168Y15125D01*
G01X30368Y14328D02*
G01X29168Y14328D01*
G01X30368Y13528D02*
G01X29168Y13528D01*
G01X30368Y12727D02*
G01X29168Y12727D01*
G01X30368Y11927D02*
G01X29168Y11927D01*
G54D34*
G01X18034Y14478D02*
G01X18033Y14478D01*
G54D18*
G01X18034Y12192D02*
G01X18034Y12192D01*
G01X18542Y9906D02*
G01X18542Y9906D01*
G01X16764Y3302D02*
G01X16764Y3302D01*
G01X67056Y8382D03*
G01X66548Y21082D03*
G01X47498Y8382D03*
G54D19*
G01X11176Y21844D03*
G54D20*
G01X11176Y15543D03*
G01X13475Y15543D03*
G01X8876Y15543D03*
G54D21*
G01X33096Y17270D03*
G01X34290Y17270D03*
G01X35483Y17270D03*
G54D22*
G01X68070Y29371D03*
G01X68070Y25670D03*
G01X74270Y29371D03*
G01X74270Y25670D03*
G54D23*
G01X57580Y30031D03*
G01X55878Y30031D03*
G01X54179Y30031D03*
G01X57580Y24831D03*
G01X55880Y24831D03*
G01X54179Y24831D03*
G01X42594Y30031D03*
G01X40895Y30031D03*
G01X39196Y30031D03*
G01X42594Y24831D03*
G01X40895Y24831D03*
G01X39196Y24831D03*
G01X27608Y30031D03*
G01X25906Y30031D03*
G01X24207Y30031D03*
G01X27608Y24831D03*
G01X25908Y24831D03*
G01X24207Y24831D03*
G01X12622Y30031D03*
G01X10923Y30031D03*
G01X9224Y30031D03*
G01X12622Y24831D03*
G01X10923Y24831D03*
G01X9224Y24831D03*
G54D24*
G01X61723Y8380D03*
G01X63704Y8380D03*
G01X13971Y5078D03*
G01X11990Y5078D03*
G01X13971Y3300D03*
G01X11990Y3300D03*
G54D28*
G01X56896Y16637D03*
G54D29*
G01X27940Y7112D03*
G01X30734Y7112D03*
G01X34036Y7112D03*
G54D30*
G01X41148Y7112D03*
G54D29*
G01X16764Y7112D03*
G54D25*
G01X15241Y25147D03*
G54D24*
G01X15241Y23166D03*
G54D25*
G01X17273Y25147D03*
G54D24*
G01X17273Y23166D03*
G54D25*
G01X19305Y25147D03*
G54D24*
G01X19305Y23166D03*
G54D25*
G01X21337Y25147D03*
G54D24*
G01X21337Y23166D03*
G01X44702Y3811D03*
G01X46683Y3811D03*
G01X44702Y6097D03*
G01X46683Y6097D03*
G54D25*
G01X30227Y25147D03*
G54D24*
G01X30227Y23166D03*
G54D25*
G01X32259Y25147D03*
G54D24*
G01X32259Y23166D03*
G54D25*
G01X34291Y25147D03*
G54D24*
G01X34291Y23166D03*
G54D25*
G01X36323Y25147D03*
G54D24*
G01X36323Y23166D03*
G54D25*
G01X44705Y25147D03*
G54D24*
G01X44705Y23166D03*
G54D25*
G01X48007Y25147D03*
G54D24*
G01X48007Y23166D03*
G54D25*
G01X50039Y25147D03*
G54D24*
G01X50039Y23166D03*
G54D25*
G01X52071Y25147D03*
G54D24*
G01X52071Y23166D03*
G01X24639Y7875D03*
G01X24639Y5894D03*
G01X22353Y7875D03*
G01X22353Y5894D03*
G54D25*
G01X19559Y7875D03*
G54D24*
G01X19559Y5894D03*
G54D26*
G01X10922Y7366D03*
G01X14224Y7366D03*
G54D27*
G01X6604Y26670D03*
G01X6604Y23368D03*
G54D18*
G01X67818Y22352D03*
G01X68326Y11684D03*
G54D31*
G01X3556Y18034D03*
G01X5080Y18034D03*
G01X2032Y18034D03*
G01X3556Y16510D03*
G01X5080Y16510D03*
G01X2032Y16510D03*
G01X3556Y19558D03*
G01X5080Y19558D03*
G01X2032Y19558D03*
G01X3556Y10414D03*
G01X5080Y10414D03*
G01X2032Y10414D03*
G01X3556Y8890D03*
G01X5080Y8890D03*
G01X2032Y8890D03*
G01X3556Y11938D03*
G01X5080Y11938D03*
G01X2032Y11938D03*
G01X73914Y10922D03*
G01X75438Y10922D03*
G01X72390Y10922D03*
G01X73914Y9398D03*
G01X75438Y9398D03*
G01X72390Y9398D03*
G01X73914Y12446D03*
G01X75438Y12446D03*
G01X72390Y12446D03*
G01X73914Y18034D03*
G01X75438Y18034D03*
G01X72390Y18034D03*
G01X73914Y16510D03*
G01X75438Y16510D03*
G01X72390Y16510D03*
G01X73914Y19558D03*
G01X75438Y19558D03*
G01X72390Y19558D03*
G54D32*
G01X52070Y20320D03*
G01X39116Y20320D03*
M00*
M02*
