G04 ---------------------------- Layer name :TOP LAYER*
G04 EasyEDA v5.6.15, Thu, 09 Aug 2018 00:10:23 GMT*
G04 1eb12ba90bff44d893ac4b1b4a3eba8c*
G04 Gerber Generator version 0.2*
G04 Scale: 100 percent, Rotated: No, Reflected: No *
G04 Dimensions in millimeters *
G04 leading zeros omitted , absolute positions ,3 integer and 3 decimal *
%FSLAX33Y33*%
%MOMM*%
G90*
G71D02*

%ADD10C,0.254000*%
%ADD11C,0.399999*%
%ADD12C,1.499997*%
%ADD13C,0.799998*%
%ADD14C,0.450012*%
%ADD15C,0.177800*%
%ADD16C,0.203200*%
%ADD17C,0.178003*%
%ADD18C,1.575054*%
%ADD19R,3.799992X1.999996*%
%ADD20R,1.499997X1.999996*%
%ADD21R,0.701040X1.699260*%
%ADD22R,1.799996X1.099998*%
%ADD23R,1.099998X2.499995*%
%ADD24R,1.206500X1.206500*%
%ADD25R,1.206500X1.207008*%
%ADD26R,0.999998X1.999996*%
%ADD27R,1.999996X0.999998*%
%ADD28R,2.499995X1.999996*%
%ADD29R,1.574800X1.574800*%
%ADD30R,1.574800X1.575054*%
%ADD31R,1.999996X1.999996*%
%ADD32C,1.574800*%
%ADD33C,1.999996*%
%ADD34C,1.575003*%

%LPD*%
G54D11*
G01X41148Y7112D02*
G01X43688Y7112D01*
G01X44702Y6097D01*
G54D10*
G01X29768Y17526D02*
G01X31242Y17526D01*
G01X31496Y17780D01*
G01X31496Y18542D01*
G01X32004Y19050D01*
G01X34798Y19050D01*
G01X35306Y18542D01*
G01X35306Y17449D01*
G01X35483Y17272D01*
G01X29768Y16725D02*
G01X32550Y16725D01*
G01X33096Y17272D01*
G54D11*
G01X29768Y15925D02*
G01X25222Y15925D01*
G01X24419Y16731D01*
G01X21031Y16736D01*
G01X29768Y14328D02*
G01X26819Y14328D01*
G01X25222Y15925D01*
G01X21031Y14338D02*
G01X25394Y14339D01*
G01X26200Y13533D01*
G01X29768Y13528D01*
G01X29768Y15125D02*
G01X33921Y15125D01*
G01X34290Y15494D01*
G01X34290Y17272D01*
G01X29768Y13528D02*
G01X33848Y13528D01*
G01X34290Y13970D01*
G01X34290Y15494D01*
G54D10*
G01X74272Y29370D02*
G01X68072Y29370D01*
G54D12*
G01X3556Y10414D02*
G01X3556Y4318D01*
G01X6604Y1270D01*
G01X70612Y1270D01*
G01X73914Y4572D01*
G01X73914Y10922D01*
G01X3556Y17272D02*
G01X3556Y29718D01*
G01X5334Y31496D01*
G01X62738Y31496D01*
G01X64262Y29972D01*
G01X64262Y18542D01*
G01X62484Y16764D01*
G01X57023Y16764D01*
G01X56896Y16637D01*
G54D11*
G01X68072Y29370D02*
G01X64930Y29370D01*
G01X64262Y28702D01*
G54D12*
G01X56896Y14097D02*
G01X64389Y14097D01*
G01X66548Y16256D01*
G01X70866Y16256D01*
G01X73914Y19558D01*
G54D10*
G01X74272Y25669D02*
G01X68072Y25669D01*
G01X68072Y25669D02*
G01X67818Y25669D01*
G01X67818Y22860D01*
G01X68326Y22352D01*
G54D11*
G01X56896Y11557D02*
G01X68199Y11557D01*
G01X68326Y11684D01*
G54D13*
G01X8876Y15543D02*
G01X7620Y16764D01*
G01X4813Y16776D01*
G01X3556Y18034D01*
G54D11*
G01X44704Y3810D02*
G01X43685Y2794D01*
G01X19812Y2794D01*
G01X16764Y5842D01*
G01X16764Y7112D01*
G54D10*
G01X21031Y12738D02*
G01X19773Y12738D01*
G01X19558Y12954D01*
G01X19558Y14224D01*
G01X19304Y14478D01*
G01X18034Y14478D01*
G01X21031Y11938D02*
G01X18796Y11938D01*
G01X18034Y12192D01*
G54D11*
G01X22606Y10414D02*
G01X21082Y10414D01*
G01X20574Y9906D01*
G01X18542Y9906D01*
G54D10*
G01X9182Y29522D02*
G01X9182Y31487D01*
G01X9190Y31496D01*
G01X10881Y29522D02*
G01X10881Y31382D01*
G01X10995Y31496D01*
G01X12666Y31496D02*
G01X12666Y29607D01*
G01X12580Y29522D01*
G01X24180Y29522D02*
G01X24180Y31344D01*
G01X24029Y31496D01*
G01X25833Y31496D02*
G01X25833Y29568D01*
G01X25880Y29522D01*
G01X27581Y29522D02*
G01X27581Y31372D01*
G01X27705Y31496D01*
G01X38734Y31496D02*
G01X39182Y29522D01*
G01X39182Y29522D01*
G01X40881Y29522D02*
G01X40881Y31354D01*
G01X40739Y31496D01*
G01X42611Y31496D02*
G01X42611Y29553D01*
G01X42580Y29522D01*
G01X54180Y29522D02*
G01X54180Y31423D01*
G01X54108Y31496D01*
G01X55979Y31496D02*
G01X55979Y29622D01*
G01X55880Y29522D01*
G01X57581Y29522D02*
G01X57581Y31493D01*
G01X57583Y31496D01*
G54D11*
G01X33053Y13528D02*
G01X38928Y13528D01*
G01X46228Y20828D01*
G01X46228Y26670D01*
G01X45466Y27432D01*
G01X43180Y27432D01*
G01X42697Y27914D01*
G01X42593Y30032D01*
G54D10*
G01X24206Y19126D02*
G01X24206Y20297D01*
G01X21338Y23164D01*
G01X23406Y19126D02*
G01X23406Y20027D01*
G01X22098Y21336D01*
G01X20828Y21336D01*
G01X19306Y22857D01*
G01X19306Y23164D01*
G01X22606Y19126D02*
G01X22606Y19558D01*
G01X21590Y20574D01*
G01X19558Y20574D01*
G01X17274Y22857D01*
G01X17274Y23164D01*
G01X21031Y17536D02*
G01X21031Y18846D01*
G01X20066Y19812D01*
G01X18288Y19812D01*
G01X15242Y22857D01*
G01X15242Y23164D01*
G01X25006Y19126D02*
G01X25006Y21450D01*
G01X26416Y22860D01*
G01X29923Y22860D01*
G01X30228Y23164D01*
G01X25803Y19126D02*
G01X25803Y20977D01*
G01X26924Y22098D01*
G01X31196Y22098D01*
G01X32260Y23162D01*
G01X26603Y19126D02*
G01X26603Y20507D01*
G01X27432Y21336D01*
G01X32463Y21336D01*
G01X34292Y23164D01*
G01X27404Y19126D02*
G01X27404Y20038D01*
G01X27940Y20574D01*
G01X33733Y20574D01*
G01X36324Y23164D01*
G01X15242Y25146D02*
G01X12936Y25146D01*
G01X12621Y24831D01*
G01X21338Y25146D02*
G01X23893Y25146D01*
G01X24208Y24831D01*
G01X30228Y25146D02*
G01X27924Y25146D01*
G01X27609Y24831D01*
G01X36324Y25146D02*
G01X38879Y25146D01*
G01X39194Y24831D01*
G01X44706Y25146D02*
G01X42908Y25146D01*
G01X42593Y24831D01*
G01X52072Y25146D02*
G01X53865Y25146D01*
G01X54180Y24831D01*
G01X50040Y25146D02*
G01X50040Y26164D01*
G01X50800Y26924D01*
G01X55118Y26924D01*
G01X55626Y26416D01*
G01X55626Y25085D01*
G01X55880Y24831D01*
G01X48008Y25146D02*
G01X48008Y27180D01*
G01X48768Y27940D01*
G01X57150Y27940D01*
G01X57658Y27432D01*
G01X57658Y24907D01*
G01X57581Y24831D01*
G01X29768Y12727D02*
G01X39397Y12727D01*
G01X48006Y21336D01*
G01X48006Y23162D01*
G01X48008Y23164D01*
G01X29768Y11927D02*
G01X39867Y11927D01*
G01X50038Y22098D01*
G01X50038Y23162D01*
G01X50040Y23164D01*
G01X28194Y10363D02*
G01X30429Y10363D01*
G01X31242Y11176D01*
G01X40386Y11176D01*
G01X51308Y22098D01*
G01X51816Y22098D01*
G01X52070Y22352D01*
G01X52070Y23162D01*
G01X52072Y23164D01*
G01X28204Y19126D02*
G01X28204Y19314D01*
G01X28702Y19812D01*
G01X35560Y19812D01*
G01X37084Y18288D01*
G01X42418Y18288D01*
G01X44704Y20574D01*
G01X44706Y23164D01*
G01X34292Y25146D02*
G01X34290Y26670D01*
G01X34798Y27178D01*
G01X40386Y27178D01*
G01X40894Y26670D01*
G01X40894Y24831D01*
G01X32260Y25143D02*
G01X32258Y26924D01*
G01X31750Y27432D01*
G01X26416Y27432D01*
G01X25908Y26924D01*
G01X25908Y24831D01*
G01X10922Y24831D02*
G01X10922Y26416D01*
G01X11430Y26924D01*
G01X16764Y26924D01*
G01X17272Y26416D01*
G01X17272Y25148D01*
G01X17274Y25146D01*
G01X19306Y25146D02*
G01X19306Y27429D01*
G01X18796Y27940D01*
G01X9652Y27940D01*
G01X9144Y27432D01*
G01X9144Y24909D01*
G01X9222Y24831D01*
G54D11*
G01X41148Y7112D02*
G01X41148Y10668D01*
G01X47244Y16764D01*
G01X56769Y16764D01*
G01X56896Y16637D01*
G01X41148Y7112D02*
G01X40640Y7112D01*
G01X41908Y8380D01*
G01X61723Y8380D01*
G54D10*
G01X27393Y10363D02*
G01X27393Y9182D01*
G01X27940Y8636D01*
G01X30226Y8636D01*
G01X30480Y8382D01*
G01X30480Y7112D01*
G01X26593Y10363D02*
G01X26593Y8458D01*
G01X27940Y7112D01*
G01X25793Y10363D02*
G01X25793Y9029D01*
G01X25908Y8890D01*
G01X25908Y6096D01*
G01X26416Y5588D01*
G01X32766Y5588D01*
G01X34290Y7112D01*
G01X24638Y7874D02*
G01X24638Y8890D01*
G01X24991Y9230D01*
G01X24996Y10363D01*
G01X22352Y7874D02*
G01X22352Y8636D01*
G01X22606Y8890D01*
G01X23622Y8890D01*
G01X24185Y9451D01*
G01X24196Y10363D01*
G54D11*
G01X68326Y22352D02*
G01X67818Y22352D01*
G01X66548Y21082D01*
G01X63704Y8380D02*
G01X67054Y8380D01*
G01X67056Y8382D01*
G01X16764Y3302D02*
G01X13972Y3302D01*
G01X13972Y3553D01*
G01X13970Y3556D02*
G01X13971Y5078D01*
G01X13971Y5078D01*
G01X11990Y3300D02*
G01X11991Y3302D01*
G01X9398Y3302D01*
G01X7620Y1524D01*
G01X11990Y5078D02*
G01X10922Y6096D01*
G01X10922Y8382D01*
G54D13*
G01X5080Y11938D02*
G01X11938Y11938D01*
G01X13462Y13462D01*
G01X13462Y14478D01*
G01X13474Y15544D01*
G54D11*
G01X21031Y16736D02*
G01X19077Y16736D01*
G01X16510Y19304D01*
G01X13716Y19304D01*
G01X11176Y21844D01*
G01X10922Y8382D02*
G01X15240Y12700D01*
G01X15240Y17018D01*
G01X14224Y18034D01*
G01X8636Y18034D01*
G01X7366Y16764D01*
G01X17272Y7112D02*
G01X16764Y7112D01*
G01X16764Y8890D01*
G01X16256Y9398D01*
G01X16256Y17879D01*
G01X14831Y19304D01*
G54D10*
G01X41148Y7112D02*
G01X37846Y7112D01*
G01X34544Y3810D01*
G01X26924Y3810D01*
G01X20574Y3810D01*
G01X19558Y4826D01*
G01X19558Y5895D01*
G01X22354Y5892D02*
G01X21313Y5862D01*
G01X21000Y6177D01*
G01X21000Y7617D01*
G01X20744Y7874D01*
G01X19560Y7874D01*
G54D11*
G01X6604Y26670D02*
G01X3661Y26670D01*
G01X3556Y26775D01*
G01X11176Y21844D02*
G01X8128Y21844D01*
G01X6604Y23368D01*
G01X68326Y11684D02*
G01X68326Y9652D01*
G01X67056Y8382D01*
G54D10*
G01X22353Y5894D02*
G01X24639Y5894D01*
G01X14224Y7366D02*
G01X14224Y5331D01*
G01X13971Y5078D01*
G01X46683Y6097D02*
G01X46683Y3811D01*
G54D14*
G01X28194Y9763D02*
G01X28194Y10963D01*
G01X27393Y9763D02*
G01X27393Y10963D01*
G01X26593Y9763D02*
G01X26593Y10963D01*
G01X25793Y9763D02*
G01X25793Y10963D01*
G01X24996Y9763D02*
G01X24996Y10963D01*
G01X24196Y9763D02*
G01X24196Y10963D01*
G01X23395Y9763D02*
G01X23395Y10963D01*
G01X22595Y9763D02*
G01X22595Y10963D01*
G01X21631Y11938D02*
G01X20431Y11938D01*
G01X21631Y12738D02*
G01X20431Y12738D01*
G01X21631Y13538D02*
G01X20431Y13538D01*
G01X21631Y14338D02*
G01X20431Y14338D01*
G01X21631Y15135D02*
G01X20431Y15135D01*
G01X21631Y15935D02*
G01X20431Y15935D01*
G01X21631Y16736D02*
G01X20431Y16736D01*
G01X21631Y17536D02*
G01X20431Y17536D01*
G01X22606Y18526D02*
G01X22606Y19726D01*
G01X23406Y18526D02*
G01X23406Y19726D01*
G01X24206Y18526D02*
G01X24206Y19726D01*
G01X25006Y18526D02*
G01X25006Y19726D01*
G01X25803Y18526D02*
G01X25803Y19726D01*
G01X26603Y18526D02*
G01X26603Y19726D01*
G01X27404Y18526D02*
G01X27404Y19726D01*
G01X28204Y18526D02*
G01X28204Y19726D01*
G01X30368Y17526D02*
G01X29168Y17526D01*
G01X30368Y16725D02*
G01X29168Y16725D01*
G01X30368Y15925D02*
G01X29168Y15925D01*
G01X30368Y15125D02*
G01X29168Y15125D01*
G01X30368Y14328D02*
G01X29168Y14328D01*
G01X30368Y13528D02*
G01X29168Y13528D01*
G01X30368Y12727D02*
G01X29168Y12727D01*
G01X30368Y11927D02*
G01X29168Y11927D01*
G54D15*
G01X69088Y32512D02*
G01X69088Y31556D01*
G01X69088Y32512D02*
G01X69496Y32512D01*
G01X69634Y32466D01*
G01X69679Y32420D01*
G01X69725Y32329D01*
G01X69725Y32191D01*
G01X69679Y32103D01*
G01X69634Y32057D01*
G01X69496Y32011D01*
G01X69088Y32011D01*
G01X70297Y32512D02*
G01X70205Y32466D01*
G01X70114Y32374D01*
G01X70070Y32283D01*
G01X70025Y32148D01*
G01X70025Y31920D01*
G01X70070Y31783D01*
G01X70114Y31694D01*
G01X70205Y31602D01*
G01X70297Y31556D01*
G01X70479Y31556D01*
G01X70568Y31602D01*
G01X70660Y31694D01*
G01X70705Y31783D01*
G01X70751Y31920D01*
G01X70751Y32148D01*
G01X70705Y32283D01*
G01X70660Y32374D01*
G01X70568Y32466D01*
G01X70479Y32512D01*
G01X70297Y32512D01*
G01X71051Y32512D02*
G01X71280Y31556D01*
G01X71506Y32512D02*
G01X71280Y31556D01*
G01X71506Y32512D02*
G01X71734Y31556D01*
G01X71960Y32512D02*
G01X71734Y31556D01*
G01X72260Y32512D02*
G01X72260Y31556D01*
G01X72260Y32512D02*
G01X72852Y32512D01*
G01X72260Y32057D02*
G01X72623Y32057D01*
G01X72260Y31556D02*
G01X72852Y31556D01*
G01X73152Y32512D02*
G01X73152Y31556D01*
G01X73152Y32512D02*
G01X73560Y32512D01*
G01X73698Y32466D01*
G01X73741Y32420D01*
G01X73787Y32329D01*
G01X73787Y32237D01*
G01X73741Y32148D01*
G01X73698Y32103D01*
G01X73560Y32057D01*
G01X73152Y32057D01*
G01X73469Y32057D02*
G01X73787Y31556D01*
G54D16*
G01X53408Y4033D02*
G01X53408Y4102D01*
G01X53477Y4236D01*
G01X53545Y4305D01*
G01X53680Y4373D01*
G01X53954Y4373D01*
G01X54089Y4305D01*
G01X54157Y4236D01*
G01X54226Y4102D01*
G01X54226Y3964D01*
G01X54157Y3827D01*
G01X54020Y3624D01*
G01X53340Y2941D01*
G01X54295Y2941D01*
G01X55153Y4373D02*
G01X54947Y4305D01*
G01X54813Y4102D01*
G01X54744Y3761D01*
G01X54744Y3556D01*
G01X54813Y3215D01*
G01X54947Y3009D01*
G01X55153Y2941D01*
G01X55290Y2941D01*
G01X55493Y3009D01*
G01X55631Y3215D01*
G01X55699Y3556D01*
G01X55699Y3761D01*
G01X55631Y4102D01*
G01X55493Y4305D01*
G01X55290Y4373D01*
G01X55153Y4373D01*
G01X56149Y4102D02*
G01X56286Y4170D01*
G01X56489Y4373D01*
G01X56489Y2941D01*
G01X57282Y4373D02*
G01X57076Y4305D01*
G01X57007Y4170D01*
G01X57007Y4033D01*
G01X57076Y3896D01*
G01X57213Y3827D01*
G01X57485Y3761D01*
G01X57691Y3693D01*
G01X57825Y3556D01*
G01X57894Y3418D01*
G01X57894Y3215D01*
G01X57825Y3078D01*
G01X57757Y3009D01*
G01X57553Y2941D01*
G01X57282Y2941D01*
G01X57076Y3009D01*
G01X57007Y3078D01*
G01X56939Y3215D01*
G01X56939Y3418D01*
G01X57007Y3556D01*
G01X57144Y3693D01*
G01X57348Y3761D01*
G01X57622Y3827D01*
G01X57757Y3896D01*
G01X57825Y4033D01*
G01X57825Y4170D01*
G01X57757Y4305D01*
G01X57553Y4373D01*
G01X57282Y4373D01*
G01X58343Y3556D02*
G01X59570Y3556D01*
G01X60431Y4373D02*
G01X60225Y4305D01*
G01X60088Y4102D01*
G01X60022Y3761D01*
G01X60022Y3556D01*
G01X60088Y3215D01*
G01X60225Y3009D01*
G01X60431Y2941D01*
G01X60566Y2941D01*
G01X60772Y3009D01*
G01X60909Y3215D01*
G01X60975Y3556D01*
G01X60975Y3761D01*
G01X60909Y4102D01*
G01X60772Y4305D01*
G01X60566Y4373D01*
G01X60431Y4373D01*
G01X61767Y4373D02*
G01X61561Y4305D01*
G01X61493Y4170D01*
G01X61493Y4033D01*
G01X61561Y3896D01*
G01X61699Y3827D01*
G01X61970Y3761D01*
G01X62176Y3693D01*
G01X62313Y3556D01*
G01X62379Y3418D01*
G01X62379Y3215D01*
G01X62313Y3078D01*
G01X62245Y3009D01*
G01X62039Y2941D01*
G01X61767Y2941D01*
G01X61561Y3009D01*
G01X61493Y3078D01*
G01X61427Y3215D01*
G01X61427Y3418D01*
G01X61493Y3556D01*
G01X61630Y3693D01*
G01X61836Y3761D01*
G01X62108Y3827D01*
G01X62245Y3896D01*
G01X62313Y4033D01*
G01X62313Y4170D01*
G01X62245Y4305D01*
G01X62039Y4373D01*
G01X61767Y4373D01*
G01X62831Y3556D02*
G01X64058Y3556D01*
G01X64917Y4373D02*
G01X64711Y4305D01*
G01X64576Y4102D01*
G01X64508Y3761D01*
G01X64508Y3556D01*
G01X64576Y3215D01*
G01X64711Y3009D01*
G01X64917Y2941D01*
G01X65054Y2941D01*
G01X65257Y3009D01*
G01X65394Y3215D01*
G01X65463Y3556D01*
G01X65463Y3761D01*
G01X65394Y4102D01*
G01X65257Y4305D01*
G01X65054Y4373D01*
G01X64917Y4373D01*
G01X66799Y3896D02*
G01X66730Y3693D01*
G01X66593Y3556D01*
G01X66390Y3487D01*
G01X66321Y3487D01*
G01X66116Y3556D01*
G01X65981Y3693D01*
G01X65913Y3896D01*
G01X65913Y3964D01*
G01X65981Y4170D01*
G01X66116Y4305D01*
G01X66321Y4373D01*
G01X66390Y4373D01*
G01X66593Y4305D01*
G01X66730Y4170D01*
G01X66799Y3896D01*
G01X66799Y3556D01*
G01X66730Y3215D01*
G01X66593Y3009D01*
G01X66390Y2941D01*
G01X66253Y2941D01*
G01X66050Y3009D01*
G01X65981Y3147D01*
G01X68298Y3896D02*
G01X68707Y2941D01*
G01X69118Y3896D02*
G01X68707Y2941D01*
G01X70454Y3896D02*
G01X70385Y3693D01*
G01X70248Y3556D01*
G01X70045Y3487D01*
G01X69977Y3487D01*
G01X69771Y3556D01*
G01X69636Y3693D01*
G01X69568Y3896D01*
G01X69568Y3964D01*
G01X69636Y4170D01*
G01X69771Y4305D01*
G01X69977Y4373D01*
G01X70045Y4373D01*
G01X70248Y4305D01*
G01X70385Y4170D01*
G01X70454Y3896D01*
G01X70454Y3556D01*
G01X70385Y3215D01*
G01X70248Y3009D01*
G01X70045Y2941D01*
G01X69908Y2941D01*
G01X69702Y3009D01*
G01X69636Y3147D01*
G54D15*
G01X66040Y7112D02*
G01X66040Y6156D01*
G01X66040Y7112D02*
G01X66403Y6156D01*
G01X66766Y7112D02*
G01X66403Y6156D01*
G01X66766Y7112D02*
G01X66766Y6156D01*
G01X67703Y6974D02*
G01X67612Y7066D01*
G01X67475Y7112D01*
G01X67294Y7112D01*
G01X67157Y7066D01*
G01X67066Y6974D01*
G01X67066Y6883D01*
G01X67111Y6791D01*
G01X67157Y6748D01*
G01X67249Y6703D01*
G01X67520Y6611D01*
G01X67612Y6565D01*
G01X67657Y6520D01*
G01X67703Y6428D01*
G01X67703Y6294D01*
G01X67612Y6202D01*
G01X67475Y6156D01*
G01X67294Y6156D01*
G01X67157Y6202D01*
G01X67066Y6294D01*
G01X68003Y7112D02*
G01X68003Y6156D01*
G01X68003Y7112D02*
G01X68595Y7112D01*
G01X68003Y6657D02*
G01X68366Y6657D01*
G01X69212Y7112D02*
G01X69212Y6156D01*
G01X68894Y7112D02*
G01X69529Y7112D01*
G01X66040Y19812D02*
G01X66040Y18722D01*
G01X66040Y19812D02*
G01X66507Y19812D01*
G01X66662Y19761D01*
G01X66715Y19710D01*
G01X66766Y19606D01*
G01X66766Y19502D01*
G01X66715Y19397D01*
G01X66662Y19344D01*
G01X66507Y19293D01*
G01X66040Y19293D02*
G01X66507Y19293D01*
G01X66662Y19240D01*
G01X66715Y19189D01*
G01X66766Y19085D01*
G01X66766Y18930D01*
G01X66715Y18826D01*
G01X66662Y18773D01*
G01X66507Y18722D01*
G01X66040Y18722D01*
G01X67475Y19812D02*
G01X67475Y18722D01*
G01X67109Y19812D02*
G01X67838Y19812D01*
G01X68181Y19812D02*
G01X68181Y18722D01*
G01X68181Y19812D02*
G01X68907Y18722D01*
G01X68907Y19812D02*
G01X68907Y18722D01*
G54D17*
G01X54356Y22697D02*
G01X54356Y21648D01*
G01X54356Y22697D02*
G01X55006Y22697D01*
G01X54356Y22197D02*
G01X54754Y22197D01*
G01X55885Y22197D02*
G01X55836Y22298D01*
G01X55686Y22346D01*
G01X55537Y22346D01*
G01X55387Y22298D01*
G01X55336Y22197D01*
G01X55387Y22097D01*
G01X55486Y22047D01*
G01X55735Y21998D01*
G01X55836Y21948D01*
G01X55885Y21849D01*
G01X55885Y21798D01*
G01X55836Y21699D01*
G01X55686Y21648D01*
G01X55537Y21648D01*
G01X55387Y21699D01*
G01X55336Y21798D01*
G01X56466Y22346D02*
G01X56365Y22298D01*
G01X56266Y22197D01*
G01X56215Y22047D01*
G01X56215Y21948D01*
G01X56266Y21798D01*
G01X56365Y21699D01*
G01X56466Y21648D01*
G01X56616Y21648D01*
G01X56715Y21699D01*
G01X56817Y21798D01*
G01X56865Y21948D01*
G01X56865Y22047D01*
G01X56817Y22197D01*
G01X56715Y22298D01*
G01X56616Y22346D01*
G01X56466Y22346D01*
G01X57597Y22697D02*
G01X57495Y22697D01*
G01X57396Y22649D01*
G01X57345Y22496D01*
G01X57345Y21648D01*
G01X57195Y22346D02*
G01X57546Y22346D01*
G01X58077Y22697D02*
G01X58077Y21849D01*
G01X58125Y21699D01*
G01X58226Y21648D01*
G01X58326Y21648D01*
G01X57927Y22346D02*
G01X58275Y22346D01*
G54D15*
G01X40558Y5105D02*
G01X40515Y5196D01*
G01X40424Y5288D01*
G01X40332Y5334D01*
G01X40149Y5334D01*
G01X40060Y5288D01*
G01X39969Y5196D01*
G01X39923Y5105D01*
G01X39878Y4970D01*
G01X39878Y4742D01*
G01X39923Y4605D01*
G01X39969Y4516D01*
G01X40060Y4424D01*
G01X40149Y4378D01*
G01X40332Y4378D01*
G01X40424Y4424D01*
G01X40515Y4516D01*
G01X40558Y4605D01*
G01X40558Y4742D01*
G01X40332Y4742D02*
G01X40558Y4742D01*
G01X40860Y5334D02*
G01X40860Y4378D01*
G01X40860Y5334D02*
G01X41495Y4378D01*
G01X41495Y5334D02*
G01X41495Y4378D01*
G01X41795Y5334D02*
G01X41795Y4378D01*
G01X41795Y5334D02*
G01X42113Y5334D01*
G01X42250Y5288D01*
G01X42341Y5196D01*
G01X42387Y5105D01*
G01X42433Y4970D01*
G01X42433Y4742D01*
G01X42387Y4605D01*
G01X42341Y4516D01*
G01X42250Y4424D01*
G01X42113Y4378D01*
G01X41795Y4378D01*
G01X14224Y30010D02*
G01X14224Y29055D01*
G01X14224Y29055D02*
G01X14770Y29055D01*
G01X15069Y30010D02*
G01X15069Y29055D01*
G01X15069Y30010D02*
G01X15659Y30010D01*
G01X15069Y29555D02*
G01X15433Y29555D01*
G01X15069Y29055D02*
G01X15659Y29055D01*
G01X15961Y30010D02*
G01X15961Y29055D01*
G01X15961Y30010D02*
G01X16278Y30010D01*
G01X16416Y29964D01*
G01X16504Y29872D01*
G01X16550Y29781D01*
G01X16596Y29646D01*
G01X16596Y29418D01*
G01X16550Y29281D01*
G01X16504Y29192D01*
G01X16416Y29100D01*
G01X16278Y29055D01*
G01X15961Y29055D01*
G01X16896Y29827D02*
G01X16987Y29872D01*
G01X17124Y30010D01*
G01X17124Y29055D01*
G01X29210Y30010D02*
G01X29210Y29055D01*
G01X29210Y29055D02*
G01X29756Y29055D01*
G01X30055Y30010D02*
G01X30055Y29055D01*
G01X30055Y30010D02*
G01X30645Y30010D01*
G01X30055Y29555D02*
G01X30419Y29555D01*
G01X30055Y29055D02*
G01X30645Y29055D01*
G01X30947Y30010D02*
G01X30947Y29055D01*
G01X30947Y30010D02*
G01X31264Y30010D01*
G01X31402Y29964D01*
G01X31490Y29872D01*
G01X31536Y29781D01*
G01X31582Y29646D01*
G01X31582Y29418D01*
G01X31536Y29281D01*
G01X31490Y29192D01*
G01X31402Y29100D01*
G01X31264Y29055D01*
G01X30947Y29055D01*
G01X31927Y29781D02*
G01X31927Y29827D01*
G01X31973Y29918D01*
G01X32019Y29964D01*
G01X32110Y30010D01*
G01X32291Y30010D01*
G01X32382Y29964D01*
G01X32428Y29918D01*
G01X32473Y29827D01*
G01X32473Y29735D01*
G01X32428Y29646D01*
G01X32336Y29509D01*
G01X31882Y29055D01*
G01X32519Y29055D01*
G01X44196Y30010D02*
G01X44196Y29055D01*
G01X44196Y29055D02*
G01X44742Y29055D01*
G01X45041Y30010D02*
G01X45041Y29055D01*
G01X45041Y30010D02*
G01X45631Y30010D01*
G01X45041Y29555D02*
G01X45405Y29555D01*
G01X45041Y29055D02*
G01X45631Y29055D01*
G01X45933Y30010D02*
G01X45933Y29055D01*
G01X45933Y30010D02*
G01X46250Y30010D01*
G01X46388Y29964D01*
G01X46476Y29872D01*
G01X46522Y29781D01*
G01X46568Y29646D01*
G01X46568Y29418D01*
G01X46522Y29281D01*
G01X46476Y29192D01*
G01X46388Y29100D01*
G01X46250Y29055D01*
G01X45933Y29055D01*
G01X46959Y30010D02*
G01X47459Y30010D01*
G01X47188Y29646D01*
G01X47322Y29646D01*
G01X47414Y29601D01*
G01X47459Y29555D01*
G01X47505Y29418D01*
G01X47505Y29326D01*
G01X47459Y29192D01*
G01X47368Y29100D01*
G01X47231Y29055D01*
G01X47096Y29055D01*
G01X46959Y29100D01*
G01X46913Y29146D01*
G01X46868Y29237D01*
G01X59182Y30010D02*
G01X59182Y29055D01*
G01X59182Y29055D02*
G01X59728Y29055D01*
G01X60027Y30010D02*
G01X60027Y29055D01*
G01X60027Y30010D02*
G01X60617Y30010D01*
G01X60027Y29555D02*
G01X60391Y29555D01*
G01X60027Y29055D02*
G01X60617Y29055D01*
G01X60919Y30010D02*
G01X60919Y29055D01*
G01X60919Y30010D02*
G01X61236Y30010D01*
G01X61374Y29964D01*
G01X61462Y29872D01*
G01X61508Y29781D01*
G01X61554Y29646D01*
G01X61554Y29418D01*
G01X61508Y29281D01*
G01X61462Y29192D01*
G01X61374Y29100D01*
G01X61236Y29055D01*
G01X60919Y29055D01*
G01X62308Y30010D02*
G01X61854Y29372D01*
G01X62537Y29372D01*
G01X62308Y30010D02*
G01X62308Y29055D01*
G01X7620Y6205D02*
G01X7711Y6250D01*
G01X7846Y6388D01*
G01X7846Y5433D01*
G01X8374Y6388D02*
G01X8237Y6342D01*
G01X8191Y6250D01*
G01X8191Y6159D01*
G01X8237Y6068D01*
G01X8328Y6024D01*
G01X8511Y5979D01*
G01X8646Y5933D01*
G01X8737Y5842D01*
G01X8783Y5750D01*
G01X8783Y5615D01*
G01X8737Y5524D01*
G01X8691Y5478D01*
G01X8557Y5433D01*
G01X8374Y5433D01*
G01X8237Y5478D01*
G01X8191Y5524D01*
G01X8148Y5615D01*
G01X8148Y5750D01*
G01X8191Y5842D01*
G01X8282Y5933D01*
G01X8420Y5979D01*
G01X8602Y6024D01*
G01X8691Y6068D01*
G01X8737Y6159D01*
G01X8737Y6250D01*
G01X8691Y6342D01*
G01X8557Y6388D01*
G01X8374Y6388D01*
G01X9357Y6388D02*
G01X9220Y6342D01*
G01X9128Y6205D01*
G01X9083Y5979D01*
G01X9083Y5842D01*
G01X9128Y5615D01*
G01X9220Y5478D01*
G01X9357Y5433D01*
G01X9446Y5433D01*
G01X9583Y5478D01*
G01X9674Y5615D01*
G01X9720Y5842D01*
G01X9720Y5979D01*
G01X9674Y6205D01*
G01X9583Y6342D01*
G01X9446Y6388D01*
G01X9357Y6388D01*
G01X7157Y4635D02*
G01X7157Y4681D01*
G01X7203Y4772D01*
G01X7249Y4818D01*
G01X7338Y4864D01*
G01X7520Y4864D01*
G01X7612Y4818D01*
G01X7658Y4772D01*
G01X7703Y4681D01*
G01X7703Y4589D01*
G01X7658Y4500D01*
G01X7566Y4363D01*
G01X7112Y3909D01*
G01X7749Y3909D01*
G01X8094Y4135D02*
G01X8049Y4091D01*
G01X8094Y4046D01*
G01X8138Y4091D01*
G01X8094Y4135D01*
G01X8483Y4635D02*
G01X8483Y4681D01*
G01X8529Y4772D01*
G01X8575Y4818D01*
G01X8666Y4864D01*
G01X8849Y4864D01*
G01X8938Y4818D01*
G01X8983Y4772D01*
G01X9029Y4681D01*
G01X9029Y4589D01*
G01X8983Y4500D01*
G01X8895Y4363D01*
G01X8440Y3909D01*
G01X9075Y3909D01*
G01X9375Y4864D02*
G01X9375Y3909D01*
G01X10012Y4864D02*
G01X9375Y4226D01*
G01X9603Y4455D02*
G01X10012Y3909D01*
G54D17*
G01X48006Y14732D02*
G01X48006Y13776D01*
G01X48006Y14732D02*
G01X48369Y13776D01*
G01X48732Y14732D02*
G01X48369Y13776D01*
G01X48732Y14732D02*
G01X48732Y13776D01*
G01X49306Y14732D02*
G01X49215Y14686D01*
G01X49123Y14594D01*
G01X49077Y14503D01*
G01X49032Y14368D01*
G01X49032Y14140D01*
G01X49077Y14003D01*
G01X49123Y13914D01*
G01X49215Y13822D01*
G01X49306Y13776D01*
G01X49486Y13776D01*
G01X49578Y13822D01*
G01X49669Y13914D01*
G01X49715Y14003D01*
G01X49761Y14140D01*
G01X49761Y14368D01*
G01X49715Y14503D01*
G01X49669Y14594D01*
G01X49578Y14686D01*
G01X49486Y14732D01*
G01X49306Y14732D01*
G01X50695Y14594D02*
G01X50606Y14686D01*
G01X50469Y14732D01*
G01X50286Y14732D01*
G01X50152Y14686D01*
G01X50060Y14594D01*
G01X50060Y14503D01*
G01X50106Y14411D01*
G01X50152Y14368D01*
G01X50241Y14323D01*
G01X50515Y14231D01*
G01X50606Y14185D01*
G01X50652Y14140D01*
G01X50695Y14048D01*
G01X50695Y13914D01*
G01X50606Y13822D01*
G01X50469Y13776D01*
G01X50286Y13776D01*
G01X50152Y13822D01*
G01X50060Y13914D01*
G01X50998Y14732D02*
G01X50998Y13776D01*
G01X50998Y14732D02*
G01X51587Y14732D01*
G01X50998Y14277D02*
G01X51361Y14277D01*
G01X51887Y14732D02*
G01X51887Y13776D01*
G01X51887Y14732D02*
G01X52478Y14732D01*
G01X51887Y14277D02*
G01X52250Y14277D01*
G01X51887Y13776D02*
G01X52478Y13776D01*
G01X53096Y14732D02*
G01X53096Y13776D01*
G01X52778Y14732D02*
G01X53416Y14732D01*
G54D15*
G01X48768Y4318D02*
G01X48768Y3362D01*
G01X48768Y4318D02*
G01X49176Y4318D01*
G01X49314Y4272D01*
G01X49359Y4226D01*
G01X49405Y4135D01*
G01X49405Y3997D01*
G01X49359Y3909D01*
G01X49314Y3863D01*
G01X49176Y3817D01*
G01X48768Y3817D01*
G01X49705Y4318D02*
G01X49931Y3362D01*
G01X50159Y4318D02*
G01X49931Y3362D01*
G01X50159Y4318D02*
G01X50385Y3362D01*
G01X50614Y4318D02*
G01X50385Y3362D01*
G01X50914Y4318D02*
G01X50914Y3362D01*
G01X50914Y4318D02*
G01X51323Y4318D01*
G01X51457Y4272D01*
G01X51503Y4226D01*
G01X51549Y4135D01*
G01X51549Y4043D01*
G01X51503Y3954D01*
G01X51457Y3909D01*
G01X51323Y3863D01*
G01X50914Y3863D01*
G01X51231Y3863D02*
G01X51549Y3362D01*
G01X48768Y6421D02*
G01X48859Y6466D01*
G01X48994Y6604D01*
G01X48994Y5648D01*
G01X49296Y6604D02*
G01X49296Y5648D01*
G01X49931Y6604D02*
G01X49296Y5966D01*
G01X49522Y6195D02*
G01X49931Y5648D01*
G54D17*
G01X54356Y21173D02*
G01X54356Y20124D01*
G01X54356Y21173D02*
G01X54805Y21173D01*
G01X54955Y21125D01*
G01X55006Y21074D01*
G01X55057Y20972D01*
G01X55057Y20822D01*
G01X55006Y20723D01*
G01X54955Y20673D01*
G01X54805Y20624D01*
G01X54356Y20624D01*
G01X55387Y20822D02*
G01X55387Y20124D01*
G01X55387Y20523D02*
G01X55435Y20673D01*
G01X55537Y20774D01*
G01X55636Y20822D01*
G01X55786Y20822D01*
G01X56365Y20822D02*
G01X56266Y20774D01*
G01X56167Y20673D01*
G01X56116Y20523D01*
G01X56116Y20424D01*
G01X56167Y20274D01*
G01X56266Y20175D01*
G01X56365Y20124D01*
G01X56515Y20124D01*
G01X56616Y20175D01*
G01X56715Y20274D01*
G01X56766Y20424D01*
G01X56766Y20523D01*
G01X56715Y20673D01*
G01X56616Y20774D01*
G01X56515Y20822D01*
G01X56365Y20822D01*
G01X57696Y21173D02*
G01X57696Y20124D01*
G01X57696Y20673D02*
G01X57597Y20774D01*
G01X57495Y20822D01*
G01X57345Y20822D01*
G01X57246Y20774D01*
G01X57144Y20673D01*
G01X57096Y20523D01*
G01X57096Y20424D01*
G01X57144Y20274D01*
G01X57246Y20175D01*
G01X57345Y20124D01*
G01X57495Y20124D01*
G01X57597Y20175D01*
G01X57696Y20274D01*
G01X58026Y20822D02*
G01X58026Y20325D01*
G01X58077Y20175D01*
G01X58176Y20124D01*
G01X58326Y20124D01*
G01X58425Y20175D01*
G01X58574Y20325D01*
G01X58574Y20822D02*
G01X58574Y20124D01*
G01X59507Y20673D02*
G01X59405Y20774D01*
G01X59306Y20822D01*
G01X59156Y20822D01*
G01X59055Y20774D01*
G01X58955Y20673D01*
G01X58905Y20523D01*
G01X58905Y20424D01*
G01X58955Y20274D01*
G01X59055Y20175D01*
G01X59156Y20124D01*
G01X59306Y20124D01*
G01X59405Y20175D01*
G01X59507Y20274D01*
G01X59987Y21173D02*
G01X59987Y20325D01*
G01X60035Y20175D01*
G01X60137Y20124D01*
G01X60236Y20124D01*
G01X59834Y20822D02*
G01X60185Y20822D01*
G01X60566Y21173D02*
G01X60617Y21125D01*
G01X60665Y21173D01*
G01X60617Y21224D01*
G01X60566Y21173D01*
G01X60617Y20822D02*
G01X60617Y20124D01*
G01X61247Y20822D02*
G01X61145Y20774D01*
G01X61046Y20673D01*
G01X60995Y20523D01*
G01X60995Y20424D01*
G01X61046Y20274D01*
G01X61145Y20175D01*
G01X61247Y20124D01*
G01X61396Y20124D01*
G01X61495Y20175D01*
G01X61595Y20274D01*
G01X61645Y20424D01*
G01X61645Y20523D01*
G01X61595Y20673D01*
G01X61495Y20774D01*
G01X61396Y20822D01*
G01X61247Y20822D01*
G01X61976Y20822D02*
G01X61976Y20124D01*
G01X61976Y20624D02*
G01X62125Y20774D01*
G01X62224Y20822D01*
G01X62374Y20822D01*
G01X62476Y20774D01*
G01X62527Y20624D01*
G01X62527Y20124D01*
G54D15*
G01X61976Y6906D02*
G01X62080Y6957D01*
G01X62235Y7112D01*
G01X62235Y6022D01*
G01X62577Y7112D02*
G01X62577Y6022D01*
G01X63306Y7112D02*
G01X62577Y6385D01*
G01X62839Y6644D02*
G01X63306Y6022D01*
G01X8907Y7983D02*
G01X8854Y8087D01*
G01X8752Y8191D01*
G01X8648Y8242D01*
G01X8440Y8242D01*
G01X8336Y8191D01*
G01X8231Y8087D01*
G01X8181Y7983D01*
G01X8127Y7828D01*
G01X8127Y7569D01*
G01X8181Y7411D01*
G01X8231Y7307D01*
G01X8336Y7203D01*
G01X8440Y7152D01*
G01X8648Y7152D01*
G01X8752Y7203D01*
G01X8854Y7307D01*
G01X8907Y7411D01*
G54D16*
G01X6875Y29204D02*
G01X6822Y29309D01*
G01X6718Y29413D01*
G01X6616Y29464D01*
G01X6408Y29464D01*
G01X6304Y29413D01*
G01X6200Y29309D01*
G01X6146Y29204D01*
G01X6096Y29049D01*
G01X6096Y28790D01*
G01X6146Y28633D01*
G01X6200Y28529D01*
G01X6304Y28425D01*
G01X6408Y28374D01*
G01X6616Y28374D01*
G01X6718Y28425D01*
G01X6822Y28529D01*
G01X6875Y28633D01*
G54D18*
G01X67056Y8382D03*
G01X66548Y21082D03*
G01X47498Y8382D03*
G54D19*
G01X11176Y21844D03*
G54D20*
G01X11176Y15543D03*
G01X13475Y15543D03*
G01X8876Y15543D03*
G54D21*
G01X33096Y17270D03*
G01X34290Y17270D03*
G01X35483Y17270D03*
G54D22*
G01X68070Y29371D03*
G01X68070Y25670D03*
G01X74270Y29371D03*
G01X74270Y25670D03*
G54D23*
G01X57580Y30031D03*
G01X55878Y30031D03*
G01X54179Y30031D03*
G01X57580Y24831D03*
G01X55880Y24831D03*
G01X54179Y24831D03*
G01X42594Y30031D03*
G01X40895Y30031D03*
G01X39196Y30031D03*
G01X42594Y24831D03*
G01X40895Y24831D03*
G01X39196Y24831D03*
G01X27608Y30031D03*
G01X25906Y30031D03*
G01X24207Y30031D03*
G01X27608Y24831D03*
G01X25908Y24831D03*
G01X24207Y24831D03*
G01X12622Y30031D03*
G01X10923Y30031D03*
G01X9224Y30031D03*
G01X12622Y24831D03*
G01X10923Y24831D03*
G01X9224Y24831D03*
G54D24*
G01X61723Y8380D03*
G01X63704Y8380D03*
G01X13971Y5078D03*
G01X11990Y5078D03*
G01X13971Y3300D03*
G01X11990Y3300D03*
G54D25*
G01X15241Y25147D03*
G54D24*
G01X15241Y23166D03*
G54D25*
G01X17273Y25147D03*
G54D24*
G01X17273Y23166D03*
G54D25*
G01X19305Y25147D03*
G54D24*
G01X19305Y23166D03*
G54D25*
G01X21337Y25147D03*
G54D24*
G01X21337Y23166D03*
G01X44702Y3811D03*
G01X46683Y3811D03*
G01X44702Y6097D03*
G01X46683Y6097D03*
G54D25*
G01X30227Y25147D03*
G54D24*
G01X30227Y23166D03*
G54D25*
G01X32259Y25147D03*
G54D24*
G01X32259Y23166D03*
G54D25*
G01X34291Y25147D03*
G54D24*
G01X34291Y23166D03*
G54D25*
G01X36323Y25147D03*
G54D24*
G01X36323Y23166D03*
G54D25*
G01X44705Y25147D03*
G54D24*
G01X44705Y23166D03*
G54D25*
G01X48007Y25147D03*
G54D24*
G01X48007Y23166D03*
G54D25*
G01X50039Y25147D03*
G54D24*
G01X50039Y23166D03*
G54D25*
G01X52071Y25147D03*
G54D24*
G01X52071Y23166D03*
G01X24639Y7875D03*
G01X24639Y5894D03*
G01X22353Y7875D03*
G01X22353Y5894D03*
G54D25*
G01X19559Y7875D03*
G54D24*
G01X19559Y5894D03*
G54D26*
G01X10922Y7366D03*
G01X14224Y7366D03*
G54D27*
G01X6604Y26670D03*
G01X6604Y23368D03*
G36*
G01X27178Y12954D02*
G01X27940Y12954D01*
G01X27940Y12192D01*
G01X27178Y12192D01*
G01X27178Y12954D01*
G37*
G54D28*
G01X56896Y16637D03*
G54D29*
G01X27940Y7112D03*
G01X30734Y7112D03*
G01X34036Y7112D03*
G54D30*
G01X41148Y7112D03*
G54D29*
G01X16764Y7112D03*
G54D18*
G01X67818Y22352D03*
G01X68326Y11684D03*
G54D31*
G01X3556Y18034D03*
G01X5080Y18034D03*
G01X2032Y18034D03*
G01X3556Y16510D03*
G01X5080Y16510D03*
G01X2032Y16510D03*
G01X3556Y19558D03*
G01X5080Y19558D03*
G01X2032Y19558D03*
G01X3556Y10414D03*
G01X5080Y10414D03*
G01X2032Y10414D03*
G01X3556Y8890D03*
G01X5080Y8890D03*
G01X2032Y8890D03*
G01X3556Y11938D03*
G01X5080Y11938D03*
G01X2032Y11938D03*
G01X73914Y10922D03*
G01X75438Y10922D03*
G01X72390Y10922D03*
G01X73914Y9398D03*
G01X75438Y9398D03*
G01X72390Y9398D03*
G01X73914Y12446D03*
G01X75438Y12446D03*
G01X72390Y12446D03*
G01X73914Y18034D03*
G01X75438Y18034D03*
G01X72390Y18034D03*
G01X73914Y16510D03*
G01X75438Y16510D03*
G01X72390Y16510D03*
G01X73914Y19558D03*
G01X75438Y19558D03*
G01X72390Y19558D03*
G54D32*
G01X52070Y20320D03*
G01X39116Y20320D03*
G54D33*
G01X57145Y11557D02*
G01X56646Y11557D01*
G01X57145Y14097D02*
G01X56646Y14097D01*
G54D34*
G01X18034Y14478D02*
G01X18033Y14478D01*
G54D18*
G01X18034Y12192D02*
G01X18034Y12192D01*
G01X18542Y9906D02*
G01X18542Y9906D01*
G01X16764Y3302D02*
G01X16764Y3302D01*
M00*
M02*
