G04 ---------------------------- Layer name :BOTTOM SILK LAYER*
G04 EasyEDA v5.6.15, Thu, 09 Aug 2018 00:10:23 GMT*
G04 1eb12ba90bff44d893ac4b1b4a3eba8c*
G04 Gerber Generator version 0.2*
G04 Scale: 100 percent, Rotated: No, Reflected: No *
G04 Dimensions in millimeters *
G04 leading zeros omitted , absolute positions ,3 integer and 3 decimal *
%FSLAX33Y33*%
%MOMM*%
G90*
G71D02*

%ADD11C,0.399999*%
%ADD15C,0.177800*%
%ADD16C,0.203200*%
%ADD17C,0.178003*%
%ADD39C,0.299999*%

%LPD*%
G54D11*
G01X10160Y27940D02*
G01X16764Y27940D01*
G01X15494Y29210D01*
G01X15494Y26670D01*
G01X16764Y27940D01*
G01X59182Y27940D02*
G01X65786Y27940D01*
G01X64516Y29210D01*
G01X64516Y26670D01*
G01X65786Y27940D01*
G01X7366Y17780D02*
G01X9144Y17780D01*
G01X8255Y9271D02*
G01X8255Y11049D01*
G01X7366Y10160D02*
G01X9144Y10160D01*
G54D39*
G01X47365Y30226D02*
G01X47365Y28794D01*
G01X47365Y30226D02*
G01X46751Y30226D01*
G01X46546Y30157D01*
G01X46478Y30089D01*
G01X46410Y29953D01*
G01X46410Y29816D01*
G01X46478Y29680D01*
G01X46546Y29612D01*
G01X46751Y29544D01*
G01X47365Y29544D02*
G01X46751Y29544D01*
G01X46546Y29475D01*
G01X46478Y29407D01*
G01X46410Y29271D01*
G01X46410Y29066D01*
G01X46478Y28930D01*
G01X46546Y28862D01*
G01X46751Y28794D01*
G01X47365Y28794D01*
G01X45142Y29748D02*
G01X45142Y28794D01*
G01X45142Y29544D02*
G01X45278Y29680D01*
G01X45415Y29748D01*
G01X45619Y29748D01*
G01X45755Y29680D01*
G01X45892Y29544D01*
G01X45960Y29339D01*
G01X45960Y29203D01*
G01X45892Y28998D01*
G01X45755Y28862D01*
G01X45619Y28794D01*
G01X45415Y28794D01*
G01X45278Y28862D01*
G01X45142Y28998D01*
G01X44487Y30226D02*
G01X44487Y29066D01*
G01X44419Y28862D01*
G01X44283Y28794D01*
G01X44146Y28794D01*
G01X44692Y29748D02*
G01X44215Y29748D01*
G01X43492Y30226D02*
G01X43492Y29066D01*
G01X43424Y28862D01*
G01X43287Y28794D01*
G01X43151Y28794D01*
G01X43696Y29748D02*
G01X43219Y29748D01*
G01X42701Y29339D02*
G01X41883Y29339D01*
G01X41883Y29475D01*
G01X41951Y29612D01*
G01X42019Y29680D01*
G01X42155Y29748D01*
G01X42360Y29748D01*
G01X42496Y29680D01*
G01X42633Y29544D01*
G01X42701Y29339D01*
G01X42701Y29203D01*
G01X42633Y28998D01*
G01X42496Y28862D01*
G01X42360Y28794D01*
G01X42155Y28794D01*
G01X42019Y28862D01*
G01X41883Y28998D01*
G01X41433Y29748D02*
G01X41433Y28794D01*
G01X41433Y29339D02*
G01X41365Y29544D01*
G01X41228Y29680D01*
G01X41092Y29748D01*
G01X40887Y29748D01*
G01X40369Y29748D02*
G01X39960Y28794D01*
G01X39551Y29748D02*
G01X39960Y28794D01*
G01X40096Y28521D01*
G01X40233Y28385D01*
G01X40369Y28316D01*
G01X40437Y28316D01*
G01X39101Y30226D02*
G01X39101Y28794D01*
G01X39101Y30226D02*
G01X38487Y30226D01*
G01X38283Y30157D01*
G01X38215Y30089D01*
G01X38146Y29953D01*
G01X38146Y29748D01*
G01X38215Y29612D01*
G01X38283Y29544D01*
G01X38487Y29475D01*
G01X39101Y29475D01*
G01X37696Y29748D02*
G01X37696Y28794D01*
G01X37696Y29339D02*
G01X37628Y29544D01*
G01X37492Y29680D01*
G01X37356Y29748D01*
G01X37151Y29748D01*
G01X36360Y29748D02*
G01X36496Y29680D01*
G01X36633Y29544D01*
G01X36701Y29339D01*
G01X36701Y29203D01*
G01X36633Y28998D01*
G01X36496Y28862D01*
G01X36360Y28794D01*
G01X36156Y28794D01*
G01X36019Y28862D01*
G01X35883Y28998D01*
G01X35815Y29203D01*
G01X35815Y29339D01*
G01X35883Y29544D01*
G01X36019Y29680D01*
G01X36156Y29748D01*
G01X36360Y29748D01*
G01X35160Y30226D02*
G01X35160Y29066D01*
G01X35092Y28862D01*
G01X34956Y28794D01*
G01X34819Y28794D01*
G01X35365Y29748D02*
G01X34887Y29748D01*
G01X34369Y29339D02*
G01X33551Y29339D01*
G01X33551Y29475D01*
G01X33619Y29612D01*
G01X33687Y29680D01*
G01X33824Y29748D01*
G01X34028Y29748D01*
G01X34165Y29680D01*
G01X34301Y29544D01*
G01X34369Y29339D01*
G01X34369Y29203D01*
G01X34301Y28998D01*
G01X34165Y28862D01*
G01X34028Y28794D01*
G01X33824Y28794D01*
G01X33687Y28862D01*
G01X33551Y28998D01*
G01X32283Y29544D02*
G01X32419Y29680D01*
G01X32556Y29748D01*
G01X32760Y29748D01*
G01X32896Y29680D01*
G01X33033Y29544D01*
G01X33101Y29339D01*
G01X33101Y29203D01*
G01X33033Y28998D01*
G01X32896Y28862D01*
G01X32760Y28794D01*
G01X32556Y28794D01*
G01X32419Y28862D01*
G01X32283Y28998D01*
G01X31628Y30226D02*
G01X31628Y29066D01*
G01X31560Y28862D01*
G01X31424Y28794D01*
G01X31287Y28794D01*
G01X31833Y29748D02*
G01X31356Y29748D01*
G01X30496Y29748D02*
G01X30633Y29680D01*
G01X30769Y29544D01*
G01X30837Y29339D01*
G01X30837Y29203D01*
G01X30769Y28998D01*
G01X30633Y28862D01*
G01X30496Y28794D01*
G01X30292Y28794D01*
G01X30156Y28862D01*
G01X30019Y28998D01*
G01X29951Y29203D01*
G01X29951Y29339D01*
G01X30019Y29544D01*
G01X30156Y29680D01*
G01X30292Y29748D01*
G01X30496Y29748D01*
G01X29501Y29748D02*
G01X29501Y28794D01*
G01X29501Y29339D02*
G01X29433Y29544D01*
G01X29296Y29680D01*
G01X29160Y29748D01*
G01X28956Y29748D01*
G54D16*
G01X75412Y3455D02*
G01X75412Y2214D01*
G01X75412Y3455D02*
G01X74644Y3455D01*
G01X75412Y2864D02*
G01X74940Y2864D01*
G01X73604Y2864D02*
G01X73663Y2982D01*
G01X73841Y3041D01*
G01X74018Y3041D01*
G01X74195Y2982D01*
G01X74254Y2864D01*
G01X74195Y2746D01*
G01X74077Y2687D01*
G01X73781Y2628D01*
G01X73663Y2568D01*
G01X73604Y2450D01*
G01X73604Y2391D01*
G01X73663Y2273D01*
G01X73841Y2214D01*
G01X74018Y2214D01*
G01X74195Y2273D01*
G01X74254Y2391D01*
G01X72919Y3041D02*
G01X73037Y2982D01*
G01X73155Y2864D01*
G01X73214Y2687D01*
G01X73214Y2568D01*
G01X73155Y2391D01*
G01X73037Y2273D01*
G01X72919Y2214D01*
G01X72741Y2214D01*
G01X72623Y2273D01*
G01X72505Y2391D01*
G01X72446Y2568D01*
G01X72446Y2687D01*
G01X72505Y2864D01*
G01X72623Y2982D01*
G01X72741Y3041D01*
G01X72919Y3041D01*
G01X71583Y3455D02*
G01X71701Y3455D01*
G01X71820Y3396D01*
G01X71879Y3218D01*
G01X71879Y2214D01*
G01X72056Y3041D02*
G01X71642Y3041D01*
G01X71016Y3455D02*
G01X71016Y2450D01*
G01X70957Y2273D01*
G01X70839Y2214D01*
G01X70721Y2214D01*
G01X71193Y3041D02*
G01X70780Y3041D01*
G01X69421Y3455D02*
G01X69421Y2214D01*
G01X69421Y3455D02*
G01X68889Y3455D01*
G01X68711Y3396D01*
G01X68652Y3337D01*
G01X68593Y3218D01*
G01X68593Y3041D01*
G01X68652Y2923D01*
G01X68711Y2864D01*
G01X68889Y2805D01*
G01X69421Y2805D01*
G01X68203Y3041D02*
G01X68203Y2214D01*
G01X68203Y2687D02*
G01X68144Y2864D01*
G01X68026Y2982D01*
G01X67908Y3041D01*
G01X67731Y3041D01*
G01X67045Y3041D02*
G01X67163Y2982D01*
G01X67281Y2864D01*
G01X67341Y2687D01*
G01X67341Y2568D01*
G01X67281Y2391D01*
G01X67163Y2273D01*
G01X67045Y2214D01*
G01X66868Y2214D01*
G01X66750Y2273D01*
G01X66631Y2391D01*
G01X66572Y2568D01*
G01X66572Y2687D01*
G01X66631Y2864D01*
G01X66750Y2982D01*
G01X66868Y3041D01*
G01X67045Y3041D01*
G01X65473Y3455D02*
G01X65473Y2214D01*
G01X65473Y2864D02*
G01X65591Y2982D01*
G01X65710Y3041D01*
G01X65887Y3041D01*
G01X66005Y2982D01*
G01X66123Y2864D01*
G01X66182Y2687D01*
G01X66182Y2568D01*
G01X66123Y2391D01*
G01X66005Y2273D01*
G01X65887Y2214D01*
G01X65710Y2214D01*
G01X65591Y2273D01*
G01X65473Y2391D01*
G01X65083Y3041D02*
G01X65083Y2450D01*
G01X65024Y2273D01*
G01X64906Y2214D01*
G01X64729Y2214D01*
G01X64611Y2273D01*
G01X64433Y2450D01*
G01X64433Y3041D02*
G01X64433Y2214D01*
G01X63334Y2864D02*
G01X63452Y2982D01*
G01X63571Y3041D01*
G01X63748Y3041D01*
G01X63866Y2982D01*
G01X63984Y2864D01*
G01X64043Y2687D01*
G01X64043Y2568D01*
G01X63984Y2391D01*
G01X63866Y2273D01*
G01X63748Y2214D01*
G01X63571Y2214D01*
G01X63452Y2273D01*
G01X63334Y2391D01*
G01X62767Y3455D02*
G01X62767Y2450D01*
G01X62708Y2273D01*
G01X62590Y2214D01*
G01X62471Y2214D01*
G01X62944Y3041D02*
G01X62531Y3041D01*
G01X62081Y3455D02*
G01X62022Y3396D01*
G01X61963Y3455D01*
G01X62022Y3514D01*
G01X62081Y3455D01*
G01X62022Y3041D02*
G01X62022Y2214D01*
G01X61278Y3041D02*
G01X61396Y2982D01*
G01X61514Y2864D01*
G01X61573Y2687D01*
G01X61573Y2568D01*
G01X61514Y2391D01*
G01X61396Y2273D01*
G01X61278Y2214D01*
G01X61101Y2214D01*
G01X60982Y2273D01*
G01X60864Y2391D01*
G01X60805Y2568D01*
G01X60805Y2687D01*
G01X60864Y2864D01*
G01X60982Y2982D01*
G01X61101Y3041D01*
G01X61278Y3041D01*
G01X60415Y3041D02*
G01X60415Y2214D01*
G01X60415Y2805D02*
G01X60238Y2982D01*
G01X60120Y3041D01*
G01X59942Y3041D01*
G01X59824Y2982D01*
G01X59765Y2805D01*
G01X59765Y2214D01*
G01X58406Y3159D02*
G01X58406Y3218D01*
G01X58347Y3337D01*
G01X58288Y3396D01*
G01X58170Y3455D01*
G01X57933Y3455D01*
G01X57815Y3396D01*
G01X57756Y3337D01*
G01X57697Y3218D01*
G01X57697Y3100D01*
G01X57756Y2982D01*
G01X57874Y2805D01*
G01X58465Y2214D01*
G01X57638Y2214D01*
G01X56893Y3455D02*
G01X57071Y3396D01*
G01X57189Y3218D01*
G01X57248Y2923D01*
G01X57248Y2746D01*
G01X57189Y2450D01*
G01X57071Y2273D01*
G01X56893Y2214D01*
G01X56775Y2214D01*
G01X56598Y2273D01*
G01X56480Y2450D01*
G01X56421Y2746D01*
G01X56421Y2923D01*
G01X56480Y3218D01*
G01X56598Y3396D01*
G01X56775Y3455D01*
G01X56893Y3455D01*
G01X56031Y3218D02*
G01X55912Y3278D01*
G01X55735Y3455D01*
G01X55735Y2214D01*
G01X55050Y3455D02*
G01X55227Y3396D01*
G01X55286Y3278D01*
G01X55286Y3159D01*
G01X55227Y3041D01*
G01X55109Y2982D01*
G01X54872Y2923D01*
G01X54695Y2864D01*
G01X54577Y2746D01*
G01X54518Y2628D01*
G01X54518Y2450D01*
G01X54577Y2332D01*
G01X54636Y2273D01*
G01X54813Y2214D01*
G01X55050Y2214D01*
G01X55227Y2273D01*
G01X55286Y2332D01*
G01X55345Y2450D01*
G01X55345Y2628D01*
G01X55286Y2746D01*
G01X55168Y2864D01*
G01X54991Y2923D01*
G01X54754Y2982D01*
G01X54636Y3041D01*
G01X54577Y3159D01*
G01X54577Y3278D01*
G01X54636Y3396D01*
G01X54813Y3455D01*
G01X55050Y3455D01*
G01X53108Y16455D02*
G01X53108Y15310D01*
G01X53108Y16455D02*
G01X52727Y16455D01*
G01X52563Y16400D01*
G01X52454Y16291D01*
G01X52399Y16182D01*
G01X52345Y16019D01*
G01X52345Y15746D01*
G01X52399Y15582D01*
G01X52454Y15473D01*
G01X52563Y15364D01*
G01X52727Y15310D01*
G01X53108Y15310D01*
G01X51985Y15746D02*
G01X51330Y15746D01*
G01X51330Y15855D01*
G01X51385Y15964D01*
G01X51439Y16019D01*
G01X51548Y16073D01*
G01X51712Y16073D01*
G01X51821Y16019D01*
G01X51930Y15910D01*
G01X51985Y15746D01*
G01X51985Y15637D01*
G01X51930Y15473D01*
G01X51821Y15364D01*
G01X51712Y15310D01*
G01X51548Y15310D01*
G01X51439Y15364D01*
G01X51330Y15473D01*
G01X50370Y15910D02*
G01X50425Y16019D01*
G01X50588Y16073D01*
G01X50752Y16073D01*
G01X50916Y16019D01*
G01X50970Y15910D01*
G01X50916Y15800D01*
G01X50807Y15746D01*
G01X50534Y15691D01*
G01X50425Y15637D01*
G01X50370Y15528D01*
G01X50370Y15473D01*
G01X50425Y15364D01*
G01X50588Y15310D01*
G01X50752Y15310D01*
G01X50916Y15364D01*
G01X50970Y15473D01*
G01X50010Y16455D02*
G01X49956Y16400D01*
G01X49901Y16455D01*
G01X49956Y16510D01*
G01X50010Y16455D01*
G01X49956Y16073D02*
G01X49956Y15310D01*
G01X48887Y16073D02*
G01X48887Y15200D01*
G01X48941Y15037D01*
G01X48996Y14982D01*
G01X49105Y14928D01*
G01X49268Y14928D01*
G01X49377Y14982D01*
G01X48887Y15910D02*
G01X48996Y16019D01*
G01X49105Y16073D01*
G01X49268Y16073D01*
G01X49377Y16019D01*
G01X49487Y15910D01*
G01X49541Y15746D01*
G01X49541Y15637D01*
G01X49487Y15473D01*
G01X49377Y15364D01*
G01X49268Y15310D01*
G01X49105Y15310D01*
G01X48996Y15364D01*
G01X48887Y15473D01*
G01X48527Y16073D02*
G01X48527Y15310D01*
G01X48527Y15855D02*
G01X48363Y16019D01*
G01X48254Y16073D01*
G01X48090Y16073D01*
G01X47981Y16019D01*
G01X47927Y15855D01*
G01X47927Y15310D01*
G01X47567Y15746D02*
G01X46912Y15746D01*
G01X46912Y15855D01*
G01X46967Y15964D01*
G01X47021Y16019D01*
G01X47130Y16073D01*
G01X47294Y16073D01*
G01X47403Y16019D01*
G01X47512Y15910D01*
G01X47567Y15746D01*
G01X47567Y15637D01*
G01X47512Y15473D01*
G01X47403Y15364D01*
G01X47294Y15310D01*
G01X47130Y15310D01*
G01X47021Y15364D01*
G01X46912Y15473D01*
G01X45897Y16455D02*
G01X45897Y15310D01*
G01X45897Y15910D02*
G01X46007Y16019D01*
G01X46116Y16073D01*
G01X46279Y16073D01*
G01X46388Y16019D01*
G01X46497Y15910D01*
G01X46552Y15746D01*
G01X46552Y15637D01*
G01X46497Y15473D01*
G01X46388Y15364D01*
G01X46279Y15310D01*
G01X46116Y15310D01*
G01X46007Y15364D01*
G01X45897Y15473D01*
G01X44697Y16455D02*
G01X44697Y15310D01*
G01X44697Y15910D02*
G01X44588Y16019D01*
G01X44479Y16073D01*
G01X44316Y16073D01*
G01X44207Y16019D01*
G01X44097Y15910D01*
G01X44043Y15746D01*
G01X44043Y15637D01*
G01X44097Y15473D01*
G01X44207Y15364D01*
G01X44316Y15310D01*
G01X44479Y15310D01*
G01X44588Y15364D01*
G01X44697Y15473D01*
G01X43628Y16073D02*
G01X43301Y15310D01*
G01X42974Y16073D02*
G01X43301Y15310D01*
G01X43410Y15091D01*
G01X43519Y14982D01*
G01X43628Y14928D01*
G01X43683Y14928D01*
G01X41774Y16455D02*
G01X41774Y15310D01*
G01X41774Y16455D02*
G01X41392Y16455D01*
G01X41228Y16400D01*
G01X41119Y16291D01*
G01X41065Y16182D01*
G01X41010Y16019D01*
G01X41010Y15746D01*
G01X41065Y15582D01*
G01X41119Y15473D01*
G01X41228Y15364D01*
G01X41392Y15310D01*
G01X41774Y15310D01*
G01X40650Y16073D02*
G01X40650Y15310D01*
G01X40650Y15746D02*
G01X40596Y15910D01*
G01X40487Y16019D01*
G01X40377Y16073D01*
G01X40214Y16073D01*
G01X39799Y15582D02*
G01X39854Y15528D01*
G01X39799Y15473D01*
G01X39745Y15528D01*
G01X39799Y15582D01*
G01X38545Y16455D02*
G01X38545Y15310D01*
G01X38545Y16455D02*
G01X37836Y16455D01*
G01X38545Y15910D02*
G01X38108Y15910D01*
G01X36821Y16073D02*
G01X36821Y15310D01*
G01X36821Y15910D02*
G01X36930Y16019D01*
G01X37039Y16073D01*
G01X37203Y16073D01*
G01X37312Y16019D01*
G01X37421Y15910D01*
G01X37476Y15746D01*
G01X37476Y15637D01*
G01X37421Y15473D01*
G01X37312Y15364D01*
G01X37203Y15310D01*
G01X37039Y15310D01*
G01X36930Y15364D01*
G01X36821Y15473D01*
G01X36461Y16455D02*
G01X36407Y16400D01*
G01X36352Y16455D01*
G01X36407Y16510D01*
G01X36461Y16455D01*
G01X36407Y16073D02*
G01X36407Y15310D01*
G01X35992Y16455D02*
G01X35992Y15310D01*
G01X35359Y16073D02*
G01X35468Y16019D01*
G01X35577Y15910D01*
G01X35632Y15746D01*
G01X35632Y15637D01*
G01X35577Y15473D01*
G01X35468Y15364D01*
G01X35359Y15310D01*
G01X35196Y15310D01*
G01X35087Y15364D01*
G01X34977Y15473D01*
G01X34923Y15637D01*
G01X34923Y15746D01*
G01X34977Y15910D01*
G01X35087Y16019D01*
G01X35196Y16073D01*
G01X35359Y16073D01*
G01X34563Y16073D02*
G01X34236Y15310D01*
G01X33908Y16073D02*
G01X34236Y15310D01*
G01X32708Y16455D02*
G01X32654Y16400D01*
G01X32599Y16455D01*
G01X32654Y16510D01*
G01X32708Y16455D01*
G01X32654Y16073D02*
G01X32654Y15310D01*
G01X32239Y16073D02*
G01X32239Y15310D01*
G01X32239Y15855D02*
G01X32076Y16019D01*
G01X31967Y16073D01*
G01X31803Y16073D01*
G01X31694Y16019D01*
G01X31639Y15855D01*
G01X31639Y15310D01*
G01X30439Y16455D02*
G01X30439Y15310D01*
G01X29676Y16455D02*
G01X30439Y15691D01*
G01X30167Y15964D02*
G01X29676Y15310D01*
G01X29316Y16455D02*
G01X29261Y16400D01*
G01X29207Y16455D01*
G01X29261Y16510D01*
G01X29316Y16455D01*
G01X29261Y16073D02*
G01X29261Y15310D01*
G01X28847Y15746D02*
G01X28192Y15746D01*
G01X28192Y15855D01*
G01X28247Y15964D01*
G01X28301Y16019D01*
G01X28410Y16073D01*
G01X28574Y16073D01*
G01X28683Y16019D01*
G01X28792Y15910D01*
G01X28847Y15746D01*
G01X28847Y15637D01*
G01X28792Y15473D01*
G01X28683Y15364D01*
G01X28574Y15310D01*
G01X28410Y15310D01*
G01X28301Y15364D01*
G01X28192Y15473D01*
G01X27832Y16073D02*
G01X27505Y15310D01*
G01X27177Y16073D02*
G01X27505Y15310D01*
G01X52488Y14568D02*
G01X52597Y14677D01*
G01X52761Y14732D01*
G01X52979Y14732D01*
G01X53143Y14677D01*
G01X53252Y14568D01*
G01X53252Y14459D01*
G01X53197Y14350D01*
G01X53143Y14295D01*
G01X53033Y14241D01*
G01X52706Y14132D01*
G01X52597Y14077D01*
G01X52543Y14022D01*
G01X52488Y13913D01*
G01X52488Y13750D01*
G01X52597Y13641D01*
G01X52761Y13586D01*
G01X52979Y13586D01*
G01X53143Y13641D01*
G01X53252Y13750D01*
G01X51964Y14732D02*
G01X51964Y13804D01*
G01X51910Y13641D01*
G01X51801Y13586D01*
G01X51692Y13586D01*
G01X52128Y14350D02*
G01X51746Y14350D01*
G01X50677Y14350D02*
G01X50677Y13586D01*
G01X50677Y14186D02*
G01X50786Y14295D01*
G01X50895Y14350D01*
G01X51059Y14350D01*
G01X51168Y14295D01*
G01X51277Y14186D01*
G01X51332Y14022D01*
G01X51332Y13913D01*
G01X51277Y13750D01*
G01X51168Y13641D01*
G01X51059Y13586D01*
G01X50895Y13586D01*
G01X50786Y13641D01*
G01X50677Y13750D01*
G01X50317Y14350D02*
G01X50317Y13586D01*
G01X50317Y14132D02*
G01X50153Y14295D01*
G01X50044Y14350D01*
G01X49881Y14350D01*
G01X49772Y14295D01*
G01X49717Y14132D01*
G01X49717Y13586D01*
G01X48703Y14732D02*
G01X48703Y13586D01*
G01X48703Y14186D02*
G01X48812Y14295D01*
G01X48921Y14350D01*
G01X49084Y14350D01*
G01X49193Y14295D01*
G01X49303Y14186D01*
G01X49357Y14022D01*
G01X49357Y13913D01*
G01X49303Y13750D01*
G01X49193Y13641D01*
G01X49084Y13586D01*
G01X48921Y13586D01*
G01X48812Y13641D01*
G01X48703Y13750D01*
G01X48343Y14732D02*
G01X48343Y13586D01*
G01X48343Y14186D02*
G01X48233Y14295D01*
G01X48124Y14350D01*
G01X47961Y14350D01*
G01X47852Y14295D01*
G01X47743Y14186D01*
G01X47688Y14022D01*
G01X47688Y13913D01*
G01X47743Y13750D01*
G01X47852Y13641D01*
G01X47961Y13586D01*
G01X48124Y13586D01*
G01X48233Y13641D01*
G01X48343Y13750D01*
G01X47273Y14350D02*
G01X46946Y13586D01*
G01X46619Y14350D02*
G01X46946Y13586D01*
G01X47055Y13368D01*
G01X47164Y13259D01*
G01X47273Y13204D01*
G01X47328Y13204D01*
G01X44764Y14186D02*
G01X44873Y14295D01*
G01X44983Y14350D01*
G01X45146Y14350D01*
G01X45255Y14295D01*
G01X45364Y14186D01*
G01X45419Y14022D01*
G01X45419Y13913D01*
G01X45364Y13750D01*
G01X45255Y13641D01*
G01X45146Y13586D01*
G01X44983Y13586D01*
G01X44873Y13641D01*
G01X44764Y13750D01*
G01X44404Y14350D02*
G01X44404Y13804D01*
G01X44350Y13641D01*
G01X44241Y13586D01*
G01X44077Y13586D01*
G01X43968Y13641D01*
G01X43804Y13804D01*
G01X43804Y14350D02*
G01X43804Y13586D01*
G01X43444Y14350D02*
G01X43444Y13586D01*
G01X43444Y14022D02*
G01X43390Y14186D01*
G01X43281Y14295D01*
G01X43172Y14350D01*
G01X43008Y14350D01*
G01X42648Y14350D02*
G01X42648Y13586D01*
G01X42648Y14022D02*
G01X42593Y14186D01*
G01X42484Y14295D01*
G01X42375Y14350D01*
G01X42212Y14350D01*
G01X41852Y14022D02*
G01X41197Y14022D01*
G01X41197Y14132D01*
G01X41252Y14241D01*
G01X41306Y14295D01*
G01X41415Y14350D01*
G01X41579Y14350D01*
G01X41688Y14295D01*
G01X41797Y14186D01*
G01X41852Y14022D01*
G01X41852Y13913D01*
G01X41797Y13750D01*
G01X41688Y13641D01*
G01X41579Y13586D01*
G01X41415Y13586D01*
G01X41306Y13641D01*
G01X41197Y13750D01*
G01X40837Y14350D02*
G01X40837Y13586D01*
G01X40837Y14132D02*
G01X40673Y14295D01*
G01X40564Y14350D01*
G01X40401Y14350D01*
G01X40292Y14295D01*
G01X40237Y14132D01*
G01X40237Y13586D01*
G01X39713Y14732D02*
G01X39713Y13804D01*
G01X39659Y13641D01*
G01X39550Y13586D01*
G01X39441Y13586D01*
G01X39877Y14350D02*
G01X39495Y14350D01*
G01X39026Y14241D02*
G01X39081Y14186D01*
G01X39026Y14132D01*
G01X38972Y14186D01*
G01X39026Y14241D01*
G01X39026Y13859D02*
G01X39081Y13804D01*
G01X39026Y13750D01*
G01X38972Y13804D01*
G01X39026Y13859D01*
G01X37663Y14732D02*
G01X37063Y14732D01*
G01X37390Y14295D01*
G01X37226Y14295D01*
G01X37117Y14241D01*
G01X37063Y14186D01*
G01X37008Y14022D01*
G01X37008Y13913D01*
G01X37063Y13750D01*
G01X37172Y13641D01*
G01X37335Y13586D01*
G01X37499Y13586D01*
G01X37663Y13641D01*
G01X37717Y13695D01*
G01X37772Y13804D01*
G01X35993Y14732D02*
G01X36539Y14732D01*
G01X36593Y14241D01*
G01X36539Y14295D01*
G01X36375Y14350D01*
G01X36212Y14350D01*
G01X36048Y14295D01*
G01X35939Y14186D01*
G01X35884Y14022D01*
G01X35884Y13913D01*
G01X35939Y13750D01*
G01X36048Y13641D01*
G01X36212Y13586D01*
G01X36375Y13586D01*
G01X36539Y13641D01*
G01X36593Y13695D01*
G01X36648Y13804D01*
G01X35524Y14350D02*
G01X35524Y13586D01*
G01X35524Y14132D02*
G01X35361Y14295D01*
G01X35252Y14350D01*
G01X35088Y14350D01*
G01X34979Y14295D01*
G01X34924Y14132D01*
G01X34924Y13586D01*
G01X34924Y14132D02*
G01X34761Y14295D01*
G01X34652Y14350D01*
G01X34488Y14350D01*
G01X34379Y14295D01*
G01X34324Y14132D01*
G01X34324Y13586D01*
G01X33528Y14732D02*
G01X33964Y13586D01*
G01X33528Y14732D02*
G01X33092Y13586D01*
G01X33801Y13968D02*
G01X33255Y13968D01*
G01X52749Y12954D02*
G01X53186Y11808D01*
G01X52749Y12954D02*
G01X52313Y11808D01*
G01X53022Y12190D02*
G01X52477Y12190D01*
G01X51953Y12954D02*
G01X51953Y11808D01*
G01X51593Y12954D02*
G01X51593Y11808D01*
G01X50960Y12572D02*
G01X51069Y12517D01*
G01X51178Y12408D01*
G01X51233Y12244D01*
G01X51233Y12135D01*
G01X51178Y11972D01*
G01X51069Y11863D01*
G01X50960Y11808D01*
G01X50797Y11808D01*
G01X50687Y11863D01*
G01X50578Y11972D01*
G01X50524Y12135D01*
G01X50524Y12244D01*
G01X50578Y12408D01*
G01X50687Y12517D01*
G01X50797Y12572D01*
G01X50960Y12572D01*
G01X50164Y12572D02*
G01X49946Y11808D01*
G01X49727Y12572D02*
G01X49946Y11808D01*
G01X49727Y12572D02*
G01X49509Y11808D01*
G01X49291Y12572D02*
G01X49509Y11808D01*
G01X48931Y12244D02*
G01X48277Y12244D01*
G01X48277Y12354D01*
G01X48331Y12463D01*
G01X48386Y12517D01*
G01X48495Y12572D01*
G01X48658Y12572D01*
G01X48767Y12517D01*
G01X48877Y12408D01*
G01X48931Y12244D01*
G01X48931Y12135D01*
G01X48877Y11972D01*
G01X48767Y11863D01*
G01X48658Y11808D01*
G01X48495Y11808D01*
G01X48386Y11863D01*
G01X48277Y11972D01*
G01X47262Y12954D02*
G01X47262Y11808D01*
G01X47262Y12408D02*
G01X47371Y12517D01*
G01X47480Y12572D01*
G01X47644Y12572D01*
G01X47753Y12517D01*
G01X47862Y12408D01*
G01X47917Y12244D01*
G01X47917Y12135D01*
G01X47862Y11972D01*
G01X47753Y11863D01*
G01X47644Y11808D01*
G01X47480Y11808D01*
G01X47371Y11863D01*
G01X47262Y11972D01*
G01X46062Y12572D02*
G01X45735Y11808D01*
G01X45407Y12572D02*
G01X45735Y11808D01*
G01X44775Y12572D02*
G01X44884Y12517D01*
G01X44993Y12408D01*
G01X45047Y12244D01*
G01X45047Y12135D01*
G01X44993Y11972D01*
G01X44884Y11863D01*
G01X44775Y11808D01*
G01X44611Y11808D01*
G01X44502Y11863D01*
G01X44393Y11972D01*
G01X44338Y12135D01*
G01X44338Y12244D01*
G01X44393Y12408D01*
G01X44502Y12517D01*
G01X44611Y12572D01*
G01X44775Y12572D01*
G01X43978Y12954D02*
G01X43978Y11808D01*
G01X43455Y12954D02*
G01X43455Y12026D01*
G01X43400Y11863D01*
G01X43291Y11808D01*
G01X43182Y11808D01*
G01X43618Y12572D02*
G01X43237Y12572D01*
G01X42167Y12572D02*
G01X42167Y11808D01*
G01X42167Y12408D02*
G01X42277Y12517D01*
G01X42386Y12572D01*
G01X42549Y12572D01*
G01X42658Y12517D01*
G01X42767Y12408D01*
G01X42822Y12244D01*
G01X42822Y12135D01*
G01X42767Y11972D01*
G01X42658Y11863D01*
G01X42549Y11808D01*
G01X42386Y11808D01*
G01X42277Y11863D01*
G01X42167Y11972D01*
G01X41153Y12572D02*
G01X41153Y11699D01*
G01X41207Y11535D01*
G01X41262Y11481D01*
G01X41371Y11426D01*
G01X41535Y11426D01*
G01X41644Y11481D01*
G01X41153Y12408D02*
G01X41262Y12517D01*
G01X41371Y12572D01*
G01X41535Y12572D01*
G01X41644Y12517D01*
G01X41753Y12408D01*
G01X41807Y12244D01*
G01X41807Y12135D01*
G01X41753Y11972D01*
G01X41644Y11863D01*
G01X41535Y11808D01*
G01X41371Y11808D01*
G01X41262Y11863D01*
G01X41153Y11972D01*
G01X40793Y12244D02*
G01X40138Y12244D01*
G01X40138Y12354D01*
G01X40193Y12463D01*
G01X40247Y12517D01*
G01X40357Y12572D01*
G01X40520Y12572D01*
G01X40629Y12517D01*
G01X40738Y12408D01*
G01X40793Y12244D01*
G01X40793Y12135D01*
G01X40738Y11972D01*
G01X40629Y11863D01*
G01X40520Y11808D01*
G01X40357Y11808D01*
G01X40247Y11863D01*
G01X40138Y11972D01*
G01X39724Y12463D02*
G01X39778Y12408D01*
G01X39724Y12354D01*
G01X39669Y12408D01*
G01X39724Y12463D01*
G01X39724Y12081D02*
G01X39778Y12026D01*
G01X39724Y11972D01*
G01X39669Y12026D01*
G01X39724Y12081D01*
G01X37815Y12954D02*
G01X38360Y12954D01*
G01X38415Y12463D01*
G01X38360Y12517D01*
G01X38197Y12572D01*
G01X38033Y12572D01*
G01X37869Y12517D01*
G01X37760Y12408D01*
G01X37706Y12244D01*
G01X37706Y12135D01*
G01X37760Y11972D01*
G01X37869Y11863D01*
G01X38033Y11808D01*
G01X38197Y11808D01*
G01X38360Y11863D01*
G01X38415Y11917D01*
G01X38469Y12026D01*
G01X37291Y12081D02*
G01X37346Y12026D01*
G01X37291Y11972D01*
G01X37237Y12026D01*
G01X37291Y12081D01*
G01X36822Y12081D02*
G01X36877Y12026D01*
G01X36822Y11972D01*
G01X36767Y12026D01*
G01X36822Y12081D01*
G01X36353Y12081D02*
G01X36407Y12026D01*
G01X36353Y11972D01*
G01X36298Y12026D01*
G01X36353Y12081D01*
G01X35938Y12735D02*
G01X35829Y12790D01*
G01X35666Y12954D01*
G01X35666Y11808D01*
G01X35033Y12954D02*
G01X35197Y12899D01*
G01X35251Y12790D01*
G01X35251Y12681D01*
G01X35197Y12572D01*
G01X35087Y12517D01*
G01X34869Y12463D01*
G01X34706Y12408D01*
G01X34597Y12299D01*
G01X34542Y12190D01*
G01X34542Y12026D01*
G01X34597Y11917D01*
G01X34651Y11863D01*
G01X34815Y11808D01*
G01X35033Y11808D01*
G01X35197Y11863D01*
G01X35251Y11917D01*
G01X35306Y12026D01*
G01X35306Y12190D01*
G01X35251Y12299D01*
G01X35142Y12408D01*
G01X34978Y12463D01*
G01X34760Y12517D01*
G01X34651Y12572D01*
G01X34597Y12681D01*
G01X34597Y12790D01*
G01X34651Y12899D01*
G01X34815Y12954D01*
G01X35033Y12954D01*
G01X34182Y12572D02*
G01X33855Y11808D01*
G01X33528Y12572D02*
G01X33855Y11808D01*
G01X53086Y11068D02*
G01X53086Y9923D01*
G01X53086Y11068D02*
G01X52649Y9923D01*
G01X52213Y11068D02*
G01X52649Y9923D01*
G01X52213Y11068D02*
G01X52213Y9923D01*
G01X51198Y10686D02*
G01X51198Y9923D01*
G01X51198Y10523D02*
G01X51307Y10632D01*
G01X51416Y10686D01*
G01X51580Y10686D01*
G01X51689Y10632D01*
G01X51798Y10523D01*
G01X51853Y10359D01*
G01X51853Y10250D01*
G01X51798Y10086D01*
G01X51689Y9977D01*
G01X51580Y9923D01*
G01X51416Y9923D01*
G01X51307Y9977D01*
G01X51198Y10086D01*
G01X50838Y10686D02*
G01X50238Y9923D01*
G01X50238Y10686D02*
G01X50838Y9923D01*
G01X48384Y10523D02*
G01X48493Y10632D01*
G01X48602Y10686D01*
G01X48766Y10686D01*
G01X48875Y10632D01*
G01X48984Y10523D01*
G01X49038Y10359D01*
G01X49038Y10250D01*
G01X48984Y10086D01*
G01X48875Y9977D01*
G01X48766Y9923D01*
G01X48602Y9923D01*
G01X48493Y9977D01*
G01X48384Y10086D01*
G01X48024Y10686D02*
G01X48024Y10141D01*
G01X47969Y9977D01*
G01X47860Y9923D01*
G01X47696Y9923D01*
G01X47587Y9977D01*
G01X47424Y10141D01*
G01X47424Y10686D02*
G01X47424Y9923D01*
G01X47064Y10686D02*
G01X47064Y9923D01*
G01X47064Y10359D02*
G01X47009Y10523D01*
G01X46900Y10632D01*
G01X46791Y10686D01*
G01X46627Y10686D01*
G01X46267Y10686D02*
G01X46267Y9923D01*
G01X46267Y10359D02*
G01X46213Y10523D01*
G01X46104Y10632D01*
G01X45995Y10686D01*
G01X45831Y10686D01*
G01X45471Y10359D02*
G01X44816Y10359D01*
G01X44816Y10468D01*
G01X44871Y10577D01*
G01X44926Y10632D01*
G01X45035Y10686D01*
G01X45198Y10686D01*
G01X45307Y10632D01*
G01X45416Y10523D01*
G01X45471Y10359D01*
G01X45471Y10250D01*
G01X45416Y10086D01*
G01X45307Y9977D01*
G01X45198Y9923D01*
G01X45035Y9923D01*
G01X44926Y9977D01*
G01X44816Y10086D01*
G01X44456Y10686D02*
G01X44456Y9923D01*
G01X44456Y10468D02*
G01X44293Y10632D01*
G01X44184Y10686D01*
G01X44020Y10686D01*
G01X43911Y10632D01*
G01X43856Y10468D01*
G01X43856Y9923D01*
G01X43333Y11068D02*
G01X43333Y10141D01*
G01X43278Y9977D01*
G01X43169Y9923D01*
G01X43060Y9923D01*
G01X43496Y10686D02*
G01X43115Y10686D01*
G01X42646Y10577D02*
G01X42700Y10523D01*
G01X42646Y10468D01*
G01X42591Y10523D01*
G01X42646Y10577D01*
G01X42646Y10195D02*
G01X42700Y10141D01*
G01X42646Y10086D01*
G01X42591Y10141D01*
G01X42646Y10195D01*
G01X41282Y11068D02*
G01X40682Y11068D01*
G01X41009Y10632D01*
G01X40846Y10632D01*
G01X40736Y10577D01*
G01X40682Y10523D01*
G01X40627Y10359D01*
G01X40627Y10250D01*
G01X40682Y10086D01*
G01X40791Y9977D01*
G01X40955Y9923D01*
G01X41118Y9923D01*
G01X41282Y9977D01*
G01X41336Y10032D01*
G01X41391Y10141D01*
G01X39831Y11068D02*
G01X40267Y9923D01*
G01X39831Y11068D02*
G01X39395Y9923D01*
G01X40104Y10304D02*
G01X39558Y10304D01*
G54D15*
G01X8222Y30479D02*
G01X8222Y28570D01*
G01X7622Y30479D02*
G01X7622Y28570D01*
G01X7622Y30479D02*
G01X6350Y28570D01*
G01X6350Y30479D02*
G01X6350Y28570D01*
G01X73996Y30480D02*
G01X74178Y30389D01*
G01X74360Y30207D01*
G01X74451Y30025D01*
G01X74541Y29752D01*
G01X74541Y29298D01*
G01X74451Y29025D01*
G01X74360Y28843D01*
G01X74178Y28661D01*
G01X73996Y28570D01*
G01X73632Y28570D01*
G01X73451Y28661D01*
G01X73269Y28843D01*
G01X73178Y29025D01*
G01X73087Y29298D01*
G01X73087Y29752D01*
G01X73178Y30025D01*
G01X73269Y30207D01*
G01X73451Y30389D01*
G01X73632Y30480D01*
G01X73996Y30480D01*
G01X72487Y30480D02*
G01X72487Y29116D01*
G01X72396Y28843D01*
G01X72214Y28661D01*
G01X71941Y28570D01*
G01X71760Y28570D01*
G01X71487Y28661D01*
G01X71305Y28843D01*
G01X71214Y29116D01*
G01X71214Y30480D01*
G01X69978Y30480D02*
G01X69978Y28570D01*
G01X70614Y30480D02*
G01X69341Y30480D01*
G54D17*
G01X4091Y22864D02*
G01X4142Y22964D01*
G01X4242Y23064D01*
G01X4342Y23114D01*
G01X4542Y23114D01*
G01X4642Y23064D01*
G01X4742Y22964D01*
G01X4791Y22864D01*
G01X4842Y22714D01*
G01X4842Y22464D01*
G01X4791Y22314D01*
G01X4742Y22214D01*
G01X4642Y22114D01*
G01X4542Y22064D01*
G01X4342Y22064D01*
G01X4242Y22114D01*
G01X4142Y22214D01*
G01X4091Y22314D01*
G01X4091Y22464D01*
G01X4342Y22464D02*
G01X4091Y22464D01*
G01X3761Y23114D02*
G01X3761Y22064D01*
G01X3761Y23114D02*
G01X3061Y22064D01*
G01X3061Y23114D02*
G01X3061Y22064D01*
G01X2731Y23114D02*
G01X2731Y22064D01*
G01X2731Y23114D02*
G01X2382Y23114D01*
G01X2231Y23064D01*
G01X2131Y22964D01*
G01X2082Y22864D01*
G01X2032Y22714D01*
G01X2032Y22464D01*
G01X2082Y22314D01*
G01X2131Y22214D01*
G01X2231Y22114D01*
G01X2382Y22064D01*
G01X2731Y22064D01*
G01X4991Y6604D02*
G01X4591Y5553D01*
G01X4191Y6604D02*
G01X4591Y5553D01*
G01X3111Y6353D02*
G01X3161Y6453D01*
G01X3261Y6553D01*
G01X3361Y6604D01*
G01X3561Y6604D01*
G01X3661Y6553D01*
G01X3761Y6453D01*
G01X3811Y6353D01*
G01X3861Y6204D01*
G01X3861Y5953D01*
G01X3811Y5804D01*
G01X3761Y5704D01*
G01X3661Y5604D01*
G01X3561Y5553D01*
G01X3361Y5553D01*
G01X3261Y5604D01*
G01X3161Y5704D01*
G01X3111Y5804D01*
G01X2031Y6353D02*
G01X2081Y6453D01*
G01X2181Y6553D01*
G01X2281Y6604D01*
G01X2481Y6604D01*
G01X2581Y6553D01*
G01X2681Y6453D01*
G01X2731Y6353D01*
G01X2781Y6204D01*
G01X2781Y5953D01*
G01X2731Y5804D01*
G01X2681Y5704D01*
G01X2581Y5604D01*
G01X2481Y5553D01*
G01X2281Y5553D01*
G01X2181Y5604D01*
G01X2081Y5704D01*
G01X2031Y5804D01*
G01X75608Y22609D02*
G01X75658Y22709D01*
G01X75758Y22809D01*
G01X75858Y22860D01*
G01X76058Y22860D01*
G01X76158Y22809D01*
G01X76258Y22709D01*
G01X76308Y22609D01*
G01X76358Y22460D01*
G01X76358Y22209D01*
G01X76308Y22060D01*
G01X76258Y21960D01*
G01X76158Y21860D01*
G01X76058Y21809D01*
G01X75858Y21809D01*
G01X75758Y21860D01*
G01X75658Y21960D01*
G01X75608Y22060D01*
G01X75608Y22209D01*
G01X75858Y22209D02*
G01X75608Y22209D01*
G01X75278Y22860D02*
G01X75278Y21809D01*
G01X75278Y22860D02*
G01X74578Y21809D01*
G01X74578Y22860D02*
G01X74578Y21809D01*
G01X74248Y22860D02*
G01X74248Y21809D01*
G01X74248Y22860D02*
G01X73898Y22860D01*
G01X73748Y22809D01*
G01X73648Y22709D01*
G01X73598Y22609D01*
G01X73548Y22460D01*
G01X73548Y22209D01*
G01X73598Y22060D01*
G01X73648Y21960D01*
G01X73748Y21860D01*
G01X73898Y21809D01*
G01X74248Y21809D01*
G01X72918Y22860D02*
G01X73018Y22809D01*
G01X73118Y22709D01*
G01X73168Y22609D01*
G01X73218Y22460D01*
G01X73218Y22209D01*
G01X73168Y22060D01*
G01X73118Y21960D01*
G01X73018Y21860D01*
G01X72918Y21809D01*
G01X72718Y21809D01*
G01X72618Y21860D01*
G01X72518Y21960D01*
G01X72468Y22060D01*
G01X72418Y22209D01*
G01X72418Y22460D01*
G01X72468Y22609D01*
G01X72518Y22709D01*
G01X72618Y22809D01*
G01X72718Y22860D01*
G01X72918Y22860D01*
G01X72088Y22860D02*
G01X72088Y22109D01*
G01X72038Y21960D01*
G01X71938Y21860D01*
G01X71788Y21809D01*
G01X71688Y21809D01*
G01X71538Y21860D01*
G01X71438Y21960D01*
G01X71388Y22109D01*
G01X71388Y22860D01*
G01X70708Y22860D02*
G01X70708Y21809D01*
G01X71058Y22860D02*
G01X70358Y22860D01*
G01X75603Y7112D02*
G01X75203Y6062D01*
G01X74803Y7112D02*
G01X75203Y6062D01*
G01X73723Y6862D02*
G01X73773Y6962D01*
G01X73873Y7062D01*
G01X73973Y7112D01*
G01X74173Y7112D01*
G01X74273Y7062D01*
G01X74373Y6962D01*
G01X74423Y6862D01*
G01X74473Y6712D01*
G01X74473Y6462D01*
G01X74423Y6312D01*
G01X74373Y6212D01*
G01X74273Y6112D01*
G01X74173Y6062D01*
G01X73973Y6062D01*
G01X73873Y6112D01*
G01X73773Y6212D01*
G01X73723Y6312D01*
G01X72643Y6862D02*
G01X72693Y6962D01*
G01X72793Y7062D01*
G01X72893Y7112D01*
G01X73093Y7112D01*
G01X73193Y7062D01*
G01X73293Y6962D01*
G01X73343Y6862D01*
G01X73393Y6712D01*
G01X73393Y6462D01*
G01X73343Y6312D01*
G01X73293Y6212D01*
G01X73193Y6112D01*
G01X73093Y6062D01*
G01X72893Y6062D01*
G01X72793Y6112D01*
G01X72693Y6212D01*
G01X72643Y6312D01*
G54D15*
G01X7542Y27940D02*
G01X8178Y27940D01*
G01X8242Y27367D01*
G01X8178Y27430D01*
G01X7987Y27494D01*
G01X7796Y27494D01*
G01X7606Y27430D01*
G01X7478Y27303D01*
G01X7415Y27112D01*
G01X7415Y26985D01*
G01X7478Y26794D01*
G01X7606Y26667D01*
G01X7796Y26603D01*
G01X7987Y26603D01*
G01X8178Y26667D01*
G01X8242Y26730D01*
G01X8306Y26858D01*
G01X6931Y26921D02*
G01X6995Y26858D01*
G01X6931Y26794D01*
G01X6867Y26858D01*
G01X6931Y26921D01*
G01X6384Y26921D02*
G01X6447Y26858D01*
G01X6384Y26794D01*
G01X6320Y26858D01*
G01X6384Y26921D01*
G01X5836Y26921D02*
G01X5900Y26858D01*
G01X5836Y26794D01*
G01X5773Y26858D01*
G01X5836Y26921D01*
G01X5353Y27685D02*
G01X5225Y27749D01*
G01X5035Y27940D01*
G01X5035Y26603D01*
G01X4296Y27940D02*
G01X4487Y27876D01*
G01X4551Y27749D01*
G01X4551Y27621D01*
G01X4487Y27494D01*
G01X4360Y27430D01*
G01X4106Y27367D01*
G01X3915Y27303D01*
G01X3787Y27176D01*
G01X3724Y27049D01*
G01X3724Y26858D01*
G01X3787Y26730D01*
G01X3851Y26667D01*
G01X4042Y26603D01*
G01X4296Y26603D01*
G01X4487Y26667D01*
G01X4551Y26730D01*
G01X4615Y26858D01*
G01X4615Y27049D01*
G01X4551Y27176D01*
G01X4424Y27303D01*
G01X4233Y27367D01*
G01X3978Y27430D01*
G01X3851Y27494D01*
G01X3787Y27621D01*
G01X3787Y27749D01*
G01X3851Y27876D01*
G01X4042Y27940D01*
G01X4296Y27940D01*
G01X3304Y27940D02*
G01X2795Y26603D01*
G01X2286Y27940D02*
G01X2795Y26603D01*
G54D16*
G01X74360Y27940D02*
G01X74360Y26603D01*
G01X74360Y27940D02*
G01X73851Y26603D01*
G01X73342Y27940D02*
G01X73851Y26603D01*
G01X73342Y27940D02*
G01X73342Y26603D01*
G01X72159Y27494D02*
G01X72159Y26603D01*
G01X72159Y27303D02*
G01X72286Y27430D01*
G01X72413Y27494D01*
G01X72604Y27494D01*
G01X72731Y27430D01*
G01X72859Y27303D01*
G01X72922Y27112D01*
G01X72922Y26985D01*
G01X72859Y26794D01*
G01X72731Y26667D01*
G01X72604Y26603D01*
G01X72413Y26603D01*
G01X72286Y26667D01*
G01X72159Y26794D01*
G01X71739Y27494D02*
G01X71039Y26603D01*
G01X71039Y27494D02*
G01X71739Y26603D01*
G01X69511Y27940D02*
G01X68811Y27940D01*
G01X69193Y27430D01*
G01X69002Y27430D01*
G01X68875Y27367D01*
G01X68811Y27303D01*
G01X68748Y27112D01*
G01X68748Y26985D01*
G01X68811Y26794D01*
G01X68939Y26667D01*
G01X69130Y26603D01*
G01X69320Y26603D01*
G01X69511Y26667D01*
G01X69575Y26730D01*
G01X69639Y26858D01*
G01X67819Y27940D02*
G01X68328Y26603D01*
G01X67819Y27940D02*
G01X67310Y26603D01*
G01X68137Y27049D02*
G01X67500Y27049D01*
M00*
M02*
