;PTH Drill file created by EasyEDA 
M48
METRIC,LZ,000.000
;Holesize 1 = 0.889 METRIC
T01C0.889
;Holesize 2 = 1.300 METRIC
T02C1.300
%
G05
G90
T01
X026670Y007112
X029972Y007112
X034290Y007112
X041148Y007112
X017780Y007112
X067818Y022352
X017780Y014478
X017780Y012192
X068326Y011684
X017780Y009906
X015494Y003302
X003556Y018034
X004826Y018034
X002286Y018034
X003556Y016764
X004826Y016764
X002286Y016764
X003556Y019304
X004826Y019304
X002286Y019304
X003556Y010414
X004826Y010414
X002286Y010414
X003556Y009144
X004826Y009144
X002286Y009144
X003556Y011684
X004826Y011684
X002286Y011684
X073914Y010922
X075184Y010922
X072644Y010922
X073914Y009652
X075184Y009652
X072644Y009652
X073914Y012192
X075184Y012192
X072644Y012192
X073914Y018034
X075184Y018034
X072644Y018034
X073914Y016764
X075184Y016764
X072644Y016764
X073914Y019304
X075184Y019304
X072644Y019304
T02
X056896Y016637
X056896Y011557
X056896Y014097
M30
