G04 ---------------------------- Layer name :BOTTOM SOLDER LAYER*
G04 EasyEDA v5.5.15, Sun, 01 Jul 2018 10:37:49 GMT*
G04 c73fb6d924554c21b160e83e72d7d2f4*
G04 Gerber Generator version 0.2*
G04 Scale: 100 percent, Rotated: No, Reflected: No *
G04 Dimensions in millimeters *
G04 leading zeros omitted , absolute positions ,3 integer and 3 decimal *
%FSLAX33Y33*%
%MOMM*%
G90*
G71D02*

%ADD36R,2.903220X2.503195*%
%ADD43C,2.203196*%
%ADD44C,1.778203*%
%ADD45C,1.778254*%
%ADD46R,2.703195X2.203196*%
%ADD47R,1.778000X1.778000*%
%ADD48R,1.778000X1.778254*%
%ADD49R,1.409700X1.409700*%
%ADD50R,2.203196X2.203196*%

%LPD*%
G54D43*
G01X57144Y11557D02*
G01X56647Y11557D01*
G01X57144Y14097D02*
G01X56647Y14097D01*
G54D44*
G01X17780Y14478D02*
G01X17779Y14478D01*
G54D45*
G01X17780Y12192D02*
G01X17780Y12192D01*
G01X18542Y9906D02*
G01X18542Y9906D01*
G01X16256Y3556D02*
G01X16256Y3556D01*
G54D46*
G01X56896Y16637D03*
G54D47*
G01X26670Y7112D03*
G01X29972Y7112D03*
G01X34290Y7112D03*
G54D48*
G01X41148Y7112D03*
G54D47*
G01X17780Y7112D03*
G54D36*
G01X6350Y28702D03*
G01X6350Y25247D03*
G01X10160Y28702D03*
G01X10160Y25247D03*
G01X13970Y28702D03*
G01X13970Y25247D03*
G01X17780Y28702D03*
G01X17780Y25247D03*
G01X21590Y28702D03*
G01X21590Y25247D03*
G01X55372Y28702D03*
G01X55372Y25247D03*
G01X59182Y28702D03*
G01X59182Y25247D03*
G01X62992Y28702D03*
G01X62992Y25247D03*
G01X66802Y28702D03*
G01X66802Y25247D03*
G01X70612Y28702D03*
G01X70612Y25247D03*
G54D49*
G01X68324Y15495D03*
G01X68324Y17476D03*
G01X10158Y13717D03*
G01X10158Y15698D03*
G54D45*
G01X67818Y22352D03*
G01X68326Y11684D03*
G54D50*
G01X3556Y18034D03*
G01X5080Y18034D03*
G01X2032Y18034D03*
G01X3556Y16510D03*
G01X5080Y16510D03*
G01X2032Y16510D03*
G01X3556Y19558D03*
G01X5080Y19558D03*
G01X2032Y19558D03*
G01X3556Y10414D03*
G01X5080Y10414D03*
G01X2032Y10414D03*
G01X3556Y8890D03*
G01X5080Y8890D03*
G01X2032Y8890D03*
G01X3556Y11938D03*
G01X5080Y11938D03*
G01X2032Y11938D03*
G01X73914Y10922D03*
G01X75438Y10922D03*
G01X72390Y10922D03*
G01X73914Y9398D03*
G01X75438Y9398D03*
G01X72390Y9398D03*
G01X73914Y12446D03*
G01X75438Y12446D03*
G01X72390Y12446D03*
G01X73914Y18034D03*
G01X75438Y18034D03*
G01X72390Y18034D03*
G01X73914Y16510D03*
G01X75438Y16510D03*
G01X72390Y16510D03*
G01X73914Y19558D03*
G01X75438Y19558D03*
G01X72390Y19558D03*
M00*
M02*
