G04 ---------------------------- Layer name :BOTTOM SILK LAYER*
G04 EasyEDA v5.5.15, Sun, 01 Jul 2018 10:37:49 GMT*
G04 c73fb6d924554c21b160e83e72d7d2f4*
G04 Gerber Generator version 0.2*
G04 Scale: 100 percent, Rotated: No, Reflected: No *
G04 Dimensions in millimeters *
G04 leading zeros omitted , absolute positions ,3 integer and 3 decimal *
%FSLAX33Y33*%
%MOMM*%
G90*
G71D02*

%ADD10C,0.254000*%
%ADD15C,0.203200*%
%ADD16C,0.177800*%
%ADD39C,0.330200*%
%ADD41C,0.299999*%
%ADD42C,0.269999*%

%LPD*%
G54D42*
G01X4673Y27406D02*
G01X4673Y30276D01*
G01X8001Y30276D01*
G01X8001Y27406D01*
G01X8001Y27406D01*
G01X8001Y26492D02*
G01X8001Y26517D01*
G01X8001Y23698D01*
G01X4673Y23698D01*
G01X4673Y26568D01*
G01X8483Y27406D02*
G01X8483Y30276D01*
G01X11811Y30276D01*
G01X11811Y27406D01*
G01X11811Y27406D01*
G01X11811Y26492D02*
G01X11811Y26517D01*
G01X11811Y23698D01*
G01X8483Y23698D01*
G01X8483Y26568D01*
G01X12293Y27406D02*
G01X12293Y30276D01*
G01X15621Y30276D01*
G01X15621Y27406D01*
G01X15621Y27406D01*
G01X15621Y26492D02*
G01X15621Y26517D01*
G01X15621Y23698D01*
G01X12293Y23698D01*
G01X12293Y26568D01*
G01X16103Y27406D02*
G01X16103Y30276D01*
G01X19431Y30276D01*
G01X19431Y27406D01*
G01X19431Y27406D01*
G01X19431Y26492D02*
G01X19431Y26517D01*
G01X19431Y23698D01*
G01X16103Y23698D01*
G01X16103Y26568D01*
G01X19913Y27406D02*
G01X19913Y30276D01*
G01X23241Y30276D01*
G01X23241Y27406D01*
G01X23241Y27406D01*
G01X23241Y26492D02*
G01X23241Y26517D01*
G01X23241Y23698D01*
G01X19913Y23698D01*
G01X19913Y26568D01*
G01X53695Y27406D02*
G01X53695Y30276D01*
G01X57023Y30276D01*
G01X57023Y27406D01*
G01X57023Y27406D01*
G01X57023Y26492D02*
G01X57023Y26517D01*
G01X57023Y23698D01*
G01X53695Y23698D01*
G01X53695Y26568D01*
G01X57505Y27406D02*
G01X57505Y30276D01*
G01X60833Y30276D01*
G01X60833Y27406D01*
G01X60833Y27406D01*
G01X60833Y26492D02*
G01X60833Y26517D01*
G01X60833Y23698D01*
G01X57505Y23698D01*
G01X57505Y26568D01*
G01X61315Y27406D02*
G01X61315Y30276D01*
G01X64643Y30276D01*
G01X64643Y27406D01*
G01X64643Y27406D01*
G01X64643Y26492D02*
G01X64643Y26517D01*
G01X64643Y23698D01*
G01X61315Y23698D01*
G01X61315Y26568D01*
G01X65125Y27406D02*
G01X65125Y30276D01*
G01X68453Y30276D01*
G01X68453Y27406D01*
G01X68453Y27406D01*
G01X68453Y26492D02*
G01X68453Y26517D01*
G01X68453Y23698D01*
G01X65125Y23698D01*
G01X65125Y26568D01*
G01X68935Y27406D02*
G01X68935Y30276D01*
G01X72263Y30276D01*
G01X72263Y27406D01*
G01X72263Y27406D01*
G01X72263Y26492D02*
G01X72263Y26517D01*
G01X72263Y23698D01*
G01X68935Y23698D01*
G01X68935Y26568D01*
G54D39*
G01X69199Y18409D02*
G01X67452Y18409D01*
G54D10*
G01X69253Y17084D02*
G01X69253Y18884D01*
G01X67398Y18884D01*
G01X69253Y15885D02*
G01X69253Y14610D01*
G01X67398Y14610D01*
G01X67398Y14610D02*
G01X67398Y15885D01*
G01X67398Y17084D02*
G01X67398Y18884D01*
G54D39*
G01X11033Y16631D02*
G01X9286Y16631D01*
G54D10*
G01X11087Y15306D02*
G01X11087Y17106D01*
G01X9232Y17106D01*
G01X11087Y14107D02*
G01X11087Y12832D01*
G01X9232Y12832D01*
G01X9232Y12832D02*
G01X9232Y14107D01*
G01X9232Y15306D02*
G01X9232Y17106D01*
G54D16*
G01X6190Y22854D02*
G01X6242Y22958D01*
G01X6346Y23062D01*
G01X6450Y23113D01*
G01X6658Y23113D01*
G01X6762Y23062D01*
G01X6866Y22958D01*
G01X6918Y22854D01*
G01X6969Y22698D01*
G01X6969Y22438D01*
G01X6918Y22282D01*
G01X6866Y22178D01*
G01X6762Y22074D01*
G01X6658Y22022D01*
G01X6450Y22022D01*
G01X6346Y22074D01*
G01X6242Y22178D01*
G01X6190Y22282D01*
G01X5847Y22906D02*
G01X5743Y22958D01*
G01X5588Y23113D01*
G01X5588Y22022D01*
G01X10214Y22854D02*
G01X10266Y22958D01*
G01X10370Y23062D01*
G01X10473Y23113D01*
G01X10681Y23113D01*
G01X10785Y23062D01*
G01X10889Y22958D01*
G01X10941Y22854D01*
G01X10993Y22698D01*
G01X10993Y22438D01*
G01X10941Y22282D01*
G01X10889Y22178D01*
G01X10785Y22074D01*
G01X10681Y22022D01*
G01X10473Y22022D01*
G01X10370Y22074D01*
G01X10266Y22178D01*
G01X10214Y22282D01*
G01X9819Y22854D02*
G01X9819Y22906D01*
G01X9767Y23010D01*
G01X9715Y23062D01*
G01X9611Y23113D01*
G01X9403Y23113D01*
G01X9299Y23062D01*
G01X9247Y23010D01*
G01X9195Y22906D01*
G01X9195Y22802D01*
G01X9247Y22698D01*
G01X9351Y22542D01*
G01X9871Y22022D01*
G01X9143Y22022D01*
G01X14024Y22854D02*
G01X14076Y22958D01*
G01X14180Y23062D01*
G01X14283Y23113D01*
G01X14491Y23113D01*
G01X14595Y23062D01*
G01X14699Y22958D01*
G01X14751Y22854D01*
G01X14803Y22698D01*
G01X14803Y22438D01*
G01X14751Y22282D01*
G01X14699Y22178D01*
G01X14595Y22074D01*
G01X14491Y22022D01*
G01X14283Y22022D01*
G01X14180Y22074D01*
G01X14076Y22178D01*
G01X14024Y22282D01*
G01X13577Y23113D02*
G01X13005Y23113D01*
G01X13317Y22698D01*
G01X13161Y22698D01*
G01X13057Y22646D01*
G01X13005Y22594D01*
G01X12953Y22438D01*
G01X12953Y22334D01*
G01X13005Y22178D01*
G01X13109Y22074D01*
G01X13265Y22022D01*
G01X13421Y22022D01*
G01X13577Y22074D01*
G01X13629Y22126D01*
G01X13681Y22230D01*
G01X17886Y22854D02*
G01X17938Y22958D01*
G01X18042Y23062D01*
G01X18145Y23113D01*
G01X18353Y23113D01*
G01X18457Y23062D01*
G01X18561Y22958D01*
G01X18613Y22854D01*
G01X18665Y22698D01*
G01X18665Y22438D01*
G01X18613Y22282D01*
G01X18561Y22178D01*
G01X18457Y22074D01*
G01X18353Y22022D01*
G01X18145Y22022D01*
G01X18042Y22074D01*
G01X17938Y22178D01*
G01X17886Y22282D01*
G01X17023Y23113D02*
G01X17543Y22386D01*
G01X16763Y22386D01*
G01X17023Y23113D02*
G01X17023Y22022D01*
G01X21898Y22854D02*
G01X21950Y22958D01*
G01X22054Y23062D01*
G01X22157Y23113D01*
G01X22365Y23113D01*
G01X22469Y23062D01*
G01X22573Y22958D01*
G01X22625Y22854D01*
G01X22677Y22698D01*
G01X22677Y22438D01*
G01X22625Y22282D01*
G01X22573Y22178D01*
G01X22469Y22074D01*
G01X22365Y22022D01*
G01X22157Y22022D01*
G01X22054Y22074D01*
G01X21950Y22178D01*
G01X21898Y22282D01*
G01X20931Y23113D02*
G01X21451Y23113D01*
G01X21503Y22646D01*
G01X21451Y22698D01*
G01X21295Y22750D01*
G01X21139Y22750D01*
G01X20983Y22698D01*
G01X20879Y22594D01*
G01X20827Y22438D01*
G01X20827Y22334D01*
G01X20879Y22178D01*
G01X20983Y22074D01*
G01X21139Y22022D01*
G01X21295Y22022D01*
G01X21451Y22074D01*
G01X21503Y22126D01*
G01X21555Y22230D01*
G01X55374Y22854D02*
G01X55426Y22958D01*
G01X55530Y23062D01*
G01X55634Y23113D01*
G01X55841Y23113D01*
G01X55945Y23062D01*
G01X56049Y22958D01*
G01X56101Y22854D01*
G01X56153Y22698D01*
G01X56153Y22438D01*
G01X56101Y22282D01*
G01X56049Y22178D01*
G01X55945Y22074D01*
G01X55841Y22022D01*
G01X55634Y22022D01*
G01X55530Y22074D01*
G01X55426Y22178D01*
G01X55374Y22282D01*
G01X54407Y22958D02*
G01X54459Y23062D01*
G01X54615Y23113D01*
G01X54719Y23113D01*
G01X54875Y23062D01*
G01X54979Y22906D01*
G01X55031Y22646D01*
G01X55031Y22386D01*
G01X54979Y22178D01*
G01X54875Y22074D01*
G01X54719Y22022D01*
G01X54667Y22022D01*
G01X54511Y22074D01*
G01X54407Y22178D01*
G01X54355Y22334D01*
G01X54355Y22386D01*
G01X54407Y22542D01*
G01X54511Y22646D01*
G01X54667Y22698D01*
G01X54719Y22698D01*
G01X54875Y22646D01*
G01X54979Y22542D01*
G01X55031Y22386D01*
G01X59490Y22854D02*
G01X59542Y22958D01*
G01X59646Y23062D01*
G01X59750Y23114D01*
G01X59957Y23114D01*
G01X60061Y23062D01*
G01X60165Y22958D01*
G01X60217Y22854D01*
G01X60269Y22698D01*
G01X60269Y22438D01*
G01X60217Y22282D01*
G01X60165Y22178D01*
G01X60061Y22074D01*
G01X59957Y22022D01*
G01X59750Y22022D01*
G01X59646Y22074D01*
G01X59542Y22178D01*
G01X59490Y22282D01*
G01X58419Y23114D02*
G01X58939Y22022D01*
G01X59147Y23114D02*
G01X58419Y23114D01*
G01X63300Y22854D02*
G01X63352Y22958D01*
G01X63456Y23062D01*
G01X63560Y23114D01*
G01X63767Y23114D01*
G01X63871Y23062D01*
G01X63975Y22958D01*
G01X64027Y22854D01*
G01X64079Y22698D01*
G01X64079Y22438D01*
G01X64027Y22282D01*
G01X63975Y22178D01*
G01X63871Y22074D01*
G01X63767Y22022D01*
G01X63560Y22022D01*
G01X63456Y22074D01*
G01X63352Y22178D01*
G01X63300Y22282D01*
G01X62697Y23114D02*
G01X62853Y23062D01*
G01X62905Y22958D01*
G01X62905Y22854D01*
G01X62853Y22750D01*
G01X62749Y22698D01*
G01X62541Y22646D01*
G01X62385Y22594D01*
G01X62281Y22490D01*
G01X62229Y22386D01*
G01X62229Y22230D01*
G01X62281Y22126D01*
G01X62333Y22074D01*
G01X62489Y22022D01*
G01X62697Y22022D01*
G01X62853Y22074D01*
G01X62905Y22126D01*
G01X62957Y22230D01*
G01X62957Y22386D01*
G01X62905Y22490D01*
G01X62801Y22594D01*
G01X62645Y22646D01*
G01X62437Y22698D01*
G01X62333Y22750D01*
G01X62281Y22854D01*
G01X62281Y22958D01*
G01X62333Y23062D01*
G01X62489Y23114D01*
G01X62697Y23114D01*
G01X66296Y22854D02*
G01X66348Y22958D01*
G01X66452Y23062D01*
G01X66556Y23114D01*
G01X66763Y23114D01*
G01X66867Y23062D01*
G01X66971Y22958D01*
G01X67023Y22854D01*
G01X67075Y22698D01*
G01X67075Y22438D01*
G01X67023Y22282D01*
G01X66971Y22178D01*
G01X66867Y22074D01*
G01X66763Y22022D01*
G01X66556Y22022D01*
G01X66452Y22074D01*
G01X66348Y22178D01*
G01X66296Y22282D01*
G01X65277Y22750D02*
G01X65329Y22594D01*
G01X65433Y22490D01*
G01X65589Y22438D01*
G01X65641Y22438D01*
G01X65797Y22490D01*
G01X65901Y22594D01*
G01X65953Y22750D01*
G01X65953Y22802D01*
G01X65901Y22958D01*
G01X65797Y23062D01*
G01X65641Y23114D01*
G01X65589Y23114D01*
G01X65433Y23062D01*
G01X65329Y22958D01*
G01X65277Y22750D01*
G01X65277Y22490D01*
G01X65329Y22230D01*
G01X65433Y22074D01*
G01X65589Y22022D01*
G01X65693Y22022D01*
G01X65849Y22074D01*
G01X65901Y22178D01*
G01X71268Y22854D02*
G01X71320Y22958D01*
G01X71424Y23062D01*
G01X71528Y23114D01*
G01X71736Y23114D01*
G01X71840Y23062D01*
G01X71944Y22958D01*
G01X71996Y22854D01*
G01X72048Y22698D01*
G01X72048Y22438D01*
G01X71996Y22282D01*
G01X71944Y22178D01*
G01X71840Y22074D01*
G01X71736Y22022D01*
G01X71528Y22022D01*
G01X71424Y22074D01*
G01X71320Y22178D01*
G01X71268Y22282D01*
G01X70926Y22906D02*
G01X70822Y22958D01*
G01X70666Y23114D01*
G01X70666Y22022D01*
G01X70011Y23114D02*
G01X70167Y23062D01*
G01X70271Y22906D01*
G01X70323Y22646D01*
G01X70323Y22490D01*
G01X70271Y22230D01*
G01X70167Y22074D01*
G01X70011Y22022D01*
G01X69907Y22022D01*
G01X69751Y22074D01*
G01X69648Y22230D01*
G01X69596Y22490D01*
G01X69596Y22646D01*
G01X69648Y22906D01*
G01X69751Y23062D01*
G01X69907Y23114D01*
G01X70011Y23114D01*
G01X65537Y17762D02*
G01X65433Y17814D01*
G01X65329Y17918D01*
G01X65277Y18022D01*
G01X65277Y18230D01*
G01X65329Y18334D01*
G01X65433Y18438D01*
G01X65537Y18490D01*
G01X65693Y18542D01*
G01X65953Y18542D01*
G01X66109Y18490D01*
G01X66213Y18438D01*
G01X66317Y18334D01*
G01X66368Y18230D01*
G01X66368Y18022D01*
G01X66317Y17918D01*
G01X66213Y17814D01*
G01X66109Y17762D01*
G01X65485Y17419D02*
G01X65433Y17315D01*
G01X65277Y17160D01*
G01X66368Y17160D01*
G01X65641Y16557D02*
G01X65693Y16661D01*
G01X65797Y16765D01*
G01X65953Y16817D01*
G01X66057Y16817D01*
G01X66213Y16765D01*
G01X66317Y16661D01*
G01X66368Y16557D01*
G01X66368Y16401D01*
G01X66317Y16297D01*
G01X66213Y16193D01*
G01X66057Y16141D01*
G01X65953Y16141D01*
G01X65797Y16193D01*
G01X65693Y16297D01*
G01X65641Y16401D01*
G01X65641Y16557D01*
G01X65641Y15798D02*
G01X66368Y15798D01*
G01X65849Y15798D02*
G01X65693Y15642D01*
G01X65641Y15539D01*
G01X65641Y15383D01*
G01X65693Y15279D01*
G01X65849Y15227D01*
G01X66368Y15227D01*
G01X65849Y15227D02*
G01X65693Y15071D01*
G01X65641Y14967D01*
G01X65641Y14811D01*
G01X65693Y14707D01*
G01X65849Y14655D01*
G01X66368Y14655D01*
G01X12449Y15987D02*
G01X12345Y16039D01*
G01X12241Y16143D01*
G01X12189Y16247D01*
G01X12189Y16454D01*
G01X12241Y16558D01*
G01X12345Y16662D01*
G01X12449Y16714D01*
G01X12605Y16766D01*
G01X12864Y16766D01*
G01X13020Y16714D01*
G01X13124Y16662D01*
G01X13228Y16558D01*
G01X13280Y16454D01*
G01X13280Y16247D01*
G01X13228Y16143D01*
G01X13124Y16039D01*
G01X13020Y15987D01*
G01X12397Y15644D02*
G01X12345Y15540D01*
G01X12189Y15384D01*
G01X13280Y15384D01*
G01X12553Y14781D02*
G01X12605Y14885D01*
G01X12708Y14989D01*
G01X12864Y15041D01*
G01X12968Y15041D01*
G01X13124Y14989D01*
G01X13228Y14885D01*
G01X13280Y14781D01*
G01X13280Y14626D01*
G01X13228Y14522D01*
G01X13124Y14418D01*
G01X12968Y14366D01*
G01X12864Y14366D01*
G01X12708Y14418D01*
G01X12605Y14522D01*
G01X12553Y14626D01*
G01X12553Y14781D01*
G01X12553Y14023D02*
G01X13280Y14023D01*
G01X12760Y14023D02*
G01X12605Y13867D01*
G01X12553Y13763D01*
G01X12553Y13607D01*
G01X12605Y13503D01*
G01X12760Y13451D01*
G01X13280Y13451D01*
G01X12760Y13451D02*
G01X12605Y13295D01*
G01X12553Y13192D01*
G01X12553Y13036D01*
G01X12605Y12932D01*
G01X12760Y12880D01*
G01X13280Y12880D01*
G54D41*
G01X47873Y27686D02*
G01X47873Y26254D01*
G01X47873Y27686D02*
G01X47259Y27686D01*
G01X47054Y27617D01*
G01X46986Y27549D01*
G01X46918Y27413D01*
G01X46918Y27276D01*
G01X46986Y27140D01*
G01X47054Y27072D01*
G01X47259Y27004D01*
G01X47873Y27004D02*
G01X47259Y27004D01*
G01X47054Y26935D01*
G01X46986Y26867D01*
G01X46918Y26731D01*
G01X46918Y26526D01*
G01X46986Y26390D01*
G01X47054Y26322D01*
G01X47259Y26254D01*
G01X47873Y26254D01*
G01X45650Y27208D02*
G01X45650Y26254D01*
G01X45650Y27004D02*
G01X45786Y27140D01*
G01X45923Y27208D01*
G01X46127Y27208D01*
G01X46263Y27140D01*
G01X46400Y27004D01*
G01X46468Y26799D01*
G01X46468Y26663D01*
G01X46400Y26458D01*
G01X46263Y26322D01*
G01X46127Y26254D01*
G01X45923Y26254D01*
G01X45786Y26322D01*
G01X45650Y26458D01*
G01X44995Y27686D02*
G01X44995Y26526D01*
G01X44927Y26322D01*
G01X44791Y26254D01*
G01X44654Y26254D01*
G01X45200Y27208D02*
G01X44723Y27208D01*
G01X44000Y27686D02*
G01X44000Y26526D01*
G01X43932Y26322D01*
G01X43795Y26254D01*
G01X43659Y26254D01*
G01X44204Y27208D02*
G01X43727Y27208D01*
G01X43209Y26799D02*
G01X42391Y26799D01*
G01X42391Y26935D01*
G01X42459Y27072D01*
G01X42527Y27140D01*
G01X42663Y27208D01*
G01X42868Y27208D01*
G01X43004Y27140D01*
G01X43141Y27004D01*
G01X43209Y26799D01*
G01X43209Y26663D01*
G01X43141Y26458D01*
G01X43004Y26322D01*
G01X42868Y26254D01*
G01X42663Y26254D01*
G01X42527Y26322D01*
G01X42391Y26458D01*
G01X41941Y27208D02*
G01X41941Y26254D01*
G01X41941Y26799D02*
G01X41873Y27004D01*
G01X41736Y27140D01*
G01X41600Y27208D01*
G01X41395Y27208D01*
G01X40877Y27208D02*
G01X40468Y26254D01*
G01X40059Y27208D02*
G01X40468Y26254D01*
G01X40604Y25981D01*
G01X40741Y25845D01*
G01X40877Y25776D01*
G01X40945Y25776D01*
G01X39609Y27686D02*
G01X39609Y26254D01*
G01X39609Y27686D02*
G01X38995Y27686D01*
G01X38791Y27617D01*
G01X38723Y27549D01*
G01X38654Y27413D01*
G01X38654Y27208D01*
G01X38723Y27072D01*
G01X38791Y27004D01*
G01X38995Y26935D01*
G01X39609Y26935D01*
G01X38204Y27208D02*
G01X38204Y26254D01*
G01X38204Y26799D02*
G01X38136Y27004D01*
G01X38000Y27140D01*
G01X37864Y27208D01*
G01X37659Y27208D01*
G01X36868Y27208D02*
G01X37004Y27140D01*
G01X37141Y27004D01*
G01X37209Y26799D01*
G01X37209Y26663D01*
G01X37141Y26458D01*
G01X37004Y26322D01*
G01X36868Y26254D01*
G01X36664Y26254D01*
G01X36527Y26322D01*
G01X36391Y26458D01*
G01X36323Y26663D01*
G01X36323Y26799D01*
G01X36391Y27004D01*
G01X36527Y27140D01*
G01X36664Y27208D01*
G01X36868Y27208D01*
G01X35668Y27686D02*
G01X35668Y26526D01*
G01X35600Y26322D01*
G01X35464Y26254D01*
G01X35327Y26254D01*
G01X35873Y27208D02*
G01X35395Y27208D01*
G01X34877Y26799D02*
G01X34059Y26799D01*
G01X34059Y26935D01*
G01X34127Y27072D01*
G01X34195Y27140D01*
G01X34332Y27208D01*
G01X34536Y27208D01*
G01X34673Y27140D01*
G01X34809Y27004D01*
G01X34877Y26799D01*
G01X34877Y26663D01*
G01X34809Y26458D01*
G01X34673Y26322D01*
G01X34536Y26254D01*
G01X34332Y26254D01*
G01X34195Y26322D01*
G01X34059Y26458D01*
G01X32791Y27004D02*
G01X32927Y27140D01*
G01X33064Y27208D01*
G01X33268Y27208D01*
G01X33404Y27140D01*
G01X33541Y27004D01*
G01X33609Y26799D01*
G01X33609Y26663D01*
G01X33541Y26458D01*
G01X33404Y26322D01*
G01X33268Y26254D01*
G01X33064Y26254D01*
G01X32927Y26322D01*
G01X32791Y26458D01*
G01X32136Y27686D02*
G01X32136Y26526D01*
G01X32068Y26322D01*
G01X31932Y26254D01*
G01X31795Y26254D01*
G01X32341Y27208D02*
G01X31864Y27208D01*
G01X31004Y27208D02*
G01X31141Y27140D01*
G01X31277Y27004D01*
G01X31345Y26799D01*
G01X31345Y26663D01*
G01X31277Y26458D01*
G01X31141Y26322D01*
G01X31004Y26254D01*
G01X30800Y26254D01*
G01X30664Y26322D01*
G01X30527Y26458D01*
G01X30459Y26663D01*
G01X30459Y26799D01*
G01X30527Y27004D01*
G01X30664Y27140D01*
G01X30800Y27208D01*
G01X31004Y27208D01*
G01X30009Y27208D02*
G01X30009Y26254D01*
G01X30009Y26799D02*
G01X29941Y27004D01*
G01X29804Y27140D01*
G01X29668Y27208D01*
G01X29464Y27208D01*
G54D15*
G01X75412Y3728D02*
G01X75412Y2010D01*
G01X75412Y3728D02*
G01X74349Y3728D01*
G01X75412Y2910D02*
G01X74758Y2910D01*
G01X72909Y2910D02*
G01X72991Y3073D01*
G01X73236Y3155D01*
G01X73481Y3155D01*
G01X73727Y3073D01*
G01X73809Y2910D01*
G01X73727Y2746D01*
G01X73563Y2664D01*
G01X73154Y2582D01*
G01X72991Y2500D01*
G01X72909Y2337D01*
G01X72909Y2255D01*
G01X72991Y2091D01*
G01X73236Y2010D01*
G01X73481Y2010D01*
G01X73727Y2091D01*
G01X73809Y2255D01*
G01X71960Y3155D02*
G01X72123Y3073D01*
G01X72287Y2910D01*
G01X72369Y2664D01*
G01X72369Y2500D01*
G01X72287Y2255D01*
G01X72123Y2091D01*
G01X71960Y2010D01*
G01X71714Y2010D01*
G01X71551Y2091D01*
G01X71387Y2255D01*
G01X71305Y2500D01*
G01X71305Y2664D01*
G01X71387Y2910D01*
G01X71551Y3073D01*
G01X71714Y3155D01*
G01X71960Y3155D01*
G01X70111Y3728D02*
G01X70274Y3728D01*
G01X70438Y3646D01*
G01X70520Y3400D01*
G01X70520Y2010D01*
G01X70765Y3155D02*
G01X70192Y3155D01*
G01X69325Y3728D02*
G01X69325Y2337D01*
G01X69243Y2091D01*
G01X69080Y2010D01*
G01X68916Y2010D01*
G01X69571Y3155D02*
G01X68998Y3155D01*
G01X67116Y3728D02*
G01X67116Y2010D01*
G01X67116Y3728D02*
G01X66380Y3728D01*
G01X66134Y3646D01*
G01X66052Y3564D01*
G01X65971Y3400D01*
G01X65971Y3155D01*
G01X66052Y2991D01*
G01X66134Y2910D01*
G01X66380Y2828D01*
G01X67116Y2828D01*
G01X65431Y3155D02*
G01X65431Y2010D01*
G01X65431Y2664D02*
G01X65349Y2910D01*
G01X65185Y3073D01*
G01X65021Y3155D01*
G01X64776Y3155D01*
G01X63827Y3155D02*
G01X63991Y3073D01*
G01X64154Y2910D01*
G01X64236Y2664D01*
G01X64236Y2500D01*
G01X64154Y2255D01*
G01X63991Y2091D01*
G01X63827Y2010D01*
G01X63581Y2010D01*
G01X63418Y2091D01*
G01X63254Y2255D01*
G01X63172Y2500D01*
G01X63172Y2664D01*
G01X63254Y2910D01*
G01X63418Y3073D01*
G01X63581Y3155D01*
G01X63827Y3155D01*
G01X61651Y3728D02*
G01X61651Y2010D01*
G01X61651Y2910D02*
G01X61814Y3073D01*
G01X61978Y3155D01*
G01X62223Y3155D01*
G01X62387Y3073D01*
G01X62551Y2910D01*
G01X62632Y2664D01*
G01X62632Y2500D01*
G01X62551Y2255D01*
G01X62387Y2091D01*
G01X62223Y2010D01*
G01X61978Y2010D01*
G01X61814Y2091D01*
G01X61651Y2255D01*
G01X61111Y3155D02*
G01X61111Y2337D01*
G01X61029Y2091D01*
G01X60865Y2010D01*
G01X60620Y2010D01*
G01X60456Y2091D01*
G01X60211Y2337D01*
G01X60211Y3155D02*
G01X60211Y2010D01*
G01X58689Y2910D02*
G01X58852Y3073D01*
G01X59016Y3155D01*
G01X59261Y3155D01*
G01X59425Y3073D01*
G01X59589Y2910D01*
G01X59671Y2664D01*
G01X59671Y2500D01*
G01X59589Y2255D01*
G01X59425Y2091D01*
G01X59261Y2010D01*
G01X59016Y2010D01*
G01X58852Y2091D01*
G01X58689Y2255D01*
G01X57903Y3728D02*
G01X57903Y2337D01*
G01X57821Y2091D01*
G01X57658Y2010D01*
G01X57494Y2010D01*
G01X58149Y3155D02*
G01X57576Y3155D01*
G01X56954Y3728D02*
G01X56872Y3646D01*
G01X56791Y3728D01*
G01X56872Y3810D01*
G01X56954Y3728D01*
G01X56872Y3155D02*
G01X56872Y2010D01*
G01X55841Y3155D02*
G01X56005Y3073D01*
G01X56169Y2910D01*
G01X56251Y2664D01*
G01X56251Y2500D01*
G01X56169Y2255D01*
G01X56005Y2091D01*
G01X55841Y2010D01*
G01X55596Y2010D01*
G01X55432Y2091D01*
G01X55269Y2255D01*
G01X55187Y2500D01*
G01X55187Y2664D01*
G01X55269Y2910D01*
G01X55432Y3073D01*
G01X55596Y3155D01*
G01X55841Y3155D01*
G01X54647Y3155D02*
G01X54647Y2010D01*
G01X54647Y2828D02*
G01X54401Y3073D01*
G01X54238Y3155D01*
G01X53992Y3155D01*
G01X53829Y3073D01*
G01X53747Y2828D01*
G01X53747Y2010D01*
G01X51865Y3319D02*
G01X51865Y3400D01*
G01X51783Y3564D01*
G01X51701Y3646D01*
G01X51538Y3728D01*
G01X51211Y3728D01*
G01X51047Y3646D01*
G01X50965Y3564D01*
G01X50883Y3400D01*
G01X50883Y3237D01*
G01X50965Y3073D01*
G01X51129Y2828D01*
G01X51947Y2010D01*
G01X50801Y2010D01*
G01X49771Y3728D02*
G01X50016Y3646D01*
G01X50180Y3400D01*
G01X50261Y2991D01*
G01X50261Y2746D01*
G01X50180Y2337D01*
G01X50016Y2091D01*
G01X49771Y2010D01*
G01X49607Y2010D01*
G01X49361Y2091D01*
G01X49198Y2337D01*
G01X49116Y2746D01*
G01X49116Y2991D01*
G01X49198Y3400D01*
G01X49361Y3646D01*
G01X49607Y3728D01*
G01X49771Y3728D01*
G01X48576Y3400D02*
G01X48412Y3482D01*
G01X48167Y3728D01*
G01X48167Y2010D01*
G01X47218Y3728D02*
G01X47463Y3646D01*
G01X47545Y3482D01*
G01X47545Y3319D01*
G01X47463Y3155D01*
G01X47300Y3073D01*
G01X46972Y2991D01*
G01X46727Y2910D01*
G01X46563Y2746D01*
G01X46482Y2582D01*
G01X46482Y2337D01*
G01X46563Y2173D01*
G01X46645Y2091D01*
G01X46891Y2010D01*
G01X47218Y2010D01*
G01X47463Y2091D01*
G01X47545Y2173D01*
G01X47627Y2337D01*
G01X47627Y2582D01*
G01X47545Y2746D01*
G01X47381Y2910D01*
G01X47136Y2991D01*
G01X46809Y3073D01*
G01X46645Y3155D01*
G01X46563Y3319D01*
G01X46563Y3482D01*
G01X46645Y3646D01*
G01X46891Y3728D01*
G01X47218Y3728D01*
G01X53108Y16455D02*
G01X53108Y15310D01*
G01X53108Y16455D02*
G01X52727Y16455D01*
G01X52563Y16400D01*
G01X52454Y16291D01*
G01X52399Y16182D01*
G01X52345Y16019D01*
G01X52345Y15746D01*
G01X52399Y15582D01*
G01X52454Y15473D01*
G01X52563Y15364D01*
G01X52727Y15310D01*
G01X53108Y15310D01*
G01X51985Y15746D02*
G01X51330Y15746D01*
G01X51330Y15855D01*
G01X51385Y15964D01*
G01X51439Y16019D01*
G01X51548Y16073D01*
G01X51712Y16073D01*
G01X51821Y16019D01*
G01X51930Y15910D01*
G01X51985Y15746D01*
G01X51985Y15637D01*
G01X51930Y15473D01*
G01X51821Y15364D01*
G01X51712Y15310D01*
G01X51548Y15310D01*
G01X51439Y15364D01*
G01X51330Y15473D01*
G01X50370Y15910D02*
G01X50425Y16019D01*
G01X50588Y16073D01*
G01X50752Y16073D01*
G01X50916Y16019D01*
G01X50970Y15910D01*
G01X50916Y15800D01*
G01X50807Y15746D01*
G01X50534Y15691D01*
G01X50425Y15637D01*
G01X50370Y15528D01*
G01X50370Y15473D01*
G01X50425Y15364D01*
G01X50588Y15310D01*
G01X50752Y15310D01*
G01X50916Y15364D01*
G01X50970Y15473D01*
G01X50010Y16455D02*
G01X49956Y16400D01*
G01X49901Y16455D01*
G01X49956Y16510D01*
G01X50010Y16455D01*
G01X49956Y16073D02*
G01X49956Y15310D01*
G01X48887Y16073D02*
G01X48887Y15200D01*
G01X48941Y15037D01*
G01X48996Y14982D01*
G01X49105Y14928D01*
G01X49268Y14928D01*
G01X49377Y14982D01*
G01X48887Y15910D02*
G01X48996Y16019D01*
G01X49105Y16073D01*
G01X49268Y16073D01*
G01X49377Y16019D01*
G01X49487Y15910D01*
G01X49541Y15746D01*
G01X49541Y15637D01*
G01X49487Y15473D01*
G01X49377Y15364D01*
G01X49268Y15310D01*
G01X49105Y15310D01*
G01X48996Y15364D01*
G01X48887Y15473D01*
G01X48527Y16073D02*
G01X48527Y15310D01*
G01X48527Y15855D02*
G01X48363Y16019D01*
G01X48254Y16073D01*
G01X48090Y16073D01*
G01X47981Y16019D01*
G01X47927Y15855D01*
G01X47927Y15310D01*
G01X47567Y15746D02*
G01X46912Y15746D01*
G01X46912Y15855D01*
G01X46967Y15964D01*
G01X47021Y16019D01*
G01X47130Y16073D01*
G01X47294Y16073D01*
G01X47403Y16019D01*
G01X47512Y15910D01*
G01X47567Y15746D01*
G01X47567Y15637D01*
G01X47512Y15473D01*
G01X47403Y15364D01*
G01X47294Y15310D01*
G01X47130Y15310D01*
G01X47021Y15364D01*
G01X46912Y15473D01*
G01X45897Y16455D02*
G01X45897Y15310D01*
G01X45897Y15910D02*
G01X46007Y16019D01*
G01X46116Y16073D01*
G01X46279Y16073D01*
G01X46388Y16019D01*
G01X46497Y15910D01*
G01X46552Y15746D01*
G01X46552Y15637D01*
G01X46497Y15473D01*
G01X46388Y15364D01*
G01X46279Y15310D01*
G01X46116Y15310D01*
G01X46007Y15364D01*
G01X45897Y15473D01*
G01X44697Y16455D02*
G01X44697Y15310D01*
G01X44697Y15910D02*
G01X44588Y16019D01*
G01X44479Y16073D01*
G01X44316Y16073D01*
G01X44207Y16019D01*
G01X44097Y15910D01*
G01X44043Y15746D01*
G01X44043Y15637D01*
G01X44097Y15473D01*
G01X44207Y15364D01*
G01X44316Y15310D01*
G01X44479Y15310D01*
G01X44588Y15364D01*
G01X44697Y15473D01*
G01X43628Y16073D02*
G01X43301Y15310D01*
G01X42974Y16073D02*
G01X43301Y15310D01*
G01X43410Y15091D01*
G01X43519Y14982D01*
G01X43628Y14928D01*
G01X43683Y14928D01*
G01X41774Y16455D02*
G01X41774Y15310D01*
G01X41774Y16455D02*
G01X41392Y16455D01*
G01X41228Y16400D01*
G01X41119Y16291D01*
G01X41065Y16182D01*
G01X41010Y16019D01*
G01X41010Y15746D01*
G01X41065Y15582D01*
G01X41119Y15473D01*
G01X41228Y15364D01*
G01X41392Y15310D01*
G01X41774Y15310D01*
G01X40650Y16073D02*
G01X40650Y15310D01*
G01X40650Y15746D02*
G01X40596Y15910D01*
G01X40487Y16019D01*
G01X40377Y16073D01*
G01X40214Y16073D01*
G01X39799Y15582D02*
G01X39854Y15528D01*
G01X39799Y15473D01*
G01X39745Y15528D01*
G01X39799Y15582D01*
G01X38545Y16455D02*
G01X38545Y15310D01*
G01X38545Y16455D02*
G01X37836Y16455D01*
G01X38545Y15910D02*
G01X38108Y15910D01*
G01X36821Y16073D02*
G01X36821Y15310D01*
G01X36821Y15910D02*
G01X36930Y16019D01*
G01X37039Y16073D01*
G01X37203Y16073D01*
G01X37312Y16019D01*
G01X37421Y15910D01*
G01X37476Y15746D01*
G01X37476Y15637D01*
G01X37421Y15473D01*
G01X37312Y15364D01*
G01X37203Y15310D01*
G01X37039Y15310D01*
G01X36930Y15364D01*
G01X36821Y15473D01*
G01X36461Y16455D02*
G01X36407Y16400D01*
G01X36352Y16455D01*
G01X36407Y16510D01*
G01X36461Y16455D01*
G01X36407Y16073D02*
G01X36407Y15310D01*
G01X35992Y16455D02*
G01X35992Y15310D01*
G01X35359Y16073D02*
G01X35468Y16019D01*
G01X35577Y15910D01*
G01X35632Y15746D01*
G01X35632Y15637D01*
G01X35577Y15473D01*
G01X35468Y15364D01*
G01X35359Y15310D01*
G01X35196Y15310D01*
G01X35087Y15364D01*
G01X34977Y15473D01*
G01X34923Y15637D01*
G01X34923Y15746D01*
G01X34977Y15910D01*
G01X35087Y16019D01*
G01X35196Y16073D01*
G01X35359Y16073D01*
G01X34563Y16073D02*
G01X34236Y15310D01*
G01X33908Y16073D02*
G01X34236Y15310D01*
G01X32708Y16455D02*
G01X32654Y16400D01*
G01X32599Y16455D01*
G01X32654Y16510D01*
G01X32708Y16455D01*
G01X32654Y16073D02*
G01X32654Y15310D01*
G01X32239Y16073D02*
G01X32239Y15310D01*
G01X32239Y15855D02*
G01X32076Y16019D01*
G01X31967Y16073D01*
G01X31803Y16073D01*
G01X31694Y16019D01*
G01X31639Y15855D01*
G01X31639Y15310D01*
G01X30439Y16455D02*
G01X30439Y15310D01*
G01X29676Y16455D02*
G01X30439Y15691D01*
G01X30167Y15964D02*
G01X29676Y15310D01*
G01X29316Y16455D02*
G01X29261Y16400D01*
G01X29207Y16455D01*
G01X29261Y16510D01*
G01X29316Y16455D01*
G01X29261Y16073D02*
G01X29261Y15310D01*
G01X28847Y15746D02*
G01X28192Y15746D01*
G01X28192Y15855D01*
G01X28247Y15964D01*
G01X28301Y16019D01*
G01X28410Y16073D01*
G01X28574Y16073D01*
G01X28683Y16019D01*
G01X28792Y15910D01*
G01X28847Y15746D01*
G01X28847Y15637D01*
G01X28792Y15473D01*
G01X28683Y15364D01*
G01X28574Y15310D01*
G01X28410Y15310D01*
G01X28301Y15364D01*
G01X28192Y15473D01*
G01X27832Y16073D02*
G01X27505Y15310D01*
G01X27177Y16073D02*
G01X27505Y15310D01*
G01X52488Y14568D02*
G01X52597Y14677D01*
G01X52761Y14732D01*
G01X52979Y14732D01*
G01X53143Y14677D01*
G01X53252Y14568D01*
G01X53252Y14459D01*
G01X53197Y14350D01*
G01X53143Y14295D01*
G01X53033Y14241D01*
G01X52706Y14132D01*
G01X52597Y14077D01*
G01X52543Y14022D01*
G01X52488Y13913D01*
G01X52488Y13750D01*
G01X52597Y13641D01*
G01X52761Y13586D01*
G01X52979Y13586D01*
G01X53143Y13641D01*
G01X53252Y13750D01*
G01X51964Y14732D02*
G01X51964Y13804D01*
G01X51910Y13641D01*
G01X51801Y13586D01*
G01X51692Y13586D01*
G01X52128Y14350D02*
G01X51746Y14350D01*
G01X50677Y14350D02*
G01X50677Y13586D01*
G01X50677Y14186D02*
G01X50786Y14295D01*
G01X50895Y14350D01*
G01X51059Y14350D01*
G01X51168Y14295D01*
G01X51277Y14186D01*
G01X51332Y14022D01*
G01X51332Y13913D01*
G01X51277Y13750D01*
G01X51168Y13641D01*
G01X51059Y13586D01*
G01X50895Y13586D01*
G01X50786Y13641D01*
G01X50677Y13750D01*
G01X50317Y14350D02*
G01X50317Y13586D01*
G01X50317Y14132D02*
G01X50153Y14295D01*
G01X50044Y14350D01*
G01X49881Y14350D01*
G01X49772Y14295D01*
G01X49717Y14132D01*
G01X49717Y13586D01*
G01X48703Y14732D02*
G01X48703Y13586D01*
G01X48703Y14186D02*
G01X48812Y14295D01*
G01X48921Y14350D01*
G01X49084Y14350D01*
G01X49193Y14295D01*
G01X49303Y14186D01*
G01X49357Y14022D01*
G01X49357Y13913D01*
G01X49303Y13750D01*
G01X49193Y13641D01*
G01X49084Y13586D01*
G01X48921Y13586D01*
G01X48812Y13641D01*
G01X48703Y13750D01*
G01X48343Y14732D02*
G01X48343Y13586D01*
G01X48343Y14186D02*
G01X48233Y14295D01*
G01X48124Y14350D01*
G01X47961Y14350D01*
G01X47852Y14295D01*
G01X47743Y14186D01*
G01X47688Y14022D01*
G01X47688Y13913D01*
G01X47743Y13750D01*
G01X47852Y13641D01*
G01X47961Y13586D01*
G01X48124Y13586D01*
G01X48233Y13641D01*
G01X48343Y13750D01*
G01X47273Y14350D02*
G01X46946Y13586D01*
G01X46619Y14350D02*
G01X46946Y13586D01*
G01X47055Y13368D01*
G01X47164Y13259D01*
G01X47273Y13204D01*
G01X47328Y13204D01*
G01X44764Y14186D02*
G01X44873Y14295D01*
G01X44983Y14350D01*
G01X45146Y14350D01*
G01X45255Y14295D01*
G01X45364Y14186D01*
G01X45419Y14022D01*
G01X45419Y13913D01*
G01X45364Y13750D01*
G01X45255Y13641D01*
G01X45146Y13586D01*
G01X44983Y13586D01*
G01X44873Y13641D01*
G01X44764Y13750D01*
G01X44404Y14350D02*
G01X44404Y13804D01*
G01X44350Y13641D01*
G01X44241Y13586D01*
G01X44077Y13586D01*
G01X43968Y13641D01*
G01X43804Y13804D01*
G01X43804Y14350D02*
G01X43804Y13586D01*
G01X43444Y14350D02*
G01X43444Y13586D01*
G01X43444Y14022D02*
G01X43390Y14186D01*
G01X43281Y14295D01*
G01X43172Y14350D01*
G01X43008Y14350D01*
G01X42648Y14350D02*
G01X42648Y13586D01*
G01X42648Y14022D02*
G01X42593Y14186D01*
G01X42484Y14295D01*
G01X42375Y14350D01*
G01X42212Y14350D01*
G01X41852Y14022D02*
G01X41197Y14022D01*
G01X41197Y14132D01*
G01X41252Y14241D01*
G01X41306Y14295D01*
G01X41415Y14350D01*
G01X41579Y14350D01*
G01X41688Y14295D01*
G01X41797Y14186D01*
G01X41852Y14022D01*
G01X41852Y13913D01*
G01X41797Y13750D01*
G01X41688Y13641D01*
G01X41579Y13586D01*
G01X41415Y13586D01*
G01X41306Y13641D01*
G01X41197Y13750D01*
G01X40837Y14350D02*
G01X40837Y13586D01*
G01X40837Y14132D02*
G01X40673Y14295D01*
G01X40564Y14350D01*
G01X40401Y14350D01*
G01X40292Y14295D01*
G01X40237Y14132D01*
G01X40237Y13586D01*
G01X39713Y14732D02*
G01X39713Y13804D01*
G01X39659Y13641D01*
G01X39550Y13586D01*
G01X39441Y13586D01*
G01X39877Y14350D02*
G01X39495Y14350D01*
G01X39026Y14241D02*
G01X39081Y14186D01*
G01X39026Y14132D01*
G01X38972Y14186D01*
G01X39026Y14241D01*
G01X39026Y13859D02*
G01X39081Y13804D01*
G01X39026Y13750D01*
G01X38972Y13804D01*
G01X39026Y13859D01*
G01X37663Y14732D02*
G01X37063Y14732D01*
G01X37390Y14295D01*
G01X37226Y14295D01*
G01X37117Y14241D01*
G01X37063Y14186D01*
G01X37008Y14022D01*
G01X37008Y13913D01*
G01X37063Y13750D01*
G01X37172Y13641D01*
G01X37335Y13586D01*
G01X37499Y13586D01*
G01X37663Y13641D01*
G01X37717Y13695D01*
G01X37772Y13804D01*
G01X35993Y14732D02*
G01X36539Y14732D01*
G01X36593Y14241D01*
G01X36539Y14295D01*
G01X36375Y14350D01*
G01X36212Y14350D01*
G01X36048Y14295D01*
G01X35939Y14186D01*
G01X35884Y14022D01*
G01X35884Y13913D01*
G01X35939Y13750D01*
G01X36048Y13641D01*
G01X36212Y13586D01*
G01X36375Y13586D01*
G01X36539Y13641D01*
G01X36593Y13695D01*
G01X36648Y13804D01*
G01X35524Y14350D02*
G01X35524Y13586D01*
G01X35524Y14132D02*
G01X35361Y14295D01*
G01X35252Y14350D01*
G01X35088Y14350D01*
G01X34979Y14295D01*
G01X34924Y14132D01*
G01X34924Y13586D01*
G01X34924Y14132D02*
G01X34761Y14295D01*
G01X34652Y14350D01*
G01X34488Y14350D01*
G01X34379Y14295D01*
G01X34324Y14132D01*
G01X34324Y13586D01*
G01X33528Y14732D02*
G01X33964Y13586D01*
G01X33528Y14732D02*
G01X33092Y13586D01*
G01X33801Y13968D02*
G01X33255Y13968D01*
G01X52749Y12954D02*
G01X53186Y11808D01*
G01X52749Y12954D02*
G01X52313Y11808D01*
G01X53022Y12190D02*
G01X52477Y12190D01*
G01X51953Y12954D02*
G01X51953Y11808D01*
G01X51593Y12954D02*
G01X51593Y11808D01*
G01X50960Y12572D02*
G01X51069Y12517D01*
G01X51178Y12408D01*
G01X51233Y12244D01*
G01X51233Y12135D01*
G01X51178Y11972D01*
G01X51069Y11863D01*
G01X50960Y11808D01*
G01X50797Y11808D01*
G01X50687Y11863D01*
G01X50578Y11972D01*
G01X50524Y12135D01*
G01X50524Y12244D01*
G01X50578Y12408D01*
G01X50687Y12517D01*
G01X50797Y12572D01*
G01X50960Y12572D01*
G01X50164Y12572D02*
G01X49946Y11808D01*
G01X49727Y12572D02*
G01X49946Y11808D01*
G01X49727Y12572D02*
G01X49509Y11808D01*
G01X49291Y12572D02*
G01X49509Y11808D01*
G01X48931Y12244D02*
G01X48277Y12244D01*
G01X48277Y12354D01*
G01X48331Y12463D01*
G01X48386Y12517D01*
G01X48495Y12572D01*
G01X48658Y12572D01*
G01X48767Y12517D01*
G01X48877Y12408D01*
G01X48931Y12244D01*
G01X48931Y12135D01*
G01X48877Y11972D01*
G01X48767Y11863D01*
G01X48658Y11808D01*
G01X48495Y11808D01*
G01X48386Y11863D01*
G01X48277Y11972D01*
G01X47262Y12954D02*
G01X47262Y11808D01*
G01X47262Y12408D02*
G01X47371Y12517D01*
G01X47480Y12572D01*
G01X47644Y12572D01*
G01X47753Y12517D01*
G01X47862Y12408D01*
G01X47917Y12244D01*
G01X47917Y12135D01*
G01X47862Y11972D01*
G01X47753Y11863D01*
G01X47644Y11808D01*
G01X47480Y11808D01*
G01X47371Y11863D01*
G01X47262Y11972D01*
G01X46062Y12572D02*
G01X45735Y11808D01*
G01X45407Y12572D02*
G01X45735Y11808D01*
G01X44775Y12572D02*
G01X44884Y12517D01*
G01X44993Y12408D01*
G01X45047Y12244D01*
G01X45047Y12135D01*
G01X44993Y11972D01*
G01X44884Y11863D01*
G01X44775Y11808D01*
G01X44611Y11808D01*
G01X44502Y11863D01*
G01X44393Y11972D01*
G01X44338Y12135D01*
G01X44338Y12244D01*
G01X44393Y12408D01*
G01X44502Y12517D01*
G01X44611Y12572D01*
G01X44775Y12572D01*
G01X43978Y12954D02*
G01X43978Y11808D01*
G01X43455Y12954D02*
G01X43455Y12026D01*
G01X43400Y11863D01*
G01X43291Y11808D01*
G01X43182Y11808D01*
G01X43618Y12572D02*
G01X43237Y12572D01*
G01X42167Y12572D02*
G01X42167Y11808D01*
G01X42167Y12408D02*
G01X42277Y12517D01*
G01X42386Y12572D01*
G01X42549Y12572D01*
G01X42658Y12517D01*
G01X42767Y12408D01*
G01X42822Y12244D01*
G01X42822Y12135D01*
G01X42767Y11972D01*
G01X42658Y11863D01*
G01X42549Y11808D01*
G01X42386Y11808D01*
G01X42277Y11863D01*
G01X42167Y11972D01*
G01X41153Y12572D02*
G01X41153Y11699D01*
G01X41207Y11535D01*
G01X41262Y11481D01*
G01X41371Y11426D01*
G01X41535Y11426D01*
G01X41644Y11481D01*
G01X41153Y12408D02*
G01X41262Y12517D01*
G01X41371Y12572D01*
G01X41535Y12572D01*
G01X41644Y12517D01*
G01X41753Y12408D01*
G01X41807Y12244D01*
G01X41807Y12135D01*
G01X41753Y11972D01*
G01X41644Y11863D01*
G01X41535Y11808D01*
G01X41371Y11808D01*
G01X41262Y11863D01*
G01X41153Y11972D01*
G01X40793Y12244D02*
G01X40138Y12244D01*
G01X40138Y12354D01*
G01X40193Y12463D01*
G01X40247Y12517D01*
G01X40357Y12572D01*
G01X40520Y12572D01*
G01X40629Y12517D01*
G01X40738Y12408D01*
G01X40793Y12244D01*
G01X40793Y12135D01*
G01X40738Y11972D01*
G01X40629Y11863D01*
G01X40520Y11808D01*
G01X40357Y11808D01*
G01X40247Y11863D01*
G01X40138Y11972D01*
G01X39724Y12463D02*
G01X39778Y12408D01*
G01X39724Y12354D01*
G01X39669Y12408D01*
G01X39724Y12463D01*
G01X39724Y12081D02*
G01X39778Y12026D01*
G01X39724Y11972D01*
G01X39669Y12026D01*
G01X39724Y12081D01*
G01X37815Y12954D02*
G01X38360Y12954D01*
G01X38415Y12463D01*
G01X38360Y12517D01*
G01X38197Y12572D01*
G01X38033Y12572D01*
G01X37869Y12517D01*
G01X37760Y12408D01*
G01X37706Y12244D01*
G01X37706Y12135D01*
G01X37760Y11972D01*
G01X37869Y11863D01*
G01X38033Y11808D01*
G01X38197Y11808D01*
G01X38360Y11863D01*
G01X38415Y11917D01*
G01X38469Y12026D01*
G01X37291Y12081D02*
G01X37346Y12026D01*
G01X37291Y11972D01*
G01X37237Y12026D01*
G01X37291Y12081D01*
G01X36822Y12081D02*
G01X36877Y12026D01*
G01X36822Y11972D01*
G01X36767Y12026D01*
G01X36822Y12081D01*
G01X36353Y12081D02*
G01X36407Y12026D01*
G01X36353Y11972D01*
G01X36298Y12026D01*
G01X36353Y12081D01*
G01X35938Y12735D02*
G01X35829Y12790D01*
G01X35666Y12954D01*
G01X35666Y11808D01*
G01X35033Y12954D02*
G01X35197Y12899D01*
G01X35251Y12790D01*
G01X35251Y12681D01*
G01X35197Y12572D01*
G01X35087Y12517D01*
G01X34869Y12463D01*
G01X34706Y12408D01*
G01X34597Y12299D01*
G01X34542Y12190D01*
G01X34542Y12026D01*
G01X34597Y11917D01*
G01X34651Y11863D01*
G01X34815Y11808D01*
G01X35033Y11808D01*
G01X35197Y11863D01*
G01X35251Y11917D01*
G01X35306Y12026D01*
G01X35306Y12190D01*
G01X35251Y12299D01*
G01X35142Y12408D01*
G01X34978Y12463D01*
G01X34760Y12517D01*
G01X34651Y12572D01*
G01X34597Y12681D01*
G01X34597Y12790D01*
G01X34651Y12899D01*
G01X34815Y12954D01*
G01X35033Y12954D01*
G01X34182Y12572D02*
G01X33855Y11808D01*
G01X33528Y12572D02*
G01X33855Y11808D01*
G01X53086Y11068D02*
G01X53086Y9923D01*
G01X53086Y11068D02*
G01X52649Y9923D01*
G01X52213Y11068D02*
G01X52649Y9923D01*
G01X52213Y11068D02*
G01X52213Y9923D01*
G01X51198Y10686D02*
G01X51198Y9923D01*
G01X51198Y10523D02*
G01X51307Y10632D01*
G01X51416Y10686D01*
G01X51580Y10686D01*
G01X51689Y10632D01*
G01X51798Y10523D01*
G01X51853Y10359D01*
G01X51853Y10250D01*
G01X51798Y10086D01*
G01X51689Y9977D01*
G01X51580Y9923D01*
G01X51416Y9923D01*
G01X51307Y9977D01*
G01X51198Y10086D01*
G01X50838Y10686D02*
G01X50238Y9923D01*
G01X50238Y10686D02*
G01X50838Y9923D01*
G01X48384Y10523D02*
G01X48493Y10632D01*
G01X48602Y10686D01*
G01X48766Y10686D01*
G01X48875Y10632D01*
G01X48984Y10523D01*
G01X49038Y10359D01*
G01X49038Y10250D01*
G01X48984Y10086D01*
G01X48875Y9977D01*
G01X48766Y9923D01*
G01X48602Y9923D01*
G01X48493Y9977D01*
G01X48384Y10086D01*
G01X48024Y10686D02*
G01X48024Y10141D01*
G01X47969Y9977D01*
G01X47860Y9923D01*
G01X47696Y9923D01*
G01X47587Y9977D01*
G01X47424Y10141D01*
G01X47424Y10686D02*
G01X47424Y9923D01*
G01X47064Y10686D02*
G01X47064Y9923D01*
G01X47064Y10359D02*
G01X47009Y10523D01*
G01X46900Y10632D01*
G01X46791Y10686D01*
G01X46627Y10686D01*
G01X46267Y10686D02*
G01X46267Y9923D01*
G01X46267Y10359D02*
G01X46213Y10523D01*
G01X46104Y10632D01*
G01X45995Y10686D01*
G01X45831Y10686D01*
G01X45471Y10359D02*
G01X44816Y10359D01*
G01X44816Y10468D01*
G01X44871Y10577D01*
G01X44926Y10632D01*
G01X45035Y10686D01*
G01X45198Y10686D01*
G01X45307Y10632D01*
G01X45416Y10523D01*
G01X45471Y10359D01*
G01X45471Y10250D01*
G01X45416Y10086D01*
G01X45307Y9977D01*
G01X45198Y9923D01*
G01X45035Y9923D01*
G01X44926Y9977D01*
G01X44816Y10086D01*
G01X44456Y10686D02*
G01X44456Y9923D01*
G01X44456Y10468D02*
G01X44293Y10632D01*
G01X44184Y10686D01*
G01X44020Y10686D01*
G01X43911Y10632D01*
G01X43856Y10468D01*
G01X43856Y9923D01*
G01X43333Y11068D02*
G01X43333Y10141D01*
G01X43278Y9977D01*
G01X43169Y9923D01*
G01X43060Y9923D01*
G01X43496Y10686D02*
G01X43115Y10686D01*
G01X42646Y10577D02*
G01X42700Y10523D01*
G01X42646Y10468D01*
G01X42591Y10523D01*
G01X42646Y10577D01*
G01X42646Y10195D02*
G01X42700Y10141D01*
G01X42646Y10086D01*
G01X42591Y10141D01*
G01X42646Y10195D01*
G01X40736Y11068D02*
G01X41282Y11068D01*
G01X41336Y10577D01*
G01X41282Y10632D01*
G01X41118Y10686D01*
G01X40955Y10686D01*
G01X40791Y10632D01*
G01X40682Y10523D01*
G01X40627Y10359D01*
G01X40627Y10250D01*
G01X40682Y10086D01*
G01X40791Y9977D01*
G01X40955Y9923D01*
G01X41118Y9923D01*
G01X41282Y9977D01*
G01X41336Y10032D01*
G01X41391Y10141D01*
G01X39831Y11068D02*
G01X40267Y9923D01*
G01X39831Y11068D02*
G01X39395Y9923D01*
G01X40104Y10304D02*
G01X39558Y10304D01*
M00*
M02*
