G04 ---------------------------- Layer name :TOP LAYER*
G04 EasyEDA v5.4.12, Tue, 22 May 2018 18:49:31 GMT*
G04 d7c983edca6a4b4588ebda3a34a87f28*
G04 Gerber Generator version 0.2*
G04 Scale: 100 percent, Rotated: No, Reflected: No *
G04 Dimensions in millimeters *
G04 leading zeros omitted , absolute positions ,3 integer and 3 decimal *
%FSLAX33Y33*%
%MOMM*%
G90*
G71D02*

%ADD10C,0.254000*%
%ADD11C,0.399999*%
%ADD12C,1.499997*%
%ADD13C,0.449999*%
%ADD14C,0.203200*%
%ADD15R,3.799992X1.999996*%
%ADD16R,1.499997X1.999996*%
%ADD17R,0.701040X1.699260*%
%ADD18R,1.799996X1.099998*%
%ADD19R,1.099998X2.499995*%
%ADD20R,1.206500X1.206500*%
%ADD21R,2.500000X2.000001*%
%ADD22R,1.574800X1.574800*%
%ADD23R,1.574800X1.575054*%
%ADD24R,4.999990X4.999990*%
%ADD25R,1.575054X1.575054*%
%ADD26C,2.000001*%

%LPD*%
G54D11*
G01X52070Y26924D02*
G01X52070Y28041D01*
G01X52791Y28762D01*
G54D10*
G01X21031Y11938D02*
G01X21031Y11125D01*
G01X20066Y10160D01*
G01X18288Y10160D01*
G01X17780Y9652D01*
G01X29768Y17526D02*
G01X30734Y17526D01*
G01X31496Y18288D01*
G01X31496Y18796D01*
G01X31750Y19050D01*
G01X35052Y19050D01*
G01X35306Y18796D01*
G01X35306Y17449D01*
G01X35483Y17272D01*
G01X29768Y16725D02*
G01X32550Y16725D01*
G01X33096Y17272D01*
G54D11*
G01X29768Y15925D02*
G01X25222Y15925D01*
G01X24384Y16764D01*
G01X21059Y16764D01*
G01X21031Y16736D01*
G01X29768Y14328D02*
G01X26819Y14328D01*
G01X25222Y15925D01*
G01X21031Y16736D02*
G01X12418Y16736D01*
G01X11430Y15748D01*
G01X11430Y12242D01*
G01X21031Y15135D02*
G01X14912Y15135D01*
G01X13312Y16736D01*
G01X21031Y14338D02*
G01X25539Y14338D01*
G01X26416Y13462D01*
G01X29702Y13462D01*
G01X29768Y13528D01*
G01X29768Y15125D02*
G01X33921Y15125D01*
G01X34290Y15494D01*
G01X34290Y17272D01*
G01X29768Y13528D02*
G01X33848Y13528D01*
G01X34290Y13970D01*
G01X34290Y15494D01*
G01X3556Y9652D02*
G01X12954Y9652D01*
G01X13716Y10414D01*
G01X13716Y12227D01*
G01X13731Y12242D01*
G01X9131Y12242D02*
G01X9131Y14998D01*
G01X8382Y15748D01*
G01X5080Y15748D01*
G01X3556Y17272D01*
G54D10*
G01X9179Y28762D02*
G01X10876Y28762D01*
G01X10878Y28760D01*
G01X12580Y28762D02*
G01X24180Y28762D01*
G01X39179Y28762D02*
G01X40876Y28762D01*
G01X40878Y28760D01*
G54D11*
G01X42580Y28762D02*
G01X54180Y28762D01*
G54D10*
G01X74272Y29370D02*
G01X68072Y29370D01*
G01X24180Y28762D02*
G01X25877Y28762D01*
G01X25880Y28760D01*
G01X27579Y28762D02*
G01X25882Y28762D01*
G01X25880Y28760D01*
G01X39179Y28762D02*
G01X27579Y28762D01*
G54D11*
G01X54180Y28762D02*
G01X55877Y28762D01*
G01X55880Y28760D01*
G01X57579Y28762D02*
G01X55882Y28762D01*
G01X55880Y28760D01*
G54D10*
G01X42580Y28762D02*
G01X40881Y28762D01*
G01X40878Y28760D01*
G01X13208Y7620D02*
G01X13208Y4572D01*
G01X11226Y7620D02*
G01X9258Y7620D01*
G01X7226Y9652D01*
G54D12*
G01X3556Y9652D02*
G01X3556Y4318D01*
G01X6604Y1270D01*
G01X70612Y1270D01*
G01X73914Y4572D01*
G01X73914Y9144D01*
G01X3556Y17272D02*
G01X3556Y29718D01*
G01X5334Y31496D01*
G01X61468Y31496D01*
G01X62738Y30226D01*
G01X62738Y18034D01*
G01X61976Y17272D01*
G01X57531Y17272D01*
G01X56896Y16637D01*
G54D11*
G01X68072Y29370D02*
G01X63619Y29370D01*
G01X62738Y28488D01*
G54D12*
G01X56896Y14097D02*
G01X64389Y14097D01*
G01X66548Y16256D01*
G01X73914Y16256D01*
G54D10*
G01X74272Y25669D02*
G01X68072Y25669D01*
G01X21031Y12738D02*
G01X17995Y12738D01*
G01X17780Y12954D01*
G01X68072Y25669D02*
G01X68072Y22606D01*
G01X68326Y22352D01*
G01X56896Y11557D02*
G01X68199Y11557D01*
G01X68326Y11684D01*
G01X23406Y19126D02*
G01X23406Y20535D01*
G01X22098Y21844D01*
G01X12954Y21844D01*
G01X12700Y22098D01*
G01X12700Y23441D01*
G01X12580Y23561D01*
G01X22606Y19126D02*
G01X22606Y20320D01*
G01X21844Y21082D01*
G01X11430Y21082D01*
G01X10922Y21590D01*
G01X10922Y23520D01*
G01X10881Y23561D01*
G01X21031Y17536D02*
G01X21031Y19354D01*
G01X20066Y20320D01*
G01X9652Y20320D01*
G01X9144Y20828D01*
G01X9144Y23525D01*
G01X9179Y23561D01*
G01X24206Y19126D02*
G01X24206Y23535D01*
G01X24180Y23561D01*
G01X25006Y19126D02*
G01X25006Y20942D01*
G01X25908Y21844D01*
G01X25908Y23533D01*
G01X25880Y23561D01*
G01X25803Y19126D02*
G01X25803Y20723D01*
G01X27178Y22098D01*
G01X27178Y23159D01*
G01X27579Y23561D01*
G01X26603Y19126D02*
G01X26603Y20253D01*
G01X27940Y21590D01*
G01X37208Y21590D01*
G01X39179Y23561D01*
G01X27404Y19126D02*
G01X27404Y20038D01*
G01X28194Y20828D01*
G01X39624Y20828D01*
G01X40894Y22098D01*
G01X40894Y23548D01*
G01X40881Y23561D01*
G01X28204Y19126D02*
G01X28204Y19314D01*
G01X28956Y20066D01*
G01X41402Y20066D01*
G01X42418Y21082D01*
G01X42418Y23398D01*
G01X42580Y23561D01*
G01X16553Y28762D02*
G01X18018Y28762D01*
G01X20497Y31242D01*
G01X32862Y28762D02*
G01X33525Y28762D01*
G01X36004Y31242D01*
G01X29768Y12727D02*
G01X37873Y12727D01*
G01X47244Y22098D01*
G01X52717Y22098D01*
G01X54180Y23561D01*
G01X29768Y11927D02*
G01X38343Y11927D01*
G01X47498Y21082D01*
G01X54864Y21082D01*
G01X55880Y22098D01*
G01X55880Y23561D01*
G01X28194Y10363D02*
G01X31191Y10363D01*
G01X32004Y11176D01*
G01X38862Y11176D01*
G01X47752Y20066D01*
G01X56388Y20066D01*
G01X57658Y21336D01*
G01X57658Y23482D01*
G01X57579Y23561D01*
G01X25793Y10363D02*
G01X25793Y9029D01*
G01X22606Y5842D01*
G01X26593Y10363D02*
G01X26593Y6934D01*
G01X27686Y5842D01*
G01X27393Y10363D02*
G01X27393Y8420D01*
G01X27686Y8128D01*
G01X30480Y8128D01*
G01X32766Y5842D01*
G01X17526Y5842D02*
G01X17018Y5842D01*
G01X15748Y7112D01*
G01X15748Y14301D01*
G01X14913Y15135D01*
G01X13208Y4572D02*
G01X14224Y4572D01*
G01X14732Y4064D01*
G01X19304Y4064D01*
G01X20066Y4826D01*
G01X20066Y7833D01*
G01X22595Y10363D01*
G01X63703Y9906D02*
G01X66548Y9906D01*
G01X68072Y11430D01*
G01X68326Y11684D01*
G01X61722Y9906D02*
G01X60198Y9906D01*
G01X59436Y9144D01*
G01X54864Y9144D01*
G01X53848Y10160D01*
G01X53848Y15240D01*
G01X55118Y16510D01*
G01X56769Y16510D01*
G01X56896Y16637D01*
G01X37846Y5842D02*
G01X37846Y8890D01*
G01X48006Y19050D01*
G01X57226Y19050D01*
G01X62738Y24561D01*
G01X37846Y5842D02*
G01X37846Y5334D01*
G01X35560Y3048D01*
G01X11938Y3048D01*
G01X11430Y3556D01*
G01X11430Y4368D01*
G01X11226Y4572D01*
G01X12580Y28762D02*
G01X10881Y28762D01*
G01X10878Y28760D01*
G54D11*
G01X57579Y28762D02*
G01X61274Y28762D01*
G01X62738Y30226D01*
G01X32268Y13528D02*
G01X37404Y13528D01*
G01X46990Y23114D01*
G01X51308Y23114D01*
G01X52070Y23876D01*
G01X52070Y26924D01*
G54D13*
G01X28194Y9763D02*
G01X28194Y10963D01*
G01X27393Y9763D02*
G01X27393Y10963D01*
G01X26593Y9763D02*
G01X26593Y10963D01*
G01X25793Y9763D02*
G01X25793Y10963D01*
G01X24996Y9763D02*
G01X24996Y10963D01*
G01X24196Y9763D02*
G01X24196Y10963D01*
G01X23395Y9763D02*
G01X23395Y10963D01*
G01X22595Y9763D02*
G01X22595Y10963D01*
G01X21631Y11938D02*
G01X20431Y11938D01*
G01X21631Y12738D02*
G01X20431Y12738D01*
G01X21631Y13538D02*
G01X20431Y13538D01*
G01X21631Y14338D02*
G01X20431Y14338D01*
G01X21631Y15135D02*
G01X20431Y15135D01*
G01X21631Y15935D02*
G01X20431Y15935D01*
G01X21631Y16736D02*
G01X20431Y16736D01*
G01X21631Y17536D02*
G01X20431Y17536D01*
G01X22606Y18526D02*
G01X22606Y19726D01*
G01X23406Y18526D02*
G01X23406Y19726D01*
G01X24206Y18526D02*
G01X24206Y19726D01*
G01X25006Y18526D02*
G01X25006Y19726D01*
G01X25803Y18526D02*
G01X25803Y19726D01*
G01X26603Y18526D02*
G01X26603Y19726D01*
G01X27404Y18526D02*
G01X27404Y19726D01*
G01X28204Y18526D02*
G01X28204Y19726D01*
G01X30368Y17526D02*
G01X29168Y17526D01*
G01X30368Y16725D02*
G01X29168Y16725D01*
G01X30368Y15925D02*
G01X29168Y15925D01*
G01X30368Y15125D02*
G01X29168Y15125D01*
G01X30368Y14328D02*
G01X29168Y14328D01*
G01X30368Y13528D02*
G01X29168Y13528D01*
G01X30368Y12727D02*
G01X29168Y12727D01*
G01X30368Y11927D02*
G01X29168Y11927D01*
G54D14*
G01X42255Y6398D02*
G01X42255Y6489D01*
G01X42349Y6675D01*
G01X42440Y6766D01*
G01X42626Y6858D01*
G01X42994Y6858D01*
G01X43180Y6766D01*
G01X43271Y6675D01*
G01X43365Y6489D01*
G01X43365Y6304D01*
G01X43271Y6118D01*
G01X43088Y5842D01*
G01X42164Y4919D01*
G01X43456Y4919D01*
G01X44620Y6858D02*
G01X44343Y6766D01*
G01X44157Y6489D01*
G01X44066Y6027D01*
G01X44066Y5750D01*
G01X44157Y5288D01*
G01X44343Y5011D01*
G01X44620Y4919D01*
G01X44805Y4919D01*
G01X45082Y5011D01*
G01X45267Y5288D01*
G01X45359Y5750D01*
G01X45359Y6027D01*
G01X45267Y6489D01*
G01X45082Y6766D01*
G01X44805Y6858D01*
G01X44620Y6858D01*
G01X45968Y6489D02*
G01X46154Y6581D01*
G01X46431Y6858D01*
G01X46431Y4919D01*
G01X47503Y6858D02*
G01X47226Y6766D01*
G01X47132Y6581D01*
G01X47132Y6398D01*
G01X47226Y6212D01*
G01X47409Y6118D01*
G01X47779Y6027D01*
G01X48056Y5935D01*
G01X48242Y5750D01*
G01X48333Y5565D01*
G01X48333Y5288D01*
G01X48242Y5102D01*
G01X48148Y5011D01*
G01X47871Y4919D01*
G01X47503Y4919D01*
G01X47226Y5011D01*
G01X47132Y5102D01*
G01X47040Y5288D01*
G01X47040Y5565D01*
G01X47132Y5750D01*
G01X47317Y5935D01*
G01X47594Y6027D01*
G01X47965Y6118D01*
G01X48148Y6212D01*
G01X48242Y6398D01*
G01X48242Y6581D01*
G01X48148Y6766D01*
G01X47871Y6858D01*
G01X47503Y6858D01*
G01X48943Y5750D02*
G01X50606Y5750D01*
G01X51770Y6858D02*
G01X51493Y6766D01*
G01X51308Y6489D01*
G01X51216Y6027D01*
G01X51216Y5750D01*
G01X51308Y5288D01*
G01X51493Y5011D01*
G01X51770Y4919D01*
G01X51955Y4919D01*
G01X52232Y5011D01*
G01X52415Y5288D01*
G01X52509Y5750D01*
G01X52509Y6027D01*
G01X52415Y6489D01*
G01X52232Y6766D01*
G01X51955Y6858D01*
G01X51770Y6858D01*
G01X54226Y6858D02*
G01X53301Y6858D01*
G01X53210Y6027D01*
G01X53301Y6118D01*
G01X53581Y6212D01*
G01X53858Y6212D01*
G01X54135Y6118D01*
G01X54317Y5935D01*
G01X54411Y5659D01*
G01X54411Y5473D01*
G01X54317Y5196D01*
G01X54135Y5011D01*
G01X53858Y4919D01*
G01X53581Y4919D01*
G01X53301Y5011D01*
G01X53210Y5102D01*
G01X53119Y5288D01*
G01X55021Y5750D02*
G01X56682Y5750D01*
G01X57386Y6398D02*
G01X57386Y6489D01*
G01X57477Y6675D01*
G01X57569Y6766D01*
G01X57754Y6858D01*
G01X58125Y6858D01*
G01X58308Y6766D01*
G01X58402Y6675D01*
G01X58493Y6489D01*
G01X58493Y6304D01*
G01X58402Y6118D01*
G01X58216Y5842D01*
G01X57292Y4919D01*
G01X58585Y4919D01*
G01X59380Y6858D02*
G01X60396Y6858D01*
G01X59842Y6118D01*
G01X60119Y6118D01*
G01X60304Y6027D01*
G01X60396Y5935D01*
G01X60490Y5659D01*
G01X60490Y5473D01*
G01X60396Y5196D01*
G01X60210Y5011D01*
G01X59933Y4919D01*
G01X59656Y4919D01*
G01X59380Y5011D01*
G01X59288Y5102D01*
G01X59194Y5288D01*
G01X62522Y6212D02*
G01X63075Y4919D01*
G01X63629Y6212D02*
G01X63075Y4919D01*
G01X64330Y6398D02*
G01X64330Y6489D01*
G01X64424Y6675D01*
G01X64516Y6766D01*
G01X64701Y6858D01*
G01X65069Y6858D01*
G01X65255Y6766D01*
G01X65346Y6675D01*
G01X65440Y6489D01*
G01X65440Y6304D01*
G01X65346Y6118D01*
G01X65163Y5842D01*
G01X64239Y4919D01*
G01X65532Y4919D01*
G54D15*
G01X11430Y18542D03*
G54D16*
G01X11430Y12241D03*
G01X13729Y12241D03*
G01X9130Y12241D03*
G54D17*
G01X33096Y17270D03*
G01X34290Y17270D03*
G01X35483Y17270D03*
G54D18*
G01X68070Y29371D03*
G01X68070Y25670D03*
G01X74270Y29371D03*
G01X74270Y25670D03*
G54D19*
G01X57580Y28761D03*
G01X55878Y28761D03*
G01X54179Y28761D03*
G01X57580Y23561D03*
G01X55880Y23561D03*
G01X54179Y23561D03*
G01X42579Y28761D03*
G01X40880Y28761D03*
G01X39180Y28761D03*
G01X42579Y23561D03*
G01X40880Y23561D03*
G01X39180Y23561D03*
G01X27580Y28761D03*
G01X25878Y28761D03*
G01X24179Y28761D03*
G01X27580Y23561D03*
G01X25880Y23561D03*
G01X24179Y23561D03*
G01X12579Y28761D03*
G01X10880Y28761D03*
G01X9180Y28761D03*
G01X12579Y23561D03*
G01X10880Y23561D03*
G01X9180Y23561D03*
G54D20*
G01X61723Y9904D03*
G01X63704Y9904D03*
G01X13209Y4570D03*
G01X11228Y4570D03*
G01X13209Y7618D03*
G01X11228Y7618D03*
G54D21*
G01X56896Y16637D03*
G54D22*
G01X27686Y5842D03*
G01X32766Y5842D03*
G01X22606Y5842D03*
G54D23*
G01X37846Y5842D03*
G54D22*
G01X17526Y5842D03*
G54D24*
G01X3556Y10414D03*
G01X3556Y18034D03*
G01X73914Y18034D03*
G01X73914Y10922D03*
G54D25*
G01X68326Y22352D03*
G01X17780Y12954D03*
G01X17780Y9652D03*
G01X68326Y11684D03*
G54D26*
G01X57145Y11557D02*
G01X56646Y11557D01*
G01X57145Y14097D02*
G01X56646Y14097D01*
M00*
M02*
