G04 ---------------------------- Layer name :TOP PASTER LAYER*
G04 EasyEDA v5.4.12, Tue, 22 May 2018 18:49:31 GMT*
G04 d7c983edca6a4b4588ebda3a34a87f28*
G04 Gerber Generator version 0.2*
G04 Scale: 100 percent, Rotated: No, Reflected: No *
G04 Dimensions in millimeters *
G04 leading zeros omitted , absolute positions ,3 integer and 3 decimal *
%FSLAX33Y33*%
%MOMM*%
G90*
G71D02*

%ADD13C,0.449999*%
%ADD15R,3.799992X1.999996*%
%ADD16R,1.499997X1.999996*%
%ADD17R,0.701040X1.699260*%
%ADD18R,1.799996X1.099998*%
%ADD19R,1.099998X2.499995*%
%ADD20R,1.206500X1.206500*%

%LPD*%
G54D13*
G01X28194Y9763D02*
G01X28194Y10963D01*
G01X27393Y9763D02*
G01X27393Y10963D01*
G01X26593Y9763D02*
G01X26593Y10963D01*
G01X25793Y9763D02*
G01X25793Y10963D01*
G01X24996Y9763D02*
G01X24996Y10963D01*
G01X24196Y9763D02*
G01X24196Y10963D01*
G01X23395Y9763D02*
G01X23395Y10963D01*
G01X22595Y9763D02*
G01X22595Y10963D01*
G01X21631Y11938D02*
G01X20431Y11938D01*
G01X21631Y12738D02*
G01X20431Y12738D01*
G01X21631Y13538D02*
G01X20431Y13538D01*
G01X21631Y14338D02*
G01X20431Y14338D01*
G01X21631Y15135D02*
G01X20431Y15135D01*
G01X21631Y15935D02*
G01X20431Y15935D01*
G01X21631Y16736D02*
G01X20431Y16736D01*
G01X21631Y17536D02*
G01X20431Y17536D01*
G01X22606Y18526D02*
G01X22606Y19726D01*
G01X23406Y18526D02*
G01X23406Y19726D01*
G01X24206Y18526D02*
G01X24206Y19726D01*
G01X25006Y18526D02*
G01X25006Y19726D01*
G01X25803Y18526D02*
G01X25803Y19726D01*
G01X26603Y18526D02*
G01X26603Y19726D01*
G01X27404Y18526D02*
G01X27404Y19726D01*
G01X28204Y18526D02*
G01X28204Y19726D01*
G01X30368Y17526D02*
G01X29168Y17526D01*
G01X30368Y16725D02*
G01X29168Y16725D01*
G01X30368Y15925D02*
G01X29168Y15925D01*
G01X30368Y15125D02*
G01X29168Y15125D01*
G01X30368Y14328D02*
G01X29168Y14328D01*
G01X30368Y13528D02*
G01X29168Y13528D01*
G01X30368Y12727D02*
G01X29168Y12727D01*
G01X30368Y11927D02*
G01X29168Y11927D01*
G54D15*
G01X11430Y18542D03*
G54D16*
G01X11430Y12241D03*
G01X13729Y12241D03*
G01X9130Y12241D03*
G54D17*
G01X33096Y17270D03*
G01X34290Y17270D03*
G01X35483Y17270D03*
G54D18*
G01X68070Y29371D03*
G01X68070Y25670D03*
G01X74270Y29371D03*
G01X74270Y25670D03*
G54D19*
G01X57580Y28761D03*
G01X55878Y28761D03*
G01X54179Y28761D03*
G01X57580Y23561D03*
G01X55880Y23561D03*
G01X54179Y23561D03*
G01X42579Y28761D03*
G01X40880Y28761D03*
G01X39180Y28761D03*
G01X42579Y23561D03*
G01X40880Y23561D03*
G01X39180Y23561D03*
G01X27580Y28761D03*
G01X25878Y28761D03*
G01X24179Y28761D03*
G01X27580Y23561D03*
G01X25880Y23561D03*
G01X24179Y23561D03*
G01X12579Y28761D03*
G01X10880Y28761D03*
G01X9180Y28761D03*
G01X12579Y23561D03*
G01X10880Y23561D03*
G01X9180Y23561D03*
G54D20*
G01X61723Y9904D03*
G01X63704Y9904D03*
G01X13209Y4570D03*
G01X11228Y4570D03*
G01X13209Y7618D03*
G01X11228Y7618D03*
M00*
M02*
