G04 ---------------------------- Layer name :TOP SOLDER LAYER*
G04 EasyEDA v5.4.12, Wed, 23 May 2018 11:05:33 GMT*
G04 139d24c5156241d0888082340940ae75*
G04 Gerber Generator version 0.2*
G04 Scale: 100 percent, Rotated: No, Reflected: No *
G04 Dimensions in millimeters *
G04 leading zeros omitted , absolute positions ,3 integer and 3 decimal *
%FSLAX33Y33*%
%MOMM*%
G90*
G71D02*

%ADD13C,0.653199*%
%ADD15R,2.203196X4.003192*%
%ADD16R,2.203196X1.703197*%
%ADD17R,0.904240X1.902460*%
%ADD18R,2.003196X1.303198*%
%ADD19R,1.303198X2.703195*%
%ADD20R,1.409700X1.409700*%
%ADD21R,1.409700X1.410198*%
%ADD22R,2.703200X2.203201*%
%ADD23R,1.778000X1.778000*%
%ADD24R,1.778000X1.778254*%
%ADD25R,5.203190X5.203190*%
%ADD26R,1.778254X1.778254*%
%ADD27C,2.203201*%

%LPD*%
G54D27*
G01X57145Y11557D02*
G01X56646Y11557D01*
G01X57145Y14097D02*
G01X56646Y14097D01*
G54D13*
G01X28194Y9763D02*
G01X28194Y10962D01*
G01X27393Y9763D02*
G01X27393Y10962D01*
G01X26593Y9763D02*
G01X26593Y10962D01*
G01X25793Y9763D02*
G01X25793Y10962D01*
G01X24996Y9763D02*
G01X24996Y10962D01*
G01X24196Y9763D02*
G01X24196Y10962D01*
G01X23395Y9763D02*
G01X23395Y10962D01*
G01X22595Y9763D02*
G01X22595Y10962D01*
G01X21630Y11938D02*
G01X20431Y11938D01*
G01X21630Y12738D02*
G01X20431Y12738D01*
G01X21630Y13538D02*
G01X20431Y13538D01*
G01X21630Y14338D02*
G01X20431Y14338D01*
G01X21630Y15135D02*
G01X20431Y15135D01*
G01X21630Y15935D02*
G01X20431Y15935D01*
G01X21630Y16736D02*
G01X20431Y16736D01*
G01X21630Y17536D02*
G01X20431Y17536D01*
G01X22606Y18526D02*
G01X22606Y19725D01*
G01X23406Y18526D02*
G01X23406Y19725D01*
G01X24206Y18526D02*
G01X24206Y19725D01*
G01X25006Y18526D02*
G01X25006Y19725D01*
G01X25803Y18526D02*
G01X25803Y19725D01*
G01X26603Y18526D02*
G01X26603Y19725D01*
G01X27404Y18526D02*
G01X27404Y19725D01*
G01X28204Y18526D02*
G01X28204Y19725D01*
G01X30368Y17526D02*
G01X29169Y17526D01*
G01X30368Y16725D02*
G01X29169Y16725D01*
G01X30368Y15925D02*
G01X29169Y15925D01*
G01X30368Y15125D02*
G01X29169Y15125D01*
G01X30368Y14328D02*
G01X29169Y14328D01*
G01X30368Y13528D02*
G01X29169Y13528D01*
G01X30368Y12727D02*
G01X29169Y12727D01*
G01X30368Y11927D02*
G01X29169Y11927D01*
G54D15*
G01X14986Y14478D03*
G54D16*
G01X8686Y14478D03*
G01X8686Y12176D03*
G01X8686Y16776D03*
G54D17*
G01X33096Y17270D03*
G01X34290Y17270D03*
G01X35483Y17270D03*
G54D18*
G01X68070Y29371D03*
G01X68070Y25670D03*
G01X74270Y29371D03*
G01X74270Y25670D03*
G54D19*
G01X57581Y30030D03*
G01X55880Y30030D03*
G01X54180Y30030D03*
G01X57581Y24831D03*
G01X55880Y24831D03*
G01X54180Y24831D03*
G01X42593Y30030D03*
G01X40894Y30030D03*
G01X39194Y30030D03*
G01X42593Y24831D03*
G01X40894Y24831D03*
G01X39194Y24831D03*
G01X27609Y30030D03*
G01X25908Y30030D03*
G01X24208Y30030D03*
G01X27609Y24831D03*
G01X25908Y24831D03*
G01X24208Y24831D03*
G01X12621Y30030D03*
G01X10922Y30030D03*
G01X9222Y30030D03*
G01X12621Y24831D03*
G01X10922Y24831D03*
G01X9222Y24831D03*
G54D20*
G01X61723Y9904D03*
G01X63704Y9904D03*
G01X13210Y7871D03*
G01X11229Y7871D03*
G01X13210Y5331D03*
G01X11229Y5331D03*
G54D22*
G01X56896Y16637D03*
G54D23*
G01X24638Y7112D03*
G01X27686Y7112D03*
G01X34290Y7112D03*
G54D24*
G01X41148Y7112D03*
G54D23*
G01X17780Y7112D03*
G54D25*
G01X3556Y10414D03*
G01X3556Y18034D03*
G01X73914Y18034D03*
G01X73914Y10922D03*
G54D21*
G01X15242Y25146D03*
G54D20*
G01X15242Y23164D03*
G54D21*
G01X17274Y25146D03*
G54D20*
G01X17274Y23164D03*
G54D21*
G01X19306Y25146D03*
G54D20*
G01X19306Y23164D03*
G54D21*
G01X21338Y25146D03*
G54D20*
G01X21338Y23164D03*
G01X46228Y3810D03*
G01X48209Y3810D03*
G54D26*
G01X68326Y22352D03*
G01X17780Y14478D03*
G01X17780Y12192D03*
G01X68326Y11684D03*
G01X17780Y9906D03*
G01X15494Y3302D03*
G54D20*
G01X46230Y6855D03*
G01X48211Y6855D03*
G54D21*
G01X30228Y25146D03*
G54D20*
G01X30228Y23164D03*
G54D21*
G01X32260Y25143D03*
G54D20*
G01X32260Y23162D03*
G54D21*
G01X34292Y25146D03*
G54D20*
G01X34292Y23164D03*
G54D21*
G01X36324Y25146D03*
G54D20*
G01X36324Y23164D03*
G54D21*
G01X44706Y25146D03*
G54D20*
G01X44706Y23164D03*
G54D21*
G01X48008Y25146D03*
G54D20*
G01X48008Y23164D03*
G54D21*
G01X50040Y25146D03*
G54D20*
G01X50040Y23164D03*
G54D21*
G01X52072Y25146D03*
G54D20*
G01X52072Y23164D03*
G54D21*
G01X6098Y26667D03*
G54D20*
G01X6098Y24686D03*
M00*
M02*
