G04 ---------------------------- Layer name :TOP LAYER*
G04 EasyEDA v5.4.12, Mon, 21 May 2018 10:25:39 GMT*
G04 d0ac2e000ddc4f35a868ce4d586767d9*
G04 Gerber Generator version 0.2*
G04 Scale: 100 percent, Rotated: No, Reflected: No *
G04 Dimensions in millimeters *
G04 leading zeros omitted , absolute positions ,3 integer and 3 decimal *
%FSLAX33Y33*%
%MOMM*%
G90*
G71D02*

%ADD10C,0.254000*%
%ADD11C,0.399999*%
%ADD12C,0.299999*%
%ADD13C,1.499997*%
%ADD14C,0.449999*%
%ADD15C,0.203200*%
%ADD16R,3.799992X1.999996*%
%ADD17R,1.499997X1.999996*%
%ADD18R,0.701040X1.699260*%
%ADD19R,1.799996X1.099998*%
%ADD20R,1.099998X2.499995*%
%ADD21R,1.206500X1.206500*%
%ADD22R,2.500000X2.000001*%
%ADD23R,1.574800X1.574800*%
%ADD24R,1.574800X1.575054*%
%ADD25R,4.999990X4.999990*%
%ADD26R,1.575054X1.575054*%
%ADD27C,2.000001*%

%LPD*%
G54D10*
G01X21031Y21854D02*
G01X18277Y21854D01*
G01X15240Y24892D01*
G01X10160Y24892D01*
G01X9144Y25908D01*
G01X9144Y29217D01*
G01X9235Y29309D01*
G01X22606Y23444D02*
G01X22606Y25146D01*
G01X22098Y25654D01*
G01X11938Y25654D01*
G01X10922Y26670D01*
G01X10922Y29293D01*
G01X10937Y29309D01*
G01X23406Y23444D02*
G01X23406Y25615D01*
G01X22606Y26416D01*
G01X13462Y26416D01*
G01X12700Y27178D01*
G01X12700Y29245D01*
G01X12636Y29309D01*
G01X24206Y23444D02*
G01X24206Y29278D01*
G01X24236Y29309D01*
G01X25006Y23444D02*
G01X25006Y25514D01*
G01X25908Y26416D01*
G01X25908Y29281D01*
G01X25935Y29309D01*
G01X25803Y23444D02*
G01X25803Y25041D01*
G01X27686Y26924D01*
G01X27686Y29258D01*
G01X27635Y29309D01*
G01X26603Y23444D02*
G01X26603Y24571D01*
G01X28956Y26924D01*
G01X38608Y26924D01*
G01X39370Y27686D01*
G01X39370Y29174D01*
G01X39235Y29309D01*
G01X27404Y23444D02*
G01X27404Y24356D01*
G01X28956Y25908D01*
G01X40132Y25908D01*
G01X40894Y26670D01*
G01X40894Y29265D01*
G01X40937Y29309D01*
G01X28204Y23444D02*
G01X28204Y23886D01*
G01X29210Y24892D01*
G01X41910Y24892D01*
G01X42672Y25654D01*
G01X42672Y29273D01*
G01X42636Y29309D01*
G01X29768Y21844D02*
G01X30734Y21844D01*
G01X31496Y22606D01*
G01X31496Y23114D01*
G01X31750Y23368D01*
G01X35052Y23368D01*
G01X35306Y23114D01*
G01X35306Y21767D01*
G01X35483Y21590D01*
G01X29768Y21043D02*
G01X32550Y21043D01*
G01X33096Y21590D01*
G54D11*
G01X29768Y20243D02*
G01X25222Y20243D01*
G01X24384Y21082D01*
G01X21059Y21082D01*
G01X21031Y21054D01*
G01X29768Y18646D02*
G01X26819Y18646D01*
G01X25222Y20243D01*
G01X21031Y21054D02*
G01X12418Y21054D01*
G01X11430Y20066D01*
G01X11430Y16560D01*
G01X21031Y19453D02*
G01X14913Y19453D01*
G01X13313Y21054D01*
G01X21031Y18656D02*
G01X25539Y18656D01*
G01X26416Y17780D01*
G01X29702Y17780D01*
G01X29768Y17846D01*
G01X29768Y19443D02*
G01X33921Y19443D01*
G01X34290Y19812D01*
G01X34290Y21590D01*
G01X29768Y17846D02*
G01X33848Y17846D01*
G01X34290Y18288D01*
G01X34290Y19812D01*
G01X3556Y13970D02*
G01X12954Y13970D01*
G01X13716Y14732D01*
G01X13716Y16545D01*
G01X13731Y16560D01*
G01X9131Y16560D02*
G01X9131Y19316D01*
G01X8382Y20066D01*
G01X5080Y20066D01*
G01X3556Y21590D01*
G54D12*
G01X25793Y14681D02*
G01X25793Y13093D01*
G01X24638Y11938D01*
G01X22606Y9906D01*
G01X22606Y8128D01*
G01X26593Y14681D02*
G01X26593Y9220D01*
G01X27686Y8128D01*
G01X27393Y14681D02*
G01X27393Y11214D01*
G01X27940Y10668D01*
G01X30226Y10668D01*
G01X32766Y8128D01*
G54D10*
G01X9235Y34510D02*
G01X10932Y34510D01*
G01X10934Y34508D01*
G01X12636Y34510D02*
G01X24236Y34510D01*
G01X39235Y34510D02*
G01X40932Y34510D01*
G01X40934Y34508D01*
G01X42636Y34510D02*
G01X54236Y34510D01*
G01X74272Y33688D02*
G01X68072Y33688D01*
G01X24236Y34510D02*
G01X25933Y34510D01*
G01X25935Y34508D01*
G01X27635Y34510D02*
G01X25938Y34510D01*
G01X25935Y34508D01*
G01X39235Y34510D02*
G01X27635Y34510D01*
G01X54236Y34510D02*
G01X55933Y34510D01*
G01X55935Y34508D01*
G01X57635Y34510D02*
G01X55938Y34510D01*
G01X55935Y34508D01*
G01X42636Y34510D02*
G01X42636Y33563D01*
G01X44450Y31750D01*
G01X44450Y25654D01*
G01X42672Y23876D01*
G01X39116Y23876D01*
G01X38100Y22860D01*
G01X38100Y20066D01*
G01X37592Y19558D01*
G01X34896Y19558D01*
G01X34290Y18951D01*
G01X42636Y34510D02*
G01X40937Y34510D01*
G01X40934Y34508D01*
G01X29768Y17045D02*
G01X34571Y17045D01*
G01X35052Y17526D01*
G01X35052Y18542D01*
G01X35306Y18796D01*
G01X38100Y18796D01*
G01X39116Y19812D01*
G01X39116Y22352D01*
G01X39624Y22860D01*
G01X43180Y22860D01*
G01X45974Y25654D01*
G01X53340Y25654D01*
G01X54102Y26416D01*
G01X54102Y29174D01*
G01X54236Y29309D01*
G01X29768Y16245D02*
G01X34787Y16245D01*
G01X35560Y17018D01*
G01X35814Y17272D01*
G01X35814Y17780D01*
G01X36068Y18034D01*
G01X38608Y18034D01*
G01X39878Y19304D01*
G01X39878Y21590D01*
G01X40132Y21844D01*
G01X43434Y21844D01*
G01X46228Y24638D01*
G01X55118Y24638D01*
G01X55880Y25400D01*
G01X55880Y29253D01*
G01X55935Y29309D01*
G01X28194Y14681D02*
G01X30937Y14681D01*
G01X31496Y15240D01*
G01X31750Y15494D01*
G01X35052Y15494D01*
G01X36322Y16764D01*
G01X36830Y17272D01*
G01X39116Y17272D01*
G01X40640Y18796D01*
G01X40640Y20828D01*
G01X40894Y21082D01*
G01X43942Y21082D01*
G01X46482Y23622D01*
G01X56896Y23622D01*
G01X57658Y24384D01*
G01X57658Y29286D01*
G01X57635Y29309D01*
G01X13208Y11938D02*
G01X13208Y8890D01*
G01X13208Y8890D02*
G01X13208Y6604D01*
G01X14224Y5588D01*
G01X19304Y5588D01*
G01X20066Y6350D01*
G01X20066Y12151D01*
G01X22595Y14681D01*
G01X11226Y11938D02*
G01X9258Y11938D01*
G01X7226Y13970D01*
G54D13*
G01X3556Y13970D02*
G01X3556Y4318D01*
G01X5080Y2794D01*
G01X72390Y2794D01*
G01X73914Y4318D01*
G01X73914Y13462D01*
G01X3556Y21590D02*
G01X3556Y36322D01*
G01X5080Y37846D01*
G01X61976Y37846D01*
G01X62738Y37084D01*
G01X62738Y22352D01*
G01X61976Y21590D01*
G01X57531Y21590D01*
G01X56896Y20955D01*
G54D11*
G01X68072Y33688D02*
G01X63618Y33688D01*
G01X62738Y32807D01*
G01X57635Y34510D02*
G01X61097Y34510D01*
G01X62738Y32870D01*
G01X56896Y20955D02*
G01X51435Y20955D01*
G01X49022Y18542D01*
G01X49022Y10922D01*
G01X49022Y10922D02*
G01X40640Y10922D01*
G01X37846Y8128D01*
G01X37846Y8128D02*
G01X37846Y5842D01*
G01X36576Y4572D01*
G01X13208Y4572D01*
G01X11176Y6604D01*
G01X11176Y8839D01*
G01X11226Y8890D01*
G01X56896Y15875D02*
G01X52451Y15875D01*
G01X51054Y14478D01*
G01X51054Y10972D01*
G01X51003Y10922D01*
G54D13*
G01X56896Y18415D02*
G01X64389Y18415D01*
G01X66548Y20574D01*
G01X73914Y20574D01*
G54D10*
G01X74272Y29987D02*
G01X68072Y29987D01*
G01X17526Y8128D02*
G01X17018Y8128D01*
G01X15494Y9652D01*
G01X15494Y18873D01*
G01X14913Y19453D01*
G01X21031Y17056D02*
G01X17995Y17056D01*
G01X17780Y17272D01*
G01X68072Y29987D02*
G01X68072Y26924D01*
G01X68326Y26670D01*
G01X56896Y15875D02*
G01X56896Y11684D01*
G01X57912Y10668D01*
G01X21031Y16256D02*
G01X21031Y15443D01*
G01X20066Y14478D01*
G01X18288Y14478D01*
G01X17780Y13970D01*
G54D14*
G01X28194Y14081D02*
G01X28194Y15281D01*
G01X27393Y14081D02*
G01X27393Y15281D01*
G01X26593Y14081D02*
G01X26593Y15281D01*
G01X25793Y14081D02*
G01X25793Y15281D01*
G01X24996Y14081D02*
G01X24996Y15281D01*
G01X24196Y14081D02*
G01X24196Y15281D01*
G01X23395Y14081D02*
G01X23395Y15281D01*
G01X22595Y14081D02*
G01X22595Y15281D01*
G01X21631Y16256D02*
G01X20431Y16256D01*
G01X21631Y17056D02*
G01X20431Y17056D01*
G01X21631Y17856D02*
G01X20431Y17856D01*
G01X21631Y18656D02*
G01X20431Y18656D01*
G01X21631Y19453D02*
G01X20431Y19453D01*
G01X21631Y20253D02*
G01X20431Y20253D01*
G01X21631Y21054D02*
G01X20431Y21054D01*
G01X21631Y21854D02*
G01X20431Y21854D01*
G01X22606Y22844D02*
G01X22606Y24044D01*
G01X23406Y22844D02*
G01X23406Y24044D01*
G01X24206Y22844D02*
G01X24206Y24044D01*
G01X25006Y22844D02*
G01X25006Y24044D01*
G01X25803Y22844D02*
G01X25803Y24044D01*
G01X26603Y22844D02*
G01X26603Y24044D01*
G01X27404Y22844D02*
G01X27404Y24044D01*
G01X28204Y22844D02*
G01X28204Y24044D01*
G01X30368Y21844D02*
G01X29168Y21844D01*
G01X30368Y21043D02*
G01X29168Y21043D01*
G01X30368Y20243D02*
G01X29168Y20243D01*
G01X30368Y19443D02*
G01X29168Y19443D01*
G01X30368Y18646D02*
G01X29168Y18646D01*
G01X30368Y17846D02*
G01X29168Y17846D01*
G01X30368Y17045D02*
G01X29168Y17045D01*
G01X30368Y16245D02*
G01X29168Y16245D01*
G54D15*
G01X41493Y6997D02*
G01X41493Y7089D01*
G01X41587Y7274D01*
G01X41678Y7366D01*
G01X41864Y7457D01*
G01X42232Y7457D01*
G01X42418Y7366D01*
G01X42509Y7274D01*
G01X42603Y7089D01*
G01X42603Y6903D01*
G01X42509Y6718D01*
G01X42326Y6441D01*
G01X41402Y5519D01*
G01X42694Y5519D01*
G01X43858Y7457D02*
G01X43581Y7366D01*
G01X43395Y7089D01*
G01X43304Y6626D01*
G01X43304Y6350D01*
G01X43395Y5887D01*
G01X43581Y5610D01*
G01X43858Y5519D01*
G01X44043Y5519D01*
G01X44320Y5610D01*
G01X44505Y5887D01*
G01X44597Y6350D01*
G01X44597Y6626D01*
G01X44505Y7089D01*
G01X44320Y7366D01*
G01X44043Y7457D01*
G01X43858Y7457D01*
G01X45206Y7089D02*
G01X45392Y7180D01*
G01X45669Y7457D01*
G01X45669Y5519D01*
G01X46741Y7457D02*
G01X46464Y7366D01*
G01X46370Y7180D01*
G01X46370Y6997D01*
G01X46464Y6812D01*
G01X46647Y6718D01*
G01X47017Y6626D01*
G01X47294Y6535D01*
G01X47480Y6350D01*
G01X47571Y6164D01*
G01X47571Y5887D01*
G01X47480Y5702D01*
G01X47386Y5610D01*
G01X47109Y5519D01*
G01X46741Y5519D01*
G01X46464Y5610D01*
G01X46370Y5702D01*
G01X46278Y5887D01*
G01X46278Y6164D01*
G01X46370Y6350D01*
G01X46555Y6535D01*
G01X46832Y6626D01*
G01X47203Y6718D01*
G01X47386Y6812D01*
G01X47480Y6997D01*
G01X47480Y7180D01*
G01X47386Y7366D01*
G01X47109Y7457D01*
G01X46741Y7457D01*
G01X48181Y6350D02*
G01X49844Y6350D01*
G01X51008Y7457D02*
G01X50731Y7366D01*
G01X50546Y7089D01*
G01X50454Y6626D01*
G01X50454Y6350D01*
G01X50546Y5887D01*
G01X50731Y5610D01*
G01X51008Y5519D01*
G01X51193Y5519D01*
G01X51470Y5610D01*
G01X51653Y5887D01*
G01X51747Y6350D01*
G01X51747Y6626D01*
G01X51653Y7089D01*
G01X51470Y7366D01*
G01X51193Y7457D01*
G01X51008Y7457D01*
G01X53464Y7457D02*
G01X52539Y7457D01*
G01X52448Y6626D01*
G01X52539Y6718D01*
G01X52819Y6812D01*
G01X53096Y6812D01*
G01X53373Y6718D01*
G01X53555Y6535D01*
G01X53649Y6258D01*
G01X53649Y6073D01*
G01X53555Y5796D01*
G01X53373Y5610D01*
G01X53096Y5519D01*
G01X52819Y5519D01*
G01X52539Y5610D01*
G01X52448Y5702D01*
G01X52357Y5887D01*
G01X54259Y6350D02*
G01X55920Y6350D01*
G01X56624Y6997D02*
G01X56624Y7089D01*
G01X56715Y7274D01*
G01X56807Y7366D01*
G01X56992Y7457D01*
G01X57363Y7457D01*
G01X57546Y7366D01*
G01X57640Y7274D01*
G01X57731Y7089D01*
G01X57731Y6903D01*
G01X57640Y6718D01*
G01X57454Y6441D01*
G01X56530Y5519D01*
G01X57823Y5519D01*
G01X58526Y6997D02*
G01X58526Y7089D01*
G01X58618Y7274D01*
G01X58712Y7366D01*
G01X58894Y7457D01*
G01X59265Y7457D01*
G01X59448Y7366D01*
G01X59542Y7274D01*
G01X59634Y7089D01*
G01X59634Y6903D01*
G01X59542Y6718D01*
G01X59357Y6441D01*
G01X58432Y5519D01*
G01X59728Y5519D01*
G01X61760Y6812D02*
G01X62313Y5519D01*
G01X62867Y6812D02*
G01X62313Y5519D01*
G01X63477Y7089D02*
G01X63662Y7180D01*
G01X63939Y7457D01*
G01X63939Y5519D01*
G54D16*
G01X11430Y22860D03*
G54D17*
G01X11430Y16560D03*
G01X13731Y16560D03*
G01X9131Y16560D03*
G54D18*
G01X33096Y21590D03*
G01X34290Y21590D03*
G01X35483Y21590D03*
G54D19*
G01X68072Y33688D03*
G01X68072Y29987D03*
G01X74272Y33688D03*
G01X74272Y29987D03*
G54D20*
G01X57635Y34510D03*
G01X55935Y34508D03*
G01X54236Y34510D03*
G01X57635Y29309D03*
G01X55935Y29309D03*
G01X54236Y29309D03*
G01X42636Y34510D03*
G01X40934Y34508D03*
G01X39235Y34510D03*
G01X42636Y29309D03*
G01X40937Y29309D03*
G01X39235Y29309D03*
G01X27635Y34510D03*
G01X25935Y34508D03*
G01X24236Y34510D03*
G01X27635Y29309D03*
G01X25935Y29309D03*
G01X24236Y29309D03*
G01X12636Y34510D03*
G01X10934Y34508D03*
G01X9235Y34510D03*
G01X12636Y29309D03*
G01X10937Y29309D03*
G01X9235Y29309D03*
G54D21*
G01X49022Y10922D03*
G01X51003Y10922D03*
G01X13208Y8890D03*
G01X11226Y8890D03*
G01X13208Y11938D03*
G01X11226Y11938D03*
G54D22*
G01X56896Y20955D03*
G54D23*
G01X27686Y8128D03*
G01X32766Y8128D03*
G01X22606Y8128D03*
G54D24*
G01X37846Y8128D03*
G54D23*
G01X17526Y8128D03*
G54D25*
G01X3556Y13970D03*
G01X3556Y21590D03*
G01X73914Y20574D03*
G01X73914Y13462D03*
G54D26*
G01X68326Y26670D03*
G01X17780Y17272D03*
G01X17780Y13970D03*
G01X57912Y10668D03*
G54D27*
G01X57145Y15875D02*
G01X56646Y15875D01*
G01X57145Y18415D02*
G01X56646Y18415D01*
M00*
M02*
