G04 ---------------------------- Layer name :TOP PASTER LAYER*
G04 EasyEDA v5.4.12, Mon, 21 May 2018 10:25:39 GMT*
G04 d0ac2e000ddc4f35a868ce4d586767d9*
G04 Gerber Generator version 0.2*
G04 Scale: 100 percent, Rotated: No, Reflected: No *
G04 Dimensions in millimeters *
G04 leading zeros omitted , absolute positions ,3 integer and 3 decimal *
%FSLAX33Y33*%
%MOMM*%
G90*
G71D02*

%ADD14C,0.449999*%
%ADD16R,3.799992X1.999996*%
%ADD17R,1.499997X1.999996*%
%ADD18R,0.701040X1.699260*%
%ADD19R,1.799996X1.099998*%
%ADD20R,1.099998X2.499995*%
%ADD21R,1.206500X1.206500*%

%LPD*%
G54D14*
G01X28194Y14081D02*
G01X28194Y15281D01*
G01X27393Y14081D02*
G01X27393Y15281D01*
G01X26593Y14081D02*
G01X26593Y15281D01*
G01X25793Y14081D02*
G01X25793Y15281D01*
G01X24996Y14081D02*
G01X24996Y15281D01*
G01X24196Y14081D02*
G01X24196Y15281D01*
G01X23395Y14081D02*
G01X23395Y15281D01*
G01X22595Y14081D02*
G01X22595Y15281D01*
G01X21631Y16256D02*
G01X20431Y16256D01*
G01X21631Y17056D02*
G01X20431Y17056D01*
G01X21631Y17856D02*
G01X20431Y17856D01*
G01X21631Y18656D02*
G01X20431Y18656D01*
G01X21631Y19453D02*
G01X20431Y19453D01*
G01X21631Y20253D02*
G01X20431Y20253D01*
G01X21631Y21054D02*
G01X20431Y21054D01*
G01X21631Y21854D02*
G01X20431Y21854D01*
G01X22606Y22844D02*
G01X22606Y24044D01*
G01X23406Y22844D02*
G01X23406Y24044D01*
G01X24206Y22844D02*
G01X24206Y24044D01*
G01X25006Y22844D02*
G01X25006Y24044D01*
G01X25803Y22844D02*
G01X25803Y24044D01*
G01X26603Y22844D02*
G01X26603Y24044D01*
G01X27404Y22844D02*
G01X27404Y24044D01*
G01X28204Y22844D02*
G01X28204Y24044D01*
G01X30368Y21844D02*
G01X29168Y21844D01*
G01X30368Y21043D02*
G01X29168Y21043D01*
G01X30368Y20243D02*
G01X29168Y20243D01*
G01X30368Y19443D02*
G01X29168Y19443D01*
G01X30368Y18646D02*
G01X29168Y18646D01*
G01X30368Y17846D02*
G01X29168Y17846D01*
G01X30368Y17045D02*
G01X29168Y17045D01*
G01X30368Y16245D02*
G01X29168Y16245D01*
G54D16*
G01X11430Y22860D03*
G54D17*
G01X11430Y16560D03*
G01X13731Y16560D03*
G01X9131Y16560D03*
G54D18*
G01X33096Y21590D03*
G01X34290Y21590D03*
G01X35483Y21590D03*
G54D19*
G01X68072Y33688D03*
G01X68072Y29987D03*
G01X74272Y33688D03*
G01X74272Y29987D03*
G54D20*
G01X57635Y34510D03*
G01X55935Y34508D03*
G01X54236Y34510D03*
G01X57635Y29309D03*
G01X55935Y29309D03*
G01X54236Y29309D03*
G01X42636Y34510D03*
G01X40934Y34508D03*
G01X39235Y34510D03*
G01X42636Y29309D03*
G01X40937Y29309D03*
G01X39235Y29309D03*
G01X27635Y34510D03*
G01X25935Y34508D03*
G01X24236Y34510D03*
G01X27635Y29309D03*
G01X25935Y29309D03*
G01X24236Y29309D03*
G01X12636Y34510D03*
G01X10934Y34508D03*
G01X9235Y34510D03*
G01X12636Y29309D03*
G01X10937Y29309D03*
G01X9235Y29309D03*
G54D21*
G01X49022Y10922D03*
G01X51003Y10922D03*
G01X13208Y8890D03*
G01X11226Y8890D03*
G01X13208Y11938D03*
G01X11226Y11938D03*
M00*
M02*
