G04 ---------------------------- Layer name :BOTTOM LAYER*
G04 EasyEDA v5.5.11, Mon, 04 Jun 2018 22:37:14 GMT*
G04 4e3370736bcd402486d42fd13c25843b*
G04 Gerber Generator version 0.2*
G04 Scale: 100 percent, Rotated: No, Reflected: No *
G04 Dimensions in millimeters *
G04 leading zeros omitted , absolute positions ,3 integer and 3 decimal *
%FSLAX33Y33*%
%MOMM*%
G90*
G71D02*

%ADD10C,0.254000*%
%ADD16C,0.178003*%
%ADD27R,2.499995X1.999996*%
%ADD28R,1.574800X1.574800*%
%ADD29R,1.574800X1.575054*%
%ADD30R,1.575054X1.575054*%
%ADD31R,1.575054X1.575003*%
%ADD32R,1.999996X1.999996*%
%ADD33C,1.999996*%
%ADD34C,0.999998*%
%ADD36R,2.700020X2.299995*%

%LPD*%
G54D10*
G01X17780Y14478D02*
G01X17780Y16764D01*
G01X21590Y20574D01*
G01X63246Y20574D01*
G01X65024Y22352D01*
G01X68326Y22352D01*
G01X17780Y12446D02*
G01X19304Y12446D01*
G01X19558Y12700D01*
G01X19558Y16764D01*
G01X22098Y19304D01*
G01X66548Y19304D01*
G01X68326Y17526D01*
G01X68326Y11684D01*
G01X17780Y9906D02*
G01X16256Y9906D01*
G01X15494Y9144D01*
G01X15494Y3302D01*
G54D34*
G01X3556Y10414D02*
G01X6858Y10414D01*
G01X8128Y11684D01*
G01X8128Y22961D01*
G01X10414Y25247D01*
G01X6350Y25247D02*
G01X10414Y25247D01*
G01X10414Y25247D02*
G01X14478Y25247D01*
G01X14478Y25247D02*
G01X18542Y25247D01*
G01X18542Y25247D02*
G01X22606Y25247D01*
G01X22606Y25247D02*
G01X26670Y25247D01*
G01X26670Y25247D02*
G01X30734Y25247D01*
G01X30734Y25247D02*
G01X34798Y25247D01*
G01X3556Y18034D02*
G01X3556Y21336D01*
G01X2286Y22606D01*
G01X2286Y27178D01*
G01X3556Y28448D01*
G01X6096Y28448D01*
G01X6350Y28702D01*
G01X10414Y28702D02*
G01X6350Y28702D01*
G01X10414Y28702D02*
G01X14478Y28702D01*
G01X14478Y28702D02*
G01X18542Y28702D01*
G01X18542Y28702D02*
G01X22606Y28702D01*
G01X22606Y28702D02*
G01X26670Y28702D01*
G01X26670Y28702D02*
G01X30734Y28702D01*
G01X34798Y28702D02*
G01X30734Y28702D01*
G01X73914Y10922D02*
G01X73152Y10922D01*
G01X69850Y14224D01*
G01X69850Y20574D01*
G01X70866Y21590D01*
G01X70866Y24993D01*
G01X70612Y25247D01*
G01X70612Y25247D02*
G01X66548Y25247D01*
G01X66548Y25247D02*
G01X62484Y25247D01*
G01X62484Y25247D02*
G01X58420Y25247D01*
G01X58420Y25247D02*
G01X54356Y25247D01*
G01X54356Y25247D02*
G01X50292Y25247D01*
G01X50292Y25247D02*
G01X46228Y25247D01*
G01X46228Y25247D02*
G01X42164Y25247D01*
G01X70612Y28702D02*
G01X66548Y28702D01*
G01X66548Y28702D02*
G01X62484Y28702D01*
G01X62484Y28702D02*
G01X58420Y28702D01*
G01X58420Y28702D02*
G01X54356Y28702D01*
G01X54356Y28702D02*
G01X50292Y28702D01*
G01X50292Y28702D02*
G01X46228Y28702D01*
G01X46228Y28702D02*
G01X42164Y28702D01*
G01X73914Y19558D02*
G01X73914Y27178D01*
G01X72390Y28702D01*
G01X70612Y28702D01*

%LPD*%
G36*
G01X41297Y2265D02*
G01X40662Y2265D01*
G01X40386Y2537D01*
G01X40386Y3042D01*
G01X40495Y3149D01*
G01X40386Y3286D01*
G01X40386Y3789D01*
G01X40662Y4064D01*
G01X41351Y4064D01*
G01X41605Y3789D01*
G01X41605Y3317D01*
G01X41465Y3180D01*
G01X41605Y3014D01*
G01X41605Y2537D01*
G01X41297Y2265D01*
G37*

%LPC*%
G36*
G01X40662Y3429D02*
G01X40772Y3317D01*
G01X41186Y3317D01*
G01X41325Y3456D01*
G01X41325Y3622D01*
G01X41160Y3787D01*
G01X40800Y3787D01*
G01X40662Y3647D01*
G01X40662Y3429D01*
G37*
G36*
G01X40662Y2710D02*
G01X40827Y2540D01*
G01X41160Y2540D01*
G01X41325Y2702D01*
G01X41325Y2867D01*
G01X41142Y3042D01*
G01X40827Y3042D01*
G01X40662Y2872D01*
G01X40662Y2710D01*
G37*

%LPD*%
G36*
G01X42456Y2265D02*
G01X42204Y2265D01*
G01X42204Y4064D01*
G01X42621Y4064D01*
G01X42621Y3789D01*
G01X42456Y3789D01*
G01X42456Y2265D01*
G37*

%LPC*%

%LPD*%
G36*
G01X44165Y2265D02*
G01X43502Y2265D01*
G01X43228Y2545D01*
G01X43228Y3789D01*
G01X43502Y4064D01*
G01X44165Y4064D01*
G01X44444Y3789D01*
G01X44444Y2545D01*
G01X44165Y2265D01*
G37*

%LPC*%
G36*
G01X43502Y2679D02*
G01X43642Y2545D01*
G01X44030Y2545D01*
G01X44165Y2679D01*
G01X44165Y3649D01*
G01X44030Y3789D01*
G01X43642Y3789D01*
G01X43502Y3649D01*
G01X43502Y2679D01*
G37*

%LPD*%
G36*
G01X46266Y2265D02*
G01X45044Y2265D01*
G01X45044Y2545D01*
G01X45986Y2545D01*
G01X45986Y2796D01*
G01X45257Y3042D01*
G01X45044Y3317D01*
G01X45044Y3789D01*
G01X45323Y4064D01*
G01X45905Y4064D01*
G01X46266Y3848D01*
G01X46266Y3566D01*
G01X45986Y3566D01*
G01X45986Y3690D01*
G01X45824Y3789D01*
G01X45466Y3789D01*
G01X45323Y3649D01*
G01X45323Y3459D01*
G01X45435Y3317D01*
G01X46266Y2999D01*
G01X46266Y2265D01*
G37*

%LPC*%

%LPD*%
G36*
G01X48257Y2265D02*
G01X47957Y2265D01*
G01X47957Y4064D01*
G01X48257Y4064D01*
G01X48257Y2915D01*
G01X48859Y4064D01*
G01X49159Y4064D01*
G01X49159Y2265D01*
G01X48859Y2265D01*
G01X48859Y3411D01*
G01X48257Y2265D01*
G37*

%LPC*%

%LPD*%
G36*
G01X50700Y2265D02*
G01X50086Y2265D01*
G01X49758Y2565D01*
G01X49758Y3764D01*
G01X50073Y4064D01*
G01X50700Y4064D01*
G01X51015Y3764D01*
G01X51015Y2565D01*
G01X50700Y2265D01*
G37*

%LPC*%
G36*
G01X50073Y2679D02*
G01X50203Y2547D01*
G01X50571Y2547D01*
G01X50716Y2679D01*
G01X50716Y3647D01*
G01X50571Y3789D01*
G01X50203Y3789D01*
G01X50073Y3647D01*
G01X50073Y2679D01*
G37*

%LPD*%
G36*
G01X51920Y2265D02*
G01X51615Y2265D01*
G01X51615Y4064D01*
G01X51920Y4064D01*
G01X51920Y2265D01*
G37*

%LPC*%

%LPD*%
G36*
G01X53271Y2265D02*
G01X52971Y2265D01*
G01X52971Y3764D01*
G01X52522Y3764D01*
G01X52522Y4064D01*
G01X53721Y4064D01*
G01X53721Y3764D01*
G01X53271Y3764D01*
G01X53271Y2265D01*
G37*

%LPC*%

%LPD*%
G36*
G01X57038Y2265D02*
G01X56438Y2265D01*
G01X56139Y2565D01*
G01X56139Y4064D01*
G01X56438Y4064D01*
G01X56438Y2687D01*
G01X56563Y2565D01*
G01X56916Y2565D01*
G01X57038Y2687D01*
G01X57038Y4064D01*
G01X57340Y4064D01*
G01X57340Y2565D01*
G01X57038Y2265D01*
G37*

%LPC*%

%LPD*%
G36*
G01X59156Y2265D02*
G01X58214Y2265D01*
G01X57939Y2540D01*
G01X57939Y3787D01*
G01X58188Y4064D01*
G01X59156Y4064D01*
G01X59156Y2265D01*
G37*

%LPC*%
G36*
G01X58226Y2677D02*
G01X58353Y2545D01*
G01X58856Y2545D01*
G01X58856Y3789D01*
G01X58353Y3789D01*
G01X58226Y3644D01*
G01X58226Y2677D01*
G37*

%LPD*%
G36*
G01X60698Y2265D02*
G01X60083Y2265D01*
G01X59756Y2565D01*
G01X59756Y3764D01*
G01X60071Y4064D01*
G01X60698Y4064D01*
G01X61013Y3764D01*
G01X61013Y2565D01*
G01X60698Y2265D01*
G37*

%LPC*%
G36*
G01X60071Y2679D02*
G01X60200Y2547D01*
G01X60571Y2547D01*
G01X60713Y2679D01*
G01X60713Y3647D01*
G01X60571Y3789D01*
G01X60200Y3789D01*
G01X60071Y3647D01*
G01X60071Y2679D01*
G37*

%LPD*%
G36*
G01X61940Y2265D02*
G01X61615Y2265D01*
G01X61912Y3058D01*
G01X61668Y3302D01*
G01X61668Y3792D01*
G01X61940Y4064D01*
G01X62867Y4064D01*
G01X62867Y2265D01*
G01X62567Y2265D01*
G01X62567Y3027D01*
G01X62240Y3027D01*
G01X61940Y2265D01*
G37*

%LPC*%
G36*
G01X61930Y3464D02*
G01X62097Y3302D01*
G01X62567Y3302D01*
G01X62567Y3764D01*
G01X62067Y3764D01*
G01X61930Y3629D01*
G01X61930Y3464D01*
G37*

%LPD*%
G36*
G01X64686Y2265D02*
G01X64386Y2265D01*
G01X64386Y3014D01*
G01X63779Y3014D01*
G01X63466Y3314D01*
G01X63466Y3764D01*
G01X63769Y4064D01*
G01X64686Y4064D01*
G01X64686Y2265D01*
G37*

%LPC*%
G36*
G01X63769Y3439D02*
G01X63842Y3314D01*
G01X64386Y3314D01*
G01X64386Y3764D01*
G01X63842Y3764D01*
G01X63769Y3642D01*
G01X63769Y3439D01*
G37*

%LPD*%
G36*
G01X67127Y2265D02*
G01X66827Y2265D01*
G01X66827Y3764D01*
G01X66377Y3764D01*
G01X66377Y4064D01*
G01X67579Y4064D01*
G01X67579Y3764D01*
G01X67127Y3764D01*
G01X67127Y2265D01*
G37*

%LPC*%

%LPD*%
G36*
G01X69258Y2265D02*
G01X68958Y2265D01*
G01X68958Y3037D01*
G01X68290Y3037D01*
G01X68290Y3317D01*
G01X68958Y3317D01*
G01X68958Y3789D01*
G01X68178Y3789D01*
G01X68178Y4064D01*
G01X69258Y4064D01*
G01X69258Y2265D01*
G37*

%LPC*%

%LPD*%
G36*
G01X70799Y2265D02*
G01X70185Y2265D01*
G01X69857Y2565D01*
G01X69857Y3764D01*
G01X70172Y4064D01*
G01X70799Y4064D01*
G01X71114Y3764D01*
G01X71114Y2565D01*
G01X70799Y2265D01*
G37*

%LPC*%
G36*
G01X70172Y2679D02*
G01X70302Y2547D01*
G01X70670Y2547D01*
G01X70815Y2679D01*
G01X70815Y3647D01*
G01X70670Y3789D01*
G01X70302Y3789D01*
G01X70172Y3647D01*
G01X70172Y2679D01*
G37*

%LPD*%
G36*
G01X72631Y2265D02*
G01X72014Y2265D01*
G01X71714Y2565D01*
G01X71714Y3014D01*
G01X72014Y3314D01*
G01X72506Y3314D01*
G01X72631Y3439D01*
G01X72631Y3642D01*
G01X72506Y3764D01*
G01X72138Y3764D01*
G01X72014Y3642D01*
G01X72014Y3540D01*
G01X71714Y3540D01*
G01X71714Y3764D01*
G01X72014Y4064D01*
G01X72631Y4064D01*
G01X72931Y3764D01*
G01X72931Y3314D01*
G01X72631Y3014D01*
G01X72138Y3014D01*
G01X72014Y2893D01*
G01X72014Y2687D01*
G01X72138Y2565D01*
G01X72506Y2565D01*
G01X72631Y2687D01*
G01X72631Y2804D01*
G01X72931Y2804D01*
G01X72931Y2565D01*
G01X72631Y2265D01*
G37*

%LPC*%

%LPD*%
G36*
G01X74609Y2265D02*
G01X74310Y2265D01*
G01X74310Y3037D01*
G01X73642Y3037D01*
G01X73642Y3317D01*
G01X74310Y3317D01*
G01X74310Y3789D01*
G01X73530Y3789D01*
G01X73530Y4064D01*
G01X74609Y4064D01*
G01X74609Y2265D01*
G37*

%LPC*%

%LPD*%
G36*
G01X55260Y2268D02*
G01X54597Y2268D01*
G01X54320Y2545D01*
G01X54320Y2837D01*
G01X54597Y2837D01*
G01X54597Y2672D01*
G01X54696Y2573D01*
G01X55095Y2573D01*
G01X55239Y2672D01*
G01X55239Y3647D01*
G01X55095Y3789D01*
G01X54696Y3789D01*
G01X54597Y3647D01*
G01X54597Y3528D01*
G01X54320Y3528D01*
G01X54320Y3815D01*
G01X54569Y4064D01*
G01X55260Y4064D01*
G01X55539Y3789D01*
G01X55539Y2545D01*
G01X55260Y2268D01*
G37*

%LPC*%

%LPD*%
G36*
G01X47358Y3030D02*
G01X46865Y3030D01*
G01X46865Y3302D01*
G01X47358Y3302D01*
G01X47358Y3030D01*
G37*

%LPC*%

%LPD*%
G36*
G01X65778Y3030D02*
G01X65285Y3030D01*
G01X65285Y3302D01*
G01X65778Y3302D01*
G01X65778Y3030D01*
G37*

%LPC*%

%LPD*%
G54D16*
G01X48114Y22351D02*
G01X48114Y21301D01*
G01X48114Y22351D02*
G01X47664Y22351D01*
G01X47514Y22301D01*
G01X47464Y22251D01*
G01X47414Y22151D01*
G01X47414Y22051D01*
G01X47464Y21951D01*
G01X47514Y21901D01*
G01X47664Y21851D01*
G01X48114Y21851D02*
G01X47664Y21851D01*
G01X47514Y21801D01*
G01X47464Y21751D01*
G01X47414Y21651D01*
G01X47414Y21501D01*
G01X47464Y21401D01*
G01X47514Y21351D01*
G01X47664Y21301D01*
G01X48114Y21301D01*
G01X47084Y22351D02*
G01X47084Y21601D01*
G01X47034Y21451D01*
G01X46934Y21351D01*
G01X46784Y21301D01*
G01X46684Y21301D01*
G01X46534Y21351D01*
G01X46434Y21451D01*
G01X46384Y21601D01*
G01X46384Y22351D01*
G01X45704Y22351D02*
G01X45704Y21301D01*
G01X46054Y22351D02*
G01X45354Y22351D01*
G01X44674Y22351D02*
G01X44674Y21301D01*
G01X45024Y22351D02*
G01X44324Y22351D01*
G01X43694Y22351D02*
G01X43794Y22301D01*
G01X43894Y22201D01*
G01X43944Y22101D01*
G01X43994Y21951D01*
G01X43994Y21701D01*
G01X43944Y21551D01*
G01X43894Y21451D01*
G01X43794Y21351D01*
G01X43694Y21301D01*
G01X43494Y21301D01*
G01X43394Y21351D01*
G01X43294Y21451D01*
G01X43244Y21551D01*
G01X43194Y21701D01*
G01X43194Y21951D01*
G01X43244Y22101D01*
G01X43294Y22201D01*
G01X43394Y22301D01*
G01X43494Y22351D01*
G01X43694Y22351D01*
G01X42864Y22351D02*
G01X42864Y21301D01*
G01X42864Y22351D02*
G01X42164Y21301D01*
G01X42164Y22351D02*
G01X42164Y21301D01*
G01X47860Y18541D02*
G01X47860Y17491D01*
G01X47860Y18541D02*
G01X47460Y17491D01*
G01X47060Y18541D02*
G01X47460Y17491D01*
G01X47060Y18541D02*
G01X47060Y17491D01*
G01X46430Y18541D02*
G01X46530Y18491D01*
G01X46630Y18391D01*
G01X46679Y18291D01*
G01X46730Y18141D01*
G01X46730Y17891D01*
G01X46679Y17741D01*
G01X46630Y17641D01*
G01X46530Y17541D01*
G01X46430Y17491D01*
G01X46230Y17491D01*
G01X46130Y17541D01*
G01X46030Y17641D01*
G01X45979Y17741D01*
G01X45930Y17891D01*
G01X45930Y18141D01*
G01X45979Y18291D01*
G01X46030Y18391D01*
G01X46130Y18491D01*
G01X46230Y18541D01*
G01X46430Y18541D01*
G01X44900Y18391D02*
G01X45000Y18491D01*
G01X45149Y18541D01*
G01X45349Y18541D01*
G01X45500Y18491D01*
G01X45600Y18391D01*
G01X45600Y18291D01*
G01X45549Y18191D01*
G01X45500Y18141D01*
G01X45400Y18091D01*
G01X45100Y17991D01*
G01X45000Y17941D01*
G01X44949Y17891D01*
G01X44900Y17791D01*
G01X44900Y17641D01*
G01X45000Y17541D01*
G01X45149Y17491D01*
G01X45349Y17491D01*
G01X45500Y17541D01*
G01X45600Y17641D01*
G01X44569Y18541D02*
G01X44569Y17491D01*
G01X44569Y18541D02*
G01X43920Y18541D01*
G01X44569Y18041D02*
G01X44169Y18041D01*
G01X43590Y18541D02*
G01X43590Y17491D01*
G01X43590Y18541D02*
G01X42939Y18541D01*
G01X43590Y18041D02*
G01X43190Y18041D01*
G01X43590Y17491D02*
G01X42939Y17491D01*
G01X42260Y18541D02*
G01X42260Y17491D01*
G01X42609Y18541D02*
G01X41910Y18541D01*
G01X41684Y9148D02*
G01X41734Y9248D01*
G01X41834Y9348D01*
G01X41934Y9398D01*
G01X42134Y9398D01*
G01X42234Y9348D01*
G01X42334Y9248D01*
G01X42384Y9148D01*
G01X42434Y8998D01*
G01X42434Y8748D01*
G01X42384Y8598D01*
G01X42334Y8498D01*
G01X42234Y8398D01*
G01X42134Y8348D01*
G01X41934Y8348D01*
G01X41834Y8398D01*
G01X41734Y8498D01*
G01X41684Y8598D01*
G01X41684Y8748D01*
G01X41934Y8748D02*
G01X41684Y8748D01*
G01X41354Y9398D02*
G01X41354Y8348D01*
G01X41354Y9398D02*
G01X40654Y8348D01*
G01X40654Y9398D02*
G01X40654Y8348D01*
G01X40324Y9398D02*
G01X40324Y8348D01*
G01X40324Y9398D02*
G01X39974Y9398D01*
G01X39824Y9348D01*
G01X39724Y9248D01*
G01X39674Y9148D01*
G01X39624Y8998D01*
G01X39624Y8748D01*
G01X39674Y8598D01*
G01X39724Y8498D01*
G01X39824Y8398D01*
G01X39974Y8348D01*
G01X40324Y8348D01*
G01X35560Y9489D02*
G01X35560Y8439D01*
G01X35560Y9489D02*
G01X35110Y9489D01*
G01X34960Y9439D01*
G01X34910Y9389D01*
G01X34860Y9289D01*
G01X34860Y9189D01*
G01X34910Y9089D01*
G01X34960Y9039D01*
G01X35110Y8989D01*
G01X35560Y8989D01*
G01X35210Y8989D02*
G01X34860Y8439D01*
G01X33830Y9339D02*
G01X33930Y9439D01*
G01X34080Y9489D01*
G01X34280Y9489D01*
G01X34430Y9439D01*
G01X34530Y9339D01*
G01X34530Y9239D01*
G01X34480Y9139D01*
G01X34430Y9089D01*
G01X34330Y9039D01*
G01X34030Y8939D01*
G01X33930Y8889D01*
G01X33880Y8839D01*
G01X33830Y8739D01*
G01X33830Y8589D01*
G01X33930Y8489D01*
G01X34080Y8439D01*
G01X34280Y8439D01*
G01X34430Y8489D01*
G01X34530Y8589D01*
G01X33150Y9489D02*
G01X33150Y8439D01*
G01X33500Y9489D02*
G01X32800Y9489D01*
G01X30590Y9651D02*
G01X30590Y8601D01*
G01X30940Y9651D02*
G01X30240Y9651D01*
G01X29910Y9651D02*
G01X29210Y8601D01*
G01X29210Y9651D02*
G01X29910Y8601D01*
G01X27686Y9743D02*
G01X27686Y8693D01*
G01X27686Y9743D02*
G01X27236Y9743D01*
G01X27086Y9693D01*
G01X27036Y9643D01*
G01X26986Y9543D01*
G01X26986Y9443D01*
G01X27036Y9343D01*
G01X27086Y9293D01*
G01X27236Y9243D01*
G01X27686Y9243D01*
G01X27336Y9243D02*
G01X26986Y8693D01*
G01X26656Y9743D02*
G01X25956Y8693D01*
G01X25956Y9743D02*
G01X26656Y8693D01*
G01X6885Y31753D02*
G01X6935Y31853D01*
G01X7035Y31953D01*
G01X7135Y32003D01*
G01X7335Y32003D01*
G01X7435Y31953D01*
G01X7535Y31853D01*
G01X7585Y31753D01*
G01X7635Y31603D01*
G01X7635Y31353D01*
G01X7585Y31203D01*
G01X7535Y31103D01*
G01X7435Y31003D01*
G01X7335Y30953D01*
G01X7135Y30953D01*
G01X7035Y31003D01*
G01X6935Y31103D01*
G01X6885Y31203D01*
G01X6885Y31353D01*
G01X7135Y31353D02*
G01X6885Y31353D01*
G01X6555Y32003D02*
G01X6555Y30953D01*
G01X6555Y32003D02*
G01X5855Y30953D01*
G01X5855Y32003D02*
G01X5855Y30953D01*
G01X5525Y32003D02*
G01X5525Y30953D01*
G01X5525Y32003D02*
G01X5175Y32003D01*
G01X5025Y31953D01*
G01X4925Y31853D01*
G01X4875Y31753D01*
G01X4825Y31603D01*
G01X4825Y31353D01*
G01X4875Y31203D01*
G01X4925Y31103D01*
G01X5025Y31003D01*
G01X5175Y30953D01*
G01X5525Y30953D01*
G01X4737Y7111D02*
G01X4337Y6061D01*
G01X3937Y7111D02*
G01X4337Y6061D01*
G01X2857Y6861D02*
G01X2907Y6961D01*
G01X3007Y7061D01*
G01X3107Y7111D01*
G01X3307Y7111D01*
G01X3407Y7061D01*
G01X3507Y6961D01*
G01X3557Y6861D01*
G01X3607Y6711D01*
G01X3607Y6461D01*
G01X3557Y6311D01*
G01X3507Y6211D01*
G01X3407Y6111D01*
G01X3307Y6061D01*
G01X3107Y6061D01*
G01X3007Y6111D01*
G01X2907Y6211D01*
G01X2857Y6311D01*
G01X1778Y6861D02*
G01X1827Y6961D01*
G01X1927Y7061D01*
G01X2027Y7111D01*
G01X2227Y7111D01*
G01X2327Y7061D01*
G01X2427Y6961D01*
G01X2477Y6861D01*
G01X2527Y6711D01*
G01X2527Y6461D01*
G01X2477Y6311D01*
G01X2427Y6211D01*
G01X2327Y6111D01*
G01X2227Y6061D01*
G01X2027Y6061D01*
G01X1927Y6111D01*
G01X1827Y6211D01*
G01X1778Y6311D01*
G01X75438Y7711D02*
G01X75038Y6661D01*
G01X74638Y7711D02*
G01X75038Y6661D01*
G01X73558Y7461D02*
G01X73608Y7561D01*
G01X73708Y7661D01*
G01X73808Y7711D01*
G01X74008Y7711D01*
G01X74108Y7661D01*
G01X74208Y7561D01*
G01X74258Y7461D01*
G01X74308Y7311D01*
G01X74308Y7061D01*
G01X74258Y6911D01*
G01X74208Y6811D01*
G01X74108Y6711D01*
G01X74008Y6661D01*
G01X73808Y6661D01*
G01X73708Y6711D01*
G01X73608Y6811D01*
G01X73558Y6911D01*
G01X72478Y7461D02*
G01X72528Y7561D01*
G01X72628Y7661D01*
G01X72728Y7711D01*
G01X72928Y7711D01*
G01X73028Y7661D01*
G01X73128Y7561D01*
G01X73178Y7461D01*
G01X73228Y7311D01*
G01X73228Y7061D01*
G01X73178Y6911D01*
G01X73128Y6811D01*
G01X73028Y6711D01*
G01X72928Y6661D01*
G01X72728Y6661D01*
G01X72628Y6711D01*
G01X72528Y6811D01*
G01X72478Y6911D01*
G01X71290Y31754D02*
G01X71340Y31854D01*
G01X71440Y31954D01*
G01X71540Y32004D01*
G01X71740Y32004D01*
G01X71840Y31954D01*
G01X71940Y31854D01*
G01X71990Y31754D01*
G01X72040Y31604D01*
G01X72040Y31354D01*
G01X71990Y31204D01*
G01X71940Y31104D01*
G01X71840Y31004D01*
G01X71740Y30954D01*
G01X71540Y30954D01*
G01X71440Y31004D01*
G01X71340Y31104D01*
G01X71290Y31204D01*
G01X71290Y31354D01*
G01X71540Y31354D02*
G01X71290Y31354D01*
G01X70960Y32004D02*
G01X70960Y30954D01*
G01X70960Y32004D02*
G01X70260Y30954D01*
G01X70260Y32004D02*
G01X70260Y30954D01*
G01X69930Y32004D02*
G01X69930Y30954D01*
G01X69930Y32004D02*
G01X69580Y32004D01*
G01X69430Y31954D01*
G01X69330Y31854D01*
G01X69280Y31754D01*
G01X69230Y31604D01*
G01X69230Y31354D01*
G01X69280Y31204D01*
G01X69330Y31104D01*
G01X69430Y31004D01*
G01X69580Y30954D01*
G01X69930Y30954D01*
G01X68600Y32004D02*
G01X68700Y31954D01*
G01X68800Y31854D01*
G01X68850Y31754D01*
G01X68900Y31604D01*
G01X68900Y31354D01*
G01X68850Y31204D01*
G01X68800Y31104D01*
G01X68700Y31004D01*
G01X68600Y30954D01*
G01X68400Y30954D01*
G01X68300Y31004D01*
G01X68200Y31104D01*
G01X68150Y31204D01*
G01X68100Y31354D01*
G01X68100Y31604D01*
G01X68150Y31754D01*
G01X68200Y31854D01*
G01X68300Y31954D01*
G01X68400Y32004D01*
G01X68600Y32004D01*
G01X67770Y32004D02*
G01X67770Y31254D01*
G01X67720Y31104D01*
G01X67620Y31004D01*
G01X67470Y30954D01*
G01X67370Y30954D01*
G01X67220Y31004D01*
G01X67120Y31104D01*
G01X67070Y31254D01*
G01X67070Y32004D01*
G01X66390Y32004D02*
G01X66390Y30954D01*
G01X66740Y32004D02*
G01X66040Y32004D01*
G01X13937Y3809D02*
G01X13537Y2759D01*
G01X13137Y3809D02*
G01X13537Y2759D01*
G01X12508Y3809D02*
G01X12608Y3759D01*
G01X12708Y3659D01*
G01X12757Y3559D01*
G01X12808Y3409D01*
G01X12808Y3159D01*
G01X12757Y3009D01*
G01X12708Y2909D01*
G01X12608Y2809D01*
G01X12508Y2759D01*
G01X12308Y2759D01*
G01X12208Y2809D01*
G01X12108Y2909D01*
G01X12057Y3009D01*
G01X12008Y3159D01*
G01X12008Y3409D01*
G01X12057Y3559D01*
G01X12108Y3659D01*
G01X12208Y3759D01*
G01X12308Y3809D01*
G01X12508Y3809D01*
G01X11678Y3809D02*
G01X11678Y2759D01*
G01X11678Y2759D02*
G01X11078Y2759D01*
G01X10397Y3809D02*
G01X10397Y2759D01*
G01X10748Y3809D02*
G01X10048Y3809D01*
G01X9318Y3809D02*
G01X9718Y2759D01*
G01X9318Y3809D02*
G01X8918Y2759D01*
G01X9568Y3109D02*
G01X9068Y3109D01*
G01X7838Y3559D02*
G01X7887Y3659D01*
G01X7987Y3759D01*
G01X8087Y3809D01*
G01X8287Y3809D01*
G01X8387Y3759D01*
G01X8487Y3659D01*
G01X8538Y3559D01*
G01X8587Y3409D01*
G01X8587Y3159D01*
G01X8538Y3009D01*
G01X8487Y2909D01*
G01X8387Y2809D01*
G01X8287Y2759D01*
G01X8087Y2759D01*
G01X7987Y2809D01*
G01X7887Y2909D01*
G01X7838Y3009D01*
G01X7838Y3159D01*
G01X8087Y3159D02*
G01X7838Y3159D01*
G01X7508Y3809D02*
G01X7508Y2759D01*
G01X7508Y3809D02*
G01X6858Y3809D01*
G01X7508Y3309D02*
G01X7108Y3309D01*
G01X7508Y2759D02*
G01X6858Y2759D01*
G54D36*
G01X6350Y28702D03*
G01X6350Y25247D03*
G01X10414Y28702D03*
G01X10414Y25247D03*
G01X14478Y28702D03*
G01X14478Y25247D03*
G01X18542Y28702D03*
G01X18542Y25247D03*
G01X22606Y28702D03*
G01X22606Y25247D03*
G01X26670Y28702D03*
G01X26670Y25247D03*
G01X30734Y28702D03*
G01X30734Y25247D03*
G01X34798Y28702D03*
G01X34798Y25247D03*
G01X42164Y28702D03*
G01X42164Y25247D03*
G01X46228Y28702D03*
G01X46228Y25247D03*
G01X50292Y28702D03*
G01X50292Y25247D03*
G01X54356Y28702D03*
G01X54356Y25247D03*
G01X58420Y28702D03*
G01X58420Y25247D03*
G01X62484Y28702D03*
G01X62484Y25247D03*
G01X66548Y28702D03*
G01X66548Y25247D03*
G01X70612Y28702D03*
G01X70612Y25247D03*
G54D27*
G01X56896Y16637D03*
G54D28*
G01X26670Y7112D03*
G01X29972Y7112D03*
G01X34290Y7112D03*
G54D29*
G01X41148Y7112D03*
G54D28*
G01X17780Y7112D03*
G54D30*
G01X67818Y22352D03*
G54D31*
G01X17780Y14478D03*
G54D30*
G01X17780Y12192D03*
G01X68326Y11684D03*
G01X17780Y9906D03*
G01X15494Y3302D03*
G54D32*
G01X3556Y18034D03*
G01X5080Y18034D03*
G01X2032Y18034D03*
G01X3556Y16510D03*
G01X5080Y16510D03*
G01X2032Y16510D03*
G01X3556Y19558D03*
G01X5080Y19558D03*
G01X2032Y19558D03*
G01X3556Y10414D03*
G01X5080Y10414D03*
G01X2032Y10414D03*
G01X3556Y8890D03*
G01X5080Y8890D03*
G01X2032Y8890D03*
G01X3556Y11938D03*
G01X5080Y11938D03*
G01X2032Y11938D03*
G01X73914Y10922D03*
G01X75438Y10922D03*
G01X72390Y10922D03*
G01X73914Y9398D03*
G01X75438Y9398D03*
G01X72390Y9398D03*
G01X73914Y12446D03*
G01X75438Y12446D03*
G01X72390Y12446D03*
G01X73914Y18034D03*
G01X75438Y18034D03*
G01X72390Y18034D03*
G01X73914Y16510D03*
G01X75438Y16510D03*
G01X72390Y16510D03*
G01X73914Y19558D03*
G01X75438Y19558D03*
G01X72390Y19558D03*
G54D33*
G01X57144Y11557D02*
G01X56647Y11557D01*
G01X57144Y14097D02*
G01X56647Y14097D01*
M00*
M02*
