G04 ---------------------------- Layer name :BOTTOM SILK LAYER*
G04 EasyEDA v5.5.11, Mon, 04 Jun 2018 22:37:14 GMT*
G04 4e3370736bcd402486d42fd13c25843b*
G04 Gerber Generator version 0.2*
G04 Scale: 100 percent, Rotated: No, Reflected: No *
G04 Dimensions in millimeters *
G04 leading zeros omitted , absolute positions ,3 integer and 3 decimal *
%FSLAX33Y33*%
%MOMM*%
G90*
G71D02*

%ADD14C,0.177800*%
%ADD41C,0.269999*%

%LPD*%
G54D41*
G01X4673Y27406D02*
G01X4673Y30276D01*
G01X8001Y30276D01*
G01X8001Y27406D01*
G01X8001Y27406D01*
G01X8001Y26492D02*
G01X8001Y26517D01*
G01X8001Y23698D01*
G01X4673Y23698D01*
G01X4673Y26568D01*
G01X8737Y27406D02*
G01X8737Y30276D01*
G01X12065Y30276D01*
G01X12065Y27406D01*
G01X12065Y27406D01*
G01X12065Y26492D02*
G01X12065Y26517D01*
G01X12065Y23698D01*
G01X8737Y23698D01*
G01X8737Y26568D01*
G01X12801Y27406D02*
G01X12801Y30276D01*
G01X16129Y30276D01*
G01X16129Y27406D01*
G01X16129Y27406D01*
G01X16129Y26492D02*
G01X16129Y26517D01*
G01X16129Y23698D01*
G01X12801Y23698D01*
G01X12801Y26568D01*
G01X16865Y27406D02*
G01X16865Y30276D01*
G01X20193Y30276D01*
G01X20193Y27406D01*
G01X20193Y27406D01*
G01X20193Y26492D02*
G01X20193Y26517D01*
G01X20193Y23698D01*
G01X16865Y23698D01*
G01X16865Y26568D01*
G01X20929Y27406D02*
G01X20929Y30276D01*
G01X24257Y30276D01*
G01X24257Y27406D01*
G01X24257Y27406D01*
G01X24257Y26492D02*
G01X24257Y26517D01*
G01X24257Y23698D01*
G01X20929Y23698D01*
G01X20929Y26568D01*
G01X24993Y27406D02*
G01X24993Y30276D01*
G01X28321Y30276D01*
G01X28321Y27406D01*
G01X28321Y27406D01*
G01X28321Y26492D02*
G01X28321Y26517D01*
G01X28321Y23698D01*
G01X24993Y23698D01*
G01X24993Y26568D01*
G01X29057Y27406D02*
G01X29057Y30276D01*
G01X32385Y30276D01*
G01X32385Y27406D01*
G01X32385Y27406D01*
G01X32385Y26492D02*
G01X32385Y26517D01*
G01X32385Y23698D01*
G01X29057Y23698D01*
G01X29057Y26568D01*
G01X33121Y27406D02*
G01X33121Y30276D01*
G01X36449Y30276D01*
G01X36449Y27406D01*
G01X36449Y27406D01*
G01X36449Y26492D02*
G01X36449Y26517D01*
G01X36449Y23698D01*
G01X33121Y23698D01*
G01X33121Y26568D01*
G01X40487Y27406D02*
G01X40487Y30276D01*
G01X43815Y30276D01*
G01X43815Y27406D01*
G01X43815Y27406D01*
G01X43815Y26492D02*
G01X43815Y26517D01*
G01X43815Y23698D01*
G01X40487Y23698D01*
G01X40487Y26568D01*
G01X44551Y27406D02*
G01X44551Y30276D01*
G01X47879Y30276D01*
G01X47879Y27406D01*
G01X47879Y27406D01*
G01X47879Y26492D02*
G01X47879Y26517D01*
G01X47879Y23698D01*
G01X44551Y23698D01*
G01X44551Y26568D01*
G01X48615Y27406D02*
G01X48615Y30276D01*
G01X51943Y30276D01*
G01X51943Y27406D01*
G01X51943Y27406D01*
G01X51943Y26492D02*
G01X51943Y26517D01*
G01X51943Y23698D01*
G01X48615Y23698D01*
G01X48615Y26568D01*
G01X52679Y27406D02*
G01X52679Y30276D01*
G01X56007Y30276D01*
G01X56007Y27406D01*
G01X56007Y27406D01*
G01X56007Y26492D02*
G01X56007Y26517D01*
G01X56007Y23698D01*
G01X52679Y23698D01*
G01X52679Y26568D01*
G01X56743Y27406D02*
G01X56743Y30276D01*
G01X60071Y30276D01*
G01X60071Y27406D01*
G01X60071Y27406D01*
G01X60071Y26492D02*
G01X60071Y26517D01*
G01X60071Y23698D01*
G01X56743Y23698D01*
G01X56743Y26568D01*
G01X60807Y27406D02*
G01X60807Y30276D01*
G01X64135Y30276D01*
G01X64135Y27406D01*
G01X64135Y27406D01*
G01X64135Y26492D02*
G01X64135Y26517D01*
G01X64135Y23698D01*
G01X60807Y23698D01*
G01X60807Y26568D01*
G01X64871Y27406D02*
G01X64871Y30276D01*
G01X68199Y30276D01*
G01X68199Y27406D01*
G01X68199Y27406D01*
G01X68199Y26492D02*
G01X68199Y26517D01*
G01X68199Y23698D01*
G01X64871Y23698D01*
G01X64871Y26568D01*
G01X68935Y27406D02*
G01X68935Y30276D01*
G01X72263Y30276D01*
G01X72263Y27406D01*
G01X72263Y27406D01*
G01X72263Y26492D02*
G01X72263Y26517D01*
G01X72263Y23698D01*
G01X68935Y23698D01*
G01X68935Y26568D01*
G54D14*
G01X6332Y31859D02*
G01X6384Y31963D01*
G01X6488Y32067D01*
G01X6592Y32119D01*
G01X6800Y32119D01*
G01X6904Y32067D01*
G01X7008Y31963D01*
G01X7060Y31859D01*
G01X7112Y31703D01*
G01X7112Y31444D01*
G01X7060Y31288D01*
G01X7008Y31184D01*
G01X6904Y31080D01*
G01X6800Y31028D01*
G01X6592Y31028D01*
G01X6488Y31080D01*
G01X6384Y31184D01*
G01X6332Y31288D01*
G01X5989Y31911D02*
G01X5885Y31963D01*
G01X5730Y32119D01*
G01X5730Y31028D01*
G01X10396Y31859D02*
G01X10448Y31963D01*
G01X10552Y32067D01*
G01X10656Y32119D01*
G01X10864Y32119D01*
G01X10968Y32067D01*
G01X11072Y31963D01*
G01X11124Y31859D01*
G01X11176Y31703D01*
G01X11176Y31444D01*
G01X11124Y31288D01*
G01X11072Y31184D01*
G01X10968Y31080D01*
G01X10864Y31028D01*
G01X10656Y31028D01*
G01X10552Y31080D01*
G01X10448Y31184D01*
G01X10396Y31288D01*
G01X10001Y31859D02*
G01X10001Y31911D01*
G01X9949Y32015D01*
G01X9897Y32067D01*
G01X9794Y32119D01*
G01X9586Y32119D01*
G01X9482Y32067D01*
G01X9430Y32015D01*
G01X9378Y31911D01*
G01X9378Y31807D01*
G01X9430Y31703D01*
G01X9534Y31547D01*
G01X10053Y31028D01*
G01X9326Y31028D01*
G01X14460Y31859D02*
G01X14512Y31963D01*
G01X14616Y32067D01*
G01X14720Y32119D01*
G01X14928Y32119D01*
G01X15032Y32067D01*
G01X15136Y31963D01*
G01X15188Y31859D01*
G01X15240Y31703D01*
G01X15240Y31444D01*
G01X15188Y31288D01*
G01X15136Y31184D01*
G01X15032Y31080D01*
G01X14928Y31028D01*
G01X14720Y31028D01*
G01X14616Y31080D01*
G01X14512Y31184D01*
G01X14460Y31288D01*
G01X14013Y32119D02*
G01X13442Y32119D01*
G01X13754Y31703D01*
G01X13598Y31703D01*
G01X13494Y31651D01*
G01X13442Y31599D01*
G01X13390Y31444D01*
G01X13390Y31340D01*
G01X13442Y31184D01*
G01X13546Y31080D01*
G01X13702Y31028D01*
G01X13858Y31028D01*
G01X14013Y31080D01*
G01X14065Y31132D01*
G01X14117Y31236D01*
G01X18524Y31859D02*
G01X18576Y31963D01*
G01X18680Y32067D01*
G01X18784Y32119D01*
G01X18992Y32119D01*
G01X19096Y32067D01*
G01X19200Y31963D01*
G01X19252Y31859D01*
G01X19304Y31703D01*
G01X19304Y31444D01*
G01X19252Y31288D01*
G01X19200Y31184D01*
G01X19096Y31080D01*
G01X18992Y31028D01*
G01X18784Y31028D01*
G01X18680Y31080D01*
G01X18576Y31184D01*
G01X18524Y31288D01*
G01X17662Y32119D02*
G01X18181Y31392D01*
G01X17402Y31392D01*
G01X17662Y32119D02*
G01X17662Y31028D01*
G01X22588Y31859D02*
G01X22640Y31963D01*
G01X22744Y32067D01*
G01X22848Y32119D01*
G01X23056Y32119D01*
G01X23160Y32067D01*
G01X23264Y31963D01*
G01X23316Y31859D01*
G01X23368Y31703D01*
G01X23368Y31444D01*
G01X23316Y31288D01*
G01X23264Y31184D01*
G01X23160Y31080D01*
G01X23056Y31028D01*
G01X22848Y31028D01*
G01X22744Y31080D01*
G01X22640Y31184D01*
G01X22588Y31288D01*
G01X21622Y32119D02*
G01X22141Y32119D01*
G01X22193Y31651D01*
G01X22141Y31703D01*
G01X21986Y31755D01*
G01X21830Y31755D01*
G01X21674Y31703D01*
G01X21570Y31599D01*
G01X21518Y31444D01*
G01X21518Y31340D01*
G01X21570Y31184D01*
G01X21674Y31080D01*
G01X21830Y31028D01*
G01X21986Y31028D01*
G01X22141Y31080D01*
G01X22193Y31132D01*
G01X22245Y31236D01*
G01X26652Y31859D02*
G01X26704Y31963D01*
G01X26808Y32067D01*
G01X26912Y32119D01*
G01X27120Y32119D01*
G01X27224Y32067D01*
G01X27328Y31963D01*
G01X27380Y31859D01*
G01X27432Y31703D01*
G01X27432Y31444D01*
G01X27380Y31288D01*
G01X27328Y31184D01*
G01X27224Y31080D01*
G01X27120Y31028D01*
G01X26912Y31028D01*
G01X26808Y31080D01*
G01X26704Y31184D01*
G01X26652Y31288D01*
G01X25686Y31963D02*
G01X25738Y32067D01*
G01X25894Y32119D01*
G01X25998Y32119D01*
G01X26153Y32067D01*
G01X26257Y31911D01*
G01X26309Y31651D01*
G01X26309Y31392D01*
G01X26257Y31184D01*
G01X26153Y31080D01*
G01X25998Y31028D01*
G01X25946Y31028D01*
G01X25790Y31080D01*
G01X25686Y31184D01*
G01X25634Y31340D01*
G01X25634Y31392D01*
G01X25686Y31547D01*
G01X25790Y31651D01*
G01X25946Y31703D01*
G01X25998Y31703D01*
G01X26153Y31651D01*
G01X26257Y31547D01*
G01X26309Y31392D01*
G01X30716Y31859D02*
G01X30768Y31963D01*
G01X30872Y32067D01*
G01X30976Y32119D01*
G01X31184Y32119D01*
G01X31288Y32067D01*
G01X31392Y31963D01*
G01X31444Y31859D01*
G01X31496Y31703D01*
G01X31496Y31444D01*
G01X31444Y31288D01*
G01X31392Y31184D01*
G01X31288Y31080D01*
G01X31184Y31028D01*
G01X30976Y31028D01*
G01X30872Y31080D01*
G01X30768Y31184D01*
G01X30716Y31288D01*
G01X29646Y32119D02*
G01X30165Y31028D01*
G01X30373Y32119D02*
G01X29646Y32119D01*
G01X34780Y31859D02*
G01X34832Y31963D01*
G01X34936Y32067D01*
G01X35040Y32119D01*
G01X35248Y32119D01*
G01X35352Y32067D01*
G01X35456Y31963D01*
G01X35508Y31859D01*
G01X35560Y31703D01*
G01X35560Y31444D01*
G01X35508Y31288D01*
G01X35456Y31184D01*
G01X35352Y31080D01*
G01X35248Y31028D01*
G01X35040Y31028D01*
G01X34936Y31080D01*
G01X34832Y31184D01*
G01X34780Y31288D01*
G01X34178Y32119D02*
G01X34333Y32067D01*
G01X34385Y31963D01*
G01X34385Y31859D01*
G01X34333Y31755D01*
G01X34229Y31703D01*
G01X34022Y31651D01*
G01X33866Y31599D01*
G01X33762Y31496D01*
G01X33710Y31392D01*
G01X33710Y31236D01*
G01X33762Y31132D01*
G01X33814Y31080D01*
G01X33970Y31028D01*
G01X34178Y31028D01*
G01X34333Y31080D01*
G01X34385Y31132D01*
G01X34437Y31236D01*
G01X34437Y31392D01*
G01X34385Y31496D01*
G01X34281Y31599D01*
G01X34126Y31651D01*
G01X33918Y31703D01*
G01X33814Y31755D01*
G01X33762Y31859D01*
G01X33762Y31963D01*
G01X33814Y32067D01*
G01X33970Y32119D01*
G01X34178Y32119D01*
G01X42146Y31859D02*
G01X42198Y31963D01*
G01X42302Y32067D01*
G01X42406Y32119D01*
G01X42614Y32119D01*
G01X42718Y32067D01*
G01X42822Y31963D01*
G01X42874Y31859D01*
G01X42926Y31703D01*
G01X42926Y31444D01*
G01X42874Y31288D01*
G01X42822Y31184D01*
G01X42718Y31080D01*
G01X42614Y31028D01*
G01X42406Y31028D01*
G01X42302Y31080D01*
G01X42198Y31184D01*
G01X42146Y31288D01*
G01X41128Y31755D02*
G01X41180Y31599D01*
G01X41284Y31496D01*
G01X41440Y31444D01*
G01X41492Y31444D01*
G01X41647Y31496D01*
G01X41751Y31599D01*
G01X41803Y31755D01*
G01X41803Y31807D01*
G01X41751Y31963D01*
G01X41647Y32067D01*
G01X41492Y32119D01*
G01X41440Y32119D01*
G01X41284Y32067D01*
G01X41180Y31963D01*
G01X41128Y31755D01*
G01X41128Y31496D01*
G01X41180Y31236D01*
G01X41284Y31080D01*
G01X41440Y31028D01*
G01X41544Y31028D01*
G01X41699Y31080D01*
G01X41751Y31184D01*
G01X46210Y31859D02*
G01X46262Y31963D01*
G01X46366Y32067D01*
G01X46470Y32119D01*
G01X46678Y32119D01*
G01X46782Y32067D01*
G01X46886Y31963D01*
G01X46938Y31859D01*
G01X46990Y31703D01*
G01X46990Y31444D01*
G01X46938Y31288D01*
G01X46886Y31184D01*
G01X46782Y31080D01*
G01X46678Y31028D01*
G01X46470Y31028D01*
G01X46366Y31080D01*
G01X46262Y31184D01*
G01X46210Y31288D01*
G01X45867Y31911D02*
G01X45763Y31963D01*
G01X45608Y32119D01*
G01X45608Y31028D01*
G01X44953Y32119D02*
G01X45109Y32067D01*
G01X45213Y31911D01*
G01X45265Y31651D01*
G01X45265Y31496D01*
G01X45213Y31236D01*
G01X45109Y31080D01*
G01X44953Y31028D01*
G01X44849Y31028D01*
G01X44693Y31080D01*
G01X44589Y31236D01*
G01X44537Y31496D01*
G01X44537Y31651D01*
G01X44589Y31911D01*
G01X44693Y32067D01*
G01X44849Y32119D01*
G01X44953Y32119D01*
G01X50274Y31859D02*
G01X50326Y31963D01*
G01X50430Y32067D01*
G01X50534Y32119D01*
G01X50742Y32119D01*
G01X50846Y32067D01*
G01X50950Y31963D01*
G01X51002Y31859D01*
G01X51054Y31703D01*
G01X51054Y31444D01*
G01X51002Y31288D01*
G01X50950Y31184D01*
G01X50846Y31080D01*
G01X50742Y31028D01*
G01X50534Y31028D01*
G01X50430Y31080D01*
G01X50326Y31184D01*
G01X50274Y31288D01*
G01X49931Y31911D02*
G01X49827Y31963D01*
G01X49672Y32119D01*
G01X49672Y31028D01*
G01X49329Y31911D02*
G01X49225Y31963D01*
G01X49069Y32119D01*
G01X49069Y31028D01*
G01X54338Y31859D02*
G01X54390Y31963D01*
G01X54494Y32067D01*
G01X54598Y32119D01*
G01X54806Y32119D01*
G01X54910Y32067D01*
G01X55014Y31963D01*
G01X55066Y31859D01*
G01X55118Y31703D01*
G01X55118Y31444D01*
G01X55066Y31288D01*
G01X55014Y31184D01*
G01X54910Y31080D01*
G01X54806Y31028D01*
G01X54598Y31028D01*
G01X54494Y31080D01*
G01X54390Y31184D01*
G01X54338Y31288D01*
G01X53995Y31911D02*
G01X53891Y31963D01*
G01X53736Y32119D01*
G01X53736Y31028D01*
G01X53341Y31859D02*
G01X53341Y31911D01*
G01X53289Y32015D01*
G01X53237Y32067D01*
G01X53133Y32119D01*
G01X52925Y32119D01*
G01X52821Y32067D01*
G01X52769Y32015D01*
G01X52717Y31911D01*
G01X52717Y31807D01*
G01X52769Y31703D01*
G01X52873Y31547D01*
G01X53393Y31028D01*
G01X52665Y31028D01*
G01X58402Y31859D02*
G01X58454Y31963D01*
G01X58558Y32067D01*
G01X58662Y32119D01*
G01X58870Y32119D01*
G01X58974Y32067D01*
G01X59078Y31963D01*
G01X59130Y31859D01*
G01X59182Y31703D01*
G01X59182Y31444D01*
G01X59130Y31288D01*
G01X59078Y31184D01*
G01X58974Y31080D01*
G01X58870Y31028D01*
G01X58662Y31028D01*
G01X58558Y31080D01*
G01X58454Y31184D01*
G01X58402Y31288D01*
G01X58059Y31911D02*
G01X57955Y31963D01*
G01X57800Y32119D01*
G01X57800Y31028D01*
G01X57353Y32119D02*
G01X56781Y32119D01*
G01X57093Y31703D01*
G01X56937Y31703D01*
G01X56833Y31651D01*
G01X56781Y31599D01*
G01X56729Y31444D01*
G01X56729Y31340D01*
G01X56781Y31184D01*
G01X56885Y31080D01*
G01X57041Y31028D01*
G01X57197Y31028D01*
G01X57353Y31080D01*
G01X57405Y31132D01*
G01X57457Y31236D01*
G01X62466Y31859D02*
G01X62518Y31963D01*
G01X62622Y32067D01*
G01X62726Y32119D01*
G01X62934Y32119D01*
G01X63038Y32067D01*
G01X63142Y31963D01*
G01X63194Y31859D01*
G01X63246Y31703D01*
G01X63246Y31444D01*
G01X63194Y31288D01*
G01X63142Y31184D01*
G01X63038Y31080D01*
G01X62934Y31028D01*
G01X62726Y31028D01*
G01X62622Y31080D01*
G01X62518Y31184D01*
G01X62466Y31288D01*
G01X62123Y31911D02*
G01X62019Y31963D01*
G01X61864Y32119D01*
G01X61864Y31028D01*
G01X61001Y32119D02*
G01X61521Y31392D01*
G01X60741Y31392D01*
G01X61001Y32119D02*
G01X61001Y31028D01*
G01X66530Y31859D02*
G01X66582Y31963D01*
G01X66686Y32067D01*
G01X66790Y32119D01*
G01X66998Y32119D01*
G01X67102Y32067D01*
G01X67206Y31963D01*
G01X67258Y31859D01*
G01X67310Y31703D01*
G01X67310Y31444D01*
G01X67258Y31288D01*
G01X67206Y31184D01*
G01X67102Y31080D01*
G01X66998Y31028D01*
G01X66790Y31028D01*
G01X66686Y31080D01*
G01X66582Y31184D01*
G01X66530Y31288D01*
G01X66187Y31911D02*
G01X66083Y31963D01*
G01X65928Y32119D01*
G01X65928Y31028D01*
G01X64961Y32119D02*
G01X65481Y32119D01*
G01X65533Y31651D01*
G01X65481Y31703D01*
G01X65325Y31755D01*
G01X65169Y31755D01*
G01X65013Y31703D01*
G01X64909Y31599D01*
G01X64857Y31444D01*
G01X64857Y31340D01*
G01X64909Y31184D01*
G01X65013Y31080D01*
G01X65169Y31028D01*
G01X65325Y31028D01*
G01X65481Y31080D01*
G01X65533Y31132D01*
G01X65585Y31236D01*
G01X70594Y31859D02*
G01X70646Y31963D01*
G01X70750Y32067D01*
G01X70854Y32119D01*
G01X71062Y32119D01*
G01X71166Y32067D01*
G01X71270Y31963D01*
G01X71322Y31859D01*
G01X71374Y31703D01*
G01X71374Y31444D01*
G01X71322Y31288D01*
G01X71270Y31184D01*
G01X71166Y31080D01*
G01X71062Y31028D01*
G01X70854Y31028D01*
G01X70750Y31080D01*
G01X70646Y31184D01*
G01X70594Y31288D01*
G01X70251Y31911D02*
G01X70147Y31963D01*
G01X69992Y32119D01*
G01X69992Y31028D01*
G01X69025Y31963D02*
G01X69077Y32067D01*
G01X69233Y32119D01*
G01X69337Y32119D01*
G01X69493Y32067D01*
G01X69597Y31911D01*
G01X69649Y31651D01*
G01X69649Y31392D01*
G01X69597Y31184D01*
G01X69493Y31080D01*
G01X69337Y31028D01*
G01X69285Y31028D01*
G01X69129Y31080D01*
G01X69025Y31184D01*
G01X68973Y31340D01*
G01X68973Y31392D01*
G01X69025Y31547D01*
G01X69129Y31651D01*
G01X69285Y31703D01*
G01X69337Y31703D01*
G01X69493Y31651D01*
G01X69597Y31547D01*
G01X69649Y31392D01*
M00*
M02*
