G04 ---------------------------- Layer name :TOP LAYER*
G04 EasyEDA v5.5.11, Mon, 04 Jun 2018 22:37:14 GMT*
G04 4e3370736bcd402486d42fd13c25843b*
G04 Gerber Generator version 0.2*
G04 Scale: 100 percent, Rotated: No, Reflected: No *
G04 Dimensions in millimeters *
G04 leading zeros omitted , absolute positions ,3 integer and 3 decimal *
%FSLAX33Y33*%
%MOMM*%
G90*
G71D02*

%ADD10C,0.254000*%
%ADD11C,0.399999*%
%ADD12C,1.499997*%
%ADD13C,0.450012*%
%ADD14C,0.177800*%
%ADD15C,0.203200*%
%ADD16C,0.178003*%
%ADD17C,1.575054*%
%ADD18R,1.999996X3.799992*%
%ADD19R,1.999996X1.499997*%
%ADD20R,0.701040X1.699260*%
%ADD21R,1.799996X1.099998*%
%ADD22R,1.099998X2.499995*%
%ADD23R,1.206500X1.206500*%
%ADD24R,1.206500X1.206998*%
%ADD25R,1.206500X1.207008*%
%ADD26C,1.574800*%
%ADD27R,2.499995X1.999996*%
%ADD28R,1.574800X1.574800*%
%ADD29R,1.574800X1.575054*%
%ADD30R,1.575054X1.575054*%
%ADD31R,1.575054X1.575003*%
%ADD32R,1.999996X1.999996*%
%ADD33C,1.999996*%

%LPD*%
G54D11*
G01X7368Y24686D02*
G01X5593Y24686D01*
G01X5590Y24688D01*
G54D10*
G01X29768Y17526D02*
G01X30734Y17526D01*
G01X31496Y18288D01*
G01X31496Y18796D01*
G01X31750Y19050D01*
G01X35052Y19050D01*
G01X35306Y18796D01*
G01X35306Y17449D01*
G01X35483Y17272D01*
G01X29768Y16725D02*
G01X32550Y16725D01*
G01X33096Y17272D01*
G54D11*
G01X29768Y15925D02*
G01X25222Y15925D01*
G01X24384Y16764D01*
G01X21059Y16764D01*
G01X21031Y16736D01*
G01X29768Y14328D02*
G01X26819Y14328D01*
G01X25222Y15925D01*
G01X21031Y14338D02*
G01X25539Y14338D01*
G01X26416Y13462D01*
G01X29702Y13462D01*
G01X29768Y13528D01*
G01X29768Y15125D02*
G01X33921Y15125D01*
G01X34290Y15494D01*
G01X34290Y17272D01*
G01X29768Y13528D02*
G01X33848Y13528D01*
G01X34290Y13970D01*
G01X34290Y15494D01*
G54D10*
G01X74272Y29370D02*
G01X68072Y29370D01*
G54D12*
G01X3556Y10414D02*
G01X3556Y4318D01*
G01X6604Y1270D01*
G01X70612Y1270D01*
G01X73914Y4572D01*
G01X73914Y10922D01*
G01X3556Y17272D02*
G01X3556Y29718D01*
G01X5334Y31496D01*
G01X62992Y31496D01*
G01X64770Y29718D01*
G01X64770Y18288D01*
G01X63246Y16764D01*
G01X57023Y16764D01*
G01X56896Y16637D01*
G54D11*
G01X68072Y29370D02*
G01X64930Y29370D01*
G01X64262Y28702D01*
G54D12*
G01X56896Y14097D02*
G01X64389Y14097D01*
G01X66548Y16256D01*
G01X70866Y16256D01*
G01X73914Y19558D01*
G54D10*
G01X74272Y25669D02*
G01X68072Y25669D01*
G01X68072Y25669D02*
G01X68072Y22606D01*
G01X68326Y22352D01*
G01X56896Y11557D02*
G01X68199Y11557D01*
G01X68326Y11684D01*
G01X63703Y9906D02*
G01X66548Y9906D01*
G01X68072Y11430D01*
G01X68326Y11684D01*
G54D11*
G01X8686Y16776D02*
G01X4813Y16776D01*
G01X3556Y18034D01*
G01X8686Y12176D02*
G01X5318Y12176D01*
G01X3556Y10414D01*
G01X21031Y15135D02*
G01X19916Y15135D01*
G01X19050Y16002D01*
G01X17272Y16002D01*
G01X21031Y16736D02*
G01X15212Y16736D01*
G01X14986Y16510D01*
G01X14986Y14478D01*
G01X14986Y14478D02*
G01X14986Y9906D01*
G01X17780Y7112D01*
G01X46228Y5588D02*
G01X43942Y3302D01*
G01X19812Y3302D01*
G01X17780Y5334D01*
G01X17780Y7112D01*
G54D10*
G01X21031Y12738D02*
G01X20027Y12738D01*
G01X19558Y13208D01*
G01X19558Y13970D01*
G01X19050Y14478D01*
G01X17780Y14478D01*
G01X21031Y11938D02*
G01X18288Y11938D01*
G01X17780Y12446D01*
G01X22595Y10363D02*
G01X18237Y10363D01*
G01X17780Y9906D01*
G01X48260Y5334D02*
G01X48260Y5588D01*
G01X49784Y5588D01*
G01X50292Y6096D01*
G01X50292Y7366D01*
G01X49784Y7874D01*
G01X48511Y7874D01*
G01X9182Y29522D02*
G01X9182Y31487D01*
G01X9190Y31496D01*
G01X10881Y29522D02*
G01X10881Y31382D01*
G01X10995Y31496D01*
G01X12666Y31496D02*
G01X12666Y29607D01*
G01X12580Y29522D01*
G01X24180Y29522D02*
G01X24180Y31344D01*
G01X24029Y31496D01*
G01X25833Y31496D02*
G01X25833Y29568D01*
G01X25880Y29522D01*
G01X27581Y29522D02*
G01X27581Y31372D01*
G01X27705Y31496D01*
G01X38734Y31496D02*
G01X39182Y29522D01*
G01X39182Y29522D01*
G01X40881Y29522D02*
G01X40881Y31354D01*
G01X40739Y31496D01*
G01X42611Y31496D02*
G01X42611Y29553D01*
G01X42580Y29522D01*
G01X54180Y29522D02*
G01X54180Y31423D01*
G01X54108Y31496D01*
G01X55979Y31496D02*
G01X55979Y29622D01*
G01X55880Y29522D01*
G01X57581Y29522D02*
G01X57581Y31493D01*
G01X57583Y31496D01*
G54D11*
G01X33053Y13528D02*
G01X38928Y13528D01*
G01X46228Y20828D01*
G01X46228Y26670D01*
G01X45466Y27432D01*
G01X43180Y27432D01*
G01X42697Y27914D01*
G01X42593Y30032D01*
G54D10*
G01X24206Y19126D02*
G01X24206Y20297D01*
G01X21338Y23164D01*
G01X23406Y19126D02*
G01X23406Y20027D01*
G01X22098Y21336D01*
G01X20828Y21336D01*
G01X19306Y22857D01*
G01X19306Y23164D01*
G01X22606Y19126D02*
G01X22606Y19558D01*
G01X21590Y20574D01*
G01X19558Y20574D01*
G01X17274Y22857D01*
G01X17274Y23164D01*
G01X21031Y17536D02*
G01X21031Y18846D01*
G01X20066Y19812D01*
G01X18288Y19812D01*
G01X15242Y22857D01*
G01X15242Y23164D01*
G01X25006Y19126D02*
G01X25006Y21450D01*
G01X26416Y22860D01*
G01X29923Y22860D01*
G01X30228Y23164D01*
G01X25803Y19126D02*
G01X25803Y20977D01*
G01X26924Y22098D01*
G01X31196Y22098D01*
G01X32260Y23162D01*
G01X26603Y19126D02*
G01X26603Y20507D01*
G01X27432Y21336D01*
G01X32463Y21336D01*
G01X34292Y23164D01*
G01X27404Y19126D02*
G01X27404Y20038D01*
G01X27940Y20574D01*
G01X33733Y20574D01*
G01X36324Y23164D01*
G01X15242Y25146D02*
G01X12936Y25146D01*
G01X12621Y24831D01*
G01X21338Y25146D02*
G01X23893Y25146D01*
G01X24208Y24831D01*
G01X30228Y25146D02*
G01X27924Y25146D01*
G01X27609Y24831D01*
G01X36324Y25146D02*
G01X38879Y25146D01*
G01X39194Y24831D01*
G01X44706Y25146D02*
G01X42908Y25146D01*
G01X42593Y24831D01*
G01X52072Y25146D02*
G01X53865Y25146D01*
G01X54180Y24831D01*
G01X50040Y25146D02*
G01X50040Y26164D01*
G01X50800Y26924D01*
G01X55118Y26924D01*
G01X55626Y26416D01*
G01X55626Y25085D01*
G01X55880Y24831D01*
G01X48008Y25146D02*
G01X48008Y27180D01*
G01X48768Y27940D01*
G01X57150Y27940D01*
G01X57658Y27432D01*
G01X57658Y24907D01*
G01X57581Y24831D01*
G01X29768Y12727D02*
G01X39397Y12727D01*
G01X48006Y21336D01*
G01X48006Y23162D01*
G01X48008Y23164D01*
G01X29768Y11927D02*
G01X39867Y11927D01*
G01X50038Y22098D01*
G01X50038Y23162D01*
G01X50040Y23164D01*
G01X28194Y10363D02*
G01X30429Y10363D01*
G01X31242Y11176D01*
G01X40386Y11176D01*
G01X51308Y22098D01*
G01X51816Y22098D01*
G01X52070Y22352D01*
G01X52070Y23162D01*
G01X52072Y23164D01*
G01X28204Y19126D02*
G01X28204Y19314D01*
G01X28702Y19812D01*
G01X43942Y19812D01*
G01X44704Y20574D01*
G01X44704Y23162D01*
G01X44706Y23164D01*
G01X34292Y25146D02*
G01X34290Y26670D01*
G01X34798Y27178D01*
G01X40386Y27178D01*
G01X40894Y26670D01*
G01X40894Y24831D01*
G01X32260Y25143D02*
G01X32258Y26924D01*
G01X31750Y27432D01*
G01X26416Y27432D01*
G01X25908Y26924D01*
G01X25908Y24831D01*
G01X10922Y24831D02*
G01X10922Y26416D01*
G01X11430Y26924D01*
G01X16764Y26924D01*
G01X17272Y26416D01*
G01X17272Y25148D01*
G01X17274Y25146D01*
G01X19306Y25146D02*
G01X19306Y27429D01*
G01X18796Y27940D01*
G01X9652Y27940D01*
G01X9144Y27432D01*
G01X9144Y24909D01*
G01X9222Y24831D01*
G54D11*
G01X5336Y26670D02*
G01X3711Y26670D01*
G01X3556Y26825D01*
G01X41148Y7112D02*
G01X41148Y10668D01*
G01X47244Y16764D01*
G01X56769Y16764D01*
G01X56896Y16637D01*
G01X41148Y7112D02*
G01X40640Y7112D01*
G01X45466Y11938D01*
G01X51816Y11938D01*
G01X54610Y9144D01*
G01X60962Y9144D01*
G01X61724Y9903D01*
G54D10*
G01X7368Y26667D02*
G01X5593Y26667D01*
G01X5590Y26670D01*
G01X27393Y10363D02*
G01X27393Y9182D01*
G01X27940Y8636D01*
G01X29464Y8636D01*
G01X29718Y8382D01*
G01X29718Y7366D01*
G01X29972Y7112D01*
G01X26593Y10363D02*
G01X26593Y7188D01*
G01X26670Y7112D01*
G01X25793Y10363D02*
G01X25793Y9029D01*
G01X25146Y8382D01*
G01X25146Y5842D01*
G01X25654Y5334D01*
G01X32512Y5334D01*
G01X34290Y7112D01*
G01X41148Y7112D02*
G01X41148Y5588D01*
G01X39878Y4318D01*
G01X24691Y4318D01*
G01X23370Y5638D01*
G01X21083Y5637D02*
G01X23371Y5637D01*
G01X23371Y7618D02*
G01X23371Y7623D01*
G01X24892Y9144D01*
G01X25146Y10213D01*
G01X24996Y10363D01*
G01X21083Y7618D02*
G01X21083Y7875D01*
G01X22098Y8890D01*
G01X23622Y8890D01*
G01X24130Y9398D01*
G01X24130Y10297D01*
G01X24196Y10363D01*
G54D11*
G01X14986Y14478D02*
G01X13208Y14478D01*
G01X12446Y15240D01*
G01X12446Y16764D01*
G01X10668Y18542D01*
G01X8128Y18542D01*
G01X7366Y19304D01*
G01X7366Y24686D01*
G01X7367Y24687D01*
G01X12446Y16764D02*
G01X12446Y18542D01*
G01X10414Y20574D01*
G01X68326Y22352D02*
G01X69342Y22352D01*
G01X70358Y23368D01*
G01X63704Y9904D02*
G01X63704Y8685D01*
G01X64770Y7620D01*
G01X53848Y7112D02*
G01X53713Y7112D01*
G01X55745Y9144D01*
G01X11990Y7872D02*
G01X11990Y13917D01*
G01X10922Y14986D01*
G01X10922Y16256D01*
G01X10414Y16764D01*
G01X8699Y16764D01*
G01X8685Y16777D01*
G01X15494Y3302D02*
G01X15494Y3810D01*
G01X13971Y5332D01*
G01X13971Y5332D02*
G01X13971Y7872D01*
G01X11990Y5332D02*
G01X5282Y5332D01*
G01X3556Y7058D01*
G01X41148Y7112D02*
G01X45463Y7112D01*
G01X46226Y7875D01*
G54D13*
G01X28194Y9763D02*
G01X28194Y10962D01*
G01X27393Y9763D02*
G01X27393Y10962D01*
G01X26593Y9763D02*
G01X26593Y10962D01*
G01X25793Y9763D02*
G01X25793Y10962D01*
G01X24996Y9763D02*
G01X24996Y10962D01*
G01X24196Y9763D02*
G01X24196Y10962D01*
G01X23395Y9763D02*
G01X23395Y10962D01*
G01X22595Y9763D02*
G01X22595Y10962D01*
G01X21630Y11938D02*
G01X20431Y11938D01*
G01X21630Y12738D02*
G01X20431Y12738D01*
G01X21630Y13538D02*
G01X20431Y13538D01*
G01X21630Y14338D02*
G01X20431Y14338D01*
G01X21630Y15135D02*
G01X20431Y15135D01*
G01X21630Y15935D02*
G01X20431Y15935D01*
G01X21630Y16736D02*
G01X20431Y16736D01*
G01X21630Y17536D02*
G01X20431Y17536D01*
G01X22606Y18526D02*
G01X22606Y19725D01*
G01X23406Y18526D02*
G01X23406Y19725D01*
G01X24206Y18526D02*
G01X24206Y19725D01*
G01X25006Y18526D02*
G01X25006Y19725D01*
G01X25803Y18526D02*
G01X25803Y19725D01*
G01X26603Y18526D02*
G01X26603Y19725D01*
G01X27404Y18526D02*
G01X27404Y19725D01*
G01X28204Y18526D02*
G01X28204Y19725D01*
G01X30368Y17526D02*
G01X29169Y17526D01*
G01X30368Y16725D02*
G01X29169Y16725D01*
G01X30368Y15925D02*
G01X29169Y15925D01*
G01X30368Y15125D02*
G01X29169Y15125D01*
G01X30368Y14328D02*
G01X29169Y14328D01*
G01X30368Y13528D02*
G01X29169Y13528D01*
G01X30368Y12727D02*
G01X29169Y12727D01*
G01X30368Y11927D02*
G01X29169Y11927D01*
G54D14*
G01X68580Y32257D02*
G01X68580Y31168D01*
G01X68580Y32257D02*
G01X69047Y32257D01*
G01X69202Y32207D01*
G01X69255Y32156D01*
G01X69306Y32052D01*
G01X69306Y31894D01*
G01X69255Y31790D01*
G01X69202Y31739D01*
G01X69047Y31686D01*
G01X68580Y31686D01*
G01X69649Y32257D02*
G01X69910Y31168D01*
G01X70170Y32257D02*
G01X69910Y31168D01*
G01X70170Y32257D02*
G01X70429Y31168D01*
G01X70688Y32257D02*
G01X70429Y31168D01*
G01X71031Y32257D02*
G01X71031Y31168D01*
G01X71031Y32257D02*
G01X71501Y32257D01*
G01X71655Y32207D01*
G01X71706Y32156D01*
G01X71760Y32052D01*
G01X71760Y31948D01*
G01X71706Y31843D01*
G01X71655Y31790D01*
G01X71501Y31739D01*
G01X71031Y31739D01*
G01X71396Y31739D02*
G01X71760Y31168D01*
G01X72415Y32257D02*
G01X72311Y32207D01*
G01X72207Y32103D01*
G01X72153Y31998D01*
G01X72102Y31843D01*
G01X72102Y31584D01*
G01X72153Y31427D01*
G01X72207Y31323D01*
G01X72311Y31219D01*
G01X72415Y31168D01*
G01X72621Y31168D01*
G01X72725Y31219D01*
G01X72829Y31323D01*
G01X72882Y31427D01*
G01X72933Y31584D01*
G01X72933Y31843D01*
G01X72882Y31998D01*
G01X72829Y32103D01*
G01X72725Y32207D01*
G01X72621Y32257D01*
G01X72415Y32257D01*
G01X73276Y32257D02*
G01X73276Y31168D01*
G01X73276Y32257D02*
G01X74002Y31168D01*
G01X74002Y32257D02*
G01X74002Y31168D01*
G54D15*
G01X52392Y4739D02*
G01X52392Y4808D01*
G01X52461Y4942D01*
G01X52529Y5011D01*
G01X52664Y5080D01*
G01X52938Y5080D01*
G01X53073Y5011D01*
G01X53141Y4942D01*
G01X53210Y4808D01*
G01X53210Y4671D01*
G01X53141Y4533D01*
G01X53004Y4330D01*
G01X52324Y3647D01*
G01X53279Y3647D01*
G01X54137Y5080D02*
G01X53931Y5011D01*
G01X53797Y4808D01*
G01X53728Y4467D01*
G01X53728Y4262D01*
G01X53797Y3921D01*
G01X53931Y3716D01*
G01X54137Y3647D01*
G01X54274Y3647D01*
G01X54477Y3716D01*
G01X54615Y3921D01*
G01X54683Y4262D01*
G01X54683Y4467D01*
G01X54615Y4808D01*
G01X54477Y5011D01*
G01X54274Y5080D01*
G01X54137Y5080D01*
G01X55133Y4808D02*
G01X55270Y4876D01*
G01X55473Y5080D01*
G01X55473Y3647D01*
G01X56266Y5080D02*
G01X56060Y5011D01*
G01X55991Y4876D01*
G01X55991Y4739D01*
G01X56060Y4602D01*
G01X56197Y4533D01*
G01X56469Y4467D01*
G01X56675Y4399D01*
G01X56809Y4262D01*
G01X56878Y4124D01*
G01X56878Y3921D01*
G01X56809Y3784D01*
G01X56741Y3716D01*
G01X56537Y3647D01*
G01X56266Y3647D01*
G01X56060Y3716D01*
G01X55991Y3784D01*
G01X55923Y3921D01*
G01X55923Y4124D01*
G01X55991Y4262D01*
G01X56128Y4399D01*
G01X56332Y4467D01*
G01X56606Y4533D01*
G01X56741Y4602D01*
G01X56809Y4739D01*
G01X56809Y4876D01*
G01X56741Y5011D01*
G01X56537Y5080D01*
G01X56266Y5080D01*
G01X57327Y4262D02*
G01X58554Y4262D01*
G01X59415Y5080D02*
G01X59209Y5011D01*
G01X59072Y4808D01*
G01X59006Y4467D01*
G01X59006Y4262D01*
G01X59072Y3921D01*
G01X59209Y3716D01*
G01X59415Y3647D01*
G01X59550Y3647D01*
G01X59756Y3716D01*
G01X59893Y3921D01*
G01X59959Y4262D01*
G01X59959Y4467D01*
G01X59893Y4808D01*
G01X59756Y5011D01*
G01X59550Y5080D01*
G01X59415Y5080D01*
G01X61229Y4876D02*
G01X61160Y5011D01*
G01X60954Y5080D01*
G01X60820Y5080D01*
G01X60614Y5011D01*
G01X60477Y4808D01*
G01X60411Y4467D01*
G01X60411Y4124D01*
G01X60477Y3853D01*
G01X60614Y3716D01*
G01X60820Y3647D01*
G01X60888Y3647D01*
G01X61092Y3716D01*
G01X61229Y3853D01*
G01X61297Y4056D01*
G01X61297Y4124D01*
G01X61229Y4330D01*
G01X61092Y4467D01*
G01X60888Y4533D01*
G01X60820Y4533D01*
G01X60614Y4467D01*
G01X60477Y4330D01*
G01X60411Y4124D01*
G01X61747Y4262D02*
G01X62974Y4262D01*
G01X63832Y5080D02*
G01X63629Y5011D01*
G01X63492Y4808D01*
G01X63423Y4467D01*
G01X63423Y4262D01*
G01X63492Y3921D01*
G01X63629Y3716D01*
G01X63832Y3647D01*
G01X63969Y3647D01*
G01X64173Y3716D01*
G01X64310Y3921D01*
G01X64378Y4262D01*
G01X64378Y4467D01*
G01X64310Y4808D01*
G01X64173Y5011D01*
G01X63969Y5080D01*
G01X63832Y5080D01*
G01X65646Y5080D02*
G01X64965Y5080D01*
G01X64897Y4467D01*
G01X64965Y4533D01*
G01X65168Y4602D01*
G01X65374Y4602D01*
G01X65577Y4533D01*
G01X65714Y4399D01*
G01X65783Y4193D01*
G01X65783Y4056D01*
G01X65714Y3853D01*
G01X65577Y3716D01*
G01X65374Y3647D01*
G01X65168Y3647D01*
G01X64965Y3716D01*
G01X64897Y3784D01*
G01X64828Y3921D01*
G01X67282Y4602D02*
G01X67691Y3647D01*
G01X68102Y4602D02*
G01X67691Y3647D01*
G01X69369Y5080D02*
G01X68686Y5080D01*
G01X68620Y4467D01*
G01X68686Y4533D01*
G01X68892Y4602D01*
G01X69095Y4602D01*
G01X69301Y4533D01*
G01X69438Y4399D01*
G01X69504Y4193D01*
G01X69504Y4056D01*
G01X69438Y3853D01*
G01X69301Y3716D01*
G01X69095Y3647D01*
G01X68892Y3647D01*
G01X68686Y3716D01*
G01X68620Y3784D01*
G01X68552Y3921D01*
G54D14*
G01X13068Y21082D02*
G01X12550Y21082D01*
G01X12496Y20614D01*
G01X12550Y20667D01*
G01X12705Y20718D01*
G01X12862Y20718D01*
G01X13017Y20667D01*
G01X13121Y20563D01*
G01X13172Y20408D01*
G01X13172Y20304D01*
G01X13121Y20147D01*
G01X13017Y20043D01*
G01X12862Y19992D01*
G01X12705Y19992D01*
G01X12550Y20043D01*
G01X12496Y20096D01*
G01X12446Y20200D01*
G01X13515Y21082D02*
G01X13931Y19992D01*
G01X14348Y21082D02*
G01X13931Y19992D01*
G01X56052Y7391D02*
G01X56009Y7482D01*
G01X55918Y7574D01*
G01X55826Y7620D01*
G01X55643Y7620D01*
G01X55554Y7574D01*
G01X55463Y7482D01*
G01X55417Y7391D01*
G01X55372Y7256D01*
G01X55372Y7028D01*
G01X55417Y6891D01*
G01X55463Y6802D01*
G01X55554Y6710D01*
G01X55643Y6664D01*
G01X55826Y6664D01*
G01X55918Y6710D01*
G01X56009Y6802D01*
G01X56052Y6891D01*
G01X56052Y7028D01*
G01X55826Y7028D02*
G01X56052Y7028D01*
G01X56354Y7620D02*
G01X56354Y6664D01*
G01X56354Y7620D02*
G01X56989Y6664D01*
G01X56989Y7620D02*
G01X56989Y6664D01*
G01X57289Y7620D02*
G01X57289Y6664D01*
G01X57289Y7620D02*
G01X57607Y7620D01*
G01X57744Y7574D01*
G01X57835Y7482D01*
G01X57881Y7391D01*
G01X57927Y7256D01*
G01X57927Y7028D01*
G01X57881Y6891D01*
G01X57835Y6802D01*
G01X57744Y6710D01*
G01X57607Y6664D01*
G01X57289Y6664D01*
G01X66294Y7874D02*
G01X66294Y6918D01*
G01X66294Y7874D02*
G01X66657Y6918D01*
G01X67020Y7874D02*
G01X66657Y6918D01*
G01X67020Y7874D02*
G01X67020Y6918D01*
G01X67957Y7736D02*
G01X67866Y7828D01*
G01X67729Y7874D01*
G01X67548Y7874D01*
G01X67411Y7828D01*
G01X67320Y7736D01*
G01X67320Y7645D01*
G01X67365Y7553D01*
G01X67411Y7510D01*
G01X67503Y7465D01*
G01X67774Y7373D01*
G01X67866Y7327D01*
G01X67911Y7282D01*
G01X67957Y7190D01*
G01X67957Y7056D01*
G01X67866Y6964D01*
G01X67729Y6918D01*
G01X67548Y6918D01*
G01X67411Y6964D01*
G01X67320Y7056D01*
G01X68257Y7874D02*
G01X68257Y6918D01*
G01X68257Y7874D02*
G01X68849Y7874D01*
G01X68257Y7419D02*
G01X68620Y7419D01*
G01X69466Y7874D02*
G01X69466Y6918D01*
G01X69148Y7874D02*
G01X69783Y7874D01*
G01X71882Y23876D02*
G01X71882Y22786D01*
G01X71882Y23876D02*
G01X72349Y23876D01*
G01X72504Y23825D01*
G01X72557Y23774D01*
G01X72608Y23670D01*
G01X72608Y23566D01*
G01X72557Y23461D01*
G01X72504Y23408D01*
G01X72349Y23357D01*
G01X71882Y23357D02*
G01X72349Y23357D01*
G01X72504Y23304D01*
G01X72557Y23253D01*
G01X72608Y23149D01*
G01X72608Y22994D01*
G01X72557Y22890D01*
G01X72504Y22837D01*
G01X72349Y22786D01*
G01X71882Y22786D01*
G01X73317Y23876D02*
G01X73317Y22786D01*
G01X72951Y23876D02*
G01X73680Y23876D01*
G01X74023Y23876D02*
G01X74023Y22786D01*
G01X74023Y23876D02*
G01X74749Y22786D01*
G01X74749Y23876D02*
G01X74749Y22786D01*

%LPD*%
G36*
G01X57889Y21590D02*
G01X57739Y21590D01*
G01X57739Y22339D01*
G01X57513Y22339D01*
G01X57513Y22489D01*
G01X58115Y22489D01*
G01X58115Y22339D01*
G01X57889Y22339D01*
G01X57889Y21590D01*
G37*

%LPC*%

%LPD*%
G36*
G01X56824Y21590D02*
G01X56675Y21590D01*
G01X56675Y22489D01*
G01X57213Y22489D01*
G01X57213Y22352D01*
G01X56824Y22352D01*
G01X56824Y22115D01*
G01X57157Y22115D01*
G01X57157Y21976D01*
G01X56824Y21976D01*
G01X56824Y21590D01*
G37*

%LPC*%

%LPD*%
G36*
G01X56210Y21590D02*
G01X55902Y21590D01*
G01X55745Y21739D01*
G01X55745Y22339D01*
G01X55902Y22489D01*
G01X56215Y22489D01*
G01X56372Y22339D01*
G01X56372Y21739D01*
G01X56210Y21590D01*
G37*

%LPC*%
G36*
G01X55895Y21795D02*
G01X55966Y21732D01*
G01X56151Y21732D01*
G01X56215Y21795D01*
G01X56215Y22280D01*
G01X56151Y22352D01*
G01X55966Y22352D01*
G01X55895Y22280D01*
G01X55895Y21795D01*
G37*

%LPD*%
G36*
G01X55295Y21590D02*
G01X54988Y21590D01*
G01X54838Y21739D01*
G01X54838Y21859D01*
G01X54988Y21859D01*
G01X54988Y21800D01*
G01X55049Y21739D01*
G01X55234Y21739D01*
G01X55295Y21800D01*
G01X55295Y21902D01*
G01X55234Y21965D01*
G01X54988Y21965D01*
G01X54838Y22115D01*
G01X54838Y22339D01*
G01X54988Y22489D01*
G01X55295Y22489D01*
G01X55445Y22339D01*
G01X55445Y22227D01*
G01X55295Y22227D01*
G01X55295Y22278D01*
G01X55234Y22339D01*
G01X55049Y22339D01*
G01X54988Y22278D01*
G01X54988Y22176D01*
G01X55049Y22115D01*
G01X55295Y22115D01*
G01X55445Y21965D01*
G01X55445Y21739D01*
G01X55295Y21590D01*
G37*

%LPC*%

%LPD*%
G36*
G01X54147Y21590D02*
G01X53997Y21590D01*
G01X53997Y22489D01*
G01X54538Y22489D01*
G01X54538Y22352D01*
G01X54147Y22352D01*
G01X54147Y22115D01*
G01X54483Y22115D01*
G01X54483Y21976D01*
G01X54147Y21976D01*
G01X54147Y21590D01*
G37*

%LPC*%

%LPD*%
G01X33274Y9906D02*
G01X33274Y8950D01*
G01X33274Y9906D02*
G01X33682Y9906D01*
G01X33820Y9860D01*
G01X33865Y9814D01*
G01X33911Y9723D01*
G01X33911Y9631D01*
G01X33865Y9542D01*
G01X33820Y9497D01*
G01X33682Y9451D01*
G01X33274Y9451D01*
G01X33591Y9451D02*
G01X33911Y8950D01*
G01X34846Y9768D02*
G01X34754Y9860D01*
G01X34620Y9906D01*
G01X34437Y9906D01*
G01X34300Y9860D01*
G01X34211Y9768D01*
G01X34211Y9677D01*
G01X34256Y9585D01*
G01X34300Y9542D01*
G01X34391Y9497D01*
G01X34665Y9405D01*
G01X34754Y9359D01*
G01X34800Y9314D01*
G01X34846Y9222D01*
G01X34846Y9088D01*
G01X34754Y8996D01*
G01X34620Y8950D01*
G01X34437Y8950D01*
G01X34300Y8996D01*
G01X34211Y9088D01*
G01X35466Y9906D02*
G01X35466Y8950D01*
G01X35145Y9906D02*
G01X35783Y9906D01*
G01X42336Y5359D02*
G01X42293Y5450D01*
G01X42202Y5542D01*
G01X42110Y5588D01*
G01X41927Y5588D01*
G01X41838Y5542D01*
G01X41747Y5450D01*
G01X41701Y5359D01*
G01X41656Y5224D01*
G01X41656Y4996D01*
G01X41701Y4859D01*
G01X41747Y4770D01*
G01X41838Y4678D01*
G01X41927Y4632D01*
G01X42110Y4632D01*
G01X42202Y4678D01*
G01X42293Y4770D01*
G01X42336Y4859D01*
G01X42336Y4996D01*
G01X42110Y4996D02*
G01X42336Y4996D01*
G01X42638Y5588D02*
G01X42638Y4632D01*
G01X42638Y5588D02*
G01X43273Y4632D01*
G01X43273Y5588D02*
G01X43273Y4632D01*
G01X43573Y5588D02*
G01X43573Y4632D01*
G01X43573Y5588D02*
G01X43891Y5588D01*
G01X44028Y5542D01*
G01X44119Y5450D01*
G01X44165Y5359D01*
G01X44211Y5224D01*
G01X44211Y4996D01*
G01X44165Y4859D01*
G01X44119Y4770D01*
G01X44028Y4678D01*
G01X43891Y4632D01*
G01X43573Y4632D01*
G01X10922Y3810D02*
G01X11285Y2854D01*
G01X11648Y3810D02*
G01X11285Y2854D01*
G01X12222Y3810D02*
G01X12131Y3764D01*
G01X12039Y3672D01*
G01X11993Y3581D01*
G01X11948Y3446D01*
G01X11948Y3218D01*
G01X11993Y3081D01*
G01X12039Y2992D01*
G01X12131Y2900D01*
G01X12222Y2854D01*
G01X12402Y2854D01*
G01X12494Y2900D01*
G01X12585Y2992D01*
G01X12631Y3081D01*
G01X12677Y3218D01*
G01X12677Y3446D01*
G01X12631Y3581D01*
G01X12585Y3672D01*
G01X12494Y3764D01*
G01X12402Y3810D01*
G01X12222Y3810D01*
G01X12976Y3810D02*
G01X12976Y2854D01*
G01X12976Y2854D02*
G01X13522Y2854D01*
G01X14140Y3810D02*
G01X14140Y2854D01*
G01X13822Y3810D02*
G01X14457Y3810D01*
G01X14224Y30010D02*
G01X14224Y29055D01*
G01X14224Y29055D02*
G01X14770Y29055D01*
G01X15069Y30010D02*
G01X15069Y29055D01*
G01X15069Y30010D02*
G01X15659Y30010D01*
G01X15069Y29555D02*
G01X15433Y29555D01*
G01X15069Y29055D02*
G01X15659Y29055D01*
G01X15961Y30010D02*
G01X15961Y29055D01*
G01X15961Y30010D02*
G01X16278Y30010D01*
G01X16416Y29964D01*
G01X16504Y29872D01*
G01X16550Y29781D01*
G01X16596Y29646D01*
G01X16596Y29418D01*
G01X16550Y29281D01*
G01X16504Y29192D01*
G01X16416Y29100D01*
G01X16278Y29055D01*
G01X15961Y29055D01*
G01X16896Y29827D02*
G01X16987Y29872D01*
G01X17124Y30010D01*
G01X17124Y29055D01*
G01X29210Y30010D02*
G01X29210Y29055D01*
G01X29210Y29055D02*
G01X29756Y29055D01*
G01X30055Y30010D02*
G01X30055Y29055D01*
G01X30055Y30010D02*
G01X30645Y30010D01*
G01X30055Y29555D02*
G01X30419Y29555D01*
G01X30055Y29055D02*
G01X30645Y29055D01*
G01X30947Y30010D02*
G01X30947Y29055D01*
G01X30947Y30010D02*
G01X31264Y30010D01*
G01X31402Y29964D01*
G01X31490Y29872D01*
G01X31536Y29781D01*
G01X31582Y29646D01*
G01X31582Y29418D01*
G01X31536Y29281D01*
G01X31490Y29192D01*
G01X31402Y29100D01*
G01X31264Y29055D01*
G01X30947Y29055D01*
G01X31927Y29781D02*
G01X31927Y29827D01*
G01X31973Y29918D01*
G01X32019Y29964D01*
G01X32110Y30010D01*
G01X32291Y30010D01*
G01X32382Y29964D01*
G01X32428Y29918D01*
G01X32473Y29827D01*
G01X32473Y29735D01*
G01X32428Y29646D01*
G01X32336Y29509D01*
G01X31882Y29055D01*
G01X32519Y29055D01*
G01X44196Y30010D02*
G01X44196Y29055D01*
G01X44196Y29055D02*
G01X44742Y29055D01*
G01X45041Y30010D02*
G01X45041Y29055D01*
G01X45041Y30010D02*
G01X45631Y30010D01*
G01X45041Y29555D02*
G01X45405Y29555D01*
G01X45041Y29055D02*
G01X45631Y29055D01*
G01X45933Y30010D02*
G01X45933Y29055D01*
G01X45933Y30010D02*
G01X46250Y30010D01*
G01X46388Y29964D01*
G01X46476Y29872D01*
G01X46522Y29781D01*
G01X46568Y29646D01*
G01X46568Y29418D01*
G01X46522Y29281D01*
G01X46476Y29192D01*
G01X46388Y29100D01*
G01X46250Y29055D01*
G01X45933Y29055D01*
G01X46959Y30010D02*
G01X47459Y30010D01*
G01X47188Y29646D01*
G01X47322Y29646D01*
G01X47414Y29601D01*
G01X47459Y29555D01*
G01X47505Y29418D01*
G01X47505Y29326D01*
G01X47459Y29192D01*
G01X47368Y29100D01*
G01X47231Y29055D01*
G01X47096Y29055D01*
G01X46959Y29100D01*
G01X46913Y29146D01*
G01X46868Y29237D01*
G01X59182Y30010D02*
G01X59182Y29055D01*
G01X59182Y29055D02*
G01X59728Y29055D01*
G01X60027Y30010D02*
G01X60027Y29055D01*
G01X60027Y30010D02*
G01X60617Y30010D01*
G01X60027Y29555D02*
G01X60391Y29555D01*
G01X60027Y29055D02*
G01X60617Y29055D01*
G01X60919Y30010D02*
G01X60919Y29055D01*
G01X60919Y30010D02*
G01X61236Y30010D01*
G01X61374Y29964D01*
G01X61462Y29872D01*
G01X61508Y29781D01*
G01X61554Y29646D01*
G01X61554Y29418D01*
G01X61508Y29281D01*
G01X61462Y29192D01*
G01X61374Y29100D01*
G01X61236Y29055D01*
G01X60919Y29055D01*
G01X62308Y30010D02*
G01X61854Y29372D01*
G01X62537Y29372D01*
G01X62308Y30010D02*
G01X62308Y29055D01*
G01X38900Y18288D02*
G01X38717Y18196D01*
G01X38536Y18013D01*
G01X38445Y17833D01*
G01X38354Y17559D01*
G01X38354Y17104D01*
G01X38445Y16832D01*
G01X38536Y16649D01*
G01X38717Y16469D01*
G01X38900Y16377D01*
G01X39263Y16377D01*
G01X39443Y16469D01*
G01X39626Y16649D01*
G01X39717Y16832D01*
G01X39809Y17104D01*
G01X39809Y17559D01*
G01X39717Y17833D01*
G01X39626Y18013D01*
G01X39443Y18196D01*
G01X39263Y18288D01*
G01X38900Y18288D01*
G01X39171Y16741D02*
G01X39717Y16195D01*
G01X7874Y8707D02*
G01X7965Y8752D01*
G01X8100Y8890D01*
G01X8100Y7934D01*
G01X8628Y8890D02*
G01X8491Y8844D01*
G01X8445Y8752D01*
G01X8445Y8661D01*
G01X8491Y8569D01*
G01X8582Y8526D01*
G01X8765Y8481D01*
G01X8900Y8435D01*
G01X8991Y8343D01*
G01X9037Y8252D01*
G01X9037Y8117D01*
G01X8991Y8026D01*
G01X8945Y7980D01*
G01X8811Y7934D01*
G01X8628Y7934D01*
G01X8491Y7980D01*
G01X8445Y8026D01*
G01X8402Y8117D01*
G01X8402Y8252D01*
G01X8445Y8343D01*
G01X8536Y8435D01*
G01X8674Y8481D01*
G01X8856Y8526D01*
G01X8945Y8569D01*
G01X8991Y8661D01*
G01X8991Y8752D01*
G01X8945Y8844D01*
G01X8811Y8890D01*
G01X8628Y8890D01*
G01X9611Y8890D02*
G01X9474Y8844D01*
G01X9382Y8707D01*
G01X9337Y8481D01*
G01X9337Y8343D01*
G01X9382Y8117D01*
G01X9474Y7980D01*
G01X9611Y7934D01*
G01X9700Y7934D01*
G01X9837Y7980D01*
G01X9928Y8117D01*
G01X9974Y8343D01*
G01X9974Y8481D01*
G01X9928Y8707D01*
G01X9837Y8844D01*
G01X9700Y8890D01*
G01X9611Y8890D01*
G01X7157Y6883D02*
G01X7157Y6929D01*
G01X7203Y7020D01*
G01X7249Y7066D01*
G01X7338Y7112D01*
G01X7520Y7112D01*
G01X7612Y7066D01*
G01X7658Y7020D01*
G01X7703Y6929D01*
G01X7703Y6837D01*
G01X7658Y6748D01*
G01X7566Y6611D01*
G01X7112Y6156D01*
G01X7749Y6156D01*
G01X8094Y6383D02*
G01X8049Y6339D01*
G01X8094Y6294D01*
G01X8138Y6339D01*
G01X8094Y6383D01*
G01X8483Y6883D02*
G01X8483Y6929D01*
G01X8529Y7020D01*
G01X8575Y7066D01*
G01X8666Y7112D01*
G01X8849Y7112D01*
G01X8938Y7066D01*
G01X8983Y7020D01*
G01X9029Y6929D01*
G01X9029Y6837D01*
G01X8983Y6748D01*
G01X8895Y6611D01*
G01X8440Y6156D01*
G01X9075Y6156D01*
G01X9375Y7112D02*
G01X9375Y6156D01*
G01X10012Y7112D02*
G01X9375Y6474D01*
G01X9603Y6703D02*
G01X10012Y6156D01*
G01X6522Y28981D02*
G01X6479Y29072D01*
G01X6388Y29164D01*
G01X6296Y29210D01*
G01X6113Y29210D01*
G01X6024Y29164D01*
G01X5933Y29072D01*
G01X5887Y28981D01*
G01X5842Y28846D01*
G01X5842Y28618D01*
G01X5887Y28481D01*
G01X5933Y28392D01*
G01X6024Y28300D01*
G01X6113Y28254D01*
G01X6296Y28254D01*
G01X6388Y28300D01*
G01X6479Y28392D01*
G01X6522Y28481D01*
G54D16*
G01X48006Y15494D02*
G01X48006Y14538D01*
G01X48006Y15494D02*
G01X48369Y14538D01*
G01X48732Y15494D02*
G01X48369Y14538D01*
G01X48732Y15494D02*
G01X48732Y14538D01*
G01X49260Y15173D02*
G01X49169Y15130D01*
G01X49077Y15039D01*
G01X49032Y14902D01*
G01X49032Y14810D01*
G01X49077Y14676D01*
G01X49169Y14584D01*
G01X49260Y14538D01*
G01X49397Y14538D01*
G01X49486Y14584D01*
G01X49578Y14676D01*
G01X49623Y14810D01*
G01X49623Y14902D01*
G01X49578Y15039D01*
G01X49486Y15130D01*
G01X49397Y15173D01*
G01X49260Y15173D01*
G01X50424Y15039D02*
G01X50378Y15130D01*
G01X50241Y15173D01*
G01X50106Y15173D01*
G01X49969Y15130D01*
G01X49923Y15039D01*
G01X49969Y14947D01*
G01X50060Y14902D01*
G01X50286Y14856D01*
G01X50378Y14810D01*
G01X50424Y14721D01*
G01X50424Y14676D01*
G01X50378Y14584D01*
G01X50241Y14538D01*
G01X50106Y14538D01*
G01X49969Y14584D01*
G01X49923Y14676D01*
G01X51087Y15494D02*
G01X50998Y15494D01*
G01X50906Y15448D01*
G01X50860Y15311D01*
G01X50860Y14538D01*
G01X50723Y15173D02*
G01X51041Y15173D01*
G01X51386Y14902D02*
G01X51932Y14902D01*
G01X51932Y14993D01*
G01X51887Y15085D01*
G01X51841Y15130D01*
G01X51752Y15173D01*
G01X51615Y15173D01*
G01X51523Y15130D01*
G01X51432Y15039D01*
G01X51386Y14902D01*
G01X51386Y14810D01*
G01X51432Y14676D01*
G01X51523Y14584D01*
G01X51615Y14538D01*
G01X51752Y14538D01*
G01X51841Y14584D01*
G01X51932Y14676D01*
G01X52369Y15494D02*
G01X52369Y14721D01*
G01X52415Y14584D01*
G01X52506Y14538D01*
G01X52595Y14538D01*
G01X52232Y15173D02*
G01X52552Y15173D01*
G54D14*
G01X45974Y4064D02*
G01X45974Y3108D01*
G01X45974Y4064D02*
G01X46382Y4064D01*
G01X46520Y4018D01*
G01X46565Y3972D01*
G01X46611Y3881D01*
G01X46611Y3743D01*
G01X46565Y3655D01*
G01X46520Y3609D01*
G01X46382Y3563D01*
G01X45974Y3563D01*
G01X46911Y4064D02*
G01X47137Y3108D01*
G01X47365Y4064D02*
G01X47137Y3108D01*
G01X47365Y4064D02*
G01X47591Y3108D01*
G01X47820Y4064D02*
G01X47591Y3108D01*
G01X48120Y4064D02*
G01X48120Y3108D01*
G01X48120Y4064D02*
G01X48529Y4064D01*
G01X48663Y4018D01*
G01X48709Y3972D01*
G01X48755Y3881D01*
G01X48755Y3789D01*
G01X48709Y3700D01*
G01X48663Y3655D01*
G01X48529Y3609D01*
G01X48120Y3609D01*
G01X48437Y3609D02*
G01X48755Y3108D01*
G01X46228Y10922D02*
G01X46228Y9966D01*
G01X46228Y10922D02*
G01X46636Y10922D01*
G01X46774Y10876D01*
G01X46819Y10830D01*
G01X46865Y10739D01*
G01X46865Y10647D01*
G01X46819Y10558D01*
G01X46774Y10513D01*
G01X46636Y10467D01*
G01X46228Y10467D01*
G01X46545Y10467D02*
G01X46865Y9966D01*
G01X47165Y10739D02*
G01X47254Y10784D01*
G01X47391Y10922D01*
G01X47391Y9966D01*
G01X47691Y10922D02*
G01X47691Y9966D01*
G01X48328Y10922D02*
G01X47691Y10284D01*
G01X47919Y10513D02*
G01X48328Y9966D01*
G01X48006Y14262D02*
G01X48006Y13307D01*
G01X48643Y14262D02*
G01X48643Y13307D01*
G01X48006Y13807D02*
G01X48643Y13807D01*
G01X48943Y13670D02*
G01X49486Y13670D01*
G01X49486Y13761D01*
G01X49441Y13853D01*
G01X49397Y13898D01*
G01X49306Y13942D01*
G01X49169Y13942D01*
G01X49077Y13898D01*
G01X48988Y13807D01*
G01X48943Y13670D01*
G01X48943Y13578D01*
G01X48988Y13444D01*
G01X49077Y13352D01*
G01X49169Y13307D01*
G01X49306Y13307D01*
G01X49397Y13352D01*
G01X49486Y13444D01*
G01X49789Y13942D02*
G01X49789Y13307D01*
G01X49789Y13670D02*
G01X49832Y13807D01*
G01X49923Y13898D01*
G01X50015Y13942D01*
G01X50152Y13942D01*
G01X50452Y13670D02*
G01X50998Y13670D01*
G01X50998Y13761D01*
G01X50952Y13853D01*
G01X50906Y13898D01*
G01X50815Y13942D01*
G01X50678Y13942D01*
G01X50586Y13898D01*
G01X50497Y13807D01*
G01X50452Y13670D01*
G01X50452Y13578D01*
G01X50497Y13444D01*
G01X50586Y13352D01*
G01X50678Y13307D01*
G01X50815Y13307D01*
G01X50906Y13352D01*
G01X50998Y13444D01*

%LPD*%
G36*
G01X61912Y20320D02*
G01X61762Y20320D01*
G01X61762Y21219D01*
G01X61912Y21219D01*
G01X62212Y20645D01*
G01X62212Y21219D01*
G01X62362Y21219D01*
G01X62362Y20320D01*
G01X62212Y20320D01*
G01X61912Y20894D01*
G01X61912Y20320D01*
G37*

%LPC*%

%LPD*%
G36*
G01X61297Y20320D02*
G01X60990Y20320D01*
G01X60833Y20469D01*
G01X60833Y21069D01*
G01X60990Y21219D01*
G01X61305Y21219D01*
G01X61462Y21069D01*
G01X61462Y20469D01*
G01X61297Y20320D01*
G37*

%LPC*%
G36*
G01X60982Y20525D02*
G01X61056Y20462D01*
G01X61239Y20462D01*
G01X61305Y20525D01*
G01X61305Y21010D01*
G01X61239Y21082D01*
G01X61056Y21082D01*
G01X60982Y21010D01*
G01X60982Y20525D01*
G37*

%LPD*%
G36*
G01X60533Y20320D02*
G01X60380Y20320D01*
G01X60380Y21219D01*
G01X60533Y21219D01*
G01X60533Y20320D01*
G37*

%LPC*%

%LPD*%
G36*
G01X59855Y20320D02*
G01X59705Y20320D01*
G01X59705Y21069D01*
G01X59481Y21069D01*
G01X59481Y21219D01*
G01X60081Y21219D01*
G01X60081Y21069D01*
G01X59855Y21069D01*
G01X59855Y20320D01*
G37*

%LPC*%

%LPD*%
G36*
G01X58120Y20320D02*
G01X57820Y20320D01*
G01X57670Y20469D01*
G01X57670Y21219D01*
G01X57820Y21219D01*
G01X57820Y20530D01*
G01X57884Y20469D01*
G01X58059Y20469D01*
G01X58120Y20530D01*
G01X58120Y21219D01*
G01X58272Y21219D01*
G01X58272Y20469D01*
G01X58120Y20320D01*
G37*

%LPC*%

%LPD*%
G36*
G01X57233Y20320D02*
G01X56761Y20320D01*
G01X56761Y21219D01*
G01X57246Y21219D01*
G01X57370Y21079D01*
G01X57370Y20457D01*
G01X57233Y20320D01*
G37*

%LPC*%
G36*
G01X56911Y21082D02*
G01X56911Y20459D01*
G01X57165Y20459D01*
G01X57228Y20525D01*
G01X57228Y21010D01*
G01X57165Y21082D01*
G01X56911Y21082D01*
G37*

%LPD*%
G36*
G01X56299Y20320D02*
G01X55991Y20320D01*
G01X55834Y20469D01*
G01X55834Y21069D01*
G01X55991Y21219D01*
G01X56304Y21219D01*
G01X56461Y21069D01*
G01X56461Y20469D01*
G01X56299Y20320D01*
G37*

%LPC*%
G36*
G01X55984Y20525D02*
G01X56055Y20462D01*
G01X56240Y20462D01*
G01X56304Y20525D01*
G01X56304Y21010D01*
G01X56240Y21082D01*
G01X56055Y21082D01*
G01X55984Y21010D01*
G01X55984Y20525D01*
G37*

%LPD*%
G36*
G01X55057Y20320D02*
G01X54907Y20320D01*
G01X54907Y21219D01*
G01X55369Y21219D01*
G01X55506Y21084D01*
G01X55506Y20838D01*
G01X55384Y20716D01*
G01X55534Y20320D01*
G01X55369Y20320D01*
G01X55219Y20701D01*
G01X55057Y20701D01*
G01X55057Y20320D01*
G37*

%LPC*%
G36*
G01X55057Y21069D02*
G01X55057Y20838D01*
G01X55293Y20838D01*
G01X55377Y20919D01*
G01X55377Y21003D01*
G01X55308Y21069D01*
G01X55057Y21069D01*
G37*

%LPD*%
G36*
G01X54147Y20320D02*
G01X53997Y20320D01*
G01X53997Y21219D01*
G01X54457Y21219D01*
G01X54607Y21069D01*
G01X54607Y20845D01*
G01X54449Y20695D01*
G01X54147Y20695D01*
G01X54147Y20320D01*
G37*

%LPC*%
G36*
G01X54147Y21069D02*
G01X54147Y20845D01*
G01X54419Y20845D01*
G01X54457Y20906D01*
G01X54457Y21008D01*
G01X54419Y21069D01*
G01X54147Y21069D01*
G37*

%LPD*%
G36*
G01X59042Y20322D02*
G01X58712Y20322D01*
G01X58572Y20459D01*
G01X58572Y21082D01*
G01X58712Y21219D01*
G01X59055Y21219D01*
G01X59179Y21094D01*
G01X59179Y20952D01*
G01X59042Y20952D01*
G01X59042Y21010D01*
G01X58994Y21082D01*
G01X58793Y21082D01*
G01X58722Y21010D01*
G01X58722Y20523D01*
G01X58793Y20474D01*
G01X58994Y20474D01*
G01X59042Y20523D01*
G01X59042Y20607D01*
G01X59179Y20607D01*
G01X59179Y20459D01*
G01X59042Y20322D01*
G37*

%LPC*%

%LPD*%
G54D17*
G01X64770Y7620D03*
G01X70358Y23368D03*
G54D18*
G01X14986Y14478D03*
G54D19*
G01X8685Y14478D03*
G01X8685Y12178D03*
G01X8685Y16777D03*
G54D20*
G01X33096Y17270D03*
G01X34290Y17270D03*
G01X35483Y17270D03*
G54D21*
G01X68070Y29371D03*
G01X68070Y25670D03*
G01X74270Y29371D03*
G01X74270Y25670D03*
G54D22*
G01X57580Y30031D03*
G01X55878Y30031D03*
G01X54179Y30031D03*
G01X57580Y24831D03*
G01X55880Y24831D03*
G01X54179Y24831D03*
G01X42593Y30031D03*
G01X40894Y30031D03*
G01X39194Y30031D03*
G01X42593Y24831D03*
G01X40894Y24831D03*
G01X39194Y24831D03*
G01X27608Y30031D03*
G01X25906Y30031D03*
G01X24207Y30031D03*
G01X27608Y24831D03*
G01X25908Y24831D03*
G01X24207Y24831D03*
G01X12621Y30031D03*
G01X10922Y30031D03*
G01X9222Y30031D03*
G01X12621Y24831D03*
G01X10922Y24831D03*
G01X9222Y24831D03*
G54D23*
G01X61723Y9904D03*
G01X63704Y9904D03*
G01X13971Y7872D03*
G01X11990Y7872D03*
G01X13971Y5332D03*
G01X11990Y5332D03*
G54D24*
G01X15241Y25147D03*
G54D23*
G01X15241Y23166D03*
G54D24*
G01X17273Y25147D03*
G54D23*
G01X17273Y23166D03*
G54D24*
G01X19305Y25147D03*
G54D23*
G01X19305Y23166D03*
G54D24*
G01X21337Y25147D03*
G54D23*
G01X21337Y23166D03*
G01X46226Y5589D03*
G01X48207Y5589D03*
G01X46226Y7875D03*
G01X48207Y7875D03*
G54D24*
G01X30227Y25147D03*
G54D23*
G01X30227Y23166D03*
G54D24*
G01X32259Y25147D03*
G54D23*
G01X32259Y23166D03*
G54D24*
G01X34291Y25147D03*
G54D23*
G01X34291Y23166D03*
G54D24*
G01X36323Y25147D03*
G54D23*
G01X36323Y23166D03*
G54D24*
G01X44705Y25147D03*
G54D23*
G01X44705Y23166D03*
G54D24*
G01X48007Y25147D03*
G54D23*
G01X48007Y23166D03*
G54D24*
G01X50039Y25147D03*
G54D23*
G01X50039Y23166D03*
G54D24*
G01X52071Y25147D03*
G54D23*
G01X52071Y23166D03*
G54D25*
G01X5589Y26671D03*
G54D23*
G01X5589Y24690D03*
G54D25*
G01X7367Y26668D03*
G54D23*
G01X7367Y24687D03*
G01X23371Y7618D03*
G01X23371Y5637D03*
G01X21083Y7618D03*
G01X21083Y5637D03*
G54D26*
G01X10414Y20574D03*
G54D17*
G01X53848Y7112D03*
G54D27*
G01X56896Y16637D03*
G54D28*
G01X26670Y7112D03*
G01X29972Y7112D03*
G01X34290Y7112D03*
G54D29*
G01X41148Y7112D03*
G54D28*
G01X17780Y7112D03*
G54D30*
G01X67818Y22352D03*
G54D31*
G01X17780Y14478D03*
G54D30*
G01X17780Y12192D03*
G01X68326Y11684D03*
G01X17780Y9906D03*
G01X15494Y3302D03*
G54D32*
G01X3556Y18034D03*
G01X5080Y18034D03*
G01X2032Y18034D03*
G01X3556Y16510D03*
G01X5080Y16510D03*
G01X2032Y16510D03*
G01X3556Y19558D03*
G01X5080Y19558D03*
G01X2032Y19558D03*
G01X3556Y10414D03*
G01X5080Y10414D03*
G01X2032Y10414D03*
G01X3556Y8890D03*
G01X5080Y8890D03*
G01X2032Y8890D03*
G01X3556Y11938D03*
G01X5080Y11938D03*
G01X2032Y11938D03*
G01X73914Y10922D03*
G01X75438Y10922D03*
G01X72390Y10922D03*
G01X73914Y9398D03*
G01X75438Y9398D03*
G01X72390Y9398D03*
G01X73914Y12446D03*
G01X75438Y12446D03*
G01X72390Y12446D03*
G01X73914Y18034D03*
G01X75438Y18034D03*
G01X72390Y18034D03*
G01X73914Y16510D03*
G01X75438Y16510D03*
G01X72390Y16510D03*
G01X73914Y19558D03*
G01X75438Y19558D03*
G01X72390Y19558D03*
G54D33*
G01X57144Y11557D02*
G01X56647Y11557D01*
G01X57144Y14097D02*
G01X56647Y14097D01*
M00*
M02*
