G04 ---------------------------- Layer name :BOTTOM SOLDER LAYER*
G04 EasyEDA v5.5.11, Mon, 04 Jun 2018 22:37:14 GMT*
G04 4e3370736bcd402486d42fd13c25843b*
G04 Gerber Generator version 0.2*
G04 Scale: 100 percent, Rotated: No, Reflected: No *
G04 Dimensions in millimeters *
G04 leading zeros omitted , absolute positions ,3 integer and 3 decimal *
%FSLAX33Y33*%
%MOMM*%
G90*
G71D02*

%ADD36R,2.903220X2.503195*%
%ADD42C,2.203196*%
%ADD43R,2.703195X2.203196*%
%ADD44R,1.778000X1.778000*%
%ADD45R,1.778000X1.778254*%
%ADD46R,1.778254X1.778254*%
%ADD47R,1.778254X1.778203*%
%ADD48R,2.203196X2.203196*%

%LPD*%
G54D42*
G01X57144Y11557D02*
G01X56647Y11557D01*
G01X57144Y14097D02*
G01X56647Y14097D01*
G54D36*
G01X6350Y28702D03*
G01X6350Y25247D03*
G01X10414Y28702D03*
G01X10414Y25247D03*
G01X14478Y28702D03*
G01X14478Y25247D03*
G01X18542Y28702D03*
G01X18542Y25247D03*
G01X22606Y28702D03*
G01X22606Y25247D03*
G01X26670Y28702D03*
G01X26670Y25247D03*
G01X30734Y28702D03*
G01X30734Y25247D03*
G01X34798Y28702D03*
G01X34798Y25247D03*
G01X42164Y28702D03*
G01X42164Y25247D03*
G01X46228Y28702D03*
G01X46228Y25247D03*
G01X50292Y28702D03*
G01X50292Y25247D03*
G01X54356Y28702D03*
G01X54356Y25247D03*
G01X58420Y28702D03*
G01X58420Y25247D03*
G01X62484Y28702D03*
G01X62484Y25247D03*
G01X66548Y28702D03*
G01X66548Y25247D03*
G01X70612Y28702D03*
G01X70612Y25247D03*
G54D43*
G01X56896Y16637D03*
G54D44*
G01X26670Y7112D03*
G01X29972Y7112D03*
G01X34290Y7112D03*
G54D45*
G01X41148Y7112D03*
G54D44*
G01X17780Y7112D03*
G54D46*
G01X67818Y22352D03*
G54D47*
G01X17780Y14478D03*
G54D46*
G01X17780Y12192D03*
G01X68326Y11684D03*
G01X17780Y9906D03*
G01X15494Y3302D03*
G54D48*
G01X3556Y18034D03*
G01X5080Y18034D03*
G01X2032Y18034D03*
G01X3556Y16510D03*
G01X5080Y16510D03*
G01X2032Y16510D03*
G01X3556Y19558D03*
G01X5080Y19558D03*
G01X2032Y19558D03*
G01X3556Y10414D03*
G01X5080Y10414D03*
G01X2032Y10414D03*
G01X3556Y8890D03*
G01X5080Y8890D03*
G01X2032Y8890D03*
G01X3556Y11938D03*
G01X5080Y11938D03*
G01X2032Y11938D03*
G01X73914Y10922D03*
G01X75438Y10922D03*
G01X72390Y10922D03*
G01X73914Y9398D03*
G01X75438Y9398D03*
G01X72390Y9398D03*
G01X73914Y12446D03*
G01X75438Y12446D03*
G01X72390Y12446D03*
G01X73914Y18034D03*
G01X75438Y18034D03*
G01X72390Y18034D03*
G01X73914Y16510D03*
G01X75438Y16510D03*
G01X72390Y16510D03*
G01X73914Y19558D03*
G01X75438Y19558D03*
G01X72390Y19558D03*
M00*
M02*
