G04 ---------------------------- Layer name :TOP SOLDER LAYER*
G04 EasyEDA v5.6.10, Sat, 14 Jul 2018 09:59:27 GMT*
G04 2f10b13e7a714cddaf66bfbe285f99f1*
G04 Gerber Generator version 0.2*
G04 Scale: 100 percent, Rotated: No, Reflected: No *
G04 Dimensions in millimeters *
G04 leading zeros omitted , absolute positions ,3 integer and 3 decimal *
%FSLAX33Y33*%
%MOMM*%
G90*
G71D02*

%ADD14C,0.653212*%
%ADD18C,1.778254*%
%ADD19R,2.203196X4.003192*%
%ADD20R,2.203196X1.703197*%
%ADD21R,0.904240X1.902460*%
%ADD22R,2.003196X1.303198*%
%ADD23R,1.303198X2.703195*%
%ADD24R,1.409700X1.409700*%
%ADD25R,1.409700X1.410198*%
%ADD26R,1.409700X1.410208*%
%ADD27C,1.778000*%
%ADD28R,1.410208X1.409700*%
%ADD29R,1.203198X2.203196*%
%ADD30R,2.703195X2.203196*%
%ADD31R,1.778000X1.778000*%
%ADD32R,1.778000X1.778254*%
%ADD33R,2.203196X2.203196*%
%ADD34C,2.203196*%
%ADD35C,1.778203*%

%LPD*%
G54D34*
G01X57145Y11557D02*
G01X56646Y11557D01*
G01X57145Y14097D02*
G01X56646Y14097D01*
G54D14*
G01X28194Y9763D02*
G01X28194Y10963D01*
G01X27393Y9763D02*
G01X27393Y10963D01*
G01X26593Y9763D02*
G01X26593Y10963D01*
G01X25793Y9763D02*
G01X25793Y10963D01*
G01X24996Y9763D02*
G01X24996Y10963D01*
G01X24196Y9763D02*
G01X24196Y10963D01*
G01X23395Y9763D02*
G01X23395Y10963D01*
G01X22595Y9763D02*
G01X22595Y10963D01*
G01X21631Y11938D02*
G01X20431Y11938D01*
G01X21631Y12738D02*
G01X20431Y12738D01*
G01X21631Y13538D02*
G01X20431Y13538D01*
G01X21631Y14338D02*
G01X20431Y14338D01*
G01X21631Y15135D02*
G01X20431Y15135D01*
G01X21631Y15935D02*
G01X20431Y15935D01*
G01X21631Y16736D02*
G01X20431Y16736D01*
G01X21631Y17536D02*
G01X20431Y17536D01*
G01X22606Y18526D02*
G01X22606Y19726D01*
G01X23406Y18526D02*
G01X23406Y19726D01*
G01X24206Y18526D02*
G01X24206Y19726D01*
G01X25006Y18526D02*
G01X25006Y19726D01*
G01X25803Y18526D02*
G01X25803Y19726D01*
G01X26603Y18526D02*
G01X26603Y19726D01*
G01X27404Y18526D02*
G01X27404Y19726D01*
G01X28204Y18526D02*
G01X28204Y19726D01*
G01X30368Y17526D02*
G01X29168Y17526D01*
G01X30368Y16725D02*
G01X29168Y16725D01*
G01X30368Y15925D02*
G01X29168Y15925D01*
G01X30368Y15125D02*
G01X29168Y15125D01*
G01X30368Y14328D02*
G01X29168Y14328D01*
G01X30368Y13528D02*
G01X29168Y13528D01*
G01X30368Y12727D02*
G01X29168Y12727D01*
G01X30368Y11927D02*
G01X29168Y11927D01*
G54D35*
G01X17780Y14478D02*
G01X17779Y14478D01*
G54D18*
G01X17780Y12192D02*
G01X17780Y12192D01*
G01X18542Y9906D02*
G01X18542Y9906D01*
G01X16256Y3556D02*
G01X16256Y3556D01*
G01X64770Y7620D03*
G01X70358Y23368D03*
G01X53848Y7112D03*
G54D19*
G01X14986Y14478D03*
G54D20*
G01X8685Y14478D03*
G01X8685Y12178D03*
G01X8685Y16777D03*
G54D21*
G01X33096Y17270D03*
G01X34290Y17270D03*
G01X35483Y17270D03*
G54D22*
G01X68070Y29371D03*
G01X68070Y25670D03*
G01X74270Y29371D03*
G01X74270Y25670D03*
G54D23*
G01X57580Y30031D03*
G01X55878Y30031D03*
G01X54179Y30031D03*
G01X57580Y24831D03*
G01X55880Y24831D03*
G01X54179Y24831D03*
G01X42594Y30031D03*
G01X40895Y30031D03*
G01X39196Y30031D03*
G01X42594Y24831D03*
G01X40895Y24831D03*
G01X39196Y24831D03*
G01X27608Y30031D03*
G01X25906Y30031D03*
G01X24207Y30031D03*
G01X27608Y24831D03*
G01X25908Y24831D03*
G01X24207Y24831D03*
G01X12622Y30031D03*
G01X10923Y30031D03*
G01X9224Y30031D03*
G01X12622Y24831D03*
G01X10923Y24831D03*
G01X9224Y24831D03*
G54D24*
G01X61723Y9904D03*
G01X63704Y9904D03*
G01X13971Y5840D03*
G01X11990Y5840D03*
G01X13971Y3554D03*
G01X11990Y3554D03*
G54D30*
G01X56896Y16637D03*
G54D31*
G01X26670Y7112D03*
G01X29972Y7112D03*
G01X34290Y7112D03*
G54D32*
G01X41148Y7112D03*
G54D31*
G01X17780Y7112D03*
G54D25*
G01X15241Y25147D03*
G54D24*
G01X15241Y23166D03*
G54D25*
G01X17273Y25147D03*
G54D24*
G01X17273Y23166D03*
G54D25*
G01X19305Y25147D03*
G54D24*
G01X19305Y23166D03*
G54D25*
G01X21337Y25147D03*
G54D24*
G01X21337Y23166D03*
G01X46226Y5589D03*
G01X48207Y5589D03*
G01X46226Y7875D03*
G01X48207Y7875D03*
G54D25*
G01X30227Y25147D03*
G54D24*
G01X30227Y23166D03*
G54D25*
G01X32259Y25147D03*
G54D24*
G01X32259Y23166D03*
G54D25*
G01X34291Y25147D03*
G54D24*
G01X34291Y23166D03*
G54D25*
G01X36323Y25147D03*
G54D24*
G01X36323Y23166D03*
G54D25*
G01X44705Y25147D03*
G54D24*
G01X44705Y23166D03*
G54D25*
G01X48007Y25147D03*
G54D24*
G01X48007Y23166D03*
G54D25*
G01X50039Y25147D03*
G54D24*
G01X50039Y23166D03*
G54D25*
G01X52071Y25147D03*
G54D24*
G01X52071Y23166D03*
G54D26*
G01X5589Y26671D03*
G54D24*
G01X5589Y24690D03*
G54D26*
G01X7367Y26668D03*
G54D24*
G01X7367Y24687D03*
G01X23371Y7618D03*
G01X23371Y5637D03*
G01X21083Y7618D03*
G01X21083Y5637D03*
G54D27*
G01X10414Y20574D03*
G54D28*
G01X32256Y4319D03*
G54D24*
G01X34237Y4319D03*
G54D29*
G01X10922Y8382D03*
G01X14224Y8382D03*
G54D18*
G01X67818Y22352D03*
G01X68326Y11684D03*
G54D33*
G01X3556Y18034D03*
G01X5080Y18034D03*
G01X2032Y18034D03*
G01X3556Y16510D03*
G01X5080Y16510D03*
G01X2032Y16510D03*
G01X3556Y19558D03*
G01X5080Y19558D03*
G01X2032Y19558D03*
G01X3556Y10414D03*
G01X5080Y10414D03*
G01X2032Y10414D03*
G01X3556Y8890D03*
G01X5080Y8890D03*
G01X2032Y8890D03*
G01X3556Y11938D03*
G01X5080Y11938D03*
G01X2032Y11938D03*
G01X73914Y10922D03*
G01X75438Y10922D03*
G01X72390Y10922D03*
G01X73914Y9398D03*
G01X75438Y9398D03*
G01X72390Y9398D03*
G01X73914Y12446D03*
G01X75438Y12446D03*
G01X72390Y12446D03*
G01X73914Y18034D03*
G01X75438Y18034D03*
G01X72390Y18034D03*
G01X73914Y16510D03*
G01X75438Y16510D03*
G01X72390Y16510D03*
G01X73914Y19558D03*
G01X75438Y19558D03*
G01X72390Y19558D03*
M00*
M02*
