G04 ---------------------------- Layer name :BOTTOM LAYER*
G04 EasyEDA v5.6.10, Sat, 14 Jul 2018 09:59:27 GMT*
G04 2f10b13e7a714cddaf66bfbe285f99f1*
G04 Gerber Generator version 0.2*
G04 Scale: 100 percent, Rotated: No, Reflected: No *
G04 Dimensions in millimeters *
G04 leading zeros omitted , absolute positions ,3 integer and 3 decimal *
%FSLAX33Y33*%
%MOMM*%
G90*
G71D02*

%ADD10C,0.254000*%
%ADD11C,0.399999*%
%ADD13C,0.799998*%
%ADD15C,0.203200*%
%ADD16C,0.177800*%
%ADD17C,0.178003*%
%ADD18C,1.575054*%
%ADD24R,1.206500X1.206500*%
%ADD30R,2.499995X1.999996*%
%ADD31R,1.574800X1.574800*%
%ADD32R,1.574800X1.575054*%
%ADD33R,1.999996X1.999996*%
%ADD34C,1.999996*%
%ADD35C,1.575003*%
%ADD36R,2.700020X2.299995*%

%LPD*%
G54D10*
G01X17780Y14478D02*
G01X17780Y18796D01*
G01X20574Y21590D01*
G01X65278Y21590D01*
G01X66040Y22352D01*
G01X68326Y22352D01*
G01X17780Y12446D02*
G01X18542Y12446D01*
G01X19304Y13208D01*
G01X19304Y16002D01*
G01X22098Y18796D01*
G01X60949Y18796D01*
G01X62484Y17277D01*
G01X62484Y13474D01*
G01X64251Y11684D01*
G01X68326Y11684D01*
G54D11*
G01X18542Y9906D02*
G01X20051Y9906D01*
G01X21078Y8879D01*
G01X21082Y4572D01*
G01X20051Y3549D01*
G01X16256Y3556D01*
G54D13*
G01X6350Y25247D02*
G01X10414Y25247D01*
G01X10414Y25247D02*
G01X14478Y25247D01*
G01X14478Y25247D02*
G01X18542Y25247D01*
G01X18542Y25247D02*
G01X21590Y25247D01*
G01X3556Y18034D02*
G01X3556Y21336D01*
G01X2286Y22606D01*
G01X2286Y27178D01*
G01X3556Y28448D01*
G01X6096Y28448D01*
G01X6350Y28702D01*
G01X10414Y28702D02*
G01X6350Y28702D01*
G01X10414Y28702D02*
G01X14478Y28702D01*
G01X14478Y28702D02*
G01X18542Y28702D01*
G01X18542Y28702D02*
G01X21590Y28702D01*
G01X70612Y28702D02*
G01X66548Y28702D01*
G01X66548Y28702D02*
G01X62484Y28702D01*
G01X62484Y28702D02*
G01X58420Y28702D01*
G01X58420Y28702D02*
G01X55372Y28702D01*
G01X73914Y19558D02*
G01X73914Y27178D01*
G01X72390Y28702D01*
G01X70612Y28702D01*
G01X73914Y10922D02*
G01X72898Y10922D01*
G01X68324Y15495D01*
G01X68324Y17476D02*
G01X68324Y19556D01*
G01X70358Y21590D01*
G01X70358Y24993D01*
G01X70612Y25247D01*
G01X70612Y25247D02*
G01X66802Y25247D01*
G01X66802Y25247D02*
G01X62992Y25247D01*
G01X62992Y25247D02*
G01X59182Y25247D01*
G01X59182Y25247D02*
G01X55372Y25247D01*
G01X3556Y10414D02*
G01X9144Y10414D01*
G01X10160Y11430D01*
G01X10160Y13716D01*
G01X10158Y13717D01*
G01X10158Y15698D02*
G01X10158Y25246D01*
G01X10160Y25247D01*
G54D17*
G01X37191Y23114D02*
G01X37191Y22064D01*
G01X37191Y23114D02*
G01X36741Y23114D01*
G01X36591Y23064D01*
G01X36541Y23014D01*
G01X36491Y22914D01*
G01X36491Y22814D01*
G01X36541Y22714D01*
G01X36591Y22664D01*
G01X36741Y22614D01*
G01X37191Y22614D02*
G01X36741Y22614D01*
G01X36591Y22564D01*
G01X36541Y22514D01*
G01X36491Y22414D01*
G01X36491Y22264D01*
G01X36541Y22164D01*
G01X36591Y22114D01*
G01X36741Y22064D01*
G01X37191Y22064D01*
G01X36161Y23114D02*
G01X36161Y22364D01*
G01X36111Y22214D01*
G01X36011Y22114D01*
G01X35861Y22064D01*
G01X35761Y22064D01*
G01X35611Y22114D01*
G01X35511Y22214D01*
G01X35461Y22364D01*
G01X35461Y23114D01*
G01X34781Y23114D02*
G01X34781Y22064D01*
G01X35131Y23114D02*
G01X34431Y23114D01*
G01X33751Y23114D02*
G01X33751Y22064D01*
G01X34101Y23114D02*
G01X33401Y23114D01*
G01X32771Y23114D02*
G01X32871Y23064D01*
G01X32971Y22964D01*
G01X33021Y22864D01*
G01X33071Y22714D01*
G01X33071Y22464D01*
G01X33021Y22314D01*
G01X32971Y22214D01*
G01X32871Y22114D01*
G01X32771Y22064D01*
G01X32571Y22064D01*
G01X32471Y22114D01*
G01X32371Y22214D01*
G01X32321Y22314D01*
G01X32271Y22464D01*
G01X32271Y22714D01*
G01X32321Y22864D01*
G01X32371Y22964D01*
G01X32471Y23064D01*
G01X32571Y23114D01*
G01X32771Y23114D01*
G01X31941Y23114D02*
G01X31941Y22064D01*
G01X31941Y23114D02*
G01X31241Y22064D01*
G01X31241Y23114D02*
G01X31241Y22064D01*
G01X37192Y20319D02*
G01X37192Y19269D01*
G01X37192Y20319D02*
G01X36792Y19269D01*
G01X36392Y20319D02*
G01X36792Y19269D01*
G01X36392Y20319D02*
G01X36392Y19269D01*
G01X35762Y20319D02*
G01X35862Y20269D01*
G01X35962Y20169D01*
G01X36011Y20069D01*
G01X36062Y19919D01*
G01X36062Y19669D01*
G01X36011Y19519D01*
G01X35962Y19419D01*
G01X35862Y19319D01*
G01X35762Y19269D01*
G01X35562Y19269D01*
G01X35462Y19319D01*
G01X35362Y19419D01*
G01X35311Y19519D01*
G01X35262Y19669D01*
G01X35262Y19919D01*
G01X35311Y20069D01*
G01X35362Y20169D01*
G01X35462Y20269D01*
G01X35562Y20319D01*
G01X35762Y20319D01*
G01X34232Y20169D02*
G01X34332Y20269D01*
G01X34481Y20319D01*
G01X34681Y20319D01*
G01X34832Y20269D01*
G01X34932Y20169D01*
G01X34932Y20069D01*
G01X34881Y19969D01*
G01X34832Y19919D01*
G01X34732Y19869D01*
G01X34432Y19769D01*
G01X34332Y19719D01*
G01X34281Y19669D01*
G01X34232Y19569D01*
G01X34232Y19419D01*
G01X34332Y19319D01*
G01X34481Y19269D01*
G01X34681Y19269D01*
G01X34832Y19319D01*
G01X34932Y19419D01*
G01X33901Y20319D02*
G01X33901Y19269D01*
G01X33901Y20319D02*
G01X33252Y20319D01*
G01X33901Y19819D02*
G01X33501Y19819D01*
G01X32922Y20319D02*
G01X32922Y19269D01*
G01X32922Y20319D02*
G01X32271Y20319D01*
G01X32922Y19819D02*
G01X32522Y19819D01*
G01X32922Y19269D02*
G01X32271Y19269D01*
G01X31592Y20319D02*
G01X31592Y19269D01*
G01X31941Y20319D02*
G01X31242Y20319D01*
G01X41938Y5592D02*
G01X41988Y5692D01*
G01X42088Y5792D01*
G01X42188Y5842D01*
G01X42388Y5842D01*
G01X42488Y5792D01*
G01X42588Y5692D01*
G01X42638Y5592D01*
G01X42688Y5442D01*
G01X42688Y5192D01*
G01X42638Y5042D01*
G01X42588Y4942D01*
G01X42488Y4842D01*
G01X42388Y4792D01*
G01X42188Y4792D01*
G01X42088Y4842D01*
G01X41988Y4942D01*
G01X41938Y5042D01*
G01X41938Y5192D01*
G01X42188Y5192D02*
G01X41938Y5192D01*
G01X41608Y5842D02*
G01X41608Y4792D01*
G01X41608Y5842D02*
G01X40908Y4792D01*
G01X40908Y5842D02*
G01X40908Y4792D01*
G01X40578Y5842D02*
G01X40578Y4792D01*
G01X40578Y5842D02*
G01X40228Y5842D01*
G01X40078Y5792D01*
G01X39978Y5692D01*
G01X39928Y5592D01*
G01X39878Y5442D01*
G01X39878Y5192D01*
G01X39928Y5042D01*
G01X39978Y4942D01*
G01X40078Y4842D01*
G01X40228Y4792D01*
G01X40578Y4792D01*
G01X35525Y5841D02*
G01X35525Y4791D01*
G01X35525Y5841D02*
G01X35075Y5841D01*
G01X34925Y5791D01*
G01X34875Y5741D01*
G01X34825Y5641D01*
G01X34825Y5541D01*
G01X34875Y5441D01*
G01X34925Y5391D01*
G01X35075Y5341D01*
G01X35525Y5341D01*
G01X35175Y5341D02*
G01X34825Y4791D01*
G01X33795Y5691D02*
G01X33895Y5791D01*
G01X34045Y5841D01*
G01X34245Y5841D01*
G01X34395Y5791D01*
G01X34495Y5691D01*
G01X34495Y5591D01*
G01X34445Y5491D01*
G01X34395Y5441D01*
G01X34295Y5391D01*
G01X33995Y5291D01*
G01X33895Y5241D01*
G01X33845Y5191D01*
G01X33795Y5091D01*
G01X33795Y4941D01*
G01X33895Y4841D01*
G01X34045Y4791D01*
G01X34245Y4791D01*
G01X34395Y4841D01*
G01X34495Y4941D01*
G01X33115Y5841D02*
G01X33115Y4791D01*
G01X33465Y5841D02*
G01X32765Y5841D01*
G01X30590Y5841D02*
G01X30590Y4791D01*
G01X30940Y5841D02*
G01X30240Y5841D01*
G01X29910Y5841D02*
G01X29210Y4791D01*
G01X29210Y5841D02*
G01X29910Y4791D01*
G01X27637Y5842D02*
G01X27637Y4791D01*
G01X27637Y5842D02*
G01X27187Y5842D01*
G01X27037Y5792D01*
G01X26987Y5742D01*
G01X26937Y5642D01*
G01X26937Y5542D01*
G01X26987Y5442D01*
G01X27037Y5392D01*
G01X27187Y5342D01*
G01X27637Y5342D01*
G01X27287Y5342D02*
G01X26937Y4791D01*
G01X26607Y5842D02*
G01X25907Y4791D01*
G01X25907Y5842D02*
G01X26607Y4791D01*
G01X6885Y31753D02*
G01X6935Y31853D01*
G01X7035Y31953D01*
G01X7135Y32003D01*
G01X7335Y32003D01*
G01X7435Y31953D01*
G01X7535Y31853D01*
G01X7585Y31753D01*
G01X7635Y31603D01*
G01X7635Y31353D01*
G01X7585Y31203D01*
G01X7535Y31103D01*
G01X7435Y31003D01*
G01X7335Y30953D01*
G01X7135Y30953D01*
G01X7035Y31003D01*
G01X6935Y31103D01*
G01X6885Y31203D01*
G01X6885Y31353D01*
G01X7135Y31353D02*
G01X6885Y31353D01*
G01X6555Y32003D02*
G01X6555Y30953D01*
G01X6555Y32003D02*
G01X5855Y30953D01*
G01X5855Y32003D02*
G01X5855Y30953D01*
G01X5525Y32003D02*
G01X5525Y30953D01*
G01X5525Y32003D02*
G01X5175Y32003D01*
G01X5025Y31953D01*
G01X4925Y31853D01*
G01X4875Y31753D01*
G01X4825Y31603D01*
G01X4825Y31353D01*
G01X4875Y31203D01*
G01X4925Y31103D01*
G01X5025Y31003D01*
G01X5175Y30953D01*
G01X5525Y30953D01*
G01X4737Y7111D02*
G01X4337Y6061D01*
G01X3937Y7111D02*
G01X4337Y6061D01*
G01X2857Y6861D02*
G01X2907Y6961D01*
G01X3007Y7061D01*
G01X3107Y7111D01*
G01X3307Y7111D01*
G01X3407Y7061D01*
G01X3507Y6961D01*
G01X3557Y6861D01*
G01X3607Y6711D01*
G01X3607Y6461D01*
G01X3557Y6311D01*
G01X3507Y6211D01*
G01X3407Y6111D01*
G01X3307Y6061D01*
G01X3107Y6061D01*
G01X3007Y6111D01*
G01X2907Y6211D01*
G01X2857Y6311D01*
G01X1778Y6861D02*
G01X1827Y6961D01*
G01X1927Y7061D01*
G01X2027Y7111D01*
G01X2227Y7111D01*
G01X2327Y7061D01*
G01X2427Y6961D01*
G01X2477Y6861D01*
G01X2527Y6711D01*
G01X2527Y6461D01*
G01X2477Y6311D01*
G01X2427Y6211D01*
G01X2327Y6111D01*
G01X2227Y6061D01*
G01X2027Y6061D01*
G01X1927Y6111D01*
G01X1827Y6211D01*
G01X1778Y6311D01*
G01X75438Y7711D02*
G01X75038Y6661D01*
G01X74638Y7711D02*
G01X75038Y6661D01*
G01X73558Y7461D02*
G01X73608Y7561D01*
G01X73708Y7661D01*
G01X73808Y7711D01*
G01X74008Y7711D01*
G01X74108Y7661D01*
G01X74208Y7561D01*
G01X74258Y7461D01*
G01X74308Y7311D01*
G01X74308Y7061D01*
G01X74258Y6911D01*
G01X74208Y6811D01*
G01X74108Y6711D01*
G01X74008Y6661D01*
G01X73808Y6661D01*
G01X73708Y6711D01*
G01X73608Y6811D01*
G01X73558Y6911D01*
G01X72478Y7461D02*
G01X72528Y7561D01*
G01X72628Y7661D01*
G01X72728Y7711D01*
G01X72928Y7711D01*
G01X73028Y7661D01*
G01X73128Y7561D01*
G01X73178Y7461D01*
G01X73228Y7311D01*
G01X73228Y7061D01*
G01X73178Y6911D01*
G01X73128Y6811D01*
G01X73028Y6711D01*
G01X72928Y6661D01*
G01X72728Y6661D01*
G01X72628Y6711D01*
G01X72528Y6811D01*
G01X72478Y6911D01*
G01X71290Y31754D02*
G01X71340Y31854D01*
G01X71440Y31954D01*
G01X71540Y32004D01*
G01X71740Y32004D01*
G01X71840Y31954D01*
G01X71940Y31854D01*
G01X71990Y31754D01*
G01X72040Y31604D01*
G01X72040Y31354D01*
G01X71990Y31204D01*
G01X71940Y31104D01*
G01X71840Y31004D01*
G01X71740Y30954D01*
G01X71540Y30954D01*
G01X71440Y31004D01*
G01X71340Y31104D01*
G01X71290Y31204D01*
G01X71290Y31354D01*
G01X71540Y31354D02*
G01X71290Y31354D01*
G01X70960Y32004D02*
G01X70960Y30954D01*
G01X70960Y32004D02*
G01X70260Y30954D01*
G01X70260Y32004D02*
G01X70260Y30954D01*
G01X69930Y32004D02*
G01X69930Y30954D01*
G01X69930Y32004D02*
G01X69580Y32004D01*
G01X69430Y31954D01*
G01X69330Y31854D01*
G01X69280Y31754D01*
G01X69230Y31604D01*
G01X69230Y31354D01*
G01X69280Y31204D01*
G01X69330Y31104D01*
G01X69430Y31004D01*
G01X69580Y30954D01*
G01X69930Y30954D01*
G01X68600Y32004D02*
G01X68700Y31954D01*
G01X68800Y31854D01*
G01X68850Y31754D01*
G01X68900Y31604D01*
G01X68900Y31354D01*
G01X68850Y31204D01*
G01X68800Y31104D01*
G01X68700Y31004D01*
G01X68600Y30954D01*
G01X68400Y30954D01*
G01X68300Y31004D01*
G01X68200Y31104D01*
G01X68150Y31204D01*
G01X68100Y31354D01*
G01X68100Y31604D01*
G01X68150Y31754D01*
G01X68200Y31854D01*
G01X68300Y31954D01*
G01X68400Y32004D01*
G01X68600Y32004D01*
G01X67770Y32004D02*
G01X67770Y31254D01*
G01X67720Y31104D01*
G01X67620Y31004D01*
G01X67470Y30954D01*
G01X67370Y30954D01*
G01X67220Y31004D01*
G01X67120Y31104D01*
G01X67070Y31254D01*
G01X67070Y32004D01*
G01X66390Y32004D02*
G01X66390Y30954D01*
G01X66740Y32004D02*
G01X66040Y32004D01*
G01X23081Y2031D02*
G01X22681Y981D01*
G01X22281Y2031D02*
G01X22681Y981D01*
G01X21652Y2031D02*
G01X21752Y1981D01*
G01X21852Y1881D01*
G01X21901Y1781D01*
G01X21952Y1631D01*
G01X21952Y1381D01*
G01X21901Y1231D01*
G01X21852Y1131D01*
G01X21752Y1031D01*
G01X21652Y981D01*
G01X21452Y981D01*
G01X21352Y1031D01*
G01X21252Y1131D01*
G01X21201Y1231D01*
G01X21152Y1381D01*
G01X21152Y1631D01*
G01X21201Y1781D01*
G01X21252Y1881D01*
G01X21352Y1981D01*
G01X21452Y2031D01*
G01X21652Y2031D01*
G01X20822Y2031D02*
G01X20822Y981D01*
G01X20822Y981D02*
G01X20222Y981D01*
G01X19541Y2031D02*
G01X19541Y981D01*
G01X19892Y2031D02*
G01X19192Y2031D01*
G01X18462Y2031D02*
G01X18862Y981D01*
G01X18462Y2031D02*
G01X18062Y981D01*
G01X18712Y1331D02*
G01X18212Y1331D01*
G01X16982Y1781D02*
G01X17031Y1881D01*
G01X17131Y1981D01*
G01X17231Y2031D01*
G01X17431Y2031D01*
G01X17531Y1981D01*
G01X17631Y1881D01*
G01X17682Y1781D01*
G01X17731Y1631D01*
G01X17731Y1381D01*
G01X17682Y1231D01*
G01X17631Y1131D01*
G01X17531Y1031D01*
G01X17431Y981D01*
G01X17231Y981D01*
G01X17131Y1031D01*
G01X17031Y1131D01*
G01X16982Y1231D01*
G01X16982Y1381D01*
G01X17231Y1381D02*
G01X16982Y1381D01*
G01X16652Y2031D02*
G01X16652Y981D01*
G01X16652Y2031D02*
G01X16002Y2031D01*
G01X16652Y1531D02*
G01X16252Y1531D01*
G01X16652Y981D02*
G01X16002Y981D01*
G54D16*
G01X15922Y7619D02*
G01X16376Y7619D01*
G01X16422Y7210D01*
G01X16376Y7256D01*
G01X16240Y7301D01*
G01X16104Y7301D01*
G01X15967Y7256D01*
G01X15876Y7165D01*
G01X15831Y7029D01*
G01X15831Y6938D01*
G01X15876Y6801D01*
G01X15967Y6710D01*
G01X16104Y6665D01*
G01X16240Y6665D01*
G01X16376Y6710D01*
G01X16422Y6756D01*
G01X16467Y6847D01*
G01X15531Y7301D02*
G01X15258Y6665D01*
G01X14986Y7301D02*
G01X15258Y6665D01*
G54D17*
G01X47873Y27686D02*
G01X47873Y26254D01*
G01X47873Y27686D02*
G01X47259Y27686D01*
G01X47054Y27617D01*
G01X46986Y27549D01*
G01X46918Y27413D01*
G01X46918Y27276D01*
G01X46986Y27140D01*
G01X47054Y27072D01*
G01X47259Y27004D01*
G01X47873Y27004D02*
G01X47259Y27004D01*
G01X47054Y26935D01*
G01X46986Y26867D01*
G01X46918Y26731D01*
G01X46918Y26526D01*
G01X46986Y26390D01*
G01X47054Y26322D01*
G01X47259Y26254D01*
G01X47873Y26254D01*
G01X45650Y27208D02*
G01X45650Y26254D01*
G01X45650Y27004D02*
G01X45786Y27140D01*
G01X45923Y27208D01*
G01X46127Y27208D01*
G01X46263Y27140D01*
G01X46400Y27004D01*
G01X46468Y26799D01*
G01X46468Y26663D01*
G01X46400Y26458D01*
G01X46263Y26322D01*
G01X46127Y26254D01*
G01X45923Y26254D01*
G01X45786Y26322D01*
G01X45650Y26458D01*
G01X44995Y27686D02*
G01X44995Y26526D01*
G01X44927Y26322D01*
G01X44791Y26254D01*
G01X44654Y26254D01*
G01X45200Y27208D02*
G01X44723Y27208D01*
G01X44000Y27686D02*
G01X44000Y26526D01*
G01X43932Y26322D01*
G01X43795Y26254D01*
G01X43659Y26254D01*
G01X44204Y27208D02*
G01X43727Y27208D01*
G01X43209Y26799D02*
G01X42391Y26799D01*
G01X42391Y26935D01*
G01X42459Y27072D01*
G01X42527Y27140D01*
G01X42663Y27208D01*
G01X42868Y27208D01*
G01X43004Y27140D01*
G01X43141Y27004D01*
G01X43209Y26799D01*
G01X43209Y26663D01*
G01X43141Y26458D01*
G01X43004Y26322D01*
G01X42868Y26254D01*
G01X42663Y26254D01*
G01X42527Y26322D01*
G01X42391Y26458D01*
G01X41941Y27208D02*
G01X41941Y26254D01*
G01X41941Y26799D02*
G01X41873Y27004D01*
G01X41736Y27140D01*
G01X41600Y27208D01*
G01X41395Y27208D01*
G01X40877Y27208D02*
G01X40468Y26254D01*
G01X40059Y27208D02*
G01X40468Y26254D01*
G01X40604Y25981D01*
G01X40741Y25845D01*
G01X40877Y25776D01*
G01X40945Y25776D01*
G01X39609Y27686D02*
G01X39609Y26254D01*
G01X39609Y27686D02*
G01X38995Y27686D01*
G01X38791Y27617D01*
G01X38723Y27549D01*
G01X38654Y27413D01*
G01X38654Y27208D01*
G01X38723Y27072D01*
G01X38791Y27004D01*
G01X38995Y26935D01*
G01X39609Y26935D01*
G01X38204Y27208D02*
G01X38204Y26254D01*
G01X38204Y26799D02*
G01X38136Y27004D01*
G01X38000Y27140D01*
G01X37864Y27208D01*
G01X37659Y27208D01*
G01X36868Y27208D02*
G01X37004Y27140D01*
G01X37141Y27004D01*
G01X37209Y26799D01*
G01X37209Y26663D01*
G01X37141Y26458D01*
G01X37004Y26322D01*
G01X36868Y26254D01*
G01X36664Y26254D01*
G01X36527Y26322D01*
G01X36391Y26458D01*
G01X36323Y26663D01*
G01X36323Y26799D01*
G01X36391Y27004D01*
G01X36527Y27140D01*
G01X36664Y27208D01*
G01X36868Y27208D01*
G01X35668Y27686D02*
G01X35668Y26526D01*
G01X35600Y26322D01*
G01X35464Y26254D01*
G01X35327Y26254D01*
G01X35873Y27208D02*
G01X35395Y27208D01*
G01X34877Y26799D02*
G01X34059Y26799D01*
G01X34059Y26935D01*
G01X34127Y27072D01*
G01X34195Y27140D01*
G01X34332Y27208D01*
G01X34536Y27208D01*
G01X34673Y27140D01*
G01X34809Y27004D01*
G01X34877Y26799D01*
G01X34877Y26663D01*
G01X34809Y26458D01*
G01X34673Y26322D01*
G01X34536Y26254D01*
G01X34332Y26254D01*
G01X34195Y26322D01*
G01X34059Y26458D01*
G01X32791Y27004D02*
G01X32927Y27140D01*
G01X33064Y27208D01*
G01X33268Y27208D01*
G01X33404Y27140D01*
G01X33541Y27004D01*
G01X33609Y26799D01*
G01X33609Y26663D01*
G01X33541Y26458D01*
G01X33404Y26322D01*
G01X33268Y26254D01*
G01X33064Y26254D01*
G01X32927Y26322D01*
G01X32791Y26458D01*
G01X32136Y27686D02*
G01X32136Y26526D01*
G01X32068Y26322D01*
G01X31932Y26254D01*
G01X31795Y26254D01*
G01X32341Y27208D02*
G01X31864Y27208D01*
G01X31004Y27208D02*
G01X31141Y27140D01*
G01X31277Y27004D01*
G01X31345Y26799D01*
G01X31345Y26663D01*
G01X31277Y26458D01*
G01X31141Y26322D01*
G01X31004Y26254D01*
G01X30800Y26254D01*
G01X30664Y26322D01*
G01X30527Y26458D01*
G01X30459Y26663D01*
G01X30459Y26799D01*
G01X30527Y27004D01*
G01X30664Y27140D01*
G01X30800Y27208D01*
G01X31004Y27208D01*
G01X30009Y27208D02*
G01X30009Y26254D01*
G01X30009Y26799D02*
G01X29941Y27004D01*
G01X29804Y27140D01*
G01X29668Y27208D01*
G01X29464Y27208D01*
G54D15*
G01X53108Y16455D02*
G01X53108Y15309D01*
G01X53108Y16455D02*
G01X52727Y16455D01*
G01X52563Y16400D01*
G01X52454Y16291D01*
G01X52399Y16182D01*
G01X52345Y16019D01*
G01X52345Y15746D01*
G01X52399Y15582D01*
G01X52454Y15473D01*
G01X52563Y15364D01*
G01X52727Y15309D01*
G01X53108Y15309D01*
G01X51985Y15746D02*
G01X51330Y15746D01*
G01X51330Y15855D01*
G01X51385Y15964D01*
G01X51439Y16019D01*
G01X51548Y16073D01*
G01X51712Y16073D01*
G01X51821Y16019D01*
G01X51930Y15909D01*
G01X51985Y15746D01*
G01X51985Y15637D01*
G01X51930Y15473D01*
G01X51821Y15364D01*
G01X51712Y15309D01*
G01X51548Y15309D01*
G01X51439Y15364D01*
G01X51330Y15473D01*
G01X50370Y15909D02*
G01X50425Y16019D01*
G01X50588Y16073D01*
G01X50752Y16073D01*
G01X50916Y16019D01*
G01X50970Y15909D01*
G01X50916Y15800D01*
G01X50807Y15746D01*
G01X50534Y15691D01*
G01X50425Y15637D01*
G01X50370Y15528D01*
G01X50370Y15473D01*
G01X50425Y15364D01*
G01X50588Y15309D01*
G01X50752Y15309D01*
G01X50916Y15364D01*
G01X50970Y15473D01*
G01X50010Y16455D02*
G01X49956Y16400D01*
G01X49901Y16455D01*
G01X49956Y16509D01*
G01X50010Y16455D01*
G01X49956Y16073D02*
G01X49956Y15309D01*
G01X48887Y16073D02*
G01X48887Y15200D01*
G01X48941Y15037D01*
G01X48996Y14982D01*
G01X49105Y14928D01*
G01X49268Y14928D01*
G01X49377Y14982D01*
G01X48887Y15909D02*
G01X48996Y16019D01*
G01X49105Y16073D01*
G01X49268Y16073D01*
G01X49377Y16019D01*
G01X49487Y15909D01*
G01X49541Y15746D01*
G01X49541Y15637D01*
G01X49487Y15473D01*
G01X49377Y15364D01*
G01X49268Y15309D01*
G01X49105Y15309D01*
G01X48996Y15364D01*
G01X48887Y15473D01*
G01X48527Y16073D02*
G01X48527Y15309D01*
G01X48527Y15855D02*
G01X48363Y16019D01*
G01X48254Y16073D01*
G01X48090Y16073D01*
G01X47981Y16019D01*
G01X47927Y15855D01*
G01X47927Y15309D01*
G01X47567Y15746D02*
G01X46912Y15746D01*
G01X46912Y15855D01*
G01X46967Y15964D01*
G01X47021Y16019D01*
G01X47130Y16073D01*
G01X47294Y16073D01*
G01X47403Y16019D01*
G01X47512Y15909D01*
G01X47567Y15746D01*
G01X47567Y15637D01*
G01X47512Y15473D01*
G01X47403Y15364D01*
G01X47294Y15309D01*
G01X47130Y15309D01*
G01X47021Y15364D01*
G01X46912Y15473D01*
G01X45897Y16455D02*
G01X45897Y15309D01*
G01X45897Y15909D02*
G01X46007Y16019D01*
G01X46116Y16073D01*
G01X46279Y16073D01*
G01X46388Y16019D01*
G01X46497Y15909D01*
G01X46552Y15746D01*
G01X46552Y15637D01*
G01X46497Y15473D01*
G01X46388Y15364D01*
G01X46279Y15309D01*
G01X46116Y15309D01*
G01X46007Y15364D01*
G01X45897Y15473D01*
G01X44697Y16455D02*
G01X44697Y15309D01*
G01X44697Y15909D02*
G01X44588Y16019D01*
G01X44479Y16073D01*
G01X44316Y16073D01*
G01X44207Y16019D01*
G01X44097Y15909D01*
G01X44043Y15746D01*
G01X44043Y15637D01*
G01X44097Y15473D01*
G01X44207Y15364D01*
G01X44316Y15309D01*
G01X44479Y15309D01*
G01X44588Y15364D01*
G01X44697Y15473D01*
G01X43628Y16073D02*
G01X43301Y15309D01*
G01X42974Y16073D02*
G01X43301Y15309D01*
G01X43410Y15091D01*
G01X43519Y14982D01*
G01X43628Y14928D01*
G01X43683Y14928D01*
G01X41774Y16455D02*
G01X41774Y15309D01*
G01X41774Y16455D02*
G01X41392Y16455D01*
G01X41228Y16400D01*
G01X41119Y16291D01*
G01X41065Y16182D01*
G01X41010Y16019D01*
G01X41010Y15746D01*
G01X41065Y15582D01*
G01X41119Y15473D01*
G01X41228Y15364D01*
G01X41392Y15309D01*
G01X41774Y15309D01*
G01X40650Y16073D02*
G01X40650Y15309D01*
G01X40650Y15746D02*
G01X40596Y15909D01*
G01X40487Y16019D01*
G01X40377Y16073D01*
G01X40214Y16073D01*
G01X39799Y15582D02*
G01X39854Y15528D01*
G01X39799Y15473D01*
G01X39745Y15528D01*
G01X39799Y15582D01*
G01X38545Y16455D02*
G01X38545Y15309D01*
G01X38545Y16455D02*
G01X37836Y16455D01*
G01X38545Y15909D02*
G01X38108Y15909D01*
G01X36821Y16073D02*
G01X36821Y15309D01*
G01X36821Y15909D02*
G01X36930Y16019D01*
G01X37039Y16073D01*
G01X37203Y16073D01*
G01X37312Y16019D01*
G01X37421Y15909D01*
G01X37476Y15746D01*
G01X37476Y15637D01*
G01X37421Y15473D01*
G01X37312Y15364D01*
G01X37203Y15309D01*
G01X37039Y15309D01*
G01X36930Y15364D01*
G01X36821Y15473D01*
G01X36461Y16455D02*
G01X36407Y16400D01*
G01X36352Y16455D01*
G01X36407Y16509D01*
G01X36461Y16455D01*
G01X36407Y16073D02*
G01X36407Y15309D01*
G01X35992Y16455D02*
G01X35992Y15309D01*
G01X35359Y16073D02*
G01X35468Y16019D01*
G01X35578Y15909D01*
G01X35632Y15746D01*
G01X35632Y15637D01*
G01X35578Y15473D01*
G01X35468Y15364D01*
G01X35359Y15309D01*
G01X35196Y15309D01*
G01X35087Y15364D01*
G01X34978Y15473D01*
G01X34923Y15637D01*
G01X34923Y15746D01*
G01X34978Y15909D01*
G01X35087Y16019D01*
G01X35196Y16073D01*
G01X35359Y16073D01*
G01X34563Y16073D02*
G01X34236Y15309D01*
G01X33908Y16073D02*
G01X34236Y15309D01*
G01X32708Y16455D02*
G01X32654Y16400D01*
G01X32599Y16455D01*
G01X32654Y16509D01*
G01X32708Y16455D01*
G01X32654Y16073D02*
G01X32654Y15309D01*
G01X32239Y16073D02*
G01X32239Y15309D01*
G01X32239Y15855D02*
G01X32076Y16019D01*
G01X31967Y16073D01*
G01X31803Y16073D01*
G01X31694Y16019D01*
G01X31639Y15855D01*
G01X31639Y15309D01*
G01X30439Y16455D02*
G01X30439Y15309D01*
G01X29676Y16455D02*
G01X30439Y15691D01*
G01X30167Y15964D02*
G01X29676Y15309D01*
G01X29316Y16455D02*
G01X29261Y16400D01*
G01X29207Y16455D01*
G01X29261Y16509D01*
G01X29316Y16455D01*
G01X29261Y16073D02*
G01X29261Y15309D01*
G01X28847Y15746D02*
G01X28192Y15746D01*
G01X28192Y15855D01*
G01X28247Y15964D01*
G01X28301Y16019D01*
G01X28410Y16073D01*
G01X28574Y16073D01*
G01X28683Y16019D01*
G01X28792Y15909D01*
G01X28847Y15746D01*
G01X28847Y15637D01*
G01X28792Y15473D01*
G01X28683Y15364D01*
G01X28574Y15309D01*
G01X28410Y15309D01*
G01X28301Y15364D01*
G01X28192Y15473D01*
G01X27832Y16073D02*
G01X27505Y15309D01*
G01X27178Y16073D02*
G01X27505Y15309D01*
G01X75412Y3728D02*
G01X75412Y2010D01*
G01X75412Y3728D02*
G01X74349Y3728D01*
G01X75412Y2910D02*
G01X74758Y2910D01*
G01X72909Y2910D02*
G01X72991Y3073D01*
G01X73236Y3155D01*
G01X73481Y3155D01*
G01X73727Y3073D01*
G01X73809Y2910D01*
G01X73727Y2746D01*
G01X73563Y2664D01*
G01X73154Y2582D01*
G01X72991Y2500D01*
G01X72909Y2337D01*
G01X72909Y2255D01*
G01X72991Y2091D01*
G01X73236Y2010D01*
G01X73481Y2010D01*
G01X73727Y2091D01*
G01X73809Y2255D01*
G01X71960Y3155D02*
G01X72123Y3073D01*
G01X72287Y2910D01*
G01X72369Y2664D01*
G01X72369Y2500D01*
G01X72287Y2255D01*
G01X72123Y2091D01*
G01X71960Y2010D01*
G01X71714Y2010D01*
G01X71551Y2091D01*
G01X71387Y2255D01*
G01X71305Y2500D01*
G01X71305Y2664D01*
G01X71387Y2910D01*
G01X71551Y3073D01*
G01X71714Y3155D01*
G01X71960Y3155D01*
G01X70111Y3728D02*
G01X70274Y3728D01*
G01X70438Y3646D01*
G01X70520Y3400D01*
G01X70520Y2010D01*
G01X70765Y3155D02*
G01X70192Y3155D01*
G01X69325Y3728D02*
G01X69325Y2337D01*
G01X69243Y2091D01*
G01X69080Y2010D01*
G01X68916Y2010D01*
G01X69571Y3155D02*
G01X68998Y3155D01*
G01X67116Y3728D02*
G01X67116Y2010D01*
G01X67116Y3728D02*
G01X66380Y3728D01*
G01X66134Y3646D01*
G01X66052Y3564D01*
G01X65971Y3400D01*
G01X65971Y3155D01*
G01X66052Y2991D01*
G01X66134Y2910D01*
G01X66380Y2828D01*
G01X67116Y2828D01*
G01X65431Y3155D02*
G01X65431Y2010D01*
G01X65431Y2664D02*
G01X65349Y2910D01*
G01X65185Y3073D01*
G01X65021Y3155D01*
G01X64776Y3155D01*
G01X63827Y3155D02*
G01X63991Y3073D01*
G01X64154Y2910D01*
G01X64236Y2664D01*
G01X64236Y2500D01*
G01X64154Y2255D01*
G01X63991Y2091D01*
G01X63827Y2010D01*
G01X63581Y2010D01*
G01X63418Y2091D01*
G01X63254Y2255D01*
G01X63172Y2500D01*
G01X63172Y2664D01*
G01X63254Y2910D01*
G01X63418Y3073D01*
G01X63581Y3155D01*
G01X63827Y3155D01*
G01X61651Y3728D02*
G01X61651Y2010D01*
G01X61651Y2910D02*
G01X61814Y3073D01*
G01X61978Y3155D01*
G01X62223Y3155D01*
G01X62387Y3073D01*
G01X62551Y2910D01*
G01X62632Y2664D01*
G01X62632Y2500D01*
G01X62551Y2255D01*
G01X62387Y2091D01*
G01X62223Y2010D01*
G01X61978Y2010D01*
G01X61814Y2091D01*
G01X61651Y2255D01*
G01X61111Y3155D02*
G01X61111Y2337D01*
G01X61029Y2091D01*
G01X60865Y2010D01*
G01X60620Y2010D01*
G01X60456Y2091D01*
G01X60211Y2337D01*
G01X60211Y3155D02*
G01X60211Y2010D01*
G01X58689Y2910D02*
G01X58852Y3073D01*
G01X59016Y3155D01*
G01X59261Y3155D01*
G01X59425Y3073D01*
G01X59589Y2910D01*
G01X59671Y2664D01*
G01X59671Y2500D01*
G01X59589Y2255D01*
G01X59425Y2091D01*
G01X59261Y2010D01*
G01X59016Y2010D01*
G01X58852Y2091D01*
G01X58689Y2255D01*
G01X57903Y3728D02*
G01X57903Y2337D01*
G01X57821Y2091D01*
G01X57658Y2010D01*
G01X57494Y2010D01*
G01X58149Y3155D02*
G01X57576Y3155D01*
G01X56954Y3728D02*
G01X56872Y3646D01*
G01X56791Y3728D01*
G01X56872Y3810D01*
G01X56954Y3728D01*
G01X56872Y3155D02*
G01X56872Y2010D01*
G01X55841Y3155D02*
G01X56005Y3073D01*
G01X56169Y2910D01*
G01X56251Y2664D01*
G01X56251Y2500D01*
G01X56169Y2255D01*
G01X56005Y2091D01*
G01X55841Y2010D01*
G01X55596Y2010D01*
G01X55432Y2091D01*
G01X55269Y2255D01*
G01X55187Y2500D01*
G01X55187Y2664D01*
G01X55269Y2910D01*
G01X55432Y3073D01*
G01X55596Y3155D01*
G01X55841Y3155D01*
G01X54647Y3155D02*
G01X54647Y2010D01*
G01X54647Y2828D02*
G01X54401Y3073D01*
G01X54238Y3155D01*
G01X53992Y3155D01*
G01X53829Y3073D01*
G01X53747Y2828D01*
G01X53747Y2010D01*
G01X51865Y3319D02*
G01X51865Y3400D01*
G01X51783Y3564D01*
G01X51701Y3646D01*
G01X51538Y3728D01*
G01X51211Y3728D01*
G01X51047Y3646D01*
G01X50965Y3564D01*
G01X50883Y3400D01*
G01X50883Y3237D01*
G01X50965Y3073D01*
G01X51129Y2828D01*
G01X51947Y2010D01*
G01X50801Y2010D01*
G01X49771Y3728D02*
G01X50016Y3646D01*
G01X50180Y3400D01*
G01X50261Y2991D01*
G01X50261Y2746D01*
G01X50180Y2337D01*
G01X50016Y2091D01*
G01X49771Y2010D01*
G01X49607Y2010D01*
G01X49361Y2091D01*
G01X49198Y2337D01*
G01X49116Y2746D01*
G01X49116Y2991D01*
G01X49198Y3400D01*
G01X49361Y3646D01*
G01X49607Y3728D01*
G01X49771Y3728D01*
G01X48576Y3400D02*
G01X48412Y3482D01*
G01X48167Y3728D01*
G01X48167Y2010D01*
G01X47218Y3728D02*
G01X47463Y3646D01*
G01X47545Y3482D01*
G01X47545Y3319D01*
G01X47463Y3155D01*
G01X47300Y3073D01*
G01X46972Y2991D01*
G01X46727Y2910D01*
G01X46563Y2746D01*
G01X46481Y2582D01*
G01X46481Y2337D01*
G01X46563Y2173D01*
G01X46645Y2091D01*
G01X46891Y2010D01*
G01X47218Y2010D01*
G01X47463Y2091D01*
G01X47545Y2173D01*
G01X47627Y2337D01*
G01X47627Y2582D01*
G01X47545Y2746D01*
G01X47381Y2910D01*
G01X47136Y2991D01*
G01X46809Y3073D01*
G01X46645Y3155D01*
G01X46563Y3319D01*
G01X46563Y3482D01*
G01X46645Y3646D01*
G01X46891Y3728D01*
G01X47218Y3728D01*
G01X52488Y14568D02*
G01X52597Y14677D01*
G01X52761Y14732D01*
G01X52979Y14732D01*
G01X53143Y14677D01*
G01X53252Y14568D01*
G01X53252Y14459D01*
G01X53197Y14350D01*
G01X53143Y14295D01*
G01X53033Y14241D01*
G01X52706Y14132D01*
G01X52597Y14077D01*
G01X52543Y14022D01*
G01X52488Y13913D01*
G01X52488Y13750D01*
G01X52597Y13641D01*
G01X52761Y13586D01*
G01X52979Y13586D01*
G01X53143Y13641D01*
G01X53252Y13750D01*
G01X51964Y14732D02*
G01X51964Y13804D01*
G01X51910Y13641D01*
G01X51801Y13586D01*
G01X51692Y13586D01*
G01X52128Y14350D02*
G01X51746Y14350D01*
G01X50677Y14350D02*
G01X50677Y13586D01*
G01X50677Y14186D02*
G01X50786Y14295D01*
G01X50895Y14350D01*
G01X51059Y14350D01*
G01X51168Y14295D01*
G01X51277Y14186D01*
G01X51332Y14022D01*
G01X51332Y13913D01*
G01X51277Y13750D01*
G01X51168Y13641D01*
G01X51059Y13586D01*
G01X50895Y13586D01*
G01X50786Y13641D01*
G01X50677Y13750D01*
G01X50317Y14350D02*
G01X50317Y13586D01*
G01X50317Y14132D02*
G01X50154Y14295D01*
G01X50044Y14350D01*
G01X49881Y14350D01*
G01X49772Y14295D01*
G01X49717Y14132D01*
G01X49717Y13586D01*
G01X48703Y14732D02*
G01X48703Y13586D01*
G01X48703Y14186D02*
G01X48812Y14295D01*
G01X48921Y14350D01*
G01X49084Y14350D01*
G01X49193Y14295D01*
G01X49303Y14186D01*
G01X49357Y14022D01*
G01X49357Y13913D01*
G01X49303Y13750D01*
G01X49193Y13641D01*
G01X49084Y13586D01*
G01X48921Y13586D01*
G01X48812Y13641D01*
G01X48703Y13750D01*
G01X48343Y14732D02*
G01X48343Y13586D01*
G01X48343Y14186D02*
G01X48233Y14295D01*
G01X48124Y14350D01*
G01X47961Y14350D01*
G01X47852Y14295D01*
G01X47743Y14186D01*
G01X47688Y14022D01*
G01X47688Y13913D01*
G01X47743Y13750D01*
G01X47852Y13641D01*
G01X47961Y13586D01*
G01X48124Y13586D01*
G01X48233Y13641D01*
G01X48343Y13750D01*
G01X47273Y14350D02*
G01X46946Y13586D01*
G01X46619Y14350D02*
G01X46946Y13586D01*
G01X47055Y13368D01*
G01X47164Y13259D01*
G01X47273Y13204D01*
G01X47328Y13204D01*
G01X44764Y14186D02*
G01X44874Y14295D01*
G01X44983Y14350D01*
G01X45146Y14350D01*
G01X45255Y14295D01*
G01X45364Y14186D01*
G01X45419Y14022D01*
G01X45419Y13913D01*
G01X45364Y13750D01*
G01X45255Y13641D01*
G01X45146Y13586D01*
G01X44983Y13586D01*
G01X44874Y13641D01*
G01X44764Y13750D01*
G01X44404Y14350D02*
G01X44404Y13804D01*
G01X44350Y13641D01*
G01X44241Y13586D01*
G01X44077Y13586D01*
G01X43968Y13641D01*
G01X43804Y13804D01*
G01X43804Y14350D02*
G01X43804Y13586D01*
G01X43444Y14350D02*
G01X43444Y13586D01*
G01X43444Y14022D02*
G01X43390Y14186D01*
G01X43281Y14295D01*
G01X43172Y14350D01*
G01X43008Y14350D01*
G01X42648Y14350D02*
G01X42648Y13586D01*
G01X42648Y14022D02*
G01X42593Y14186D01*
G01X42484Y14295D01*
G01X42375Y14350D01*
G01X42212Y14350D01*
G01X41852Y14022D02*
G01X41197Y14022D01*
G01X41197Y14132D01*
G01X41252Y14241D01*
G01X41306Y14295D01*
G01X41415Y14350D01*
G01X41579Y14350D01*
G01X41688Y14295D01*
G01X41797Y14186D01*
G01X41852Y14022D01*
G01X41852Y13913D01*
G01X41797Y13750D01*
G01X41688Y13641D01*
G01X41579Y13586D01*
G01X41415Y13586D01*
G01X41306Y13641D01*
G01X41197Y13750D01*
G01X40837Y14350D02*
G01X40837Y13586D01*
G01X40837Y14132D02*
G01X40674Y14295D01*
G01X40564Y14350D01*
G01X40401Y14350D01*
G01X40292Y14295D01*
G01X40237Y14132D01*
G01X40237Y13586D01*
G01X39714Y14732D02*
G01X39714Y13804D01*
G01X39659Y13641D01*
G01X39550Y13586D01*
G01X39441Y13586D01*
G01X39877Y14350D02*
G01X39495Y14350D01*
G01X39026Y14241D02*
G01X39081Y14186D01*
G01X39026Y14132D01*
G01X38972Y14186D01*
G01X39026Y14241D01*
G01X39026Y13859D02*
G01X39081Y13804D01*
G01X39026Y13750D01*
G01X38972Y13804D01*
G01X39026Y13859D01*
G01X37663Y14732D02*
G01X37063Y14732D01*
G01X37390Y14295D01*
G01X37226Y14295D01*
G01X37117Y14241D01*
G01X37063Y14186D01*
G01X37008Y14022D01*
G01X37008Y13913D01*
G01X37063Y13750D01*
G01X37172Y13641D01*
G01X37335Y13586D01*
G01X37499Y13586D01*
G01X37663Y13641D01*
G01X37717Y13695D01*
G01X37772Y13804D01*
G01X35994Y14732D02*
G01X36539Y14732D01*
G01X36594Y14241D01*
G01X36539Y14295D01*
G01X36375Y14350D01*
G01X36212Y14350D01*
G01X36048Y14295D01*
G01X35939Y14186D01*
G01X35884Y14022D01*
G01X35884Y13913D01*
G01X35939Y13750D01*
G01X36048Y13641D01*
G01X36212Y13586D01*
G01X36375Y13586D01*
G01X36539Y13641D01*
G01X36594Y13695D01*
G01X36648Y13804D01*
G01X35524Y14350D02*
G01X35524Y13586D01*
G01X35524Y14132D02*
G01X35361Y14295D01*
G01X35252Y14350D01*
G01X35088Y14350D01*
G01X34979Y14295D01*
G01X34924Y14132D01*
G01X34924Y13586D01*
G01X34924Y14132D02*
G01X34761Y14295D01*
G01X34652Y14350D01*
G01X34488Y14350D01*
G01X34379Y14295D01*
G01X34324Y14132D01*
G01X34324Y13586D01*
G01X33528Y14732D02*
G01X33964Y13586D01*
G01X33528Y14732D02*
G01X33092Y13586D01*
G01X33801Y13968D02*
G01X33255Y13968D01*
G01X52749Y12954D02*
G01X53186Y11808D01*
G01X52749Y12954D02*
G01X52313Y11808D01*
G01X53022Y12190D02*
G01X52477Y12190D01*
G01X51953Y12954D02*
G01X51953Y11808D01*
G01X51593Y12954D02*
G01X51593Y11808D01*
G01X50960Y12572D02*
G01X51069Y12517D01*
G01X51178Y12408D01*
G01X51233Y12244D01*
G01X51233Y12135D01*
G01X51178Y11972D01*
G01X51069Y11863D01*
G01X50960Y11808D01*
G01X50797Y11808D01*
G01X50688Y11863D01*
G01X50578Y11972D01*
G01X50524Y12135D01*
G01X50524Y12244D01*
G01X50578Y12408D01*
G01X50688Y12517D01*
G01X50797Y12572D01*
G01X50960Y12572D01*
G01X50164Y12572D02*
G01X49946Y11808D01*
G01X49728Y12572D02*
G01X49946Y11808D01*
G01X49728Y12572D02*
G01X49509Y11808D01*
G01X49291Y12572D02*
G01X49509Y11808D01*
G01X48931Y12244D02*
G01X48277Y12244D01*
G01X48277Y12354D01*
G01X48331Y12463D01*
G01X48386Y12517D01*
G01X48495Y12572D01*
G01X48658Y12572D01*
G01X48768Y12517D01*
G01X48877Y12408D01*
G01X48931Y12244D01*
G01X48931Y12135D01*
G01X48877Y11972D01*
G01X48768Y11863D01*
G01X48658Y11808D01*
G01X48495Y11808D01*
G01X48386Y11863D01*
G01X48277Y11972D01*
G01X47262Y12954D02*
G01X47262Y11808D01*
G01X47262Y12408D02*
G01X47371Y12517D01*
G01X47480Y12572D01*
G01X47644Y12572D01*
G01X47753Y12517D01*
G01X47862Y12408D01*
G01X47917Y12244D01*
G01X47917Y12135D01*
G01X47862Y11972D01*
G01X47753Y11863D01*
G01X47644Y11808D01*
G01X47480Y11808D01*
G01X47371Y11863D01*
G01X47262Y11972D01*
G01X46062Y12572D02*
G01X45735Y11808D01*
G01X45408Y12572D02*
G01X45735Y11808D01*
G01X44775Y12572D02*
G01X44884Y12517D01*
G01X44993Y12408D01*
G01X45048Y12244D01*
G01X45048Y12135D01*
G01X44993Y11972D01*
G01X44884Y11863D01*
G01X44775Y11808D01*
G01X44611Y11808D01*
G01X44502Y11863D01*
G01X44393Y11972D01*
G01X44338Y12135D01*
G01X44338Y12244D01*
G01X44393Y12408D01*
G01X44502Y12517D01*
G01X44611Y12572D01*
G01X44775Y12572D01*
G01X43978Y12954D02*
G01X43978Y11808D01*
G01X43455Y12954D02*
G01X43455Y12026D01*
G01X43400Y11863D01*
G01X43291Y11808D01*
G01X43182Y11808D01*
G01X43618Y12572D02*
G01X43237Y12572D01*
G01X42168Y12572D02*
G01X42168Y11808D01*
G01X42168Y12408D02*
G01X42277Y12517D01*
G01X42386Y12572D01*
G01X42549Y12572D01*
G01X42658Y12517D01*
G01X42768Y12408D01*
G01X42822Y12244D01*
G01X42822Y12135D01*
G01X42768Y11972D01*
G01X42658Y11863D01*
G01X42549Y11808D01*
G01X42386Y11808D01*
G01X42277Y11863D01*
G01X42168Y11972D01*
G01X41153Y12572D02*
G01X41153Y11699D01*
G01X41208Y11535D01*
G01X41262Y11481D01*
G01X41371Y11426D01*
G01X41535Y11426D01*
G01X41644Y11481D01*
G01X41153Y12408D02*
G01X41262Y12517D01*
G01X41371Y12572D01*
G01X41535Y12572D01*
G01X41644Y12517D01*
G01X41753Y12408D01*
G01X41808Y12244D01*
G01X41808Y12135D01*
G01X41753Y11972D01*
G01X41644Y11863D01*
G01X41535Y11808D01*
G01X41371Y11808D01*
G01X41262Y11863D01*
G01X41153Y11972D01*
G01X40793Y12244D02*
G01X40138Y12244D01*
G01X40138Y12354D01*
G01X40193Y12463D01*
G01X40248Y12517D01*
G01X40357Y12572D01*
G01X40520Y12572D01*
G01X40629Y12517D01*
G01X40738Y12408D01*
G01X40793Y12244D01*
G01X40793Y12135D01*
G01X40738Y11972D01*
G01X40629Y11863D01*
G01X40520Y11808D01*
G01X40357Y11808D01*
G01X40248Y11863D01*
G01X40138Y11972D01*
G01X39724Y12463D02*
G01X39778Y12408D01*
G01X39724Y12354D01*
G01X39669Y12408D01*
G01X39724Y12463D01*
G01X39724Y12081D02*
G01X39778Y12026D01*
G01X39724Y11972D01*
G01X39669Y12026D01*
G01X39724Y12081D01*
G01X37815Y12954D02*
G01X38360Y12954D01*
G01X38415Y12463D01*
G01X38360Y12517D01*
G01X38197Y12572D01*
G01X38033Y12572D01*
G01X37869Y12517D01*
G01X37760Y12408D01*
G01X37706Y12244D01*
G01X37706Y12135D01*
G01X37760Y11972D01*
G01X37869Y11863D01*
G01X38033Y11808D01*
G01X38197Y11808D01*
G01X38360Y11863D01*
G01X38415Y11917D01*
G01X38469Y12026D01*
G01X37291Y12081D02*
G01X37346Y12026D01*
G01X37291Y11972D01*
G01X37237Y12026D01*
G01X37291Y12081D01*
G01X36822Y12081D02*
G01X36877Y12026D01*
G01X36822Y11972D01*
G01X36768Y12026D01*
G01X36822Y12081D01*
G01X36353Y12081D02*
G01X36408Y12026D01*
G01X36353Y11972D01*
G01X36298Y12026D01*
G01X36353Y12081D01*
G01X35938Y12735D02*
G01X35829Y12790D01*
G01X35666Y12954D01*
G01X35666Y11808D01*
G01X35033Y12954D02*
G01X35197Y12899D01*
G01X35251Y12790D01*
G01X35251Y12681D01*
G01X35197Y12572D01*
G01X35088Y12517D01*
G01X34869Y12463D01*
G01X34706Y12408D01*
G01X34597Y12299D01*
G01X34542Y12190D01*
G01X34542Y12026D01*
G01X34597Y11917D01*
G01X34651Y11863D01*
G01X34815Y11808D01*
G01X35033Y11808D01*
G01X35197Y11863D01*
G01X35251Y11917D01*
G01X35306Y12026D01*
G01X35306Y12190D01*
G01X35251Y12299D01*
G01X35142Y12408D01*
G01X34978Y12463D01*
G01X34760Y12517D01*
G01X34651Y12572D01*
G01X34597Y12681D01*
G01X34597Y12790D01*
G01X34651Y12899D01*
G01X34815Y12954D01*
G01X35033Y12954D01*
G01X34182Y12572D02*
G01X33855Y11808D01*
G01X33528Y12572D02*
G01X33855Y11808D01*
G01X53086Y11068D02*
G01X53086Y9923D01*
G01X53086Y11068D02*
G01X52649Y9923D01*
G01X52213Y11068D02*
G01X52649Y9923D01*
G01X52213Y11068D02*
G01X52213Y9923D01*
G01X51198Y10686D02*
G01X51198Y9923D01*
G01X51198Y10523D02*
G01X51307Y10632D01*
G01X51416Y10686D01*
G01X51580Y10686D01*
G01X51689Y10632D01*
G01X51798Y10523D01*
G01X51853Y10359D01*
G01X51853Y10250D01*
G01X51798Y10086D01*
G01X51689Y9977D01*
G01X51580Y9923D01*
G01X51416Y9923D01*
G01X51307Y9977D01*
G01X51198Y10086D01*
G01X50838Y10686D02*
G01X50238Y9923D01*
G01X50238Y10686D02*
G01X50838Y9923D01*
G01X48384Y10523D02*
G01X48493Y10632D01*
G01X48602Y10686D01*
G01X48766Y10686D01*
G01X48875Y10632D01*
G01X48984Y10523D01*
G01X49038Y10359D01*
G01X49038Y10250D01*
G01X48984Y10086D01*
G01X48875Y9977D01*
G01X48766Y9923D01*
G01X48602Y9923D01*
G01X48493Y9977D01*
G01X48384Y10086D01*
G01X48024Y10686D02*
G01X48024Y10141D01*
G01X47969Y9977D01*
G01X47860Y9923D01*
G01X47696Y9923D01*
G01X47587Y9977D01*
G01X47424Y10141D01*
G01X47424Y10686D02*
G01X47424Y9923D01*
G01X47064Y10686D02*
G01X47064Y9923D01*
G01X47064Y10359D02*
G01X47009Y10523D01*
G01X46900Y10632D01*
G01X46791Y10686D01*
G01X46627Y10686D01*
G01X46267Y10686D02*
G01X46267Y9923D01*
G01X46267Y10359D02*
G01X46213Y10523D01*
G01X46104Y10632D01*
G01X45995Y10686D01*
G01X45831Y10686D01*
G01X45471Y10359D02*
G01X44816Y10359D01*
G01X44816Y10468D01*
G01X44871Y10577D01*
G01X44926Y10632D01*
G01X45035Y10686D01*
G01X45198Y10686D01*
G01X45307Y10632D01*
G01X45416Y10523D01*
G01X45471Y10359D01*
G01X45471Y10250D01*
G01X45416Y10086D01*
G01X45307Y9977D01*
G01X45198Y9923D01*
G01X45035Y9923D01*
G01X44926Y9977D01*
G01X44816Y10086D01*
G01X44456Y10686D02*
G01X44456Y9923D01*
G01X44456Y10468D02*
G01X44293Y10632D01*
G01X44184Y10686D01*
G01X44020Y10686D01*
G01X43911Y10632D01*
G01X43856Y10468D01*
G01X43856Y9923D01*
G01X43333Y11068D02*
G01X43333Y10141D01*
G01X43278Y9977D01*
G01X43169Y9923D01*
G01X43060Y9923D01*
G01X43496Y10686D02*
G01X43115Y10686D01*
G01X42646Y10577D02*
G01X42700Y10523D01*
G01X42646Y10468D01*
G01X42591Y10523D01*
G01X42646Y10577D01*
G01X42646Y10195D02*
G01X42700Y10141D01*
G01X42646Y10086D01*
G01X42591Y10141D01*
G01X42646Y10195D01*
G01X40736Y11068D02*
G01X41282Y11068D01*
G01X41336Y10577D01*
G01X41282Y10632D01*
G01X41118Y10686D01*
G01X40955Y10686D01*
G01X40791Y10632D01*
G01X40682Y10523D01*
G01X40627Y10359D01*
G01X40627Y10250D01*
G01X40682Y10086D01*
G01X40791Y9977D01*
G01X40955Y9923D01*
G01X41118Y9923D01*
G01X41282Y9977D01*
G01X41336Y10032D01*
G01X41391Y10141D01*
G01X39831Y11068D02*
G01X40267Y9923D01*
G01X39831Y11068D02*
G01X39395Y9923D01*
G01X40104Y10304D02*
G01X39558Y10304D01*
G54D16*
G01X65278Y18542D02*
G01X66369Y18542D01*
G01X65278Y18542D02*
G01X65278Y18074D01*
G01X65330Y17918D01*
G01X65382Y17866D01*
G01X65485Y17814D01*
G01X65589Y17814D01*
G01X65693Y17866D01*
G01X65745Y17918D01*
G01X65797Y18074D01*
G01X65797Y18542D01*
G01X65797Y18178D02*
G01X66369Y17814D01*
G01X65433Y16848D02*
G01X65330Y16900D01*
G01X65278Y17056D01*
G01X65278Y17160D01*
G01X65330Y17315D01*
G01X65485Y17419D01*
G01X65745Y17471D01*
G01X66005Y17471D01*
G01X66213Y17419D01*
G01X66317Y17315D01*
G01X66369Y17160D01*
G01X66369Y17108D01*
G01X66317Y16952D01*
G01X66213Y16848D01*
G01X66057Y16796D01*
G01X66005Y16796D01*
G01X65849Y16848D01*
G01X65745Y16952D01*
G01X65693Y17108D01*
G01X65693Y17160D01*
G01X65745Y17315D01*
G01X65849Y17419D01*
G01X66005Y17471D01*
G01X65641Y16193D02*
G01X65693Y16297D01*
G01X65797Y16401D01*
G01X65953Y16453D01*
G01X66057Y16453D01*
G01X66213Y16401D01*
G01X66317Y16297D01*
G01X66369Y16193D01*
G01X66369Y16037D01*
G01X66317Y15933D01*
G01X66213Y15829D01*
G01X66057Y15778D01*
G01X65953Y15778D01*
G01X65797Y15829D01*
G01X65693Y15933D01*
G01X65641Y16037D01*
G01X65641Y16193D01*
G01X65641Y15435D02*
G01X66369Y15435D01*
G01X65849Y15435D02*
G01X65693Y15279D01*
G01X65641Y15175D01*
G01X65641Y15019D01*
G01X65693Y14915D01*
G01X65849Y14863D01*
G01X66369Y14863D01*
G01X65849Y14863D02*
G01X65693Y14707D01*
G01X65641Y14603D01*
G01X65641Y14447D01*
G01X65693Y14344D01*
G01X65849Y14292D01*
G01X66369Y14292D01*
G01X12189Y16766D02*
G01X13280Y16766D01*
G01X12189Y16766D02*
G01X12189Y16298D01*
G01X12241Y16143D01*
G01X12293Y16091D01*
G01X12397Y16039D01*
G01X12501Y16039D01*
G01X12605Y16091D01*
G01X12657Y16143D01*
G01X12709Y16298D01*
G01X12709Y16766D01*
G01X12709Y16402D02*
G01X13280Y16039D01*
G01X12345Y15072D02*
G01X12241Y15124D01*
G01X12189Y15280D01*
G01X12189Y15384D01*
G01X12241Y15540D01*
G01X12397Y15644D01*
G01X12657Y15696D01*
G01X12916Y15696D01*
G01X13124Y15644D01*
G01X13228Y15540D01*
G01X13280Y15384D01*
G01X13280Y15332D01*
G01X13228Y15176D01*
G01X13124Y15072D01*
G01X12968Y15020D01*
G01X12916Y15020D01*
G01X12761Y15072D01*
G01X12657Y15176D01*
G01X12605Y15332D01*
G01X12605Y15384D01*
G01X12657Y15540D01*
G01X12761Y15644D01*
G01X12916Y15696D01*
G01X12553Y14418D02*
G01X12605Y14522D01*
G01X12709Y14626D01*
G01X12864Y14677D01*
G01X12968Y14677D01*
G01X13124Y14626D01*
G01X13228Y14522D01*
G01X13280Y14418D01*
G01X13280Y14262D01*
G01X13228Y14158D01*
G01X13124Y14054D01*
G01X12968Y14002D01*
G01X12864Y14002D01*
G01X12709Y14054D01*
G01X12605Y14158D01*
G01X12553Y14262D01*
G01X12553Y14418D01*
G01X12553Y13659D02*
G01X13280Y13659D01*
G01X12761Y13659D02*
G01X12605Y13503D01*
G01X12553Y13399D01*
G01X12553Y13244D01*
G01X12605Y13140D01*
G01X12761Y13088D01*
G01X13280Y13088D01*
G01X12761Y13088D02*
G01X12605Y12932D01*
G01X12553Y12828D01*
G01X12553Y12672D01*
G01X12605Y12568D01*
G01X12761Y12516D01*
G01X13280Y12516D01*
G54D36*
G01X6351Y28702D03*
G01X6351Y25247D03*
G01X10161Y28702D03*
G01X10161Y25247D03*
G01X13971Y28702D03*
G01X13971Y25247D03*
G01X17781Y28702D03*
G01X17781Y25247D03*
G01X21591Y28702D03*
G01X21591Y25247D03*
G01X55373Y28702D03*
G01X55373Y25247D03*
G01X59183Y28702D03*
G01X59183Y25247D03*
G01X62993Y28702D03*
G01X62993Y25247D03*
G01X66803Y28702D03*
G01X66803Y25247D03*
G01X70613Y28702D03*
G01X70613Y25247D03*
G54D24*
G01X68324Y15495D03*
G01X68324Y17476D03*
G01X10158Y13717D03*
G01X10158Y15698D03*
G54D30*
G01X56896Y16637D03*
G54D31*
G01X26670Y7112D03*
G01X29972Y7112D03*
G01X34290Y7112D03*
G54D32*
G01X41148Y7112D03*
G54D31*
G01X17780Y7112D03*
G54D18*
G01X67818Y22352D03*
G01X68326Y11684D03*
G54D33*
G01X3556Y18034D03*
G01X5080Y18034D03*
G01X2032Y18034D03*
G01X3556Y16510D03*
G01X5080Y16510D03*
G01X2032Y16510D03*
G01X3556Y19558D03*
G01X5080Y19558D03*
G01X2032Y19558D03*
G01X3556Y10414D03*
G01X5080Y10414D03*
G01X2032Y10414D03*
G01X3556Y8890D03*
G01X5080Y8890D03*
G01X2032Y8890D03*
G01X3556Y11938D03*
G01X5080Y11938D03*
G01X2032Y11938D03*
G01X73914Y10922D03*
G01X75438Y10922D03*
G01X72390Y10922D03*
G01X73914Y9398D03*
G01X75438Y9398D03*
G01X72390Y9398D03*
G01X73914Y12446D03*
G01X75438Y12446D03*
G01X72390Y12446D03*
G01X73914Y18034D03*
G01X75438Y18034D03*
G01X72390Y18034D03*
G01X73914Y16510D03*
G01X75438Y16510D03*
G01X72390Y16510D03*
G01X73914Y19558D03*
G01X75438Y19558D03*
G01X72390Y19558D03*
G54D34*
G01X57145Y11557D02*
G01X56646Y11557D01*
G01X57145Y14097D02*
G01X56646Y14097D01*
G54D35*
G01X17780Y14478D02*
G01X17779Y14478D01*
G54D18*
G01X17780Y12192D02*
G01X17780Y12192D01*
G01X18542Y9906D02*
G01X18542Y9906D01*
G01X16256Y3556D02*
G01X16256Y3556D01*
M00*
M02*
