G04 ---------------------------- Layer name :TOP SILK LAYER*
G04 EasyEDA v5.6.10, Sat, 14 Jul 2018 09:59:27 GMT*
G04 2f10b13e7a714cddaf66bfbe285f99f1*
G04 Gerber Generator version 0.2*
G04 Scale: 100 percent, Rotated: No, Reflected: No *
G04 Dimensions in millimeters *
G04 leading zeros omitted , absolute positions ,3 integer and 3 decimal *
%FSLAX33Y33*%
%MOMM*%
G90*
G71D02*

%ADD10C,0.254000*%
%ADD11C,0.399999*%
%ADD15C,0.203200*%
%ADD16C,0.177800*%
%ADD17C,0.178003*%
%ADD37C,0.119990*%
%ADD38C,0.249999*%
%ADD39C,0.330200*%
%ADD40C,0.202999*%
%ADD41C,0.299999*%

%LPD*%
G54D37*
G01X9984Y11066D02*
G01X13746Y11066D01*
G01X13746Y12329D01*
G01X7736Y17889D02*
G01X13746Y17889D01*
G01X13746Y16626D01*
G54D10*
G01X35991Y17932D02*
G01X36093Y17932D01*
G01X36093Y16611D01*
G01X35991Y16611D01*
G01X32588Y16611D02*
G01X32435Y16611D01*
G01X32435Y17932D01*
G01X32588Y17932D01*
G01X68171Y24521D02*
G01X66169Y24521D01*
G01X66169Y25521D01*
G01X74170Y30520D02*
G01X76169Y30520D01*
G01X76169Y29519D01*
G01X66169Y29519D02*
G01X66169Y30520D01*
G01X68171Y30520D01*
G01X76169Y25521D02*
G01X76169Y24521D01*
G01X74170Y24521D01*
G54D38*
G01X58379Y29931D02*
G01X58379Y24932D01*
G01X58379Y24932D02*
G01X53380Y24932D01*
G01X53380Y29931D02*
G01X53380Y24932D01*
G01X58379Y29933D02*
G01X53380Y29933D01*
G01X43395Y29931D02*
G01X43395Y24932D01*
G01X43395Y24932D02*
G01X38394Y24932D01*
G01X38394Y29931D02*
G01X38394Y24932D01*
G01X43395Y29933D02*
G01X38394Y29933D01*
G01X28407Y29931D02*
G01X28407Y24932D01*
G01X28407Y24932D02*
G01X23408Y24932D01*
G01X23408Y29931D02*
G01X23408Y24932D01*
G01X28407Y29933D02*
G01X23408Y29933D01*
G01X13423Y29931D02*
G01X13423Y24932D01*
G01X13423Y24932D02*
G01X8422Y24932D01*
G01X8422Y29931D02*
G01X8422Y24932D01*
G01X13423Y29933D02*
G01X8422Y29933D01*
G54D39*
G01X64637Y10779D02*
G01X64637Y9032D01*
G54D10*
G01X63312Y10833D02*
G01X65112Y10833D01*
G01X65112Y8978D01*
G01X62113Y10833D02*
G01X60838Y10833D01*
G01X60838Y8978D01*
G01X60838Y8978D02*
G01X62113Y8978D01*
G01X63312Y8978D02*
G01X65112Y8978D01*
G54D39*
G01X11054Y4968D02*
G01X11054Y6715D01*
G54D10*
G01X12379Y4914D02*
G01X10579Y4914D01*
G01X10579Y6769D01*
G01X13578Y4914D02*
G01X14853Y4914D01*
G01X14853Y6769D01*
G01X14853Y6769D02*
G01X13578Y6769D01*
G01X12379Y6769D02*
G01X10579Y6769D01*
G54D39*
G01X11054Y2682D02*
G01X11054Y4429D01*
G54D10*
G01X12379Y2628D02*
G01X10579Y2628D01*
G01X10579Y4483D01*
G01X13578Y2628D02*
G01X14853Y2628D01*
G01X14853Y4483D01*
G01X14853Y4483D02*
G01X13578Y4483D01*
G01X12379Y4483D02*
G01X10579Y4483D01*
G01X59695Y19397D02*
G01X59695Y8796D01*
G01X54897Y8796D01*
G01X54897Y19397D01*
G01X59695Y19397D01*
G01X59197Y8796D02*
G01X59197Y19397D01*
G01X22451Y11783D02*
G01X28348Y11783D01*
G01X28348Y17680D01*
G01X22451Y17680D01*
G01X22451Y11783D01*
G54D15*
G01X27940Y5842D02*
G01X25400Y5842D01*
G01X25400Y8382D01*
G01X27940Y8382D01*
G01X27940Y6477D01*
G54D40*
G01X27940Y5842D02*
G01X27940Y6477D01*
G54D15*
G01X31242Y5842D02*
G01X28702Y5842D01*
G01X28702Y8382D01*
G01X31242Y8382D01*
G01X31242Y6477D01*
G54D40*
G01X31242Y5842D02*
G01X31242Y6477D01*
G54D15*
G01X35560Y5842D02*
G01X33020Y5842D01*
G01X33020Y8382D01*
G01X35560Y8382D01*
G01X35560Y6477D01*
G54D40*
G01X35560Y5842D02*
G01X35560Y6477D01*
G54D15*
G01X42418Y5842D02*
G01X39878Y5842D01*
G01X39878Y8382D01*
G01X42418Y8382D01*
G01X42418Y6477D01*
G54D40*
G01X42418Y5842D02*
G01X42418Y6477D01*
G54D15*
G01X19050Y5842D02*
G01X16510Y5842D01*
G01X16510Y8382D01*
G01X19050Y8382D01*
G01X19050Y6477D01*
G54D40*
G01X19050Y5842D02*
G01X19050Y6477D01*
G54D39*
G01X16113Y22230D02*
G01X14366Y22230D01*
G54D10*
G01X16167Y23555D02*
G01X16167Y21755D01*
G01X14312Y21755D01*
G01X16167Y24754D02*
G01X16167Y26029D01*
G01X14312Y26029D01*
G01X14312Y26029D02*
G01X14312Y24754D01*
G01X14312Y23555D02*
G01X14312Y21755D01*
G54D39*
G01X18145Y22230D02*
G01X16398Y22230D01*
G54D10*
G01X18199Y23555D02*
G01X18199Y21755D01*
G01X16344Y21755D01*
G01X18199Y24754D02*
G01X18199Y26029D01*
G01X16344Y26029D01*
G01X16344Y26029D02*
G01X16344Y24754D01*
G01X16344Y23555D02*
G01X16344Y21755D01*
G54D39*
G01X20177Y22230D02*
G01X18430Y22230D01*
G54D10*
G01X20231Y23555D02*
G01X20231Y21755D01*
G01X18376Y21755D01*
G01X20231Y24754D02*
G01X20231Y26029D01*
G01X18376Y26029D01*
G01X18376Y26029D02*
G01X18376Y24754D01*
G01X18376Y23555D02*
G01X18376Y21755D01*
G54D39*
G01X22209Y22230D02*
G01X20462Y22230D01*
G54D10*
G01X22263Y23555D02*
G01X22263Y21755D01*
G01X20408Y21755D01*
G01X22263Y24754D02*
G01X22263Y26029D01*
G01X20408Y26029D01*
G01X20408Y26029D02*
G01X20408Y24754D01*
G01X20408Y23555D02*
G01X20408Y21755D01*
G54D39*
G01X49143Y6461D02*
G01X49143Y4714D01*
G54D10*
G01X47818Y6515D02*
G01X49618Y6515D01*
G01X49618Y4660D01*
G01X46619Y6515D02*
G01X45344Y6515D01*
G01X45344Y4660D01*
G01X45344Y4660D02*
G01X46619Y4660D01*
G01X47818Y4660D02*
G01X49618Y4660D01*
G54D39*
G01X49143Y8747D02*
G01X49143Y7000D01*
G54D10*
G01X47818Y8801D02*
G01X49618Y8801D01*
G01X49618Y6946D01*
G01X46619Y8801D02*
G01X45344Y8801D01*
G01X45344Y6946D01*
G01X45344Y6946D02*
G01X46619Y6946D01*
G01X47818Y6946D02*
G01X49618Y6946D01*
G54D39*
G01X31099Y22230D02*
G01X29352Y22230D01*
G54D10*
G01X31153Y23555D02*
G01X31153Y21755D01*
G01X29298Y21755D01*
G01X31153Y24754D02*
G01X31153Y26029D01*
G01X29298Y26029D01*
G01X29298Y26029D02*
G01X29298Y24754D01*
G01X29298Y23555D02*
G01X29298Y21755D01*
G54D39*
G01X33131Y22230D02*
G01X31384Y22230D01*
G54D10*
G01X33185Y23555D02*
G01X33185Y21755D01*
G01X31330Y21755D01*
G01X33185Y24754D02*
G01X33185Y26029D01*
G01X31330Y26029D01*
G01X31330Y26029D02*
G01X31330Y24754D01*
G01X31330Y23555D02*
G01X31330Y21755D01*
G54D39*
G01X35163Y22230D02*
G01X33416Y22230D01*
G54D10*
G01X35217Y23555D02*
G01X35217Y21755D01*
G01X33362Y21755D01*
G01X35217Y24754D02*
G01X35217Y26029D01*
G01X33362Y26029D01*
G01X33362Y26029D02*
G01X33362Y24754D01*
G01X33362Y23555D02*
G01X33362Y21755D01*
G54D39*
G01X37195Y22230D02*
G01X35448Y22230D01*
G54D10*
G01X37249Y23555D02*
G01X37249Y21755D01*
G01X35394Y21755D01*
G01X37249Y24754D02*
G01X37249Y26029D01*
G01X35394Y26029D01*
G01X35394Y26029D02*
G01X35394Y24754D01*
G01X35394Y23555D02*
G01X35394Y21755D01*
G54D39*
G01X45577Y22230D02*
G01X43830Y22230D01*
G54D10*
G01X45631Y23555D02*
G01X45631Y21755D01*
G01X43776Y21755D01*
G01X45631Y24754D02*
G01X45631Y26029D01*
G01X43776Y26029D01*
G01X43776Y26029D02*
G01X43776Y24754D01*
G01X43776Y23555D02*
G01X43776Y21755D01*
G54D39*
G01X48879Y22230D02*
G01X47132Y22230D01*
G54D10*
G01X48933Y23555D02*
G01X48933Y21755D01*
G01X47078Y21755D01*
G01X48933Y24754D02*
G01X48933Y26029D01*
G01X47078Y26029D01*
G01X47078Y26029D02*
G01X47078Y24754D01*
G01X47078Y23555D02*
G01X47078Y21755D01*
G54D39*
G01X50911Y22230D02*
G01X49164Y22230D01*
G54D10*
G01X50965Y23555D02*
G01X50965Y21755D01*
G01X49110Y21755D01*
G01X50965Y24754D02*
G01X50965Y26029D01*
G01X49110Y26029D01*
G01X49110Y26029D02*
G01X49110Y24754D01*
G01X49110Y23555D02*
G01X49110Y21755D01*
G54D39*
G01X52943Y22230D02*
G01X51196Y22230D01*
G54D10*
G01X52997Y23555D02*
G01X52997Y21755D01*
G01X51142Y21755D01*
G01X52997Y24754D02*
G01X52997Y26029D01*
G01X51142Y26029D01*
G01X51142Y26029D02*
G01X51142Y24754D01*
G01X51142Y23555D02*
G01X51142Y21755D01*
G54D39*
G01X6461Y23754D02*
G01X4714Y23754D01*
G54D10*
G01X6515Y25079D02*
G01X6515Y23279D01*
G01X4660Y23279D01*
G01X6515Y26278D02*
G01X6515Y27553D01*
G01X4660Y27553D01*
G01X4660Y27553D02*
G01X4660Y26278D01*
G01X4660Y25079D02*
G01X4660Y23279D01*
G54D39*
G01X8239Y23751D02*
G01X6492Y23751D01*
G54D10*
G01X8293Y25077D02*
G01X8293Y23276D01*
G01X6438Y23276D01*
G01X8293Y26276D02*
G01X8293Y27551D01*
G01X6438Y27551D01*
G01X6438Y27551D02*
G01X6438Y26276D01*
G01X6438Y25077D02*
G01X6438Y23276D01*
G54D39*
G01X24244Y4701D02*
G01X22496Y4701D01*
G54D10*
G01X24297Y6027D02*
G01X24297Y4226D01*
G01X22443Y4226D01*
G01X24297Y7226D02*
G01X24297Y8501D01*
G01X22443Y8501D01*
G01X22443Y8501D02*
G01X22443Y7226D01*
G01X22443Y6027D02*
G01X22443Y4226D01*
G54D39*
G01X21955Y4701D02*
G01X20208Y4701D01*
G54D10*
G01X22009Y6027D02*
G01X22009Y4226D01*
G01X20154Y4226D01*
G01X22009Y7226D02*
G01X22009Y8501D01*
G01X20154Y8501D01*
G01X20154Y8501D02*
G01X20154Y7226D01*
G01X20154Y6027D02*
G01X20154Y4226D01*
G54D15*
G01X11684Y19304D02*
G01X9144Y19304D01*
G01X9144Y21844D01*
G01X11684Y21844D01*
G01X11684Y19939D01*
G54D40*
G01X11684Y19304D02*
G01X11684Y19939D01*
G54D39*
G01X35173Y5191D02*
G01X35173Y3444D01*
G54D10*
G01X33848Y5245D02*
G01X35648Y5245D01*
G01X35648Y3390D01*
G01X32649Y5245D02*
G01X31374Y5245D01*
G01X31374Y3390D01*
G01X31374Y3390D02*
G01X32649Y3390D01*
G01X33848Y3390D02*
G01X35648Y3390D01*
G01X10413Y9652D02*
G01X14985Y9652D01*
G01X14985Y7112D01*
G01X10159Y7112D01*
G01X10159Y9652D01*
G01X10413Y9652D01*
G01X37338Y19304D02*
G01X58166Y19304D01*
G01X58166Y9398D01*
G01X37338Y9398D01*
G01X37338Y19050D01*
G54D16*
G01X10922Y16510D02*
G01X10922Y15732D01*
G01X10972Y15575D01*
G01X11076Y15471D01*
G01X11234Y15420D01*
G01X11338Y15420D01*
G01X11493Y15471D01*
G01X11597Y15575D01*
G01X11648Y15732D01*
G01X11648Y16510D01*
G01X12044Y16250D02*
G01X12044Y16304D01*
G01X12095Y16408D01*
G01X12148Y16459D01*
G01X12252Y16510D01*
G01X12458Y16510D01*
G01X12562Y16459D01*
G01X12616Y16408D01*
G01X12666Y16304D01*
G01X12666Y16200D01*
G01X12616Y16095D01*
G01X12512Y15938D01*
G01X11991Y15420D01*
G01X12720Y15420D01*
G01X38900Y18287D02*
G01X38717Y18199D01*
G01X38536Y18016D01*
G01X38445Y17835D01*
G01X38354Y17561D01*
G01X38354Y17106D01*
G01X38445Y16835D01*
G01X38536Y16652D01*
G01X38717Y16471D01*
G01X38900Y16380D01*
G01X39263Y16380D01*
G01X39443Y16471D01*
G01X39626Y16652D01*
G01X39717Y16835D01*
G01X39809Y17106D01*
G01X39809Y17561D01*
G01X39717Y17835D01*
G01X39626Y18016D01*
G01X39443Y18199D01*
G01X39263Y18287D01*
G01X38900Y18287D01*
G01X39171Y16743D02*
G01X39717Y16197D01*
G01X59182Y30010D02*
G01X59182Y29055D01*
G01X59182Y29055D02*
G01X59728Y29055D01*
G01X60027Y30010D02*
G01X60027Y29055D01*
G01X60027Y30010D02*
G01X60617Y30010D01*
G01X60027Y29555D02*
G01X60391Y29555D01*
G01X60027Y29055D02*
G01X60617Y29055D01*
G01X60919Y30010D02*
G01X60919Y29055D01*
G01X60919Y30010D02*
G01X61236Y30010D01*
G01X61374Y29964D01*
G01X61462Y29872D01*
G01X61508Y29781D01*
G01X61554Y29646D01*
G01X61554Y29418D01*
G01X61508Y29281D01*
G01X61462Y29192D01*
G01X61374Y29100D01*
G01X61236Y29055D01*
G01X60919Y29055D01*
G01X62308Y30010D02*
G01X61854Y29372D01*
G01X62537Y29372D01*
G01X62308Y30010D02*
G01X62308Y29055D01*
G01X44196Y30010D02*
G01X44196Y29055D01*
G01X44196Y29055D02*
G01X44742Y29055D01*
G01X45041Y30010D02*
G01X45041Y29055D01*
G01X45041Y30010D02*
G01X45631Y30010D01*
G01X45041Y29555D02*
G01X45405Y29555D01*
G01X45041Y29055D02*
G01X45631Y29055D01*
G01X45933Y30010D02*
G01X45933Y29055D01*
G01X45933Y30010D02*
G01X46250Y30010D01*
G01X46388Y29964D01*
G01X46476Y29872D01*
G01X46522Y29781D01*
G01X46568Y29646D01*
G01X46568Y29418D01*
G01X46522Y29281D01*
G01X46476Y29192D01*
G01X46388Y29100D01*
G01X46250Y29055D01*
G01X45933Y29055D01*
G01X46959Y30010D02*
G01X47459Y30010D01*
G01X47188Y29646D01*
G01X47322Y29646D01*
G01X47414Y29601D01*
G01X47459Y29555D01*
G01X47505Y29418D01*
G01X47505Y29326D01*
G01X47459Y29192D01*
G01X47368Y29100D01*
G01X47231Y29055D01*
G01X47096Y29055D01*
G01X46959Y29100D01*
G01X46913Y29146D01*
G01X46868Y29237D01*
G01X29237Y30010D02*
G01X29237Y29055D01*
G01X29237Y29055D02*
G01X29784Y29055D01*
G01X30083Y30010D02*
G01X30083Y29055D01*
G01X30083Y30010D02*
G01X30673Y30010D01*
G01X30083Y29555D02*
G01X30446Y29555D01*
G01X30083Y29055D02*
G01X30673Y29055D01*
G01X30975Y30010D02*
G01X30975Y29055D01*
G01X30975Y30010D02*
G01X31292Y30010D01*
G01X31429Y29964D01*
G01X31518Y29872D01*
G01X31564Y29781D01*
G01X31610Y29646D01*
G01X31610Y29418D01*
G01X31564Y29281D01*
G01X31518Y29192D01*
G01X31429Y29100D01*
G01X31292Y29055D01*
G01X30975Y29055D01*
G01X31955Y29781D02*
G01X31955Y29827D01*
G01X32001Y29918D01*
G01X32047Y29964D01*
G01X32138Y30010D01*
G01X32318Y30010D01*
G01X32410Y29964D01*
G01X32456Y29918D01*
G01X32501Y29827D01*
G01X32501Y29735D01*
G01X32456Y29646D01*
G01X32364Y29509D01*
G01X31910Y29055D01*
G01X32547Y29055D01*
G01X14224Y30010D02*
G01X14224Y29055D01*
G01X14224Y29055D02*
G01X14770Y29055D01*
G01X15069Y30010D02*
G01X15069Y29055D01*
G01X15069Y30010D02*
G01X15659Y30010D01*
G01X15069Y29555D02*
G01X15433Y29555D01*
G01X15069Y29055D02*
G01X15659Y29055D01*
G01X15961Y30010D02*
G01X15961Y29055D01*
G01X15961Y30010D02*
G01X16278Y30010D01*
G01X16416Y29964D01*
G01X16504Y29872D01*
G01X16550Y29781D01*
G01X16596Y29646D01*
G01X16596Y29418D01*
G01X16550Y29281D01*
G01X16504Y29192D01*
G01X16416Y29100D01*
G01X16278Y29055D01*
G01X15961Y29055D01*
G01X16896Y29827D02*
G01X16987Y29872D01*
G01X17124Y30010D01*
G01X17124Y29055D01*
G01X60705Y8382D02*
G01X60705Y7292D01*
G01X60705Y8382D02*
G01X61173Y8382D01*
G01X61328Y8331D01*
G01X61381Y8280D01*
G01X61432Y8176D01*
G01X61432Y8072D01*
G01X61381Y7968D01*
G01X61328Y7914D01*
G01X61173Y7863D01*
G01X60705Y7863D01*
G01X61069Y7863D02*
G01X61432Y7292D01*
G01X61775Y8176D02*
G01X61879Y8227D01*
G01X62036Y8382D01*
G01X62036Y7292D01*
G01X62379Y8382D02*
G01X62379Y7292D01*
G01X63106Y8382D02*
G01X62379Y7655D01*
G01X62638Y7914D02*
G01X63106Y7292D01*
G01X7874Y6675D02*
G01X7965Y6720D01*
G01X8100Y6858D01*
G01X8100Y5902D01*
G01X8628Y6858D02*
G01X8491Y6812D01*
G01X8445Y6720D01*
G01X8445Y6629D01*
G01X8491Y6537D01*
G01X8582Y6494D01*
G01X8765Y6449D01*
G01X8900Y6403D01*
G01X8991Y6311D01*
G01X9037Y6220D01*
G01X9037Y6085D01*
G01X8991Y5994D01*
G01X8945Y5948D01*
G01X8811Y5902D01*
G01X8628Y5902D01*
G01X8491Y5948D01*
G01X8445Y5994D01*
G01X8402Y6085D01*
G01X8402Y6220D01*
G01X8445Y6311D01*
G01X8536Y6403D01*
G01X8674Y6449D01*
G01X8856Y6494D01*
G01X8945Y6537D01*
G01X8991Y6629D01*
G01X8991Y6720D01*
G01X8945Y6812D01*
G01X8811Y6858D01*
G01X8628Y6858D01*
G01X9611Y6858D02*
G01X9474Y6812D01*
G01X9382Y6675D01*
G01X9337Y6449D01*
G01X9337Y6311D01*
G01X9382Y6085D01*
G01X9474Y5948D01*
G01X9611Y5902D01*
G01X9700Y5902D01*
G01X9837Y5948D01*
G01X9928Y6085D01*
G01X9974Y6311D01*
G01X9974Y6449D01*
G01X9928Y6675D01*
G01X9837Y6812D01*
G01X9700Y6858D01*
G01X9611Y6858D01*
G01X7157Y5105D02*
G01X7157Y5151D01*
G01X7203Y5242D01*
G01X7249Y5288D01*
G01X7338Y5334D01*
G01X7520Y5334D01*
G01X7612Y5288D01*
G01X7658Y5242D01*
G01X7703Y5151D01*
G01X7703Y5059D01*
G01X7658Y4970D01*
G01X7566Y4833D01*
G01X7112Y4378D01*
G01X7749Y4378D01*
G01X8094Y4605D02*
G01X8049Y4561D01*
G01X8094Y4516D01*
G01X8138Y4561D01*
G01X8094Y4605D01*
G01X8483Y5105D02*
G01X8483Y5151D01*
G01X8529Y5242D01*
G01X8575Y5288D01*
G01X8666Y5334D01*
G01X8849Y5334D01*
G01X8938Y5288D01*
G01X8983Y5242D01*
G01X9029Y5151D01*
G01X9029Y5059D01*
G01X8983Y4970D01*
G01X8895Y4833D01*
G01X8440Y4378D01*
G01X9075Y4378D01*
G01X9375Y5334D02*
G01X9375Y4378D01*
G01X10012Y5334D02*
G01X9375Y4696D01*
G01X9603Y4925D02*
G01X10012Y4378D01*
G01X48006Y15494D02*
G01X48006Y14538D01*
G01X48006Y15494D02*
G01X48369Y14538D01*
G01X48732Y15494D02*
G01X48369Y14538D01*
G01X48732Y15494D02*
G01X48732Y14538D01*
G01X49260Y15173D02*
G01X49169Y15130D01*
G01X49077Y15039D01*
G01X49032Y14902D01*
G01X49032Y14810D01*
G01X49077Y14676D01*
G01X49169Y14584D01*
G01X49260Y14538D01*
G01X49397Y14538D01*
G01X49486Y14584D01*
G01X49578Y14676D01*
G01X49623Y14810D01*
G01X49623Y14902D01*
G01X49578Y15039D01*
G01X49486Y15130D01*
G01X49397Y15173D01*
G01X49260Y15173D01*
G01X50424Y15039D02*
G01X50378Y15130D01*
G01X50241Y15173D01*
G01X50106Y15173D01*
G01X49969Y15130D01*
G01X49923Y15039D01*
G01X49969Y14947D01*
G01X50060Y14902D01*
G01X50286Y14856D01*
G01X50378Y14810D01*
G01X50424Y14721D01*
G01X50424Y14676D01*
G01X50378Y14584D01*
G01X50241Y14538D01*
G01X50106Y14538D01*
G01X49969Y14584D01*
G01X49923Y14676D01*
G01X51087Y15494D02*
G01X50998Y15494D01*
G01X50906Y15448D01*
G01X50860Y15311D01*
G01X50860Y14538D01*
G01X50723Y15173D02*
G01X51041Y15173D01*
G01X51386Y14902D02*
G01X51932Y14902D01*
G01X51932Y14993D01*
G01X51887Y15085D01*
G01X51841Y15130D01*
G01X51752Y15173D01*
G01X51615Y15173D01*
G01X51523Y15130D01*
G01X51432Y15039D01*
G01X51386Y14902D01*
G01X51386Y14810D01*
G01X51432Y14676D01*
G01X51523Y14584D01*
G01X51615Y14538D01*
G01X51752Y14538D01*
G01X51841Y14584D01*
G01X51932Y14676D01*
G01X52369Y15494D02*
G01X52369Y14721D01*
G01X52415Y14584D01*
G01X52506Y14538D01*
G01X52595Y14538D01*
G01X52232Y15173D02*
G01X52552Y15173D01*
G01X24384Y15240D02*
G01X24384Y14462D01*
G01X24434Y14305D01*
G01X24538Y14201D01*
G01X24696Y14150D01*
G01X24800Y14150D01*
G01X24955Y14201D01*
G01X25059Y14305D01*
G01X25110Y14462D01*
G01X25110Y15240D01*
G01X25974Y15240D02*
G01X25453Y14513D01*
G01X26233Y14513D01*
G01X25974Y15240D02*
G01X25974Y14150D01*
G01X25908Y5080D02*
G01X25908Y4124D01*
G01X25908Y5080D02*
G01X26316Y5080D01*
G01X26454Y5034D01*
G01X26499Y4988D01*
G01X26545Y4897D01*
G01X26545Y4805D01*
G01X26499Y4716D01*
G01X26454Y4671D01*
G01X26316Y4625D01*
G01X25908Y4625D01*
G01X26225Y4625D02*
G01X26545Y4124D01*
G01X26845Y5080D02*
G01X27480Y4124D01*
G01X27480Y5080D02*
G01X26845Y4124D01*
G01X29527Y5080D02*
G01X29527Y4124D01*
G01X29210Y5080D02*
G01X29847Y5080D01*
G01X30147Y5080D02*
G01X30782Y4124D01*
G01X30782Y5080D02*
G01X30147Y4124D01*
G01X33274Y9906D02*
G01X33274Y8950D01*
G01X33274Y9906D02*
G01X33682Y9906D01*
G01X33820Y9860D01*
G01X33865Y9814D01*
G01X33911Y9723D01*
G01X33911Y9631D01*
G01X33865Y9542D01*
G01X33820Y9497D01*
G01X33682Y9451D01*
G01X33274Y9451D01*
G01X33591Y9451D02*
G01X33911Y8950D01*
G01X34846Y9768D02*
G01X34754Y9860D01*
G01X34620Y9906D01*
G01X34437Y9906D01*
G01X34300Y9860D01*
G01X34211Y9768D01*
G01X34211Y9677D01*
G01X34256Y9585D01*
G01X34300Y9542D01*
G01X34391Y9497D01*
G01X34665Y9405D01*
G01X34754Y9359D01*
G01X34800Y9314D01*
G01X34846Y9222D01*
G01X34846Y9088D01*
G01X34754Y8996D01*
G01X34620Y8950D01*
G01X34437Y8950D01*
G01X34300Y8996D01*
G01X34211Y9088D01*
G01X35466Y9906D02*
G01X35466Y8950D01*
G01X35145Y9906D02*
G01X35783Y9906D01*
G01X42336Y5359D02*
G01X42293Y5450D01*
G01X42202Y5542D01*
G01X42110Y5588D01*
G01X41927Y5588D01*
G01X41838Y5542D01*
G01X41747Y5450D01*
G01X41701Y5359D01*
G01X41656Y5224D01*
G01X41656Y4996D01*
G01X41701Y4859D01*
G01X41747Y4770D01*
G01X41838Y4678D01*
G01X41927Y4632D01*
G01X42110Y4632D01*
G01X42202Y4678D01*
G01X42293Y4770D01*
G01X42336Y4859D01*
G01X42336Y4996D01*
G01X42110Y4996D02*
G01X42336Y4996D01*
G01X42638Y5588D02*
G01X42638Y4632D01*
G01X42638Y5588D02*
G01X43273Y4632D01*
G01X43273Y5588D02*
G01X43273Y4632D01*
G01X43573Y5588D02*
G01X43573Y4632D01*
G01X43573Y5588D02*
G01X43891Y5588D01*
G01X44028Y5542D01*
G01X44119Y5450D01*
G01X44165Y5359D01*
G01X44211Y5224D01*
G01X44211Y4996D01*
G01X44165Y4859D01*
G01X44119Y4770D01*
G01X44028Y4678D01*
G01X43891Y4632D01*
G01X43573Y4632D01*
G01X17386Y5334D02*
G01X16868Y5334D01*
G01X16814Y4866D01*
G01X16868Y4919D01*
G01X17023Y4970D01*
G01X17180Y4970D01*
G01X17335Y4919D01*
G01X17439Y4815D01*
G01X17490Y4660D01*
G01X17490Y4556D01*
G01X17439Y4399D01*
G01X17335Y4295D01*
G01X17180Y4244D01*
G01X17023Y4244D01*
G01X16868Y4295D01*
G01X16814Y4348D01*
G01X16764Y4452D01*
G01X17833Y5334D02*
G01X18249Y4244D01*
G01X18666Y5334D02*
G01X18249Y4244D01*
G01X15422Y26776D02*
G01X15377Y26868D01*
G01X15240Y27002D01*
G01X16195Y27002D01*
G01X15240Y27304D02*
G01X16195Y27304D01*
G01X15240Y27939D02*
G01X15877Y27304D01*
G01X15648Y27531D02*
G01X16195Y27939D01*
G01X17454Y26776D02*
G01X17409Y26868D01*
G01X17271Y27002D01*
G01X18227Y27002D01*
G01X17271Y27304D02*
G01X18227Y27304D01*
G01X17271Y27939D02*
G01X17909Y27304D01*
G01X17680Y27531D02*
G01X18227Y27939D01*
G01X19486Y26776D02*
G01X19441Y26868D01*
G01X19303Y27002D01*
G01X20259Y27002D01*
G01X19303Y27304D02*
G01X20259Y27304D01*
G01X19303Y27939D02*
G01X19941Y27304D01*
G01X19712Y27531D02*
G01X20259Y27939D01*
G01X21518Y26776D02*
G01X21473Y26868D01*
G01X21335Y27002D01*
G01X22291Y27002D01*
G01X21335Y27304D02*
G01X22291Y27304D01*
G01X21335Y27939D02*
G01X21973Y27304D01*
G01X21744Y27531D02*
G01X22291Y27939D01*
G01X45974Y4102D02*
G01X45974Y3147D01*
G01X45974Y4102D02*
G01X46382Y4102D01*
G01X46520Y4056D01*
G01X46565Y4010D01*
G01X46611Y3919D01*
G01X46611Y3782D01*
G01X46565Y3693D01*
G01X46520Y3647D01*
G01X46382Y3601D01*
G01X45974Y3601D01*
G01X46911Y4102D02*
G01X47137Y3147D01*
G01X47365Y4102D02*
G01X47137Y3147D01*
G01X47365Y4102D02*
G01X47591Y3147D01*
G01X47820Y4102D02*
G01X47591Y3147D01*
G01X48120Y4102D02*
G01X48120Y3147D01*
G01X48120Y4102D02*
G01X48529Y4102D01*
G01X48663Y4056D01*
G01X48709Y4010D01*
G01X48755Y3919D01*
G01X48755Y3827D01*
G01X48709Y3738D01*
G01X48663Y3693D01*
G01X48529Y3647D01*
G01X48120Y3647D01*
G01X48437Y3647D02*
G01X48755Y3147D01*
G01X46228Y10668D02*
G01X46228Y9712D01*
G01X46228Y10668D02*
G01X46636Y10668D01*
G01X46774Y10622D01*
G01X46819Y10576D01*
G01X46865Y10485D01*
G01X46865Y10393D01*
G01X46819Y10304D01*
G01X46774Y10259D01*
G01X46636Y10213D01*
G01X46228Y10213D01*
G01X46545Y10213D02*
G01X46865Y9712D01*
G01X47165Y10485D02*
G01X47254Y10530D01*
G01X47391Y10668D01*
G01X47391Y9712D01*
G01X47691Y10668D02*
G01X47691Y9712D01*
G01X48328Y10668D02*
G01X47691Y10030D01*
G01X47919Y10259D02*
G01X48328Y9712D01*
G01X30408Y26776D02*
G01X30363Y26868D01*
G01X30225Y27002D01*
G01X31181Y27002D01*
G01X30225Y27304D02*
G01X31181Y27304D01*
G01X30225Y27939D02*
G01X30863Y27304D01*
G01X30634Y27531D02*
G01X31181Y27939D01*
G01X32440Y26776D02*
G01X32395Y26868D01*
G01X32257Y27002D01*
G01X33213Y27002D01*
G01X32257Y27304D02*
G01X33213Y27304D01*
G01X32257Y27939D02*
G01X32895Y27304D01*
G01X32666Y27531D02*
G01X33213Y27939D01*
G01X34472Y26776D02*
G01X34427Y26868D01*
G01X34289Y27002D01*
G01X35245Y27002D01*
G01X34289Y27304D02*
G01X35245Y27304D01*
G01X34289Y27939D02*
G01X34927Y27304D01*
G01X34698Y27531D02*
G01X35245Y27939D01*
G01X36504Y26776D02*
G01X36459Y26868D01*
G01X36321Y27002D01*
G01X37277Y27002D01*
G01X36321Y27304D02*
G01X37277Y27304D01*
G01X36321Y27939D02*
G01X36959Y27304D01*
G01X36730Y27531D02*
G01X37277Y27939D01*
G01X44886Y26776D02*
G01X44841Y26868D01*
G01X44703Y27002D01*
G01X45659Y27002D01*
G01X44703Y27304D02*
G01X45659Y27304D01*
G01X44703Y27939D02*
G01X45341Y27304D01*
G01X45112Y27531D02*
G01X45659Y27939D01*
G01X48188Y26776D02*
G01X48143Y26868D01*
G01X48005Y27002D01*
G01X48961Y27002D01*
G01X48005Y27304D02*
G01X48961Y27304D01*
G01X48005Y27939D02*
G01X48643Y27304D01*
G01X48414Y27531D02*
G01X48961Y27939D01*
G01X50220Y26776D02*
G01X50175Y26868D01*
G01X50037Y27002D01*
G01X50993Y27002D01*
G01X50037Y27304D02*
G01X50993Y27304D01*
G01X50037Y27939D02*
G01X50675Y27304D01*
G01X50446Y27531D02*
G01X50993Y27939D01*
G01X52252Y26776D02*
G01X52207Y26868D01*
G01X52069Y27002D01*
G01X53025Y27002D01*
G01X52069Y27304D02*
G01X53025Y27304D01*
G01X52069Y27939D02*
G01X52707Y27304D01*
G01X52478Y27531D02*
G01X53025Y27939D01*
G01X6522Y28981D02*
G01X6479Y29072D01*
G01X6388Y29164D01*
G01X6296Y29210D01*
G01X6113Y29210D01*
G01X6024Y29164D01*
G01X5933Y29072D01*
G01X5887Y28981D01*
G01X5842Y28846D01*
G01X5842Y28618D01*
G01X5887Y28481D01*
G01X5933Y28392D01*
G01X6024Y28300D01*
G01X6113Y28254D01*
G01X6296Y28254D01*
G01X6388Y28300D01*
G01X6479Y28392D01*
G01X6522Y28481D01*
G01X6522Y28981D02*
G01X6479Y29072D01*
G01X6388Y29164D01*
G01X6296Y29210D01*
G01X6113Y29210D01*
G01X6024Y29164D01*
G01X5933Y29072D01*
G01X5887Y28981D01*
G01X5842Y28846D01*
G01X5842Y28618D01*
G01X5887Y28481D01*
G01X5933Y28392D01*
G01X6024Y28300D01*
G01X6113Y28254D01*
G01X6296Y28254D01*
G01X6388Y28300D01*
G01X6479Y28392D01*
G01X6522Y28481D01*
G01X22606Y3556D02*
G01X22606Y2600D01*
G01X22606Y3556D02*
G01X22923Y3556D01*
G01X23060Y3510D01*
G01X23152Y3418D01*
G01X23197Y3327D01*
G01X23243Y3192D01*
G01X23243Y2964D01*
G01X23197Y2827D01*
G01X23152Y2738D01*
G01X23060Y2646D01*
G01X22923Y2600D01*
G01X22606Y2600D01*
G01X23588Y3327D02*
G01X23588Y3373D01*
G01X23632Y3464D01*
G01X23677Y3510D01*
G01X23769Y3556D01*
G01X23952Y3556D01*
G01X24041Y3510D01*
G01X24086Y3464D01*
G01X24132Y3373D01*
G01X24132Y3281D01*
G01X24086Y3192D01*
G01X23997Y3055D01*
G01X23543Y2600D01*
G01X24178Y2600D01*
G01X20320Y3482D02*
G01X20320Y2527D01*
G01X20320Y3482D02*
G01X20637Y3482D01*
G01X20774Y3436D01*
G01X20866Y3345D01*
G01X20911Y3253D01*
G01X20957Y3119D01*
G01X20957Y2890D01*
G01X20911Y2753D01*
G01X20866Y2664D01*
G01X20774Y2573D01*
G01X20637Y2527D01*
G01X20320Y2527D01*
G01X21257Y3299D02*
G01X21346Y3345D01*
G01X21483Y3482D01*
G01X21483Y2527D01*
G01X36322Y4645D02*
G01X36413Y4691D01*
G01X36548Y4828D01*
G01X36548Y3873D01*
G01X36850Y4828D02*
G01X36850Y3873D01*
G01X37485Y4828D02*
G01X36850Y4191D01*
G01X37076Y4419D02*
G01X37485Y3873D01*
G01X8907Y8630D02*
G01X8854Y8735D01*
G01X8752Y8839D01*
G01X8648Y8890D01*
G01X8440Y8890D01*
G01X8336Y8839D01*
G01X8232Y8735D01*
G01X8181Y8630D01*
G01X8128Y8475D01*
G01X8128Y8216D01*
G01X8181Y8059D01*
G01X8232Y7955D01*
G01X8336Y7851D01*
G01X8440Y7800D01*
G01X8648Y7800D01*
G01X8752Y7851D01*
G01X8854Y7955D01*
G01X8907Y8059D01*
G01X13068Y21082D02*
G01X12550Y21082D01*
G01X12496Y20614D01*
G01X12550Y20667D01*
G01X12705Y20718D01*
G01X12862Y20718D01*
G01X13017Y20667D01*
G01X13121Y20563D01*
G01X13172Y20408D01*
G01X13172Y20304D01*
G01X13121Y20147D01*
G01X13017Y20043D01*
G01X12862Y19992D01*
G01X12705Y19992D01*
G01X12550Y20043D01*
G01X12496Y20096D01*
G01X12446Y20200D01*
G01X13515Y21082D02*
G01X13931Y19992D01*
G01X14348Y21082D02*
G01X13931Y19992D01*
G54D17*
G01X56052Y7391D02*
G01X56009Y7482D01*
G01X55918Y7574D01*
G01X55826Y7620D01*
G01X55643Y7620D01*
G01X55554Y7574D01*
G01X55463Y7482D01*
G01X55417Y7391D01*
G01X55372Y7256D01*
G01X55372Y7028D01*
G01X55417Y6891D01*
G01X55463Y6802D01*
G01X55554Y6710D01*
G01X55643Y6664D01*
G01X55826Y6664D01*
G01X55918Y6710D01*
G01X56009Y6802D01*
G01X56052Y6891D01*
G01X56052Y7028D01*
G01X55826Y7028D02*
G01X56052Y7028D01*
G01X56354Y7620D02*
G01X56354Y6664D01*
G01X56354Y7620D02*
G01X56989Y6664D01*
G01X56989Y7620D02*
G01X56989Y6664D01*
G01X57289Y7620D02*
G01X57289Y6664D01*
G01X57289Y7620D02*
G01X57607Y7620D01*
G01X57744Y7574D01*
G01X57835Y7482D01*
G01X57881Y7391D01*
G01X57927Y7256D01*
G01X57927Y7028D01*
G01X57881Y6891D01*
G01X57835Y6802D01*
G01X57744Y6710D01*
G01X57607Y6664D01*
G01X57289Y6664D01*
G01X66294Y7874D02*
G01X66294Y6918D01*
G01X66294Y7874D02*
G01X66657Y6918D01*
G01X67020Y7874D02*
G01X66657Y6918D01*
G01X67020Y7874D02*
G01X67020Y6918D01*
G01X67957Y7736D02*
G01X67866Y7828D01*
G01X67729Y7874D01*
G01X67548Y7874D01*
G01X67411Y7828D01*
G01X67320Y7736D01*
G01X67320Y7645D01*
G01X67365Y7553D01*
G01X67411Y7510D01*
G01X67503Y7465D01*
G01X67774Y7373D01*
G01X67866Y7327D01*
G01X67911Y7282D01*
G01X67957Y7190D01*
G01X67957Y7056D01*
G01X67866Y6964D01*
G01X67729Y6918D01*
G01X67548Y6918D01*
G01X67411Y6964D01*
G01X67320Y7056D01*
G01X68257Y7874D02*
G01X68257Y6918D01*
G01X68257Y7874D02*
G01X68849Y7874D01*
G01X68257Y7419D02*
G01X68620Y7419D01*
G01X69466Y7874D02*
G01X69466Y6918D01*
G01X69148Y7874D02*
G01X69783Y7874D01*
G54D16*
G01X68580Y32257D02*
G01X68580Y31168D01*
G01X68580Y32257D02*
G01X69047Y32257D01*
G01X69202Y32207D01*
G01X69255Y32156D01*
G01X69306Y32052D01*
G01X69306Y31894D01*
G01X69255Y31790D01*
G01X69202Y31739D01*
G01X69047Y31686D01*
G01X68580Y31686D01*
G01X69649Y32257D02*
G01X69910Y31168D01*
G01X70170Y32257D02*
G01X69910Y31168D01*
G01X70170Y32257D02*
G01X70429Y31168D01*
G01X70688Y32257D02*
G01X70429Y31168D01*
G01X71031Y32257D02*
G01X71031Y31168D01*
G01X71031Y32257D02*
G01X71501Y32257D01*
G01X71655Y32207D01*
G01X71706Y32156D01*
G01X71760Y32052D01*
G01X71760Y31948D01*
G01X71706Y31843D01*
G01X71655Y31790D01*
G01X71501Y31739D01*
G01X71031Y31739D01*
G01X71396Y31739D02*
G01X71760Y31168D01*
G01X72415Y32257D02*
G01X72311Y32207D01*
G01X72207Y32103D01*
G01X72153Y31998D01*
G01X72102Y31843D01*
G01X72102Y31584D01*
G01X72153Y31427D01*
G01X72207Y31323D01*
G01X72311Y31219D01*
G01X72415Y31168D01*
G01X72621Y31168D01*
G01X72725Y31219D01*
G01X72829Y31323D01*
G01X72882Y31427D01*
G01X72933Y31584D01*
G01X72933Y31843D01*
G01X72882Y31998D01*
G01X72829Y32103D01*
G01X72725Y32207D01*
G01X72621Y32257D01*
G01X72415Y32257D01*
G01X73276Y32257D02*
G01X73276Y31168D01*
G01X73276Y32257D02*
G01X74002Y31168D01*
G01X74002Y32257D02*
G01X74002Y31168D01*
G01X48006Y14224D02*
G01X48006Y13268D01*
G01X48643Y14224D02*
G01X48643Y13268D01*
G01X48006Y13769D02*
G01X48643Y13769D01*
G01X48943Y13632D02*
G01X49486Y13632D01*
G01X49486Y13723D01*
G01X49441Y13815D01*
G01X49397Y13860D01*
G01X49306Y13903D01*
G01X49169Y13903D01*
G01X49077Y13860D01*
G01X48988Y13769D01*
G01X48943Y13632D01*
G01X48943Y13540D01*
G01X48988Y13406D01*
G01X49077Y13314D01*
G01X49169Y13268D01*
G01X49306Y13268D01*
G01X49397Y13314D01*
G01X49486Y13406D01*
G01X49789Y13903D02*
G01X49789Y13268D01*
G01X49789Y13632D02*
G01X49832Y13769D01*
G01X49923Y13860D01*
G01X50015Y13903D01*
G01X50152Y13903D01*
G01X50452Y13632D02*
G01X50998Y13632D01*
G01X50998Y13723D01*
G01X50952Y13815D01*
G01X50906Y13860D01*
G01X50815Y13903D01*
G01X50678Y13903D01*
G01X50586Y13860D01*
G01X50497Y13769D01*
G01X50452Y13632D01*
G01X50452Y13540D01*
G01X50497Y13406D01*
G01X50586Y13314D01*
G01X50678Y13268D01*
G01X50815Y13268D01*
G01X50906Y13314D01*
G01X50998Y13406D01*
G54D11*
G75*
G01X57097Y18397D02*
G3X57097Y18395I-200J-1D01*
G01*
G54D41*
G75*
G01X29550Y11031D02*
G3X29550Y11034I150J1D01*
G01*
G54D11*
G75*
G01X27399Y12532D02*
G3X27399Y12535I200J1D01*
G01*
G54D10*
G75*
G01X59129Y31032D02*
G03X59129Y31032I-300J0D01*
G01*
G75*
G01X44143Y31032D02*
G03X44143Y31032I-300J0D01*
G01*
G75*
G01X29157Y31032D02*
G03X29157Y31032I-300J0D01*
G01*
G75*
G01X14171Y31032D02*
G03X14171Y31032I-300J0D01*
G01*
G36*
G01X35814Y8636D02*
G01X39624Y8636D01*
G01X39624Y5334D01*
G01X35814Y5334D01*
G01X35814Y8636D01*
G37*
M00*
M02*
