;PTH Drill file created by EasyEDA 
M48
METRIC,LZ,000.000
;Holesize 1 = 0.501 METRIC
T01C0.501
;Holesize 2 = 0.889 METRIC
T02C0.889
;Holesize 3 = 1.301 METRIC
T03C1.301
%
G05
G90
T01
X067818Y022352
X017780Y014478
X017780Y012192
X068326Y011684
X018542Y009906
X016256Y003556
T02
X026670Y007112
X029972Y007112
X034290Y007112
X041148Y007112
X017780Y007112
X003556Y018034
X005080Y018034
X002032Y018034
X003556Y016510
X005080Y016510
X002032Y016510
X003556Y019558
X005080Y019558
X002032Y019558
X003556Y010414
X005080Y010414
X002032Y010414
X003556Y008890
X005080Y008890
X002032Y008890
X003556Y011938
X005080Y011938
X002032Y011938
X073914Y010922
X075438Y010922
X072390Y010922
X073914Y009398
X075438Y009398
X072390Y009398
X073914Y012446
X075438Y012446
X072390Y012446
X073914Y018034
X075438Y018034
X072390Y018034
X073914Y016510
X075438Y016510
X072390Y016510
X073914Y019558
X075438Y019558
X072390Y019558
T03
X056896Y016637
X056896Y011557
X056896Y014097
M30
